<svg width="351" height="329" viewBox="0 0 351 329" fill="none" xmlns="http://www.w3.org/2000/svg">
<path d="M175.402 123.673C198.608 123.673 217.42 123.142 217.42 122.487C217.42 121.831 198.608 121.3 175.402 121.3C152.197 121.3 133.385 121.831 133.385 122.487C133.385 123.142 152.197 123.673 175.402 123.673Z" fill="#D8DFEA"/>
<path d="M230.169 12.2095V23.7407C230.169 42.4685 214.99 57.6557 196.272 57.6557H191.526L196.794 52.2224C212.258 51.9443 224.745 39.2738 224.745 23.7407V14.9229H204.407L205.085 9.49658H227.457C228.955 9.4961 230.169 10.7104 230.169 12.2095Z" fill="#E8A615"/>
<path d="M192.881 90.3287V96.318H157.629V90.3287C157.629 89.8404 157.893 89.3858 158.32 89.1485L160.991 87.6427C165.615 85.0382 168.476 80.1476 168.476 74.8364V68.5078H182.034V74.8364C182.034 80.1474 184.895 85.0379 189.519 87.6427L192.19 89.1485C192.617 89.3858 192.881 89.8404 192.881 90.3287Z" fill="#E8A615"/>
<path d="M192.881 90.3287V96.318H189.492V90.3287C189.492 89.8404 189.227 89.3858 188.8 89.1485L186.129 87.6427C181.506 85.0382 178.645 80.1476 178.645 74.8364V68.5078H182.035V74.8364C182.035 80.1474 184.896 85.0379 189.519 87.6427L192.19 89.1485C192.617 89.3858 192.881 89.8404 192.881 90.3287Z" fill="#B7791D"/>
<path d="M186.101 63.2173V67.1514C186.101 69.0235 184.583 70.5429 182.711 70.5429H167.797C165.926 70.5429 164.407 69.0235 164.407 67.1514V63.2173H186.101Z" fill="#E8A615"/>
<path d="M182.035 70.5425H168.476V72.5368H182.035V70.5425Z" fill="#B7791D"/>
<path d="M198.304 94.9616V118.702H152.205V94.9616C152.205 94.2155 152.815 93.605 153.56 93.605H196.948C197.694 93.605 198.304 94.2155 198.304 94.9616Z" fill="#343B49"/>
<path d="M198.304 94.9616V118.702H195.593V94.9616C195.593 94.2155 194.982 93.605 194.237 93.605H196.949C197.694 93.605 198.304 94.2155 198.304 94.9616Z" fill="#262D38"/>
<path d="M202.373 118.024V120.737C202.373 121.483 201.762 122.093 201.017 122.093H149.494C148.748 122.093 148.138 121.483 148.138 120.737V118.024C148.138 117.277 148.748 116.667 149.494 116.667H201.017C201.763 116.667 202.373 117.277 202.373 118.024Z" fill="#262D38"/>
<path d="M202.373 118.024V120.737C202.373 121.483 201.762 122.094 201.017 122.094H198.305C199.05 122.094 199.661 121.483 199.661 120.737V118.024C199.661 117.278 199.05 116.667 198.305 116.667H201.017C201.763 116.667 202.373 117.278 202.373 118.024Z" fill="#171C23"/>
<path d="M191.525 100.387V109.883C191.525 110.63 190.914 111.24 190.169 111.24H160.34C159.594 111.24 158.984 110.63 158.984 109.883V100.387C158.984 99.6412 159.594 99.0308 160.34 99.0308H190.169C190.915 99.0308 191.525 99.6412 191.525 100.387Z" fill="#E8A615"/>
<path d="M186.103 63.2173V67.1517C186.103 69.0239 184.585 70.5435 182.713 70.5435H180.001C181.872 70.5435 183.391 69.0239 183.391 67.1517V63.2173H186.103Z" fill="#B7791D"/>
<path d="M161.018 57.6552H154.239C135.522 57.6552 120.343 42.468 120.343 23.7402V12.2093C120.343 10.7101 121.556 9.49609 123.054 9.49609H145.426V14.9224H125.766V23.7402C125.766 39.2733 138.254 51.9438 153.717 52.2219L161.018 57.6552Z" fill="#E8A615"/>
<path d="M208.473 4.06982V6.78299C208.473 39.7482 193.599 66.4733 175.254 66.4733C156.91 66.4733 142.036 39.7485 142.036 6.78299V4.06982H208.473Z" fill="#E8A615"/>
<path d="M142.342 14.9229H139.63C139.495 13.1388 139.406 11.3277 139.359 9.49609H142.071C142.118 11.3275 142.206 13.1388 142.342 14.9229Z" fill="#B7791D"/>
<path d="M157.872 57.6553H155.16C153.649 55.9866 152.211 54.1008 150.875 52.0249C151.811 52.1402 152.753 52.2013 153.716 52.2216C155.018 54.2228 156.408 56.0408 157.872 57.6553Z" fill="#B7791D"/>
<path d="M186.102 63.2173V64.5739C182.699 66.6835 179.051 67.8297 175.255 67.8297C171.459 67.8297 167.811 66.6835 164.408 64.5739V63.2173C167.811 65.3269 171.459 66.4731 175.255 66.4731C179.051 66.4731 182.699 65.3269 186.102 63.2173Z" fill="#B7791D"/>
<path d="M208.474 4.06982V6.78299C208.474 38.7173 194.515 64.798 176.964 66.3988C194.02 64.7777 200.339 38.7039 200.339 6.78299V4.06982H208.474Z" fill="#B7791D"/>
<path d="M211.864 3.39145C211.864 4.32759 211.485 5.1754 210.874 5.79257C210.257 6.40305 209.41 6.78291 208.474 6.78291H142.037C140.166 6.78291 138.647 5.2635 138.647 3.39145C138.647 2.45531 139.027 1.60751 139.637 0.990337C140.254 0.379852 141.101 0 142.037 0H208.475C210.346 0 211.864 1.51941 211.864 3.39145Z" fill="#E8A615"/>
<path d="M208.473 6.78271C208.473 7.69164 208.46 8.59388 208.439 9.49588H142.07C142.049 8.59364 142.036 7.69164 142.036 6.78271H208.473Z" fill="#B7791D"/>
<path d="M211.864 3.39173C211.864 4.32795 211.485 5.17583 210.874 5.79305C210.257 6.40358 209.41 6.78347 208.474 6.78347H201.016C201.952 6.78347 202.799 6.40358 203.416 5.79305C204.027 5.17583 204.406 4.32771 204.406 3.39173C204.406 1.51954 202.888 0 201.016 0H208.474C210.346 0 211.864 1.51954 211.864 3.39173Z" fill="#B7791D"/>
<path d="M191.525 100.388V109.884C191.525 110.63 190.915 111.24 190.169 111.24H163.255C168.733 111.132 186.779 109.965 186.779 99.0308H190.169C190.915 99.031 191.525 99.6415 191.525 100.388Z" fill="#B7791D"/>
<path d="M160.341 106.493V100.943C160.341 100.636 160.59 100.388 160.896 100.388H173.053C173.053 100.388 163.392 101.406 160.341 106.493Z" fill="#FFCC66"/>
<path d="M153.73 101.067V95.5173C153.73 95.2107 153.979 94.9624 154.285 94.9624H166.442C166.442 94.9624 156.781 95.9797 153.73 101.067Z" fill="#4E5868"/>
<path d="M175.254 64.4381C167.892 64.4381 147.473 48.8983 144.998 12.209H153.052C155.079 57.0989 175.254 64.4381 175.254 64.4381Z" fill="#FFCC66"/>
<path d="M161.019 90.8924C161.019 90.8924 170.51 84.7877 170.51 75.9697V90.8924H161.019Z" fill="#FFCC66"/>
<path d="M143.393 1.35645V3.39149H140.002C140.002 2.27213 140.911 1.35645 142.037 1.35645H143.393Z" fill="#FFCC66"/>
<path d="M210.475 9.49609C210.427 11.3277 210.339 13.1388 210.197 14.9229H204.407L205.085 9.49609H210.475Z" fill="#B7791D"/>
<path d="M198.91 52.1069C197.581 54.1487 196.164 56.0075 194.672 57.656H191.526L193.926 55.1868L196.794 52.2225C197.506 52.2087 198.211 52.1681 198.91 52.1069Z" fill="#B7791D"/>
<path d="M138.578 153.438V141.298H143.593C144.502 141.298 145.287 141.462 145.947 141.79C146.61 142.114 147.122 142.581 147.482 143.189C147.841 143.794 148.021 144.511 148.021 145.341C148.021 146.183 147.838 146.898 147.47 147.487C147.102 148.072 146.581 148.518 145.905 148.827C145.229 149.131 144.429 149.283 143.504 149.283H140.333V146.971H142.959C143.402 146.971 143.771 146.914 144.067 146.799C144.368 146.681 144.595 146.503 144.749 146.266C144.903 146.025 144.98 145.716 144.98 145.341C144.98 144.966 144.903 144.655 144.749 144.41C144.595 144.161 144.368 143.976 144.067 143.853C143.767 143.727 143.398 143.663 142.959 143.663H141.512V153.438H138.578ZM145.413 147.89L148.436 153.438H145.235L142.271 147.89H145.413ZM157.58 147.113L154.918 147.185C154.891 146.995 154.816 146.827 154.693 146.681C154.571 146.531 154.411 146.414 154.213 146.331C154.019 146.244 153.794 146.201 153.537 146.201C153.201 146.201 152.915 146.268 152.678 146.402C152.444 146.536 152.33 146.718 152.334 146.947C152.33 147.125 152.401 147.279 152.547 147.41C152.697 147.54 152.964 147.645 153.348 147.724L155.102 148.056C156.011 148.23 156.687 148.518 157.129 148.921C157.576 149.325 157.801 149.858 157.805 150.522C157.801 151.146 157.616 151.69 157.248 152.152C156.884 152.615 156.387 152.974 155.754 153.231C155.122 153.484 154.399 153.61 153.585 153.61C152.284 153.61 151.259 153.344 150.508 152.81C149.761 152.273 149.334 151.553 149.228 150.652L152.091 150.581C152.154 150.913 152.318 151.166 152.583 151.34C152.848 151.514 153.185 151.601 153.596 151.601C153.968 151.601 154.27 151.532 154.503 151.393C154.737 151.255 154.855 151.071 154.859 150.842C154.855 150.637 154.764 150.473 154.586 150.35C154.409 150.224 154.13 150.125 153.751 150.054L152.162 149.751C151.249 149.585 150.569 149.279 150.123 148.833C149.676 148.382 149.455 147.809 149.459 147.113C149.455 146.505 149.617 145.985 149.945 145.554C150.273 145.12 150.739 144.788 151.344 144.559C151.949 144.329 152.662 144.215 153.484 144.215C154.717 144.215 155.689 144.474 156.4 144.991C157.112 145.505 157.505 146.212 157.58 147.113ZM160.863 153.61C160.436 153.61 160.07 153.46 159.766 153.16C159.466 152.86 159.317 152.496 159.321 152.069C159.317 151.65 159.466 151.293 159.766 150.996C160.07 150.696 160.436 150.546 160.863 150.546C161.266 150.546 161.621 150.696 161.93 150.996C162.242 151.293 162.4 151.65 162.404 152.069C162.4 152.354 162.325 152.613 162.179 152.846C162.036 153.079 161.849 153.265 161.615 153.403C161.386 153.541 161.135 153.61 160.863 153.61ZM167.631 153.438L172.527 143.74V143.663H166.801V141.298H175.562V143.681L170.648 153.438H167.631ZM181.933 153.735C180.874 153.735 179.961 153.484 179.195 152.982C178.428 152.476 177.837 151.751 177.422 150.806C177.007 149.858 176.802 148.718 176.806 147.386C176.81 146.054 177.017 144.924 177.428 143.995C177.843 143.063 178.432 142.353 179.195 141.867C179.961 141.377 180.874 141.132 181.933 141.132C182.992 141.132 183.905 141.377 184.672 141.867C185.443 142.353 186.035 143.063 186.45 143.995C186.865 144.928 187.071 146.058 187.067 147.386C187.067 148.722 186.859 149.864 186.444 150.812C186.029 151.761 185.439 152.486 184.672 152.988C183.909 153.486 182.996 153.735 181.933 153.735ZM181.933 151.334C182.566 151.334 183.077 151.012 183.469 150.368C183.86 149.72 184.053 148.726 184.049 147.386C184.049 146.509 183.961 145.786 183.783 145.217C183.605 144.643 183.358 144.217 183.042 143.936C182.726 143.655 182.356 143.515 181.933 143.515C181.305 143.515 180.797 143.833 180.41 144.47C180.022 145.102 179.827 146.074 179.823 147.386C179.819 148.275 179.904 149.012 180.078 149.597C180.256 150.182 180.505 150.619 180.825 150.907C181.145 151.192 181.514 151.334 181.933 151.334ZM193.768 153.735C192.709 153.735 191.796 153.484 191.03 152.982C190.263 152.476 189.672 151.751 189.257 150.806C188.842 149.858 188.637 148.718 188.641 147.386C188.645 146.054 188.852 144.924 189.263 143.995C189.678 143.063 190.267 142.353 191.03 141.867C191.796 141.377 192.709 141.132 193.768 141.132C194.827 141.132 195.74 141.377 196.507 141.867C197.278 142.353 197.87 143.063 198.285 143.995C198.7 144.928 198.906 146.058 198.902 147.386C198.902 148.722 198.694 149.864 198.279 150.812C197.864 151.761 197.274 152.486 196.507 152.988C195.744 153.486 194.831 153.735 193.768 153.735ZM193.768 151.334C194.401 151.334 194.912 151.012 195.304 150.368C195.695 149.72 195.888 148.726 195.885 147.386C195.885 146.509 195.796 145.786 195.618 145.217C195.44 144.643 195.193 144.217 194.877 143.936C194.561 143.655 194.191 143.515 193.768 143.515C193.14 143.515 192.632 143.833 192.245 144.47C191.858 145.102 191.662 146.074 191.658 147.386C191.654 148.275 191.739 149.012 191.913 149.597C192.091 150.182 192.34 150.619 192.66 150.907C192.98 151.192 193.349 151.334 193.768 151.334ZM205.603 153.735C204.544 153.735 203.631 153.484 202.865 152.982C202.098 152.476 201.507 151.751 201.092 150.806C200.677 149.858 200.472 148.718 200.476 147.386C200.48 146.054 200.687 144.924 201.098 143.995C201.513 143.063 202.102 142.353 202.865 141.867C203.631 141.377 204.544 141.132 205.603 141.132C206.662 141.132 207.575 141.377 208.342 141.867C209.113 142.353 209.705 143.063 210.12 143.995C210.535 144.928 210.741 146.058 210.737 147.386C210.737 148.722 210.529 149.864 210.114 150.812C209.699 151.761 209.109 152.486 208.342 152.988C207.579 153.486 206.666 153.735 205.603 153.735ZM205.603 151.334C206.236 151.334 206.747 151.012 207.139 150.368C207.53 149.72 207.723 148.726 207.72 147.386C207.72 146.509 207.631 145.786 207.453 145.217C207.275 144.643 207.028 144.217 206.712 143.936C206.396 143.655 206.026 143.515 205.603 143.515C204.975 143.515 204.467 143.833 204.08 144.47C203.693 145.102 203.497 146.074 203.493 147.386C203.489 148.275 203.574 149.012 203.748 149.597C203.926 150.182 204.175 150.619 204.495 150.907C204.815 151.192 205.184 151.334 205.603 151.334Z" fill="#FFB800"/>
<path d="M55.0597 292.235C78.2652 292.235 97.077 291.704 97.077 291.049C97.077 290.393 78.2652 289.862 55.0597 289.862C31.8542 289.862 13.0425 290.393 13.0425 291.049C13.0425 291.704 31.8542 292.235 55.0597 292.235Z" fill="#D8DFEA"/>
<path d="M109.826 180.771V192.302C109.826 211.03 94.6468 226.217 75.9292 226.217H71.1836L76.4511 220.784C91.9148 220.506 104.402 207.835 104.402 192.302V183.484H84.0644L84.7425 178.058H107.114C108.612 178.058 109.826 179.272 109.826 180.771Z" fill="#BBB4A4"/>
<path d="M72.5393 258.891V264.88H37.2869V258.891C37.2869 258.402 37.5512 257.948 37.9783 257.711L40.6494 256.205C45.2728 253.6 48.1338 248.71 48.1338 243.398V237.07H61.6924V243.398C61.6924 248.709 64.5534 253.6 69.1768 256.205L71.8479 257.711C72.275 257.948 72.5393 258.402 72.5393 258.891Z" fill="#BBB4A4"/>
<path d="M72.5387 258.891V264.88H69.1492V258.891C69.1492 258.402 68.8849 257.948 68.4577 257.711L65.7866 256.205C61.1632 253.6 58.3022 248.71 58.3022 243.398V237.07H61.692V243.398C61.692 248.709 64.553 253.6 69.1764 256.205L71.8475 257.711C72.2744 257.948 72.5387 258.402 72.5387 258.891Z" fill="#616161"/>
<path d="M65.7593 231.779V235.713C65.7593 237.585 64.2408 239.105 62.3695 239.105H47.455C45.5839 239.105 44.0652 237.585 44.0652 235.713V231.779H65.7593Z" fill="#BBB4A4"/>
<path d="M61.6922 239.104H48.1335V241.099H61.6922V239.104Z" fill="#616161"/>
<path d="M77.9622 263.524V287.264H31.8628V263.524C31.8628 262.778 32.473 262.167 33.2187 262.167H76.6063C77.3522 262.167 77.9622 262.778 77.9622 263.524Z" fill="#343B49"/>
<path d="M77.9621 263.524V287.264H75.2504V263.524C75.2504 262.778 74.6401 262.167 73.8945 262.167H76.6063C77.3521 262.167 77.9621 262.778 77.9621 263.524Z" fill="#262D38"/>
<path d="M82.0295 286.586V289.299C82.0295 290.045 81.4193 290.656 80.6736 290.656H29.1508C28.4052 290.656 27.7949 290.045 27.7949 289.299V286.586C27.7949 285.84 28.4052 285.229 29.1508 285.229H80.6736C81.4195 285.229 82.0295 285.84 82.0295 286.586Z" fill="#262D38"/>
<path d="M82.0308 286.586V289.3C82.0308 290.046 81.4205 290.656 80.6748 290.656H77.9629C78.7086 290.656 79.3189 290.046 79.3189 289.3V286.586C79.3189 285.84 78.7086 285.229 77.9629 285.229H80.6748C81.4208 285.229 82.0308 285.84 82.0308 286.586Z" fill="#171C23"/>
<path d="M71.1821 268.95V278.446C71.1821 279.192 70.5719 279.802 69.8262 279.802H39.9972C39.2516 279.802 38.6414 279.192 38.6414 278.446V268.95C38.6414 268.204 39.2516 267.593 39.9972 267.593H69.8262C70.5721 267.593 71.1821 268.204 71.1821 268.95Z" fill="#BBB4A4"/>
<path d="M65.7607 231.779V235.714C65.7607 237.586 64.2421 239.105 62.3706 239.105H59.6587C61.5299 239.105 63.0488 237.586 63.0488 235.714V231.779H65.7607Z" fill="#616161"/>
<path d="M40.6759 226.217H33.8966C15.179 226.217 0 211.03 0 192.302V180.771C0 179.272 1.21357 178.058 2.71173 178.058H25.0836V183.484H5.42346V192.302C5.42346 207.835 17.9111 220.506 33.3747 220.784L40.6759 226.217Z" fill="#BBB4A4"/>
<path d="M88.1307 172.632V175.345C88.1307 208.31 73.2568 235.035 54.9119 235.035C36.567 235.035 21.6931 208.31 21.6931 175.345V172.632H88.1307Z" fill="#BBB4A4"/>
<path d="M21.9996 183.485H19.2876C19.152 181.701 19.0639 179.89 19.0164 178.058H21.7283C21.7758 179.889 21.8639 181.701 21.9996 183.485Z" fill="#616161"/>
<path d="M37.5306 226.217H34.8187C33.3068 224.549 31.8694 222.663 30.5337 220.587C31.4694 220.702 32.4116 220.763 33.3746 220.784C34.6764 222.785 36.0662 224.603 37.5306 226.217Z" fill="#616161"/>
<path d="M65.76 231.779V233.136C62.3568 235.245 58.7095 236.392 54.9131 236.392C51.1167 236.392 47.4693 235.245 44.0662 233.136V231.779C47.4693 233.889 51.1167 235.035 54.9131 235.035C58.7095 235.035 62.3568 233.889 65.76 231.779Z" fill="#616161"/>
<path d="M88.1321 172.632V175.345C88.1321 207.279 74.1733 233.36 56.6218 234.961C73.6786 233.34 79.9969 207.266 79.9969 175.345V172.632H88.1321Z" fill="#616161"/>
<path d="M91.5209 171.953C91.5209 172.89 91.1413 173.737 90.531 174.355C89.9141 174.965 89.0668 175.345 88.1311 175.345H21.6937C19.8226 175.345 18.304 173.826 18.304 171.953C18.304 171.017 18.6836 170.17 19.2938 169.552C19.9107 168.942 20.7581 168.562 21.6937 168.562H88.1313C90.0024 168.562 91.5209 170.081 91.5209 171.953Z" fill="#BBB4A4"/>
<path d="M88.1307 175.345C88.1307 176.254 88.1171 177.156 88.0968 178.058H21.727C21.7067 177.156 21.6931 176.254 21.6931 175.345H88.1307Z" fill="#616161"/>
<path d="M91.5219 171.954C91.5219 172.89 91.1422 173.738 90.5319 174.355C89.915 174.966 89.0676 175.345 88.1318 175.345H80.6738C81.6096 175.345 82.457 174.966 83.0739 174.355C83.6842 173.738 84.0639 172.89 84.0639 171.954C84.0639 170.082 82.5453 168.562 80.6738 168.562H88.1318C90.0033 168.562 91.5219 170.082 91.5219 171.954Z" fill="#616161"/>
<path d="M71.1828 268.95V278.446C71.1828 279.192 70.5726 279.803 69.827 279.803H42.9131C48.3907 279.694 66.4374 278.528 66.4374 267.593H69.8272C70.5728 267.594 71.1828 268.204 71.1828 268.95Z" fill="#616161"/>
<path d="M39.9983 275.055V269.505C39.9983 269.198 40.2466 268.95 40.5529 268.95H52.7096C52.7096 268.95 43.049 269.968 39.9983 275.055Z" fill="#FAFAFA"/>
<path d="M33.3879 269.629V264.079C33.3879 263.773 33.6362 263.524 33.9426 263.524H46.0993C46.0993 263.524 36.4385 264.542 33.3879 269.629Z" fill="#4E5868"/>
<path d="M54.9124 233.001C47.55 233.001 27.1307 217.461 24.6562 180.771H32.71C34.737 225.661 54.9124 233.001 54.9124 233.001Z" fill="#FAFAFA"/>
<path d="M40.676 259.454C40.676 259.454 50.1671 253.35 50.1671 244.532V259.454H40.676Z" fill="#FAFAFA"/>
<path d="M23.05 169.918V171.953H19.6599C19.6599 170.834 20.5684 169.918 21.694 169.918H23.05Z" fill="#FAFAFA"/>
<path d="M90.1323 178.058C90.0848 179.889 89.9967 181.7 89.8544 183.484H84.0645L84.7426 178.058H90.1323Z" fill="#616161"/>
<path d="M78.5669 220.669C77.2381 222.711 75.821 224.57 74.3294 226.218H71.1836L73.5837 223.749L76.4516 220.785C77.1636 220.771 77.8687 220.73 78.5669 220.669Z" fill="#616161"/>
<path d="M17.2682 324.783V312.643H22.2832C23.1922 312.643 23.9766 312.807 24.6366 313.135C25.3005 313.459 25.8123 313.925 26.1719 314.534C26.5315 315.139 26.7114 315.856 26.7114 316.686C26.7114 317.527 26.5276 318.243 26.1601 318.832C25.7925 319.416 25.2709 319.863 24.5951 320.171C23.9193 320.476 23.1191 320.628 22.1943 320.628H19.0229V318.316H21.6489C22.0916 318.316 22.4611 318.259 22.7575 318.144C23.0578 318.025 23.285 317.848 23.4392 317.61C23.5933 317.369 23.6704 317.061 23.6704 316.686C23.6704 316.31 23.5933 316 23.4392 315.755C23.285 315.506 23.0578 315.32 22.7575 315.198C22.4571 315.071 22.0876 315.008 21.6489 315.008H20.2025V324.783H17.2682ZM24.1031 319.235L27.1263 324.783H23.9253L20.9613 319.235H24.1031ZM36.2701 318.458L33.6085 318.529C33.5808 318.34 33.5057 318.172 33.3832 318.025C33.2607 317.875 33.1006 317.759 32.903 317.676C32.7094 317.589 32.4841 317.545 32.2273 317.545C31.8913 317.545 31.6048 317.612 31.3677 317.747C31.1346 317.881 31.0199 318.063 31.0239 318.292C31.0199 318.47 31.0911 318.624 31.2373 318.755C31.3875 318.885 31.6542 318.99 32.0376 319.069L33.7922 319.401C34.7012 319.575 35.3769 319.863 35.8196 320.266C36.2661 320.669 36.4914 321.203 36.4953 321.867C36.4914 322.491 36.3056 323.034 35.9381 323.497C35.5745 323.959 35.0766 324.319 34.4443 324.576C33.812 324.829 33.0888 324.955 32.2747 324.955C30.9745 324.955 29.949 324.688 29.1981 324.155C28.4512 323.617 28.0244 322.898 27.9177 321.997L30.7809 321.926C30.8441 322.258 31.0081 322.511 31.2729 322.685C31.5376 322.859 31.8755 322.946 32.2865 322.946C32.658 322.946 32.9603 322.876 33.1935 322.738C33.4267 322.6 33.5452 322.416 33.5492 322.187C33.5452 321.981 33.4543 321.817 33.2765 321.695C33.0987 321.568 32.82 321.47 32.4407 321.398L30.852 321.096C29.9391 320.93 29.2594 320.624 28.8128 320.177C28.3662 319.727 28.1449 319.154 28.1489 318.458C28.1449 317.85 28.3069 317.33 28.635 316.899C28.963 316.464 29.4293 316.132 30.0339 315.903C30.6386 315.674 31.3519 315.559 32.1739 315.559C33.4069 315.559 34.3791 315.818 35.0904 316.336C35.8018 316.85 36.195 317.557 36.2701 318.458ZM39.5526 324.955C39.1258 324.955 38.7603 324.805 38.456 324.505C38.1556 324.204 38.0074 323.841 38.0114 323.414C38.0074 322.995 38.1556 322.637 38.456 322.341C38.7603 322.041 39.1258 321.89 39.5526 321.89C39.9557 321.89 40.3114 322.041 40.6197 322.341C40.9319 322.637 41.0899 322.995 41.0939 323.414C41.0899 323.698 41.0149 323.957 40.8686 324.19C40.7264 324.424 40.5386 324.609 40.3055 324.748C40.0763 324.886 39.8253 324.955 39.5526 324.955ZM45.6569 322.768V320.48L50.6304 312.643H52.6636V315.749H51.484L48.5734 320.361V320.456H55.7758V322.768H45.6569ZM51.5196 324.783V322.068L51.5788 321.066V312.643H54.3234V324.783H51.5196ZM62.335 325.08C61.2759 325.08 60.363 324.829 59.5963 324.327C58.8296 323.821 58.2388 323.096 57.8239 322.151C57.4089 321.203 57.2034 320.063 57.2074 318.731C57.2113 317.399 57.4188 316.269 57.8298 315.34C58.2447 314.407 58.8336 313.698 59.5963 313.212C60.363 312.722 61.2759 312.477 62.335 312.477C63.3941 312.477 64.307 312.722 65.0737 313.212C65.8443 313.698 66.4371 314.407 66.852 315.34C67.267 316.273 67.4725 317.403 67.4685 318.731C67.4685 320.067 67.2611 321.209 66.8461 322.157C66.4312 323.106 65.8403 323.831 65.0737 324.333C64.3109 324.831 63.398 325.08 62.335 325.08ZM62.335 322.679C62.9673 322.679 63.4791 322.357 63.8703 321.713C64.2615 321.064 64.4552 320.071 64.4512 318.731C64.4512 317.854 64.3623 317.13 64.1845 316.561C64.0066 315.988 63.7596 315.561 63.4435 315.281C63.1273 315 62.7578 314.86 62.335 314.86C61.7066 314.86 61.1988 315.178 60.8115 315.814C60.4242 316.447 60.2286 317.419 60.2247 318.731C60.2207 319.62 60.3057 320.357 60.4796 320.942C60.6574 321.527 60.9064 321.964 61.2265 322.252C61.5466 322.537 61.9161 322.679 62.335 322.679ZM74.17 325.08C73.1109 325.08 72.198 324.829 71.4313 324.327C70.6646 323.821 70.0738 323.096 69.6589 322.151C69.2439 321.203 69.0384 320.063 69.0424 318.731C69.0463 317.399 69.2538 316.269 69.6648 315.34C70.0798 314.407 70.6686 313.698 71.4313 313.212C72.198 312.722 73.1109 312.477 74.17 312.477C75.2291 312.477 76.142 312.722 76.9087 313.212C77.6793 313.698 78.2721 314.407 78.6871 315.34C79.102 316.273 79.3075 317.403 79.3036 318.731C79.3036 320.067 79.0961 321.209 78.6811 322.157C78.2662 323.106 77.6754 323.831 76.9087 324.333C76.146 324.831 75.2331 325.08 74.17 325.08ZM74.17 322.679C74.8023 322.679 75.3141 322.357 75.7053 321.713C76.0966 321.064 76.2902 320.071 76.2863 318.731C76.2863 317.854 76.1973 317.13 76.0195 316.561C75.8417 315.988 75.5947 315.561 75.2785 315.281C74.9624 315 74.5929 314.86 74.17 314.86C73.5416 314.86 73.0338 315.178 72.6465 315.814C72.2592 316.447 72.0636 317.419 72.0597 318.731C72.0557 319.62 72.1407 320.357 72.3146 320.942C72.4924 321.527 72.7414 321.964 73.0615 322.252C73.3816 322.537 73.7511 322.679 74.17 322.679ZM86.005 325.08C84.9459 325.08 84.033 324.829 83.2663 324.327C82.4997 323.821 81.9089 323.096 81.4939 322.151C81.079 321.203 80.8735 320.063 80.8774 318.731C80.8814 317.399 81.0888 316.269 81.4998 315.34C81.9148 314.407 82.5036 313.698 83.2663 313.212C84.033 312.722 84.9459 312.477 86.005 312.477C87.0641 312.477 87.977 312.722 88.7437 313.212C89.5143 313.698 90.1071 314.407 90.5221 315.34C90.937 316.273 91.1425 317.403 91.1386 318.731C91.1386 320.067 90.9311 321.209 90.5161 322.157C90.1012 323.106 89.5104 323.831 88.7437 324.333C87.981 324.831 87.0681 325.08 86.005 325.08ZM86.005 322.679C86.6373 322.679 87.1491 322.357 87.5403 321.713C87.9316 321.064 88.1252 320.071 88.1213 318.731C88.1213 317.854 88.0324 317.13 87.8545 316.561C87.6767 315.988 87.4297 315.561 87.1135 315.281C86.7974 315 86.4279 314.86 86.005 314.86C85.3767 314.86 84.8688 315.178 84.4816 315.814C84.0943 316.447 83.8987 317.419 83.8947 318.731C83.8907 319.62 83.9757 320.357 84.1496 320.942C84.3274 321.527 84.5764 321.964 84.8965 322.252C85.2166 322.537 85.5861 322.679 86.005 322.679Z" fill="#BBB4A4"/>
<path d="M295.774 294.101C318.979 294.101 337.791 293.57 337.791 292.914C337.791 292.259 318.979 291.728 295.774 291.728C272.568 291.728 253.757 292.259 253.757 292.914C253.757 293.57 272.568 294.101 295.774 294.101Z" fill="#D8DFEA"/>
<path d="M350.54 182.637V194.168C350.54 212.896 335.361 228.083 316.644 228.083H311.898L317.166 222.65C332.629 222.372 345.117 209.702 345.117 194.168V185.351H324.779L325.457 179.924H347.829C349.327 179.924 350.54 181.138 350.54 182.637Z" fill="#865058"/>
<path d="M313.253 260.757V266.746H278V260.757C278 260.269 278.265 259.814 278.692 259.577L281.363 258.071C285.986 255.466 288.847 250.576 288.847 245.265V238.936H302.406V245.265C302.406 250.576 305.267 255.466 309.89 258.071L312.562 259.577C312.989 259.814 313.253 260.269 313.253 260.757Z" fill="#865058"/>
<path d="M313.253 260.757V266.746H309.864V260.757C309.864 260.269 309.599 259.814 309.172 259.577L306.501 258.071C301.878 255.466 299.017 250.576 299.017 245.265V238.936H302.406V245.265C302.406 250.576 305.267 255.466 309.891 258.071L312.562 259.577C312.989 259.814 313.253 260.269 313.253 260.757Z" fill="#501921"/>
<path d="M306.473 233.645V237.579C306.473 239.451 304.954 240.971 303.083 240.971H288.169C286.298 240.971 284.779 239.451 284.779 237.579V233.645H306.473Z" fill="#865058"/>
<path d="M302.406 240.971H288.848V242.965H302.406V240.971Z" fill="#501921"/>
<path d="M318.676 265.39V289.13H272.576V265.39C272.576 264.644 273.187 264.033 273.932 264.033H317.32C318.066 264.033 318.676 264.644 318.676 265.39Z" fill="#343B49"/>
<path d="M318.676 265.39V289.13H315.965V265.39C315.965 264.644 315.354 264.033 314.609 264.033H317.32C318.066 264.033 318.676 264.644 318.676 265.39Z" fill="#262D38"/>
<path d="M322.744 288.452V291.165C322.744 291.911 322.134 292.522 321.388 292.522H269.865C269.12 292.522 268.51 291.911 268.51 291.165V288.452C268.51 287.706 269.12 287.095 269.865 287.095H321.388C322.134 287.095 322.744 287.706 322.744 288.452Z" fill="#262D38"/>
<path d="M322.744 288.452V291.165C322.744 291.911 322.134 292.522 321.388 292.522H318.677C319.422 292.522 320.032 291.911 320.032 291.165V288.452C320.032 287.706 319.422 287.095 318.677 287.095H321.388C322.134 287.095 322.744 287.706 322.744 288.452Z" fill="#171C23"/>
<path d="M311.896 270.816V280.312C311.896 281.058 311.286 281.668 310.541 281.668H280.712C279.966 281.668 279.356 281.058 279.356 280.312V270.816C279.356 270.069 279.966 269.459 280.712 269.459H310.541C311.286 269.459 311.896 270.069 311.896 270.816Z" fill="#865058"/>
<path d="M306.475 233.645V237.579C306.475 239.452 304.956 240.971 303.085 240.971H300.373C302.244 240.971 303.763 239.452 303.763 237.579V233.645H306.475Z" fill="#501921"/>
<path d="M281.39 228.083H274.611C255.893 228.083 240.714 212.896 240.714 194.168V182.637C240.714 181.138 241.928 179.924 243.426 179.924H265.798V185.351H246.138V194.168C246.138 209.702 258.625 222.372 274.089 222.65L281.39 228.083Z" fill="#865058"/>
<path d="M328.845 174.498V177.211C328.845 210.176 313.971 236.901 295.626 236.901C277.281 236.901 262.407 210.176 262.407 177.211V174.498H328.845Z" fill="#865058"/>
<path d="M262.714 185.351H260.002C259.866 183.567 259.778 181.756 259.731 179.924H262.443C262.49 181.756 262.578 183.567 262.714 185.351Z" fill="#501921"/>
<path d="M278.244 228.084H275.532C274.02 226.415 272.583 224.529 271.247 222.453C272.183 222.568 273.125 222.63 274.088 222.65C275.39 224.651 276.78 226.469 278.244 228.084Z" fill="#501921"/>
<path d="M306.474 233.645V235.002C303.07 237.111 299.423 238.257 295.627 238.257C291.83 238.257 288.183 237.111 284.78 235.002V233.645C288.183 235.755 291.83 236.901 295.627 236.901C299.423 236.901 303.07 235.755 306.474 233.645Z" fill="#501921"/>
<path d="M328.846 174.498V177.211C328.846 209.145 314.887 235.226 297.335 236.827C314.392 235.205 320.711 209.132 320.711 177.211V174.498H328.846Z" fill="#501921"/>
<path d="M332.236 173.82C332.236 174.756 331.856 175.604 331.246 176.221C330.629 176.831 329.782 177.211 328.846 177.211H262.409C260.537 177.211 259.019 175.692 259.019 173.82C259.019 172.884 259.398 172.036 260.009 171.419C260.626 170.808 261.473 170.428 262.409 170.428H328.846C330.717 170.428 332.236 171.948 332.236 173.82Z" fill="#865058"/>
<path d="M328.845 177.211C328.845 178.12 328.831 179.022 328.811 179.924H262.441C262.421 179.022 262.407 178.12 262.407 177.211H328.845Z" fill="#501921"/>
<path d="M332.236 173.82C332.236 174.756 331.856 175.604 331.246 176.221C330.629 176.832 329.782 177.212 328.846 177.212H321.388C322.324 177.212 323.171 176.832 323.788 176.221C324.398 175.604 324.778 174.756 324.778 173.82C324.778 171.948 323.259 170.428 321.388 170.428H328.846C330.717 170.428 332.236 171.948 332.236 173.82Z" fill="#501921"/>
<path d="M311.897 270.816V280.312C311.897 281.058 311.286 281.668 310.541 281.668H283.627C289.105 281.56 307.151 280.393 307.151 269.459H310.541C311.287 269.459 311.897 270.07 311.897 270.816Z" fill="#501921"/>
<path d="M280.713 276.921V271.371C280.713 271.064 280.961 270.816 281.268 270.816H293.424C293.424 270.816 283.764 271.833 280.713 276.921Z" fill="#A0616A"/>
<path d="M274.102 271.495V265.945C274.102 265.638 274.351 265.39 274.657 265.39H286.814C286.814 265.39 277.153 266.407 274.102 271.495Z" fill="#4E5868"/>
<path d="M295.626 234.866C288.264 234.866 267.845 219.326 265.37 182.637H273.424C275.451 227.527 295.626 234.866 295.626 234.866Z" fill="#A0616A"/>
<path d="M281.39 261.32C281.39 261.32 290.881 255.215 290.881 246.397V261.32H281.39Z" fill="#A0616A"/>
<path d="M263.764 171.784V173.819H260.374C260.374 172.7 261.283 171.784 262.408 171.784H263.764Z" fill="#A0616A"/>
<path d="M330.847 179.923C330.799 181.755 330.711 183.566 330.569 185.35H324.779L325.457 179.923H330.847Z" fill="#501921"/>
<path d="M319.281 222.535C317.953 224.576 316.536 226.435 315.044 228.084H311.898L314.298 225.615L317.166 222.65C317.878 222.636 318.583 222.596 319.281 222.535Z" fill="#501921"/>
<path d="M260.14 323.31V311.17H265.155C266.064 311.17 266.848 311.334 267.508 311.662C268.172 311.986 268.684 312.452 269.044 313.061C269.403 313.665 269.583 314.383 269.583 315.213C269.583 316.054 269.399 316.77 269.032 317.358C268.664 317.943 268.143 318.39 267.467 318.698C266.791 319.002 265.991 319.155 265.066 319.155H261.895V316.843H264.521C264.963 316.843 265.333 316.785 265.629 316.671C265.93 316.552 266.157 316.374 266.311 316.137C266.465 315.896 266.542 315.588 266.542 315.213C266.542 314.837 266.465 314.527 266.311 314.282C266.157 314.033 265.93 313.847 265.629 313.725C265.329 313.598 264.959 313.535 264.521 313.535H263.074V323.31H260.14ZM266.975 317.762L269.998 323.31H266.797L263.833 317.762H266.975ZM279.142 316.985L276.48 317.056C276.452 316.866 276.377 316.698 276.255 316.552C276.132 316.402 275.972 316.286 275.775 316.203C275.581 316.116 275.356 316.072 275.099 316.072C274.763 316.072 274.477 316.139 274.239 316.274C274.006 316.408 273.892 316.59 273.896 316.819C273.892 316.997 273.963 317.151 274.109 317.281C274.259 317.412 274.526 317.517 274.909 317.596L276.664 317.928C277.573 318.101 278.249 318.39 278.691 318.793C279.138 319.196 279.363 319.73 279.367 320.394C279.363 321.018 279.177 321.561 278.81 322.024C278.446 322.486 277.948 322.846 277.316 323.103C276.684 323.356 275.96 323.482 275.146 323.482C273.846 323.482 272.821 323.215 272.07 322.682C271.323 322.144 270.896 321.425 270.789 320.524L273.653 320.453C273.716 320.785 273.88 321.038 274.145 321.212C274.409 321.385 274.747 321.472 275.158 321.472C275.53 321.472 275.832 321.403 276.065 321.265C276.298 321.127 276.417 320.943 276.421 320.714C276.417 320.508 276.326 320.344 276.148 320.222C275.97 320.095 275.692 319.996 275.312 319.925L273.724 319.623C272.811 319.457 272.131 319.151 271.684 318.704C271.238 318.254 271.017 317.681 271.021 316.985C271.017 316.376 271.179 315.857 271.507 315.426C271.835 314.991 272.301 314.659 272.906 314.43C273.51 314.201 274.224 314.086 275.046 314.086C276.279 314.086 277.251 314.345 277.962 314.863C278.673 315.377 279.067 316.084 279.142 316.985ZM282.424 323.482C281.998 323.482 281.632 323.332 281.328 323.031C281.027 322.731 280.879 322.368 280.883 321.941C280.879 321.522 281.027 321.164 281.328 320.868C281.632 320.567 281.998 320.417 282.424 320.417C282.827 320.417 283.183 320.567 283.491 320.868C283.804 321.164 283.962 321.522 283.966 321.941C283.962 322.225 283.887 322.484 283.74 322.717C283.598 322.95 283.41 323.136 283.177 323.274C282.948 323.413 282.697 323.482 282.424 323.482ZM288.677 323.31V321.2L293.105 317.323C293.437 317.023 293.719 316.748 293.953 316.499C294.186 316.246 294.364 315.993 294.486 315.74C294.609 315.483 294.67 315.205 294.67 314.904C294.67 314.568 294.597 314.282 294.451 314.045C294.304 313.804 294.103 313.618 293.846 313.488C293.589 313.357 293.295 313.292 292.963 313.292C292.627 313.292 292.332 313.361 292.079 313.499C291.826 313.634 291.629 313.829 291.487 314.086C291.348 314.343 291.279 314.655 291.279 315.023H288.499C288.499 314.197 288.685 313.484 289.056 312.883C289.428 312.282 289.949 311.82 290.621 311.496C291.297 311.168 292.081 311.004 292.974 311.004C293.895 311.004 294.696 311.158 295.375 311.466C296.055 311.774 296.581 312.205 296.952 312.758C297.328 313.308 297.515 313.946 297.515 314.673C297.515 315.136 297.422 315.594 297.237 316.048C297.051 316.503 296.717 317.005 296.235 317.554C295.757 318.103 295.077 318.761 294.196 319.528L292.743 320.868V320.945H297.663V323.31H288.677ZM304.343 323.606C303.284 323.606 302.371 323.356 301.604 322.854C300.837 322.348 300.247 321.623 299.832 320.678C299.417 319.73 299.211 318.589 299.215 317.258C299.219 315.926 299.426 314.796 299.837 313.867C300.252 312.934 300.841 312.225 301.604 311.739C302.371 311.249 303.284 311.004 304.343 311.004C305.402 311.004 306.315 311.249 307.081 311.739C307.852 312.225 308.445 312.934 308.86 313.867C309.275 314.8 309.48 315.93 309.476 317.258C309.476 318.593 309.269 319.736 308.854 320.684C308.439 321.632 307.848 322.358 307.081 322.86C306.319 323.357 305.406 323.606 304.343 323.606ZM304.343 321.206C304.975 321.206 305.487 320.884 305.878 320.239C306.269 319.591 306.463 318.597 306.459 317.258C306.459 316.38 306.37 315.657 306.192 315.088C306.014 314.515 305.767 314.088 305.451 313.808C305.135 313.527 304.766 313.387 304.343 313.387C303.714 313.387 303.207 313.705 302.819 314.341C302.432 314.973 302.236 315.946 302.232 317.258C302.228 318.147 302.313 318.884 302.487 319.469C302.665 320.054 302.914 320.49 303.234 320.779C303.554 321.063 303.924 321.206 304.343 321.206ZM316.178 323.606C315.119 323.606 314.206 323.356 313.439 322.854C312.672 322.348 312.082 321.623 311.667 320.678C311.252 319.73 311.046 318.589 311.05 317.258C311.054 315.926 311.262 314.796 311.673 313.867C312.087 312.934 312.676 312.225 313.439 311.739C314.206 311.249 315.119 311.004 316.178 311.004C317.237 311.004 318.15 311.249 318.916 311.739C319.687 312.225 320.28 312.934 320.695 313.867C321.11 314.8 321.315 315.93 321.311 317.258C321.311 318.593 321.104 319.736 320.689 320.684C320.274 321.632 319.683 322.358 318.916 322.86C318.154 323.357 317.241 323.606 316.178 323.606ZM316.178 321.206C316.81 321.206 317.322 320.884 317.713 320.239C318.104 319.591 318.298 318.597 318.294 317.258C318.294 316.38 318.205 315.657 318.027 315.088C317.849 314.515 317.602 314.088 317.286 313.808C316.97 313.527 316.601 313.387 316.178 313.387C315.549 313.387 315.042 313.705 314.654 314.341C314.267 314.973 314.071 315.946 314.067 317.258C314.063 318.147 314.148 318.884 314.322 319.469C314.5 320.054 314.749 320.49 315.069 320.779C315.389 321.063 315.759 321.206 316.178 321.206ZM328.013 323.606C326.954 323.606 326.041 323.356 325.274 322.854C324.507 322.348 323.917 321.623 323.502 320.678C323.087 319.73 322.881 318.589 322.885 317.258C322.889 315.926 323.097 314.796 323.508 313.867C323.922 312.934 324.511 312.225 325.274 311.739C326.041 311.249 326.954 311.004 328.013 311.004C329.072 311.004 329.985 311.249 330.751 311.739C331.522 312.225 332.115 312.934 332.53 313.867C332.945 314.8 333.15 315.93 333.146 317.258C333.146 318.593 332.939 319.736 332.524 320.684C332.109 321.632 331.518 322.358 330.751 322.86C329.989 323.357 329.076 323.606 328.013 323.606ZM328.013 321.206C328.645 321.206 329.157 320.884 329.548 320.239C329.939 319.591 330.133 318.597 330.129 317.258C330.129 316.38 330.04 315.657 329.862 315.088C329.684 314.515 329.437 314.088 329.121 313.808C328.805 313.527 328.436 313.387 328.013 313.387C327.384 313.387 326.877 313.705 326.489 314.341C326.102 314.973 325.906 315.946 325.902 317.258C325.898 318.147 325.983 318.884 326.157 319.469C326.335 320.054 326.584 320.49 326.904 320.779C327.224 321.063 327.594 321.206 328.013 321.206Z" fill="#865058"/>
</svg>
