<svg width="713" height="460" viewBox="0 0 713 460" fill="none" xmlns="http://www.w3.org/2000/svg">
<g filter="url(#filter0_d_25_326)">
<path d="M242.372 167.456C242.166 167.97 241.909 168.433 241.601 168.845C241.292 169.256 240.984 169.668 240.675 170.079C240.469 170.593 240.264 171.108 240.058 171.622C239.852 172.033 239.646 172.445 239.441 172.856C238.618 173.576 238.001 174.193 237.589 174.708C237.178 175.222 237.075 175.891 237.281 176.713C236.458 178.153 235.789 179.131 235.275 179.645C234.761 180.159 234.401 180.828 234.195 181.651C233.886 181.856 233.629 182.113 233.423 182.422C233.321 182.731 233.115 182.936 232.806 183.039C232.395 182.833 232.035 182.679 231.726 182.576C231.521 182.371 231.315 182.165 231.109 181.959C230.698 182.165 230.235 182.422 229.721 182.731C229.309 183.039 228.846 182.936 228.332 182.422C227.715 182.628 227.046 182.731 226.326 182.731C225.606 182.628 225.041 182.371 224.629 181.959C224.218 182.165 223.858 182.371 223.549 182.576C223.241 182.679 222.829 182.679 222.315 182.576C221.903 182.371 221.543 181.856 221.235 181.033C220.515 181.239 219.949 181.239 219.538 181.033C219.229 181.342 218.818 181.496 218.303 181.496C217.789 181.496 217.275 181.599 216.76 181.805C215.629 181.702 214.703 181.188 213.983 180.262C213.675 180.468 213.366 180.673 213.058 180.879C212.749 180.982 212.338 181.085 211.823 181.188C210.075 180.776 208.686 180.673 207.658 180.879C206.629 180.982 205.806 180.828 205.189 180.416C204.675 180.622 203.955 180.931 203.029 181.342C202.206 181.651 201.589 181.393 201.177 180.571C200.766 180.673 200.406 180.828 200.097 181.033C199.789 181.136 199.377 181.136 198.863 181.033C198.452 180.828 198.143 180.313 197.937 179.491C197.526 180.416 197.217 181.085 197.012 181.496C196.806 181.908 196.6 182.319 196.395 182.731C196.703 183.965 196.652 184.839 196.24 185.353C195.932 185.765 195.829 186.228 195.932 186.742C195.932 187.051 196.035 187.308 196.24 187.513C196.549 187.719 196.806 187.976 197.012 188.285C197.115 189.416 197.217 190.085 197.32 190.291C197.526 190.496 197.629 190.702 197.629 190.908C197.629 191.319 197.526 191.628 197.32 191.834C197.217 192.039 197.115 192.296 197.012 192.605C197.217 193.428 197.217 194.199 197.012 194.919C196.909 195.536 196.703 196.154 196.395 196.771C196.086 197.388 195.777 198.056 195.469 198.776C195.16 199.394 194.955 200.062 194.852 200.782C195.777 201.502 196.292 201.965 196.395 202.171C196.6 202.376 196.755 202.685 196.857 203.096C196.857 203.508 196.755 203.868 196.549 204.176C196.446 204.382 196.292 204.588 196.086 204.794C196.292 205.719 196.343 206.645 196.24 207.571C196.137 208.394 196.086 209.268 196.086 210.194C196.6 210.091 197.115 210.245 197.629 210.657C198.143 210.965 198.297 211.479 198.092 212.199C198.709 212.302 199.223 212.302 199.635 212.199C200.046 211.994 200.457 211.788 200.869 211.582C201.383 211.377 201.846 211.222 202.257 211.119C202.669 210.914 203.183 210.862 203.8 210.965C204.829 211.788 205.806 212.097 206.732 211.891C207.658 211.685 208.532 211.685 209.355 211.891C209.869 211.685 210.332 211.428 210.743 211.119C211.258 210.811 211.772 210.554 212.286 210.348L214.755 211.274C215.886 210.759 216.915 210.451 217.84 210.348C218.766 210.245 219.486 209.834 220 209.114L221.08 206.954C221.492 206.645 221.903 206.337 222.315 206.028C222.726 205.719 223.035 205.308 223.241 204.794C223.961 204.074 224.423 203.662 224.629 203.559C224.938 203.354 225.143 203.045 225.246 202.634C225.966 202.325 226.635 202.119 227.252 202.016C227.972 201.914 228.332 202.119 228.332 202.634C227.818 203.559 227.458 204.176 227.252 204.485C227.149 204.794 227.046 205.051 226.943 205.256C226.943 206.285 226.738 206.902 226.326 207.108C226.018 207.314 225.761 207.674 225.555 208.188C225.452 209.319 225.246 210.091 224.938 210.502C224.732 210.811 224.629 211.274 224.629 211.891C224.218 212.508 223.858 213.125 223.549 213.742C223.241 214.359 223.086 215.182 223.086 216.211L221.543 218.217C221.646 218.628 221.903 218.988 222.315 219.297C222.726 219.502 222.829 219.811 222.623 220.222C222.109 221.457 221.852 222.228 221.852 222.537C221.852 222.742 221.801 223.102 221.698 223.617C221.389 224.131 221.132 224.748 220.926 225.468C220.72 226.085 220.258 226.548 219.538 226.857C218.92 226.857 218.303 226.908 217.686 227.011C217.069 227.114 216.452 227.217 215.835 227.32C214.806 227.011 214.343 226.805 214.446 226.702C214.549 226.6 214.498 226.445 214.292 226.24C213.263 226.445 212.235 226.6 211.206 226.702C210.28 226.805 209.355 226.96 208.429 227.165C207.195 226.754 206.269 226.6 205.652 226.702C205.137 226.805 204.623 226.702 204.109 226.394C203.492 226.6 202.926 226.908 202.412 227.32C201.897 227.628 201.229 227.628 200.406 227.32C200.097 227.114 199.892 226.857 199.789 226.548C199.789 226.24 199.686 225.982 199.48 225.777C198.966 225.777 198.555 225.88 198.246 226.085C198.04 226.188 197.68 226.24 197.166 226.24C196.755 226.548 196.446 227.114 196.24 227.937C196.446 228.76 196.549 229.582 196.549 230.405C196.549 231.125 196.292 231.742 195.777 232.257C195.88 233.182 195.829 234.211 195.623 235.342C195.417 236.474 195.263 237.605 195.16 238.737C195.263 239.148 195.469 239.405 195.777 239.508C196.189 239.611 196.497 239.868 196.703 240.28C196.395 241.823 196.189 242.8 196.086 243.211C195.983 243.623 196.035 244.085 196.24 244.6C196.755 246.245 196.755 247.685 196.24 248.92C196.652 250.257 196.343 251.543 195.315 252.777C195.52 253.085 195.675 253.446 195.777 253.857C195.983 254.268 195.983 254.68 195.777 255.091C196.497 256.326 196.806 257.251 196.703 257.868C196.6 258.486 196.652 259.051 196.857 259.566C196.755 261.108 196.6 261.983 196.395 262.188C197.115 262.908 197.68 263.166 198.092 262.96C198.503 262.754 198.966 262.6 199.48 262.497C200.303 262.908 201.332 262.857 202.566 262.343C202.977 262.548 203.235 262.857 203.337 263.268C203.543 263.577 203.8 263.834 204.109 264.04L207.195 262.651C207.709 262.857 208.275 262.96 208.892 262.96C209.509 262.96 210.023 263.063 210.435 263.268C211.875 262.754 213.058 262.497 213.983 262.497C214.909 262.497 215.783 262.497 216.606 262.497C218.149 263.32 219.126 263.526 219.538 263.114C220.258 262.908 220.772 262.651 221.08 262.343C222.212 262.137 222.983 261.983 223.395 261.88C223.909 261.777 224.423 261.674 224.938 261.571C225.246 261.16 225.606 260.851 226.018 260.646C226.532 260.44 227.046 260.234 227.561 260.028C227.972 259.823 228.332 259.617 228.641 259.411C228.949 259.206 229.258 259 229.566 258.794C229.772 258.486 229.978 258.28 230.183 258.177C230.492 257.971 230.749 257.766 230.955 257.56C231.983 256.737 232.652 255.914 232.961 255.091C233.269 254.166 233.938 253.6 234.966 253.394C235.481 252.88 235.892 252.417 236.201 252.005C236.612 251.491 237.075 251.131 237.589 250.925C237.795 250.514 237.949 250.205 238.052 250C238.155 249.691 238.258 249.331 238.361 248.92L239.595 246.143C239.801 245.834 240.006 245.525 240.212 245.217C240.418 244.805 240.726 244.497 241.138 244.291C241.858 245.011 242.115 245.474 241.909 245.68C241.704 245.783 241.601 245.937 241.601 246.143C241.601 246.657 241.755 247.12 242.064 247.531C242.372 247.84 242.629 248.148 242.835 248.457L241.909 251.08C241.704 251.903 241.549 252.828 241.446 253.857C241.344 254.783 241.086 255.554 240.675 256.171C239.646 256.583 239.029 257.046 238.824 257.56C238.721 257.971 238.618 258.486 238.515 259.103C238.515 259.617 238.464 260.183 238.361 260.8C238.361 261.314 238.206 261.726 237.898 262.034C237.898 262.446 237.846 262.754 237.744 262.96C237.744 263.166 237.692 263.423 237.589 263.731C236.766 264.246 236.252 265.171 236.046 266.508C235.943 267.743 235.789 268.926 235.583 270.057C234.863 270.983 234.349 272.011 234.041 273.143C233.321 273.966 233.012 274.634 233.115 275.149C233.218 275.663 233.218 276.331 233.115 277.154C232.703 278.183 232.189 278.8 231.572 279.006L229.412 278.697C228.486 279.623 227.921 279.983 227.715 279.777C227.612 279.571 227.406 279.469 227.098 279.469C225.246 279.366 223.909 279.16 223.086 278.851C222.366 279.366 221.492 279.52 220.463 279.314C219.435 279.109 218.406 279.057 217.378 279.16C216.555 278.646 216.092 278.44 215.989 278.543C215.886 278.749 215.732 278.851 215.526 278.851C214.909 278.954 214.395 278.851 213.983 278.543C213.572 278.234 213.109 278.183 212.595 278.389C211.875 279.417 211.36 279.829 211.052 279.623C210.743 279.52 210.435 279.366 210.126 279.16C209.818 278.954 209.406 278.851 208.892 278.851C208.48 278.851 208.12 278.749 207.812 278.543C207.298 278.44 206.989 278.389 206.886 278.389C206.783 278.491 206.475 278.543 205.96 278.543C204.932 278.234 204.315 278.234 204.109 278.543C204.006 278.954 203.749 279.263 203.337 279.469C202.103 278.954 201.383 278.594 201.177 278.389C201.075 278.286 200.92 278.183 200.715 278.08C199.686 277.669 198.812 277.669 198.092 278.08C197.372 278.491 196.703 278.851 196.086 279.16C195.366 278.954 194.749 278.903 194.235 279.006C193.823 279.109 193.309 279.16 192.692 279.16C192.28 278.954 191.972 278.389 191.766 277.463C191.252 277.566 190.84 277.823 190.532 278.234C190.326 278.646 190.017 278.954 189.606 279.16C188.783 279.057 187.96 278.954 187.137 278.851C186.417 278.851 185.697 278.749 184.977 278.543C184.669 278.749 184.36 278.903 184.052 279.006C183.846 279.211 183.589 279.366 183.28 279.469C182.252 279.469 181.634 279.623 181.429 279.931C181.326 280.24 181.12 280.446 180.812 280.549C180.503 280.549 180.194 280.446 179.886 280.24C179.68 280.137 179.423 280.034 179.114 279.931C178.703 279.726 178.394 279.417 178.189 279.006C177.983 278.594 177.726 278.286 177.417 278.08C177.109 278.183 176.697 278.234 176.183 278.234C175.669 278.234 175.257 278.337 174.949 278.543C174.64 278.646 174.383 278.8 174.177 279.006C174.074 279.211 173.869 279.417 173.56 279.623C173.046 279.52 172.377 279.52 171.554 279.623C170.731 279.829 170.063 279.726 169.549 279.314C167.903 279.829 166.823 279.674 166.309 278.851C165.589 279.263 164.663 279.52 163.531 279.623C162.297 279.726 161.269 279.674 160.446 279.469C160.137 278.543 160.24 278.08 160.754 278.08C161.269 278.183 161.68 278.286 161.989 278.389C162.503 278.183 162.863 277.977 163.069 277.771C163.274 277.566 163.531 277.36 163.84 277.154C164.457 277.154 164.92 277.051 165.229 276.846C165.537 276.537 165.897 276.28 166.309 276.074C168.469 276.074 169.806 275.406 170.32 274.069C170.629 273.863 170.937 273.76 171.246 273.76C171.657 273.657 172.017 273.554 172.326 273.451C172.531 273.143 172.737 272.834 172.943 272.526C173.251 272.114 173.714 272.011 174.332 272.217C174.846 271.189 175.206 270.366 175.412 269.749C175.72 269.131 176.286 268.668 177.109 268.36C177.417 267.434 177.623 266.766 177.726 266.354C177.829 265.943 177.932 265.531 178.034 265.12C177.726 263.371 177.417 262.24 177.109 261.726C176.8 261.211 176.697 260.491 176.8 259.566C176.697 259.257 176.44 259.051 176.029 258.948C175.72 258.846 175.566 258.588 175.566 258.177C175.874 257.046 176.08 256.326 176.183 256.017C176.286 255.708 176.44 255.348 176.646 254.937L177.109 252.314C177.006 251.491 177.006 250.72 177.109 250C177.314 249.177 177.314 248.457 177.109 247.84C177.52 246.605 177.623 245.937 177.417 245.834C177.212 245.731 177.006 245.577 176.8 245.371C176.697 244.343 176.337 243.365 175.72 242.44C175.926 242.028 176.132 241.72 176.337 241.514C176.646 241.205 176.903 240.845 177.109 240.434C176.903 240.023 176.697 239.663 176.492 239.354C176.286 239.045 176.183 238.634 176.183 238.12C176.903 236.371 177.417 234.828 177.726 233.491C178.034 232.051 177.983 230.765 177.572 229.634C177.674 228.605 177.623 228.04 177.417 227.937C177.212 227.834 177.109 227.577 177.109 227.165C177.006 226.651 177.057 226.342 177.263 226.24C177.572 226.137 177.777 225.931 177.88 225.622C177.88 225.005 177.777 224.491 177.572 224.08C177.469 223.668 177.366 223.205 177.263 222.691C177.366 222.177 177.52 221.714 177.726 221.302C177.932 220.891 178.137 220.428 178.343 219.914C178.137 219.399 177.983 218.885 177.88 218.371C177.88 217.857 177.88 217.342 177.88 216.828C177.983 216.519 178.034 216.211 178.034 215.902C178.034 215.491 178.034 215.131 178.034 214.822L178.189 212.199C177.777 210.965 177.623 210.297 177.726 210.194C177.932 209.988 178.034 209.731 178.034 209.422C178.034 207.982 178.137 207.057 178.343 206.645C178.446 205.411 178.446 204.691 178.343 204.485C178.24 204.279 178.292 204.074 178.497 203.868C178.497 201.811 178.446 200.114 178.343 198.776C177.829 197.954 177.572 196.874 177.572 195.536C177.674 194.199 177.932 193.068 178.343 192.142C178.137 191.834 177.932 191.525 177.726 191.216C177.52 190.908 177.469 190.445 177.572 189.828C177.88 188.388 178.034 187.359 178.034 186.742C178.034 186.022 177.88 185.405 177.572 184.891C177.777 183.862 177.88 183.091 177.88 182.576C177.469 181.239 177.314 180.468 177.417 180.262C177.109 179.748 176.954 179.285 176.954 178.873C177.057 178.462 176.954 178.051 176.646 177.639C175.72 177.022 175.257 176.199 175.257 175.171C174.537 174.142 173.869 173.37 173.251 172.856C172.943 173.062 172.634 173.113 172.326 173.01C172.017 172.908 171.76 172.753 171.554 172.548C171.349 171.519 171.091 170.953 170.783 170.85C170.577 170.645 170.371 170.388 170.166 170.079C169.549 170.182 169.034 170.336 168.623 170.542C168.211 170.748 167.749 170.748 167.234 170.542C167.029 170.13 166.874 169.77 166.771 169.462C166.669 169.05 166.411 168.742 166 168.536C164.046 168.742 163.223 167.97 163.531 166.222C163.223 166.119 162.863 166.068 162.451 166.068C161.937 165.965 161.474 165.862 161.063 165.759C160.651 165.656 160.394 165.502 160.291 165.296C160.086 165.09 160.086 164.73 160.291 164.216C160.806 164.01 161.269 164.01 161.68 164.216C162.091 164.319 162.503 164.473 162.914 164.679C163.326 164.576 163.634 164.422 163.84 164.216C164.046 164.01 164.354 163.856 164.766 163.753C165.383 164.062 166.103 164.268 166.926 164.37C167.851 164.37 168.571 164.473 169.086 164.679C170.526 164.576 171.451 164.422 171.863 164.216C172.274 163.908 172.84 163.805 173.56 163.908C174.177 164.01 174.589 164.319 174.794 164.833C175.103 165.245 175.514 165.553 176.029 165.759C176.543 165.862 176.852 165.81 176.954 165.605C177.16 165.399 177.366 165.193 177.572 164.988C178.189 165.193 178.652 165.142 178.96 164.833C179.372 164.422 179.886 164.268 180.503 164.37C181.84 163.856 182.56 163.702 182.663 163.908C182.766 164.01 182.92 164.113 183.126 164.216L186.366 163.445C187.086 163.342 187.6 163.393 187.909 163.599C188.32 163.805 188.732 164.113 189.143 164.525C189.452 164.422 189.812 164.422 190.223 164.525C190.737 164.525 191.097 164.628 191.303 164.833C192.126 164.525 193.155 164.268 194.389 164.062C195.623 163.753 196.6 163.959 197.32 164.679C197.732 164.576 198.092 164.473 198.4 164.37C198.812 164.268 199.275 164.268 199.789 164.37C200.097 164.165 200.457 163.908 200.869 163.599C201.383 163.188 202 163.085 202.72 163.29C203.337 164.113 203.595 164.576 203.492 164.679C203.492 164.679 203.492 164.782 203.492 164.988C203.903 165.296 204.315 165.399 204.726 165.296C205.24 165.09 205.703 164.885 206.115 164.679C206.526 164.473 206.938 164.319 207.349 164.216C207.76 164.113 208.12 164.216 208.429 164.525C208.635 164.833 208.635 165.142 208.429 165.45C208.326 165.656 208.326 165.913 208.429 166.222C209.149 166.119 209.818 165.965 210.435 165.759C211.052 165.45 211.772 165.399 212.595 165.605C213.212 165.193 214.035 164.782 215.063 164.37C216.195 163.959 217.018 164.165 217.532 164.988C219.28 164.576 220.823 164.165 222.161 163.753C223.395 164.062 224.218 164.113 224.629 163.908C225.041 163.702 225.503 163.702 226.018 163.908C226.943 163.599 227.663 163.085 228.178 162.365C228.795 161.542 229.669 161.028 230.801 160.822C231.829 161.13 232.549 161.285 232.961 161.285C233.475 161.285 233.835 161.49 234.041 161.902C234.555 161.696 235.069 161.439 235.583 161.13C236.098 160.719 236.612 160.719 237.126 161.13C237.744 160.719 238.309 160.308 238.824 159.896C239.338 159.485 240.006 159.176 240.829 158.97C241.035 158.765 241.292 158.61 241.601 158.507C241.909 158.405 242.166 158.25 242.372 158.045C242.784 157.736 243.144 157.427 243.452 157.119C243.761 156.81 244.275 156.707 244.995 156.81C245.406 156.502 245.869 156.399 246.384 156.502C246.898 156.605 247.206 156.913 247.309 157.427C247.104 157.839 246.898 158.199 246.692 158.507C246.486 158.713 246.435 159.073 246.538 159.588C246.332 159.999 246.024 160.359 245.612 160.668C245.201 160.976 244.841 161.285 244.532 161.593C244.224 161.902 243.915 162.262 243.606 162.673C243.401 163.085 243.349 163.65 243.452 164.37C242.835 164.988 242.424 165.502 242.218 165.913L242.372 167.456ZM308.716 185.816C309.23 186.639 309.333 187.153 309.024 187.359C308.716 187.462 308.458 187.513 308.253 187.513C307.944 187.616 307.636 187.771 307.327 187.976C307.121 188.182 306.864 188.388 306.556 188.593C304.19 188.593 302.493 189.211 301.464 190.445C301.258 191.371 301.001 191.988 300.693 192.296C300.487 192.502 300.281 192.811 300.076 193.222C300.076 193.634 300.127 193.994 300.23 194.302C300.333 194.611 300.333 195.022 300.23 195.536C299.613 196.565 299.15 197.285 298.841 197.696C298.635 198.108 298.327 198.468 297.915 198.776C297.813 199.291 297.761 199.908 297.761 200.628C297.761 201.245 297.658 201.708 297.453 202.016C297.247 202.222 296.99 202.376 296.681 202.479C296.373 202.479 296.064 202.582 295.755 202.788C295.241 202.994 294.933 203.405 294.83 204.022C294.727 204.639 294.624 205.205 294.521 205.719C294.83 207.365 294.933 208.497 294.83 209.114C294.727 209.628 294.624 210.245 294.521 210.965C295.035 211.994 295.087 212.817 294.675 213.434C294.367 213.948 294.264 214.617 294.367 215.439C293.955 216.159 293.698 217.034 293.595 218.062C293.595 219.091 293.595 220.119 293.595 221.148C293.493 221.559 293.493 221.868 293.595 222.074C293.698 222.28 293.698 222.64 293.595 223.154C291.847 224.08 290.818 225.108 290.51 226.24C290.51 226.548 290.613 226.805 290.818 227.011C291.024 227.114 291.127 227.422 291.127 227.937C290.921 228.965 290.561 229.942 290.047 230.868C289.635 231.691 289.481 232.72 289.584 233.954C289.275 235.085 289.018 236.268 288.813 237.502C288.71 238.737 288.453 239.92 288.041 241.051C288.144 242.285 287.938 243.263 287.424 243.983C287.013 244.6 286.755 245.423 286.653 246.451C286.755 246.965 286.91 247.377 287.115 247.685C287.424 247.891 287.63 248.2 287.733 248.611C287.527 249.125 287.27 249.537 286.961 249.845C286.653 250.051 286.293 250.308 285.881 250.617C285.675 251.337 285.418 252.108 285.11 252.931C284.904 253.651 284.853 254.474 284.955 255.4C285.058 256.223 285.161 256.737 285.264 256.943C285.367 257.046 285.315 257.097 285.11 257.097C285.007 257.611 284.853 258.074 284.647 258.486C284.544 258.794 284.493 259.206 284.493 259.72C284.287 260.234 284.132 260.748 284.03 261.263C283.927 261.777 283.772 262.291 283.567 262.806C283.155 263.217 282.744 263.628 282.332 264.04C282.024 264.348 281.818 264.863 281.715 265.583C282.127 267.331 282.178 268.617 281.87 269.44C281.561 270.16 281.561 270.931 281.87 271.754C281.664 272.166 281.51 272.731 281.407 273.451C281.407 274.069 281.252 274.531 280.944 274.84C281.047 275.149 281.098 275.509 281.098 275.92C281.098 276.229 281.201 276.486 281.407 276.691C281.201 277 281.15 277.309 281.252 277.617C281.355 277.926 281.304 278.183 281.098 278.389C280.378 278.389 279.71 278.286 279.092 278.08C278.578 278.286 278.064 278.543 277.55 278.851C277.035 279.16 276.418 279.417 275.698 279.623C275.184 279.52 274.927 279.263 274.927 278.851C274.927 278.44 274.721 278.131 274.31 277.926C273.487 277.823 272.767 277.874 272.15 278.08C271.635 278.286 270.967 278.491 270.144 278.697C269.115 278.08 268.447 277.823 268.138 277.926C267.829 278.131 267.418 278.183 266.904 278.08C265.875 277.463 265.155 277.309 264.744 277.617C264.435 278.029 263.869 278.183 263.047 278.08C261.812 277.463 260.938 277.206 260.424 277.309C260.012 277.411 259.601 277.309 259.189 277C258.058 277.514 257.441 277.669 257.338 277.463C257.235 277.36 257.081 277.309 256.875 277.309C256.361 277.411 255.692 277.514 254.869 277.617C254.047 277.72 253.481 277.514 253.172 277C253.378 276.383 253.687 275.869 254.098 275.457C254.509 275.046 254.921 274.634 255.332 274.223C256.464 274.326 257.595 274.377 258.727 274.377C259.961 274.377 260.732 273.811 261.041 272.68C262.069 271.549 262.789 270.674 263.201 270.057C263.201 269.543 263.201 269.028 263.201 268.514C263.201 268 263.098 267.434 262.892 266.817C262.584 265.994 262.327 265.48 262.121 265.274C262.121 264.966 262.069 264.606 261.967 264.194C261.864 263.783 261.915 263.371 262.121 262.96C261.915 262.343 261.555 261.726 261.041 261.108C261.144 259.257 260.938 257.508 260.424 255.863C260.527 255.04 260.475 254.628 260.269 254.628C260.167 254.526 260.064 254.371 259.961 254.166C259.755 253.034 259.652 252.263 259.652 251.851C259.755 251.337 259.807 250.72 259.807 250C259.704 249.485 259.549 249.074 259.344 248.765C259.138 248.457 259.087 248.045 259.189 247.531C258.881 246.811 258.521 246.194 258.109 245.68C257.698 245.165 257.287 244.6 256.875 243.983C256.978 243.674 257.029 243.365 257.029 243.057C257.029 242.645 257.029 242.285 257.029 241.977C256.824 241.36 256.567 240.691 256.258 239.971C256.155 238.634 255.949 237.76 255.641 237.348C255.435 236.937 255.178 236.474 254.869 235.96C254.869 235.445 254.972 235.085 255.178 234.88C255.384 234.571 255.487 234.16 255.487 233.645C254.767 232.617 254.252 232 253.944 231.794C254.047 231.382 254.047 230.92 253.944 230.405C253.944 229.891 253.892 229.377 253.789 228.862C253.275 227.834 253.172 227.114 253.481 226.702C253.789 226.291 253.841 225.828 253.635 225.314C253.532 224.902 253.327 224.645 253.018 224.542C252.812 224.44 252.658 224.234 252.555 223.925C252.658 223.411 252.812 223.102 253.018 223C253.224 222.794 253.429 222.434 253.635 221.92C253.327 221.097 252.864 220.479 252.246 220.068C251.732 219.657 251.372 219.091 251.166 218.371C251.166 217.548 251.269 216.879 251.475 216.365C251.784 215.851 252.041 215.285 252.246 214.668C251.938 214.154 251.526 213.742 251.012 213.434C250.498 213.125 250.138 212.662 249.932 212.045C250.138 211.634 250.189 211.222 250.086 210.811C250.086 210.399 250.086 209.885 250.086 209.268C249.881 207.931 249.829 207.211 249.932 207.108C250.138 206.902 250.292 206.594 250.395 206.182C250.395 205.771 250.292 205.462 250.086 205.256C249.881 204.948 249.675 204.639 249.469 204.331C249.469 203.302 249.366 202.634 249.161 202.325C248.955 202.119 248.646 202.016 248.235 202.016C247.926 201.914 247.669 201.759 247.464 201.554C247.361 201.039 247.001 200.576 246.384 200.165C246.178 200.165 245.921 200.268 245.612 200.474C245.304 200.576 244.944 200.525 244.532 200.319C244.429 199.394 244.429 198.725 244.532 198.314C244.738 197.902 244.944 197.542 245.149 197.234C244.841 196.205 244.532 195.588 244.224 195.382C244.018 195.074 243.864 194.662 243.761 194.148C242.938 194.662 242.012 194.714 240.984 194.302C239.955 193.891 239.698 193.119 240.212 191.988C240.006 191.474 239.646 191.165 239.132 191.062C238.515 190.959 238.104 190.651 237.898 190.136C237.898 189.313 237.744 188.953 237.435 189.056C237.023 189.056 236.715 188.953 236.509 188.748C236.201 188.028 236.149 187.308 236.355 186.588C236.663 186.382 237.126 186.279 237.744 186.279C238.258 186.279 238.669 186.176 238.978 185.971C239.698 186.073 240.366 186.073 240.984 185.971C241.601 185.868 242.166 185.971 242.681 186.279C243.812 186.176 244.429 186.176 244.532 186.279C244.635 186.382 244.789 186.485 244.995 186.588C246.538 186.588 247.618 186.485 248.235 186.279C249.161 186.382 249.624 186.536 249.624 186.742C249.726 186.845 249.881 186.948 250.086 187.051C251.012 186.845 251.938 186.433 252.864 185.816C253.789 185.199 254.664 185.302 255.487 186.125C255.487 186.948 255.281 187.565 254.869 187.976C254.458 188.388 254.149 188.851 253.944 189.365C254.561 189.468 255.075 189.365 255.487 189.056C256.001 188.645 256.464 188.233 256.875 187.822C257.595 187.719 258.109 187.565 258.418 187.359C258.829 187.051 259.292 186.793 259.807 186.588C261.041 186.691 261.864 186.588 262.275 186.279C262.789 185.868 263.201 185.919 263.509 186.433C263.509 186.845 263.355 187.102 263.047 187.205C262.841 187.308 262.635 187.513 262.429 187.822C262.429 189.673 262.172 191.525 261.658 193.376C261.864 193.891 262.172 194.354 262.584 194.765C263.098 195.074 263.458 195.588 263.664 196.308C263.458 197.131 263.098 197.748 262.584 198.159C262.172 198.468 261.864 198.931 261.658 199.548C262.687 200.782 263.355 201.656 263.664 202.171C264.075 202.582 264.384 203.045 264.589 203.559C265.412 204.485 265.721 205.102 265.515 205.411C265.412 205.616 265.361 205.822 265.361 206.028C265.464 206.542 265.618 207.005 265.824 207.417C266.029 207.725 266.081 208.137 265.978 208.651C265.978 209.062 265.875 209.422 265.669 209.731C265.464 209.937 265.464 210.245 265.669 210.657C265.875 211.171 266.081 211.634 266.287 212.045C266.492 212.354 266.595 212.817 266.595 213.434C266.801 215.285 266.749 216.674 266.441 217.599C266.441 217.908 266.492 218.268 266.595 218.679C266.801 218.988 266.801 219.245 266.595 219.451C266.801 220.068 267.058 220.685 267.367 221.302C267.778 221.92 268.087 222.485 268.292 223C268.189 224.234 268.241 224.954 268.447 225.16C268.652 225.365 268.601 225.725 268.292 226.24C268.395 226.548 268.55 226.754 268.755 226.857C268.961 226.96 269.064 227.268 269.064 227.782C269.064 228.4 268.961 228.914 268.755 229.325C268.55 229.634 268.344 230.045 268.138 230.56C268.344 230.662 268.652 230.662 269.064 230.56C269.475 230.457 269.835 230.508 270.144 230.714C270.967 232.565 271.018 234.468 270.298 236.422C271.018 237.451 271.378 237.965 271.378 237.965C271.584 238.171 271.841 238.531 272.15 239.045C272.561 239.457 272.767 239.92 272.767 240.434C272.87 240.845 272.818 241.205 272.612 241.514C272.51 241.823 272.458 242.183 272.458 242.594C272.972 241.154 273.281 240.177 273.384 239.663C273.59 239.045 273.847 238.531 274.155 238.12C274.155 236.474 274.361 235.034 274.772 233.8C274.772 232.462 274.875 231.537 275.081 231.022C275.39 230.405 275.647 229.84 275.852 229.325C276.161 228.811 276.418 228.245 276.624 227.628C276.83 227.011 276.932 226.291 276.932 225.468C277.344 224.645 277.652 223.771 277.858 222.845C278.064 221.817 278.064 220.788 277.858 219.759C278.064 219.245 278.064 218.628 277.858 217.908C278.064 217.188 278.218 216.571 278.321 216.057C278.424 215.542 278.475 214.822 278.475 213.897C278.784 212.765 279.092 211.685 279.401 210.657C279.71 209.628 279.864 208.394 279.864 206.954C280.07 205.925 280.172 205.359 280.172 205.256C280.172 205.154 280.121 204.999 280.018 204.794C280.224 204.074 280.327 203.354 280.327 202.634C280.43 201.811 280.584 201.039 280.79 200.319C280.892 199.805 280.841 199.342 280.635 198.931C280.532 198.416 280.532 197.902 280.635 197.388C280.635 196.874 280.738 196.514 280.944 196.308C281.252 195.999 281.51 195.639 281.715 195.228C281.612 194.508 281.664 193.942 281.87 193.531C282.178 193.016 282.281 192.451 282.178 191.834C282.075 191.422 281.972 191.114 281.87 190.908C281.87 190.702 281.921 190.342 282.024 189.828C282.23 188.696 282.178 188.131 281.87 188.131C281.561 188.131 281.458 187.873 281.561 187.359C281.664 186.845 281.921 186.588 282.332 186.588C282.847 186.485 283.361 186.331 283.875 186.125C284.184 185.816 284.493 185.611 284.801 185.508C285.213 185.302 285.675 185.096 286.19 184.891C286.704 184.993 287.013 185.251 287.115 185.662C287.321 185.971 287.681 186.228 288.195 186.433C289.43 186.639 290.561 186.639 291.59 186.433C292.721 186.228 293.801 186.022 294.83 185.816C295.447 185.919 295.91 186.176 296.218 186.588C296.527 186.999 296.99 187.308 297.607 187.513C298.121 187.411 298.584 187.256 298.995 187.051C299.407 186.845 299.87 186.639 300.384 186.433C301.31 186.433 302.081 186.279 302.698 185.971C303.418 186.073 303.984 186.022 304.396 185.816C304.807 185.611 305.27 185.508 305.784 185.508C306.916 185.611 307.584 185.662 307.79 185.662C307.996 185.559 308.304 185.611 308.716 185.816ZM367.19 175.788C367.396 176.096 367.448 176.405 367.345 176.713C367.345 177.022 367.448 177.279 367.653 177.485C367.345 178.308 366.933 179.079 366.419 179.799C366.522 181.033 366.162 181.959 365.339 182.576C364.619 183.193 364.053 183.913 363.642 184.736C363.436 185.971 362.922 186.896 362.099 187.513C361.996 188.028 361.893 188.542 361.79 189.056C361.79 189.468 361.893 189.879 362.099 190.291C361.893 190.702 361.636 191.011 361.327 191.216C361.122 191.422 360.916 191.731 360.71 192.142C360.813 193.274 360.71 193.942 360.402 194.148C360.196 194.354 359.99 194.662 359.785 195.074C359.065 196.411 358.499 197.388 358.087 198.005C357.779 198.519 357.522 199.136 357.316 199.856C356.699 201.296 356.133 202.274 355.619 202.788C355.105 202.891 354.745 202.839 354.539 202.634C354.436 202.428 354.23 202.274 353.922 202.171C353.613 203.302 353.253 203.765 352.842 203.559C352.533 203.251 352.327 202.891 352.225 202.479C350.99 202.582 350.219 202.479 349.91 202.171C349.705 201.862 349.345 201.656 348.83 201.554C348.213 201.451 347.699 201.502 347.287 201.708C346.979 201.914 346.516 202.016 345.899 202.016C345.487 201.914 345.127 201.759 344.819 201.554C344.613 201.245 344.304 201.091 343.893 201.091C343.379 200.988 342.967 201.091 342.659 201.399C342.35 201.708 341.99 201.965 341.579 202.171C340.859 201.965 340.19 201.965 339.573 202.171C339.059 202.376 338.39 202.531 337.567 202.634C336.539 202.325 335.767 202.119 335.253 202.016C334.842 201.914 334.584 201.605 334.482 201.091C333.247 201.708 332.527 201.914 332.322 201.708C332.219 201.399 332.013 201.091 331.704 200.782C331.19 200.885 330.727 201.039 330.316 201.245C330.007 201.348 329.75 201.502 329.544 201.708C328.413 200.988 327.641 201.296 327.23 202.634C327.847 204.382 327.95 205.462 327.539 205.874C327.127 206.285 326.819 206.851 326.613 207.571C326.921 208.188 327.179 208.857 327.384 209.577C327.59 210.194 327.539 210.914 327.23 211.737C327.436 212.251 327.59 212.868 327.693 213.588C327.796 214.308 327.693 214.977 327.384 215.594C327.899 217.034 328.001 218.474 327.693 219.914C327.487 221.354 327.487 222.742 327.693 224.08C328.104 224.182 328.464 224.182 328.773 224.08C329.184 223.977 329.647 223.925 330.161 223.925C331.396 223.617 332.116 223.565 332.322 223.771C332.63 223.874 332.939 224.028 333.247 224.234C333.453 224.131 333.71 224.131 334.019 224.234C334.327 224.234 334.636 224.182 334.944 224.08C335.253 223.977 335.51 223.874 335.716 223.771C336.024 223.565 336.333 223.514 336.642 223.617C337.67 223.822 338.339 223.925 338.647 223.925C339.059 223.925 339.419 223.925 339.727 223.925C340.653 223.205 341.682 222.897 342.813 223C343.533 222.485 344.099 221.817 344.51 220.994C344.922 220.171 345.59 219.605 346.516 219.297C347.647 219.091 348.316 218.731 348.522 218.217C348.727 217.599 349.139 217.188 349.756 216.982C350.167 216.057 350.476 215.491 350.682 215.285C351.505 214.668 352.122 214.257 352.533 214.051C352.945 213.845 353.459 213.742 354.076 213.742C354.076 214.977 354.23 215.645 354.539 215.748C354.847 215.851 354.899 216.005 354.693 216.211C354.59 216.519 354.385 216.777 354.076 216.982C353.767 217.085 353.51 217.239 353.305 217.445C353.407 217.857 353.407 218.165 353.305 218.371C353.202 218.577 353.15 218.834 353.15 219.142C352.739 219.554 352.173 219.914 351.453 220.222C350.939 220.839 350.527 221.662 350.219 222.691C350.116 224.337 349.859 225.571 349.447 226.394C349.139 227.217 348.933 228.245 348.83 229.48C347.596 230.2 346.824 230.92 346.516 231.64C346.31 232.257 346.002 232.822 345.59 233.337C345.487 234.571 345.282 235.394 344.973 235.805C344.767 236.217 344.51 236.628 344.202 237.04C342.967 237.76 342.196 238.12 341.887 238.12C341.579 238.017 341.27 238.068 340.962 238.274C340.447 238.171 339.933 238.12 339.419 238.12C339.007 238.12 338.544 238.017 338.03 237.811C337.619 237.605 337.156 237.657 336.642 237.965C336.23 238.274 335.819 238.428 335.407 238.428C334.79 238.428 334.327 238.274 334.019 237.965C333.813 237.657 333.556 237.4 333.247 237.194C332.733 237.297 332.167 237.4 331.55 237.502C331.036 237.605 330.624 237.811 330.316 238.12C329.904 238.223 329.544 238.223 329.236 238.12C329.03 238.017 328.721 237.965 328.31 237.965C328.001 238.274 327.796 238.685 327.693 239.2C327.59 239.714 327.281 240.023 326.767 240.125C326.87 240.64 327.024 241.051 327.23 241.36C327.539 241.565 327.847 241.823 328.156 242.131C327.95 243.365 327.744 244.445 327.539 245.371C327.23 246.811 327.23 247.685 327.539 247.994C327.95 248.2 328.156 248.663 328.156 249.383C328.053 249.897 327.847 250.36 327.539 250.771C327.333 251.183 327.127 251.645 326.921 252.16C327.024 252.674 327.127 253.085 327.23 253.394C327.436 253.703 327.487 254.166 327.384 254.783C327.899 256.737 327.847 257.868 327.23 258.177C326.716 258.486 326.407 259.051 326.304 259.874C326.51 260.388 326.664 260.8 326.767 261.108C326.973 261.417 327.076 261.828 327.076 262.343C327.281 262.548 327.384 262.806 327.384 263.114C327.487 263.423 327.641 263.68 327.847 263.886C329.081 263.577 329.75 263.526 329.853 263.731C329.956 263.834 330.11 263.988 330.316 264.194C330.727 263.988 331.087 263.886 331.396 263.886C331.704 263.783 332.013 263.628 332.322 263.423C333.042 263.32 333.556 263.371 333.864 263.577C334.173 263.783 334.584 263.937 335.099 264.04C335.922 263.834 336.59 263.577 337.104 263.268C337.619 262.857 338.442 262.703 339.573 262.806C339.779 263.011 339.882 263.32 339.882 263.731C339.984 264.04 340.036 264.4 340.036 264.811C340.447 264.811 340.807 264.657 341.116 264.348C341.424 263.937 341.939 263.834 342.659 264.04C343.79 263.628 344.356 263.68 344.356 264.194C345.179 263.988 345.744 263.628 346.053 263.114C346.362 262.6 346.876 262.24 347.596 262.034C348.419 262.24 348.933 262.24 349.139 262.034C349.345 261.726 349.602 261.468 349.91 261.263C351.556 261.057 352.585 260.491 352.996 259.566C353.407 258.537 353.922 257.611 354.539 256.788C354.847 256.583 355.207 256.48 355.619 256.48C356.133 256.377 356.647 256.274 357.162 256.171C357.47 255.657 357.727 255.04 357.933 254.32C358.139 253.6 358.447 252.983 358.859 252.468C359.167 252.16 359.476 251.903 359.785 251.697C360.093 251.491 360.35 251.131 360.556 250.617C361.379 249.794 361.996 249.074 362.407 248.457C362.922 247.737 363.745 247.48 364.876 247.685C365.802 248.508 366.059 249.023 365.648 249.228C365.236 249.434 364.979 249.897 364.876 250.617C364.979 250.925 365.082 251.234 365.185 251.543C365.39 251.851 365.442 252.211 365.339 252.623C364.516 253.96 364.053 254.834 363.95 255.246C363.848 255.657 363.693 256.068 363.488 256.48C363.385 256.994 363.436 257.406 363.642 257.714C363.848 258.023 364.002 258.434 364.105 258.948C363.282 259.771 362.819 260.286 362.716 260.491C362.716 260.697 362.716 260.903 362.716 261.108C362.716 261.52 362.767 261.828 362.87 262.034C363.076 262.24 363.23 262.497 363.333 262.806C363.333 263.32 363.282 263.731 363.179 264.04C363.076 264.246 362.922 264.503 362.716 264.811C361.996 265.223 361.533 265.634 361.327 266.046C361.225 266.354 361.225 266.663 361.327 266.971C360.71 268 360.35 268.566 360.247 268.668C360.247 268.771 360.145 268.823 359.939 268.823C359.733 269.543 359.579 270.314 359.476 271.137C359.476 271.857 359.322 272.526 359.013 273.143C358.807 273.349 358.447 273.4 357.933 273.297C357.522 273.194 357.265 273.297 357.162 273.606C357.265 274.12 357.367 274.531 357.47 274.84C357.573 275.046 357.727 275.303 357.933 275.611C357.933 276.126 357.985 276.589 358.087 277C358.293 277.309 358.396 277.72 358.396 278.234C358.087 278.749 357.573 278.903 356.853 278.697C356.133 278.594 355.567 278.44 355.156 278.234C354.847 278.337 354.59 278.491 354.385 278.697C354.179 278.903 353.87 279.006 353.459 279.006C352.43 278.697 351.607 278.491 350.99 278.389C349.653 279.109 348.47 279.417 347.442 279.314C346.516 279.211 345.59 279.16 344.664 279.16C343.122 279.16 342.093 278.954 341.579 278.543C341.064 278.234 340.499 278.08 339.882 278.08C339.47 278.183 339.162 278.337 338.956 278.543C338.75 278.749 338.39 278.954 337.876 279.16C337.464 279.057 337.053 279.006 336.642 279.006C336.23 279.006 335.767 279.006 335.253 279.006C334.122 278.594 333.196 278.594 332.476 279.006C331.859 279.417 331.293 279.263 330.779 278.543C330.573 278.749 330.264 279.006 329.853 279.314C329.544 279.623 329.184 279.52 328.773 279.006C328.773 278.697 328.824 278.389 328.927 278.08C329.03 277.771 328.979 277.514 328.773 277.309C327.23 277.823 326.201 278.183 325.687 278.389C325.276 278.697 324.659 278.903 323.836 279.006C322.601 279.314 321.727 279.366 321.213 279.16C320.801 279.057 320.544 278.749 320.441 278.234C318.899 278.543 317.973 278.851 317.664 279.16C317.459 279.571 317.047 279.777 316.43 279.777C315.916 279.366 315.247 279.057 314.424 278.851C313.601 278.749 312.778 278.8 311.956 279.006C311.133 278.8 310.413 278.697 309.796 278.697C309.281 278.697 308.87 278.8 308.561 279.006C308.047 279.417 307.636 279.931 307.327 280.549C307.018 281.166 306.453 281.526 305.63 281.629C304.91 281.526 304.396 281.269 304.087 280.857C303.778 280.549 303.367 280.291 302.853 280.086C302.338 280.086 301.978 280.24 301.773 280.549C301.567 280.857 301.207 281.011 300.693 281.011C298.944 279.88 297.658 279.16 296.835 278.851C295.91 278.543 294.881 278.337 293.75 278.234C293.853 277.411 294.213 277 294.83 277C295.447 277.103 295.858 276.897 296.064 276.383C296.784 276.177 297.247 276.074 297.453 276.074C297.658 275.971 297.864 275.817 298.07 275.611C298.584 275.714 299.098 275.714 299.613 275.611C300.024 275.509 300.436 275.56 300.847 275.766C302.287 275.663 303.316 275.303 303.933 274.686C304.55 273.966 305.218 273.194 305.938 272.371C306.658 272.166 307.07 272.011 307.173 271.909C307.276 271.703 307.43 271.549 307.636 271.446C308.356 270.211 308.818 269.337 309.024 268.823C309.333 268.308 309.744 267.846 310.258 267.434C310.053 266.817 310.104 266.303 310.413 265.891C310.824 265.48 311.133 265.017 311.338 264.503C311.03 263.063 310.978 262.137 311.184 261.726C311.39 261.211 311.596 260.697 311.801 260.183C311.801 259.154 311.647 258.228 311.338 257.406C311.441 256.274 311.493 255.657 311.493 255.554C311.493 255.348 311.596 255.143 311.801 254.937C311.493 254.526 311.287 254.063 311.184 253.548C311.081 253.034 310.978 252.52 310.876 252.005C310.773 251.697 310.567 251.491 310.258 251.388C310.053 251.183 309.847 250.925 309.641 250.617C309.95 249.588 310.516 248.765 311.338 248.148C311.338 247.531 311.441 247.068 311.647 246.76C311.853 246.348 312.058 245.885 312.264 245.371C312.058 244.857 311.801 244.548 311.493 244.445C311.287 244.24 311.184 243.931 311.184 243.52C311.081 242.903 311.236 242.234 311.647 241.514C312.161 240.691 312.418 239.868 312.418 239.045C312.11 237.811 312.11 236.988 312.418 236.577C312.727 236.165 312.933 235.702 313.036 235.188C312.521 234.365 312.058 233.542 311.647 232.72C311.338 231.897 311.03 231.022 310.721 230.097C310.516 229.582 310.516 229.12 310.721 228.708C310.927 228.297 311.081 227.834 311.184 227.32C311.184 226.394 311.133 225.828 311.03 225.622C310.927 225.314 310.927 224.954 311.03 224.542C310.721 223.411 310.67 222.588 310.876 222.074C311.081 221.559 311.287 220.994 311.493 220.377C311.493 219.142 311.236 218.165 310.721 217.445C310.31 216.725 309.847 216.005 309.333 215.285C309.333 214.565 309.384 213.999 309.487 213.588C309.693 213.074 309.898 212.559 310.104 212.045C309.796 210.297 309.693 209.062 309.796 208.342C310.001 207.622 310.001 206.851 309.796 206.028C309.898 205.308 310.156 204.485 310.567 203.559C310.464 202.428 310.516 201.759 310.721 201.554C311.03 201.348 311.133 200.936 311.03 200.319C310.824 199.908 310.516 199.651 310.104 199.548C309.796 199.342 309.538 198.982 309.333 198.468C309.333 198.056 309.487 197.799 309.796 197.696C310.104 197.594 310.31 197.388 310.413 197.079C309.796 196.771 309.23 196.514 308.716 196.308C307.79 195.485 306.967 195.022 306.247 194.919C305.527 194.714 305.218 194.199 305.321 193.376C303.778 192.965 302.904 192.708 302.698 192.605C302.493 192.399 302.338 192.194 302.236 191.988C302.133 191.679 301.876 191.474 301.464 191.371C301.156 191.371 300.847 191.422 300.538 191.525C300.127 191.628 299.767 191.576 299.458 191.371C298.944 190.856 298.841 190.291 299.15 189.673C299.458 188.953 299.87 188.388 300.384 187.976C301.618 188.182 302.441 188.285 302.853 188.285C303.264 188.285 303.676 188.182 304.087 187.976C305.013 187.565 305.527 187.462 305.63 187.668C305.836 187.771 306.041 187.873 306.247 187.976C307.481 187.976 308.098 188.131 308.098 188.439C308.201 188.645 308.356 188.799 308.561 188.902C310.104 188.902 311.184 188.799 311.801 188.593C312.418 188.388 312.933 188.131 313.344 187.822C314.167 188.028 314.733 187.976 315.041 187.668C315.453 187.256 315.967 187.051 316.584 187.051C318.024 187.668 319.053 187.925 319.67 187.822C320.287 187.719 320.904 187.616 321.521 187.513C322.139 187.308 322.704 187.205 323.219 187.205C323.836 187.205 324.401 187.359 324.916 187.668C325.533 187.359 326.099 186.999 326.613 186.588C327.23 186.176 327.95 186.073 328.773 186.279C329.493 186.588 330.007 187.359 330.316 188.593C331.241 188.182 332.219 187.873 333.247 187.668C334.379 187.359 335.51 187.256 336.642 187.359C337.876 188.079 338.75 188.388 339.264 188.285C339.882 188.079 340.447 188.131 340.962 188.439C343.019 188.851 344.613 188.491 345.744 187.359C346.259 187.051 346.67 186.691 346.979 186.279C347.39 185.765 347.905 185.405 348.522 185.199C349.139 185.302 349.447 185.816 349.447 186.742C349.859 186.639 350.219 186.485 350.527 186.279C350.836 186.073 351.247 186.073 351.762 186.279C352.379 185.559 352.842 185.096 353.15 184.891C353.562 184.685 354.025 184.479 354.539 184.273C355.259 185.302 355.67 185.765 355.773 185.662C355.876 185.456 356.03 185.353 356.236 185.353C356.853 184.016 357.47 183.091 358.087 182.576C358.705 181.959 359.322 181.393 359.939 180.879C360.967 180.776 361.533 180.416 361.636 179.799C361.842 179.182 362.202 178.771 362.716 178.565C363.642 178.565 364.208 178.359 364.413 177.948C364.619 177.536 364.825 177.125 365.03 176.713C365.339 176.302 365.648 175.993 365.956 175.788C366.368 175.479 366.779 175.479 367.19 175.788ZM438.934 184.736C439.14 185.868 439.14 186.588 438.934 186.896C438.728 187.205 438.522 187.462 438.317 187.668H436.311C435.9 188.799 435.437 189.365 434.922 189.365C434.511 189.365 434.202 189.519 433.997 189.828C433.38 190.033 433.02 190.239 432.917 190.445C432.917 190.548 432.814 190.702 432.608 190.908C431.888 191.525 431.374 191.936 431.065 192.142C430.757 192.348 430.602 192.708 430.602 193.222C430.397 193.428 430.037 193.582 429.522 193.685C429.111 193.788 428.751 193.891 428.442 193.994C428.031 195.948 427.62 197.182 427.208 197.696C426.797 198.108 426.488 198.674 426.282 199.394C426.385 200.422 426.591 201.039 426.9 201.245C427.208 201.451 427.465 201.656 427.671 201.862C427.465 202.582 427.208 202.994 426.9 203.096C426.694 203.096 426.488 203.199 426.282 203.405C426.282 203.816 426.334 204.176 426.437 204.485C426.642 204.691 426.797 204.999 426.9 205.411C426.9 206.234 426.694 206.851 426.282 207.262C425.871 207.571 425.717 208.137 425.819 208.959C426.642 210.091 426.951 210.811 426.745 211.119C426.539 211.325 426.385 211.582 426.282 211.891C427.105 213.125 427.414 213.897 427.208 214.205C427.002 214.411 426.797 214.668 426.591 214.977C426.9 216.211 426.951 216.931 426.745 217.137C426.642 217.239 426.539 217.394 426.437 217.599C426.745 218.937 426.694 219.708 426.282 219.914C425.974 220.017 425.665 220.171 425.357 220.377C425.871 220.788 426.282 221.148 426.591 221.457C427.002 221.765 427.311 222.177 427.517 222.691C427.414 223.205 427.465 223.617 427.671 223.925C427.877 224.234 427.928 224.645 427.825 225.16C427.825 225.468 427.722 225.725 427.517 225.931C427.311 226.137 427.157 226.394 427.054 226.702C427.157 227.011 427.26 227.32 427.362 227.628C427.568 227.937 427.62 228.245 427.517 228.554C426.9 229.788 426.642 230.611 426.745 231.022C426.848 231.331 426.797 231.691 426.591 232.102C426.694 232.411 426.9 232.72 427.208 233.028C427.517 233.337 427.671 233.8 427.671 234.417C427.774 235.137 427.568 235.96 427.054 236.885C427.054 237.4 427.157 237.811 427.362 238.12C427.568 238.428 427.774 238.84 427.98 239.354C427.877 239.868 427.671 240.228 427.362 240.434C427.054 240.64 426.745 240.845 426.437 241.051C426.437 242.285 426.437 243.263 426.437 243.983C426.437 244.6 426.231 245.063 425.819 245.371C426.025 245.577 426.282 245.937 426.591 246.451C426.9 246.863 426.848 247.325 426.437 247.84C426.745 248.148 427.105 248.405 427.517 248.611C427.928 248.817 428.237 249.177 428.442 249.691C428.442 250.514 428.082 250.977 427.362 251.08C427.465 251.8 427.465 252.263 427.362 252.468C427.26 252.571 427.157 252.725 427.054 252.931C427.26 253.446 427.362 254.166 427.362 255.091C427.465 256.017 427.26 256.583 426.745 256.788C426.745 257.714 426.797 258.228 426.9 258.331C427.105 258.434 427.157 258.588 427.054 258.794C426.848 259.308 426.539 259.668 426.128 259.874C425.717 259.977 425.408 260.234 425.202 260.646C424.997 261.057 424.945 261.52 425.048 262.034C425.151 262.446 425.099 262.857 424.894 263.268C425.202 264.297 425.459 264.914 425.665 265.12C425.974 265.326 426.231 265.583 426.437 265.891C426.334 266.406 426.385 267.177 426.591 268.206C426.077 268.926 425.819 269.749 425.819 270.674C425.819 271.497 425.614 272.269 425.202 272.989C425.408 274.017 425.562 274.531 425.665 274.531C425.871 274.531 426.077 274.634 426.282 274.84C426.282 275.56 425.922 276.023 425.202 276.229C424.482 276.434 424.019 276.177 423.814 275.457C423.299 275.56 422.837 275.766 422.425 276.074C422.014 276.28 421.551 276.28 421.037 276.074C419.802 276.486 418.979 276.434 418.568 275.92C418.362 276.023 418.002 276.229 417.488 276.537C417.077 276.846 416.665 276.949 416.254 276.846C415.431 276.434 414.762 276.331 414.248 276.537C413.837 276.64 413.374 276.743 412.859 276.846C412.448 276.949 412.037 277 411.625 277C411.317 276.897 411.008 276.64 410.699 276.229C411.008 275.611 410.956 275.097 410.545 274.686C410.236 274.171 410.236 273.503 410.545 272.68C409.928 271.96 409.619 271.497 409.619 271.291C409.722 270.983 409.722 270.674 409.619 270.366C409.311 270.263 408.951 270.211 408.539 270.211C408.231 270.211 408.025 270.006 407.922 269.594C407.819 268.566 407.459 267.948 406.842 267.743C406.534 267.228 406.328 266.663 406.225 266.046C406.122 265.326 405.968 264.657 405.762 264.04C404.425 263.32 404.065 262.548 404.682 261.726C404.476 261.52 404.322 261.211 404.219 260.8C404.219 260.388 404.116 260.028 403.911 259.72C403.294 258.383 402.779 257.406 402.368 256.788C401.031 256.068 400.156 255.503 399.745 255.091C399.539 254.577 399.539 254.166 399.745 253.857C399.951 253.446 399.951 252.931 399.745 252.314C399.025 251.491 398.614 250.771 398.511 250.154C398.408 249.537 398.151 249.023 397.739 248.611C396.505 247.274 396.042 245.834 396.351 244.291C395.528 243.365 394.962 242.8 394.653 242.594C394.345 242.388 394.191 242.028 394.191 241.514C394.499 241 394.859 240.897 395.271 241.205C395.682 241.514 395.991 241.771 396.196 241.977C396.608 240.537 396.505 239.817 395.888 239.817C395.271 239.817 394.859 239.508 394.653 238.891C394.345 238.068 393.985 237.605 393.573 237.502C393.162 237.297 392.853 237.04 392.648 236.731C392.339 236.217 392.185 235.548 392.185 234.725C392.185 233.8 392.288 233.028 392.493 232.411C391.671 231.382 391.311 230.662 391.413 230.251C391.516 229.737 391.671 229.325 391.876 229.017C391.671 228.502 391.311 228.245 390.796 228.245C390.282 228.142 390.076 227.731 390.179 227.011C389.665 227.011 389.202 227.011 388.791 227.011C388.379 227.011 388.071 226.908 387.865 226.702C387.762 227.32 387.865 227.731 388.173 227.937C388.482 228.04 388.688 228.348 388.791 228.862C388.482 229.994 388.431 230.662 388.636 230.868C388.842 230.971 388.945 231.228 388.945 231.64C388.739 232.051 388.482 232.36 388.173 232.565C387.968 232.771 387.762 232.977 387.556 233.182C387.453 234.108 387.556 234.828 387.865 235.342C388.276 235.857 388.379 236.525 388.173 237.348C388.276 237.76 388.431 238.171 388.636 238.583C388.842 238.994 388.996 239.457 389.099 239.971C389.202 240.485 389.202 240.948 389.099 241.36C388.996 241.771 389.048 242.183 389.253 242.594C388.842 242.903 388.636 243.52 388.636 244.445C388.636 245.268 388.842 245.834 389.253 246.143C389.871 246.348 390.488 246.503 391.105 246.605C391.825 246.708 392.082 247.223 391.876 248.148C391.465 248.663 390.951 249.125 390.333 249.537C389.716 249.845 389.356 250.463 389.253 251.388C389.151 252.623 389.099 253.497 389.099 254.011C389.099 254.423 389.099 254.988 389.099 255.708C388.791 256.017 388.482 256.274 388.173 256.48C387.865 256.686 387.608 256.943 387.402 257.251C387.711 258.588 387.968 259.36 388.173 259.566C388.379 259.668 388.533 259.874 388.636 260.183C388.533 261.623 388.379 262.651 388.173 263.268C388.276 265.12 388.482 266.508 388.791 267.434C389.202 268.257 389.716 268.926 390.333 269.44C390.333 269.954 390.231 270.366 390.025 270.674C389.819 270.983 389.613 271.291 389.408 271.6C389.511 272.011 389.716 272.526 390.025 273.143C390.333 273.76 390.179 274.171 389.562 274.377C388.636 274.069 387.865 273.966 387.248 274.069C386.631 274.069 386.219 274.171 386.013 274.377C386.013 275.714 386.065 276.589 386.168 277C386.271 277.309 386.219 277.669 386.013 278.08C385.705 278.286 385.345 278.337 384.933 278.234C384.625 278.131 384.265 278.131 383.853 278.234C383.648 278.954 383.339 279.623 382.928 280.24C382.619 280.857 382.105 281.269 381.385 281.474C381.282 281.989 381.076 282.349 380.768 282.554C380.562 282.76 380.511 283.171 380.613 283.789C380.305 283.994 379.996 284.2 379.688 284.406C379.482 284.611 379.122 284.714 378.608 284.714C378.813 285.537 378.659 286.257 378.145 286.874C377.63 287.594 377.116 287.543 376.602 286.72C376.293 286.926 376.088 287.183 375.985 287.492C375.882 287.8 375.728 288.057 375.522 288.263C375.316 288.983 375.162 289.497 375.059 289.806C374.956 290.217 374.853 290.68 374.75 291.194C374.236 291.503 373.928 291.966 373.825 292.583C373.722 293.2 373.413 293.714 372.899 294.126C372.179 293.714 371.716 293.406 371.51 293.2C371.408 292.994 371.305 292.686 371.202 292.274C371.305 291.966 371.562 291.657 371.973 291.349C372.385 291.04 372.333 290.629 371.819 290.114C372.23 289.086 372.333 288.52 372.128 288.417C372.025 288.314 371.973 288.109 371.973 287.8C372.282 286.566 372.385 285.897 372.282 285.794C372.282 283.84 372.59 282.297 373.208 281.166C373.105 280.343 373.105 279.88 373.208 279.777C373.31 279.674 373.362 279.52 373.362 279.314C373.156 278.8 372.95 278.389 372.745 278.08C372.539 277.771 372.436 277.36 372.436 276.846C372.333 276.126 372.385 275.509 372.59 274.994C372.796 274.48 373.053 273.966 373.362 273.451C373.053 272.217 372.796 271.497 372.59 271.291C372.385 271.086 372.333 270.726 372.436 270.211C372.745 269.389 372.95 268.874 373.053 268.668C373.156 268.36 373.259 268.103 373.362 267.897C373.259 267.28 373.053 266.868 372.745 266.663C372.436 266.354 372.333 265.84 372.436 265.12C372.642 264.297 372.59 263.834 372.282 263.731C371.973 263.628 371.87 263.371 371.973 262.96C372.693 261.931 373.002 261.314 372.899 261.108C372.796 260.8 372.796 260.388 372.899 259.874C371.973 258.537 371.665 257.766 371.973 257.56C372.385 257.251 372.745 256.891 373.053 256.48C372.848 256.171 372.59 255.811 372.282 255.4C372.076 254.988 372.076 254.423 372.282 253.703C372.076 253.497 371.819 253.343 371.51 253.24C371.202 253.137 370.996 252.88 370.893 252.468C371.202 251.645 371.562 250.977 371.973 250.463C372.488 249.948 372.95 249.331 373.362 248.611C373.156 248.303 372.848 248.097 372.436 247.994C372.128 247.788 372.025 247.377 372.128 246.76C372.23 246.348 372.385 246.091 372.59 245.988C372.796 245.783 373.002 245.577 373.208 245.371C372.796 244.754 372.796 244.24 373.208 243.828C373.619 243.314 373.773 242.697 373.67 241.977C374.288 241.36 374.853 241 375.368 240.897C375.162 240.383 374.956 239.868 374.75 239.354C374.648 238.84 374.699 238.223 374.905 237.502C374.596 236.885 374.133 236.371 373.516 235.96C372.899 235.548 372.539 234.88 372.436 233.954C373.362 232.72 373.773 231.537 373.67 230.405C373.979 229.171 373.825 228.297 373.208 227.782C372.693 227.165 372.745 226.6 373.362 226.085C373.156 225.571 372.95 224.954 372.745 224.234C372.642 223.514 372.848 222.897 373.362 222.382C373.259 222.074 373.105 221.817 372.899 221.611C372.796 221.405 372.796 221.045 372.899 220.531C372.693 220.325 372.488 220.119 372.282 219.914C372.076 219.708 371.87 219.502 371.665 219.297C371.459 218.474 371.562 217.959 371.973 217.754C372.488 217.445 372.848 217.034 373.053 216.519C373.053 216.005 373.156 215.542 373.362 215.131C373.568 214.617 373.568 214.051 373.362 213.434C373.465 212.199 373.362 211.531 373.053 211.428C372.745 211.222 372.59 210.914 372.59 210.502C372.488 209.988 372.59 209.679 372.899 209.577C373.31 209.371 373.722 209.114 374.133 208.805C373.928 207.982 373.722 207.108 373.516 206.182C373.413 205.154 373.722 204.434 374.442 204.022C373.825 203.199 373.362 202.736 373.053 202.634C372.848 202.531 372.642 202.325 372.436 202.016C372.333 200.885 372.025 200.216 371.51 200.011C371.099 199.805 370.79 199.496 370.585 199.085C370.79 198.468 370.739 198.005 370.43 197.696C370.225 197.285 370.07 196.822 369.968 196.308C369.453 196.411 368.888 196.462 368.27 196.462C367.653 196.359 367.345 195.999 367.345 195.382C367.653 194.354 367.55 193.788 367.036 193.685C366.522 193.582 366.316 193.119 366.419 192.296C365.39 192.091 364.825 191.679 364.722 191.062C364.208 190.856 363.745 190.702 363.333 190.599C362.819 190.496 362.459 190.239 362.253 189.828C362.15 188.902 361.996 188.388 361.79 188.285C361.482 188.182 361.327 187.925 361.327 187.513C361.225 186.999 361.43 186.742 361.945 186.742C362.459 186.639 362.973 186.485 363.487 186.279C364.208 186.279 364.619 186.331 364.722 186.433C364.825 186.536 364.979 186.639 365.185 186.742C366.213 186.742 367.139 186.793 367.962 186.896C368.888 186.896 369.762 186.793 370.585 186.588C371.922 186.999 372.899 187.051 373.516 186.742C374.236 186.433 375.059 186.228 375.985 186.125C377.116 186.433 377.939 186.536 378.453 186.433C379.07 186.331 379.482 186.536 379.688 187.051C380.511 186.948 381.231 186.845 381.848 186.742C382.568 186.639 383.185 186.485 383.699 186.279C384.419 186.279 385.036 186.228 385.551 186.125C386.168 186.022 386.836 185.919 387.556 185.816C387.865 186.639 387.865 187.153 387.556 187.359C387.351 187.462 387.196 187.668 387.093 187.976C388.842 188.491 390.076 188.748 390.796 188.748C390.693 189.262 390.385 189.571 389.871 189.673C389.459 189.673 389.253 189.931 389.253 190.445C389.356 190.754 389.562 190.959 389.871 191.062C390.179 191.062 390.488 191.062 390.796 191.062C391.105 191.062 391.362 191.114 391.568 191.216C391.773 191.319 391.876 191.525 391.876 191.834C391.568 192.656 391.516 193.171 391.722 193.376C391.928 193.582 392.133 193.839 392.339 194.148C392.442 194.971 392.545 195.742 392.648 196.462C392.853 197.079 392.751 197.645 392.339 198.159C392.853 198.571 393.419 198.879 394.036 199.085C394.756 199.188 395.322 199.496 395.734 200.011C395.939 200.422 396.042 200.936 396.042 201.554C396.145 202.171 395.991 202.582 395.579 202.788C395.888 203.714 395.991 204.228 395.888 204.331C395.785 204.434 395.734 204.588 395.734 204.794C395.836 205.102 395.888 205.462 395.888 205.874C395.888 206.285 395.939 206.748 396.042 207.262C397.482 208.394 398.459 209.577 398.974 210.811C399.076 211.737 399.334 212.302 399.745 212.508C400.156 212.714 400.465 213.022 400.671 213.434C400.465 213.948 400.516 214.359 400.825 214.668C401.134 214.874 401.185 215.234 400.979 215.748C401.391 216.057 401.802 216.314 402.214 216.519C402.625 216.622 402.882 216.982 402.985 217.599C403.088 218.422 403.294 218.937 403.602 219.142C403.911 219.245 404.116 219.502 404.219 219.914C404.734 221.045 404.939 221.765 404.836 222.074C404.836 222.382 404.785 222.691 404.682 223C405.711 223.617 406.225 224.131 406.225 224.542C406.225 224.851 406.122 225.211 405.916 225.622C405.711 226.034 405.505 226.445 405.299 226.857C405.094 227.268 404.991 227.68 404.991 228.091C405.916 228.091 406.482 228.297 406.688 228.708C406.585 229.325 406.482 229.994 406.379 230.714C406.379 231.331 406.636 231.897 407.151 232.411C408.282 232.72 408.796 233.131 408.694 233.645C409.002 233.851 409.311 234.005 409.619 234.108C409.928 234.211 410.134 234.52 410.236 235.034C409.928 236.165 409.876 236.782 410.082 236.885C410.288 236.988 410.442 237.142 410.545 237.348C410.751 237.554 410.854 237.811 410.854 238.12C410.854 238.428 410.905 238.737 411.008 239.045C411.522 238.84 411.728 238.531 411.625 238.12C411.522 237.708 411.419 237.245 411.317 236.731C411.831 235.394 411.831 234.622 411.317 234.417C410.905 234.211 410.751 233.697 410.854 232.874C411.162 231.742 411.522 230.971 411.934 230.56C412.345 230.045 412.602 229.531 412.705 229.017C412.705 228.605 412.602 228.245 412.397 227.937C412.294 227.525 412.242 227.165 412.242 226.857C411.934 226.548 411.574 226.24 411.162 225.931C410.854 225.622 410.596 225.262 410.391 224.851C410.391 223.411 410.391 222.588 410.391 222.382C410.494 220.737 410.699 219.605 411.008 218.988C411.317 218.268 411.728 217.702 412.242 217.291C411.831 216.057 411.728 215.439 411.934 215.439C412.242 215.337 412.448 215.182 412.551 214.977C412.345 214.565 412.088 214.359 411.779 214.359C411.471 214.257 411.214 214.102 411.008 213.897C410.699 213.279 410.648 212.611 410.854 211.891C411.162 211.171 411.574 210.708 412.088 210.502C411.265 209.371 410.648 208.599 410.236 208.188C409.825 207.777 409.671 207.159 409.774 206.337C409.876 205.822 410.134 205.462 410.545 205.256C411.059 204.948 411.574 204.691 412.088 204.485C411.882 203.971 411.368 203.611 410.545 203.405C409.825 203.096 409.619 202.479 409.928 201.554C410.442 200.525 410.596 199.959 410.391 199.856C410.288 199.651 410.288 199.342 410.391 198.931C410.391 198.519 410.442 198.211 410.545 198.005C410.751 197.799 410.956 197.594 411.162 197.388C411.265 196.874 411.265 196.462 411.162 196.154C411.059 195.742 410.905 195.331 410.699 194.919C410.699 193.685 410.545 192.914 410.236 192.605C410.031 192.194 410.082 191.731 410.391 191.216C409.671 190.393 409.362 189.828 409.465 189.519C409.568 189.108 409.619 188.696 409.619 188.285C410.648 186.948 411.574 186.125 412.397 185.816C413.322 185.405 414.145 185.456 414.865 185.971C415.277 185.868 415.585 185.765 415.791 185.662C416.099 185.559 416.459 185.456 416.871 185.353C417.899 186.176 418.671 186.485 419.185 186.279C419.802 185.971 420.265 185.713 420.574 185.508C421.705 185.405 422.477 185.302 422.888 185.199C423.402 184.993 423.968 184.942 424.585 185.045C425.614 185.456 426.334 185.713 426.745 185.816C427.157 185.816 427.62 185.713 428.134 185.508C428.648 185.713 429.214 185.765 429.831 185.662C430.448 185.559 430.962 185.405 431.374 185.199C432.3 185.611 433.174 185.713 433.997 185.508C434.82 185.199 435.591 184.942 436.311 184.736C437.237 185.045 437.802 185.148 438.008 185.045C438.214 184.839 438.522 184.736 438.934 184.736ZM501.112 203.559C500.906 204.176 500.906 204.896 501.112 205.719C501.317 206.439 501.266 207.108 500.957 207.725C500.134 207.725 499.672 207.622 499.569 207.417C499.569 207.211 499.517 207.005 499.414 206.799C498.592 206.079 498.077 205.514 497.872 205.102C497.152 204.896 496.637 204.536 496.329 204.022C496.123 203.508 495.609 203.199 494.786 203.096C493.757 203.508 493.037 203.508 492.626 203.096C492.626 202.582 492.523 202.171 492.317 201.862C492.112 201.451 491.597 201.399 490.774 201.708C489.849 200.576 489.232 200.011 488.923 200.011C488.717 199.908 488.512 199.754 488.306 199.548C487.071 199.342 486.403 199.136 486.3 198.931C486.3 198.622 486.197 198.365 485.991 198.159C485.477 198.262 485.117 198.416 484.911 198.622C484.706 198.828 484.449 199.034 484.14 199.239C483.626 199.239 483.009 199.342 482.289 199.548C481.569 199.754 481.157 199.445 481.054 198.622C480.54 198.725 479.82 198.931 478.894 199.239C478.071 199.548 477.454 199.702 477.043 199.702C475.603 199.394 474.677 199.445 474.266 199.856C473.854 200.165 473.289 200.319 472.569 200.319C472.671 201.142 472.723 201.914 472.723 202.634C472.723 203.354 472.466 203.868 471.951 204.176C472.157 204.794 472.311 205.462 472.414 206.182C472.62 206.799 472.826 207.417 473.031 208.034C472.62 210.091 472.414 211.582 472.414 212.508C472.517 213.434 472.569 214.514 472.569 215.748C472.774 216.777 472.826 217.394 472.723 217.599C472.62 217.702 472.466 217.857 472.26 218.062C472.26 218.474 472.157 218.834 471.951 219.142C471.848 219.348 471.9 219.657 472.106 220.068C471.9 220.377 471.746 220.788 471.643 221.302C471.643 221.817 471.591 222.331 471.488 222.845C471.591 223.36 471.746 223.822 471.951 224.234C472.26 224.645 472.466 225.16 472.569 225.777C472.569 226.497 472.414 227.217 472.106 227.937C471.9 228.554 471.694 229.12 471.488 229.634C471.694 230.251 471.9 230.971 472.106 231.794C472.311 232.514 472.517 233.182 472.723 233.8C472.723 235.24 472.671 236.268 472.569 236.885C472.466 237.502 472.466 238.12 472.569 238.737C473.494 239.354 473.854 239.868 473.649 240.28C473.443 240.588 473.443 240.948 473.649 241.36C473.134 241.874 472.877 242.543 472.877 243.365C472.877 244.188 472.774 245.011 472.569 245.834C472.774 246.245 472.826 246.708 472.723 247.223C472.723 247.737 472.826 248.148 473.031 248.457C472.826 249.28 472.877 250.154 473.186 251.08C473.494 251.903 473.443 252.674 473.031 253.394C473.134 253.6 473.289 253.857 473.494 254.166C473.7 254.371 473.854 254.628 473.957 254.937C473.957 255.348 473.906 255.657 473.803 255.863C473.803 256.068 473.751 256.326 473.649 256.634C473.854 257.56 473.957 258.126 473.957 258.331C474.06 258.537 474.06 258.691 473.957 258.794C474.369 259.617 474.574 260.851 474.574 262.497C474.369 262.806 474.266 263.166 474.266 263.577C474.369 263.988 474.317 264.4 474.111 264.811C474.009 265.12 473.854 265.428 473.649 265.737C473.443 265.943 473.34 266.2 473.34 266.508C473.237 267.331 473.34 268 473.649 268.514C473.957 268.926 474.111 269.491 474.111 270.211C473.906 270.417 473.751 270.674 473.649 270.983C473.546 271.189 473.391 271.446 473.186 271.754C473.289 271.96 473.391 272.217 473.494 272.526C473.7 272.834 473.906 273.143 474.111 273.451C474.729 274.686 474.934 275.406 474.729 275.611C474.523 276.537 474.163 277 473.649 277C473.237 277.206 472.877 277.463 472.569 277.771C472.363 278.08 472.003 278.234 471.488 278.234C470.254 279.057 469.483 279.314 469.174 279.006C468.968 278.697 468.608 278.44 468.094 278.234C467.58 278.234 467.323 278.44 467.323 278.851C467.323 279.263 467.117 279.571 466.706 279.777C466.5 280.497 466.346 281.114 466.243 281.629C466.14 282.246 465.831 282.76 465.317 283.171C464.083 283.48 463.62 283.943 463.928 284.56C464.34 285.28 464.34 285.897 463.928 286.412C463.106 286.412 462.643 286.514 462.54 286.72C462.54 286.926 462.437 287.029 462.231 287.029C462.128 287.852 461.974 288.366 461.768 288.572C461.563 288.777 461.254 288.88 460.843 288.88C460.637 289.394 460.38 289.857 460.071 290.269C459.763 290.68 459.608 291.143 459.608 291.657C458.991 292.48 458.528 293.354 458.22 294.28C457.911 294.486 457.654 294.743 457.448 295.052C457.346 295.463 457.14 295.823 456.831 296.132C456.111 295.412 455.905 294.692 456.214 293.972C456.523 293.354 456.574 292.789 456.368 292.274C456.471 291.349 456.523 290.629 456.523 290.114C456.523 289.703 456.471 289.24 456.368 288.726C456.574 288.314 456.883 287.8 457.294 287.183C457.294 286.772 457.294 286.36 457.294 285.949C457.397 285.64 457.397 285.332 457.294 285.023C457.397 284.509 457.603 283.994 457.911 283.48C458.323 283.069 458.477 282.606 458.374 282.091C458.374 281.68 458.271 281.371 458.066 281.166C457.86 281.063 457.706 280.857 457.603 280.549C457.603 279.623 457.551 279.006 457.448 278.697C457.86 278.183 458.066 277.566 458.066 276.846C458.066 276.126 458.168 275.406 458.374 274.686C457.963 273.863 457.911 272.989 458.22 272.063C458.631 271.137 458.734 270.263 458.528 269.44C458.528 268.411 458.323 267.794 457.911 267.588C457.5 267.28 457.191 266.817 456.986 266.2C457.5 265.171 457.603 264.04 457.294 262.806C457.5 262.394 457.654 261.931 457.757 261.417C457.963 260.903 457.963 260.337 457.757 259.72C458.066 258.28 458.117 257.251 457.911 256.634C458.117 255.914 458.323 255.297 458.528 254.783C458.837 254.166 458.991 253.446 458.991 252.623C458.683 251.8 458.58 251.285 458.683 251.08C458.786 250.874 458.837 250.668 458.837 250.463C459.351 248.2 459.3 246.451 458.683 245.217C458.168 243.88 457.757 242.645 457.448 241.514C457.551 239.971 457.654 238.634 457.757 237.502C457.963 236.268 458.271 235.085 458.683 233.954C458.786 233.234 458.837 232.514 458.837 231.794C458.837 231.074 458.888 230.457 458.991 229.942C458.786 229.531 458.631 229.222 458.528 229.017C458.426 228.708 458.271 228.348 458.066 227.937C458.066 227.114 458.117 226.394 458.22 225.777C458.323 225.057 458.374 224.337 458.374 223.617C458.271 223.308 458.168 223.051 458.066 222.845C458.066 222.537 458.066 222.228 458.066 221.92C458.066 221.508 458.117 221.097 458.22 220.685C458.323 220.274 458.426 219.862 458.528 219.451C458.734 218.937 458.94 218.165 459.146 217.137C459.043 215.491 459.043 213.999 459.146 212.662C459.248 211.325 459.197 209.885 458.991 208.342C458.786 207.519 458.631 206.697 458.528 205.874C458.528 205.051 458.426 204.331 458.22 203.714C458.323 203.302 458.374 202.942 458.374 202.634C458.374 202.222 458.426 201.811 458.528 201.399C458.117 200.782 457.86 200.422 457.757 200.319C457.654 200.216 457.551 200.062 457.448 199.856C456.934 199.959 456.163 200.062 455.134 200.165C454.208 200.268 453.437 200.216 452.82 200.011C452.305 200.216 451.585 200.371 450.66 200.474C449.837 200.474 449.22 200.216 448.808 199.702C448.294 199.805 447.728 199.805 447.111 199.702C446.597 199.496 446.134 199.394 445.723 199.394C445.105 199.496 444.231 199.908 443.1 200.628C442.071 201.348 441.248 201.656 440.631 201.554C440.117 201.451 439.808 201.296 439.705 201.091C439.602 200.782 439.448 200.525 439.242 200.319C438.831 200.422 438.522 200.628 438.317 200.936C438.214 201.142 438.008 201.348 437.7 201.554C437.185 201.451 436.825 201.502 436.62 201.708C436.414 201.914 436.208 202.119 436.002 202.325C434.871 202.634 434.357 202.942 434.46 203.251C434.46 203.456 434.357 203.662 434.151 203.868C433.637 204.279 433.225 204.639 432.917 204.948C432.608 205.256 432.351 205.771 432.145 206.491C431.528 207.417 431.22 208.034 431.22 208.342C431.22 208.651 431.117 208.908 430.911 209.114C430.191 209.114 429.677 208.857 429.368 208.342C429.368 208.034 429.471 207.674 429.677 207.262C429.78 206.851 429.831 206.439 429.831 206.028C429.831 204.588 429.985 203.662 430.294 203.251C430.5 202.839 430.705 202.376 430.911 201.862C431.117 201.039 431.271 200.474 431.374 200.165C431.477 199.754 431.631 199.445 431.837 199.239C431.631 198.416 431.734 197.799 432.145 197.388C432.454 196.874 432.711 196.359 432.917 195.845C433.122 194.508 433.534 193.582 434.151 193.068C434.768 192.451 435.334 191.885 435.848 191.371C435.54 190.342 435.488 189.725 435.694 189.519C435.797 189.211 435.797 188.851 435.694 188.439C435.9 188.131 436.105 187.822 436.311 187.513C436.414 187.205 436.568 186.896 436.774 186.588C437.7 186.279 438.162 186.022 438.162 185.816C438.162 185.611 438.265 185.456 438.471 185.353C439.294 185.456 439.808 185.765 440.014 186.279C440.322 186.691 440.683 187.102 441.094 187.513C442.02 187.308 443.254 186.896 444.797 186.279C446.34 185.662 447.728 185.405 448.963 185.508C449.374 185.713 449.425 186.022 449.117 186.433C448.911 186.845 449.014 187.153 449.425 187.359C450.145 187.153 450.763 186.845 451.277 186.433C451.894 186.022 452.614 186.073 453.437 186.588C454.157 186.485 454.825 186.279 455.443 185.971C456.06 185.662 456.728 185.508 457.448 185.508C457.757 186.536 458.271 187.205 458.991 187.513C459.814 186.896 460.328 186.639 460.534 186.742C460.74 186.845 460.946 186.948 461.151 187.051C461.563 186.639 462.026 186.536 462.54 186.742C463.157 186.845 463.671 186.999 464.083 187.205C465.111 186.999 465.831 186.793 466.243 186.588C467.58 185.971 468.351 185.816 468.557 186.125C468.866 186.331 469.277 186.536 469.791 186.742C470.306 186.536 470.768 186.331 471.18 186.125C471.591 185.919 472.157 185.868 472.877 185.971C473.289 186.176 473.597 186.331 473.803 186.433C474.111 186.536 474.42 186.691 474.729 186.896C475.14 186.691 475.5 186.433 475.809 186.125C476.117 185.816 476.529 185.559 477.043 185.353C478.277 185.353 478.946 185.405 479.049 185.508C479.151 185.508 479.511 185.559 480.129 185.662C480.437 185.765 480.849 185.868 481.363 185.971C481.877 186.073 482.237 186.125 482.443 186.125C483.06 186.125 483.574 185.919 483.986 185.508C484.397 185.096 484.757 185.251 485.066 185.971C485.477 185.765 485.94 185.713 486.454 185.816C487.071 185.816 487.534 185.919 487.843 186.125C488.46 186.536 488.974 186.639 489.386 186.433C489.9 186.228 490.26 185.868 490.466 185.353C491.494 185.251 492.163 185.611 492.472 186.433C493.706 186.845 494.117 187.359 493.706 187.976C493.294 188.593 493.294 189.211 493.706 189.828C494.22 190.239 494.837 190.496 495.557 190.599C496.277 190.599 496.689 190.908 496.792 191.525C496.38 192.862 496.174 193.891 496.174 194.611C496.38 195.125 496.74 195.434 497.254 195.536C497.872 195.639 498.334 195.896 498.643 196.308C498.643 196.925 498.489 197.439 498.18 197.851C497.872 198.262 497.923 198.725 498.334 199.239C498.643 199.445 499.003 199.702 499.414 200.011C499.826 200.216 500.134 200.525 500.34 200.936C500.546 202.376 500.803 203.251 501.112 203.559ZM552.798 242.594C553.004 243.417 553.209 244.085 553.415 244.6C553.415 246.04 553.261 247.48 552.952 248.92C552.644 250.257 552.695 251.491 553.106 252.623C552.695 253.446 552.181 254.166 551.564 254.783C551.049 255.4 550.483 256.017 549.866 256.634C549.866 257.046 549.866 257.457 549.866 257.868C549.969 258.28 549.969 258.64 549.866 258.948C549.763 259.463 549.558 259.823 549.249 260.028C549.043 260.234 548.838 260.543 548.632 260.954L547.089 262.806C546.575 264.04 546.163 264.76 545.855 264.966C545.649 265.171 545.289 265.274 544.775 265.274C544.261 266.097 544.003 267.228 544.003 268.668C543.078 269.389 542.461 269.851 542.152 270.057C541.843 270.263 541.432 270.469 540.918 270.674C540.609 270.88 540.352 271.137 540.146 271.446C539.941 271.754 539.581 271.96 539.066 272.063C538.758 272.474 538.449 272.886 538.141 273.297C537.832 273.709 537.523 274.171 537.215 274.686C536.289 274.789 535.775 274.789 535.672 274.686C535.569 274.583 535.363 274.48 535.055 274.377C534.026 274.994 533.255 275.56 532.74 276.074C532.535 276.177 532.278 276.28 531.969 276.383C531.66 276.383 531.352 276.486 531.043 276.691C530.632 276.589 530.323 276.589 530.118 276.691C529.912 276.691 529.655 276.691 529.346 276.691C527.906 276.794 526.929 276.794 526.415 276.691C525.9 276.486 525.386 276.28 524.872 276.074C524.46 276.28 524.152 276.537 523.946 276.846C523.74 277.051 523.329 277.257 522.712 277.463C522.3 277.36 521.94 277.257 521.632 277.154C521.323 277.051 520.963 276.949 520.552 276.846C519.318 276.126 518.392 275.869 517.775 276.074C517.26 276.177 516.643 276.126 515.923 275.92C515.717 275.406 515.46 275.046 515.152 274.84C514.843 274.531 514.535 274.223 514.226 273.914C513.917 273.914 513.609 273.966 513.3 274.069C513.095 274.069 512.837 274.069 512.529 274.069C512.015 273.554 511.295 273.349 510.369 273.451C509.546 273.554 508.929 273.349 508.517 272.834C507.797 271.909 507.18 271.497 506.666 271.6C506.255 271.703 505.74 271.703 505.123 271.6C504.3 271.189 503.735 270.623 503.426 269.903C503.117 269.08 502.552 268.463 501.729 268.051C501.42 267.023 501.317 266.457 501.42 266.354C501.523 266.148 501.574 265.891 501.574 265.583C501.369 265.48 501.06 265.48 500.649 265.583C500.34 265.583 500.032 265.531 499.723 265.428C499.312 265.017 498.849 264.657 498.334 264.348C497.923 263.937 497.563 263.474 497.254 262.96C497.254 262.548 497.357 262.24 497.563 262.034C497.769 261.726 497.923 261.417 498.026 261.108C497.1 260.594 496.637 260.234 496.637 260.028C496.74 259.823 496.792 259.617 496.792 259.411C496.174 257.971 495.763 256.84 495.557 256.017C494.837 255.914 494.477 255.76 494.477 255.554C494.477 255.348 494.374 255.143 494.169 254.937C494.58 254.731 494.94 254.628 495.249 254.628C495.557 254.628 495.917 254.526 496.329 254.32C496.226 253.188 496.226 252.52 496.329 252.314C496.637 251.697 497.1 251.337 497.717 251.234C498.334 251.131 498.849 250.823 499.26 250.308C499.363 248.868 499.723 248.2 500.34 248.303C500.957 248.303 501.523 248.097 502.037 247.685C502.346 246.554 502.654 245.988 502.963 245.988C503.272 245.885 503.58 245.731 503.889 245.525C504.815 244.085 505.637 243.057 506.357 242.44C507.18 241.72 507.952 240.845 508.672 239.817C509.186 239.611 509.906 239.354 510.832 239.045C511.757 238.634 512.477 238.48 512.992 238.583C513.403 238.788 513.506 239.045 513.3 239.354C513.197 239.663 513.197 239.971 513.3 240.28C512.683 241.411 512.323 242.08 512.22 242.285C512.117 242.491 511.963 242.697 511.757 242.903C511.655 243.211 511.655 243.571 511.757 243.983C511.86 244.291 511.809 244.651 511.603 245.063C512.426 245.371 512.837 245.783 512.837 246.297C512.632 246.708 512.426 247.017 512.22 247.223C512.117 247.325 511.963 247.634 511.757 248.148C511.655 248.765 511.706 249.588 511.912 250.617C511.603 251.337 511.603 251.954 511.912 252.468C512.22 252.983 512.477 253.6 512.683 254.32C512.683 254.731 512.632 255.091 512.529 255.4C512.426 255.606 512.375 255.863 512.375 256.171C512.58 256.686 512.837 257.097 513.146 257.406C513.557 257.714 513.866 258.126 514.072 258.64C513.969 258.948 513.815 259.257 513.609 259.566C513.506 259.771 513.455 260.131 513.455 260.646C513.969 260.851 514.483 260.748 514.997 260.337C515.512 259.926 516.026 259.874 516.54 260.183C516.746 261.108 517.055 261.314 517.466 260.8C517.877 260.286 518.34 260.286 518.855 260.8C519.06 261.211 519.06 261.52 518.855 261.726C518.649 261.931 518.546 262.188 518.546 262.497C518.649 262.908 518.803 263.166 519.009 263.268C519.318 263.371 519.626 263.526 519.935 263.731C520.449 263.731 520.809 263.628 521.015 263.423C521.22 263.114 521.58 262.96 522.095 262.96C522.609 263.063 523.02 263.217 523.329 263.423C523.74 263.628 524.306 263.68 525.026 263.577C525.952 263.166 526.466 262.908 526.569 262.806C526.775 262.703 526.98 262.6 527.186 262.497C527.7 262.086 528.163 261.726 528.575 261.417C528.986 261.108 529.449 260.748 529.963 260.337C530.683 260.234 531.095 260.286 531.198 260.491C531.3 260.594 531.455 260.646 531.66 260.646C531.866 260.44 532.02 260.183 532.123 259.874C532.329 259.566 532.535 259.308 532.74 259.103C533.358 259 533.975 258.846 534.592 258.64C534.798 258.228 534.9 257.714 534.9 257.097C534.9 256.48 535.003 255.914 535.209 255.4C536.135 253.96 536.649 253.085 536.752 252.777C536.649 251.954 536.649 251.285 536.752 250.771C536.958 250.154 536.958 249.434 536.752 248.611C537.678 247.685 538.089 246.914 537.986 246.297C537.986 245.68 537.986 245.114 537.986 244.6C537.883 244.291 537.626 244.137 537.215 244.137C536.803 244.034 536.495 243.88 536.289 243.674C536.083 243.16 536.032 242.748 536.135 242.44C536.341 242.131 536.443 241.72 536.443 241.205C536.238 240.794 535.981 240.434 535.672 240.125C535.363 239.817 535.055 239.508 534.746 239.2C534.232 239.2 533.82 239.148 533.512 239.045C533.203 238.84 532.895 238.685 532.586 238.583C532.38 237.965 532.02 237.502 531.506 237.194C531.095 236.782 530.632 236.32 530.118 235.805C529.603 235.908 529.14 235.908 528.729 235.805C528.318 235.6 527.855 235.548 527.34 235.651C526.929 235.24 526.466 234.88 525.952 234.571C525.438 234.262 524.975 233.851 524.563 233.337C524.049 233.131 523.638 233.08 523.329 233.182C523.02 233.285 522.66 233.388 522.249 233.491C521.94 233.594 521.58 233.645 521.169 233.645C520.86 233.542 520.552 233.542 520.243 233.645C518.906 232.411 517.672 231.64 516.54 231.331C515.512 231.022 514.586 230.611 513.763 230.097C513.043 228.348 512.117 227.474 510.986 227.474C510.369 227.268 509.855 226.96 509.443 226.548C509.135 226.137 508.569 225.88 507.746 225.777C507.026 225.057 506.203 224.388 505.277 223.771C504.352 222.64 503.58 221.662 502.963 220.839C502.449 219.811 501.986 219.091 501.574 218.679C501.163 218.165 500.803 217.651 500.494 217.137C499.877 216.519 499.517 215.851 499.414 215.131C499.106 213.382 499.054 212.045 499.26 211.119C499.569 210.091 499.929 209.165 500.34 208.342C500.443 207.314 500.443 206.337 500.34 205.411C500.34 204.485 500.546 203.714 500.957 203.096C501.472 200.731 501.934 198.931 502.346 197.696C502.86 196.462 503.837 195.639 505.277 195.228C505.792 194.405 506.255 193.582 506.666 192.759C507.18 191.936 507.849 191.268 508.672 190.754C510.009 190.239 510.935 189.725 511.449 189.211C511.963 188.696 512.477 188.131 512.992 187.513C513.815 187.308 514.483 186.999 514.997 186.588C515.512 186.073 516.077 185.611 516.695 185.199C517.209 185.302 517.62 185.405 517.929 185.508C518.34 185.611 518.752 185.713 519.163 185.816C519.678 185.508 520.14 185.199 520.552 184.891C521.066 184.479 521.735 184.171 522.558 183.965C523.175 184.685 523.638 184.993 523.946 184.891C524.255 184.788 524.512 184.839 524.718 185.045C525.232 184.839 525.695 184.633 526.106 184.428C526.62 184.222 527.186 184.119 527.803 184.119C528.318 184.325 528.678 184.633 528.883 185.045C529.089 185.353 529.346 185.662 529.655 185.971C530.478 185.868 531.095 185.611 531.506 185.199C531.918 184.788 532.535 184.479 533.358 184.273C533.769 184.479 534.078 184.736 534.283 185.045C534.592 185.251 535.003 185.405 535.518 185.508C535.929 185.508 536.238 185.456 536.443 185.353C536.752 185.148 537.112 185.148 537.523 185.353C538.655 186.073 539.323 187.051 539.529 188.285H541.535C541.741 188.593 541.946 188.953 542.152 189.365C542.358 189.776 542.615 190.136 542.923 190.445C543.438 190.548 543.901 190.651 544.312 190.754C544.723 190.856 545.032 191.165 545.238 191.679C545.238 192.708 545.392 193.222 545.701 193.222C546.009 193.222 546.266 193.325 546.472 193.531C547.192 194.148 547.706 194.508 548.015 194.611C548.323 194.611 548.581 194.611 548.786 194.611C548.992 195.125 549.095 195.691 549.095 196.308C549.198 196.822 549.301 197.336 549.403 197.851C550.021 198.365 550.329 198.879 550.329 199.394C549.815 199.599 549.198 200.114 548.478 200.936C547.758 201.759 547.501 202.428 547.706 202.942L546.781 205.411C546.266 206.439 545.803 207.159 545.392 207.571C544.981 207.879 544.569 208.137 544.158 208.342C544.055 209.577 543.438 210.451 542.306 210.965L541.226 212.817C540.712 213.331 540.198 213.897 539.683 214.514C539.169 215.028 538.861 215.697 538.758 216.519C538.449 216.725 538.141 216.931 537.832 217.137C537.523 217.239 537.112 217.188 536.598 216.982C536.392 216.674 536.238 216.365 536.135 216.057C536.135 215.645 536.289 215.182 536.598 214.668C536.598 213.537 536.752 212.817 537.061 212.508C537.472 212.097 537.678 211.685 537.678 211.274C536.649 210.657 536.083 210.348 535.981 210.348C535.878 210.245 535.775 210.091 535.672 209.885C535.672 209.371 535.723 209.011 535.826 208.805C536.032 208.599 536.032 208.239 535.826 207.725C535.723 206.902 535.775 206.182 535.981 205.565C535.466 205.359 535.158 205.051 535.055 204.639C534.952 204.228 534.849 203.816 534.746 203.405C534.232 202.582 534.078 202.068 534.283 201.862C534.592 201.554 534.695 201.142 534.592 200.628C533.049 200.216 532.02 199.805 531.506 199.394C530.992 198.982 530.375 198.571 529.655 198.159C529.14 198.159 528.729 198.211 528.42 198.314C528.112 198.416 527.7 198.468 527.186 198.468C526.672 198.262 526.415 197.696 526.415 196.771C525.386 197.594 524.769 198.108 524.563 198.314C524.358 198.519 524.049 198.674 523.638 198.776C522.198 198.262 521.22 198.159 520.706 198.468C520.295 198.776 519.832 199.034 519.318 199.239C518.597 199.959 518.135 200.731 517.929 201.554C517.929 202.479 517.98 203.199 518.083 203.714C517.877 204.022 517.62 204.331 517.312 204.639C517.106 204.845 516.695 204.896 516.077 204.794C515.872 205.411 515.769 206.182 515.769 207.108C515.872 207.931 516.026 208.599 516.232 209.114C516.026 209.834 515.975 210.297 516.077 210.502C516.18 210.605 516.283 210.759 516.386 210.965C516.077 211.685 516.129 212.405 516.54 213.125C516.952 213.845 517.003 214.565 516.695 215.285C517.415 215.697 518.135 216.005 518.855 216.211C519.575 216.417 519.986 216.982 520.089 217.908C520.603 218.217 521.169 218.371 521.786 218.371C522.506 218.371 523.123 218.525 523.638 218.834C523.843 219.451 524.255 219.914 524.872 220.222C525.489 220.428 525.9 220.839 526.106 221.457C527.546 221.457 528.575 221.559 529.192 221.765C529.912 221.868 530.735 221.868 531.66 221.765C532.483 221.971 533.203 222.28 533.82 222.691C534.54 223.102 535.261 223.514 535.981 223.925C536.392 223.822 536.701 223.72 536.906 223.617C537.215 223.514 537.472 223.462 537.678 223.462C538.295 223.462 538.758 223.72 539.066 224.234C539.375 224.645 539.683 225.005 539.992 225.314C540.609 225.314 541.021 225.468 541.226 225.777C541.535 226.085 541.946 226.291 542.461 226.394C543.181 227.628 543.952 228.4 544.775 228.708C545.701 228.914 546.523 229.274 547.243 229.788C547.758 230.405 548.169 231.074 548.478 231.794C548.786 232.514 549.043 233.44 549.249 234.571C549.661 235.085 550.072 235.6 550.483 236.114C550.998 236.525 551.255 237.091 551.255 237.811C551.564 239.148 551.666 240.023 551.564 240.434C551.461 240.845 551.306 241.308 551.101 241.823C551.306 242.028 551.564 242.183 551.872 242.285C552.284 242.285 552.592 242.388 552.798 242.594Z" fill="white"/>
</g>
<defs>
<filter id="filter0_d_25_326" x="0.582916" y="0.94754" width="712.232" height="458.584" filterUnits="userSpaceOnUse" color-interpolation-filters="sRGB">
<feFlood flood-opacity="0" result="BackgroundImageFix"/>
<feColorMatrix in="SourceAlpha" type="matrix" values="0 0 0 0 0 0 0 0 0 0 0 0 0 0 0 0 0 0 127 0" result="hardAlpha"/>
<feOffset dy="4"/>
<feGaussianBlur stdDeviation="79.7"/>
<feComposite in2="hardAlpha" operator="out"/>
<feColorMatrix type="matrix" values="0 0 0 0 1 0 0 0 0 1 0 0 0 0 1 0 0 0 0.73 0"/>
<feBlend mode="normal" in2="BackgroundImageFix" result="effect1_dropShadow_25_326"/>
<feBlend mode="normal" in="SourceGraphic" in2="effect1_dropShadow_25_326" result="shape"/>
</filter>
</defs>
</svg>
