<svg width="395" height="141" viewBox="0 0 395 141" fill="none" xmlns="http://www.w3.org/2000/svg">
<path d="M83.3721 11.4561C83.1664 11.9704 82.9093 12.4333 82.6007 12.8447C82.2921 13.2562 81.9835 13.6676 81.675 14.079C81.4692 14.5933 81.2635 15.1076 81.0578 15.6219C80.8521 16.0333 80.6464 16.4448 80.4407 16.8562C79.6178 17.5762 79.0007 18.1934 78.5892 18.7076C78.1778 19.2219 78.0749 19.8905 78.2806 20.7134C77.4578 22.1534 76.7892 23.1305 76.2749 23.6448C75.7606 24.1591 75.4006 24.8277 75.1949 25.6506C74.8863 25.8563 74.6292 26.1134 74.4235 26.422C74.3206 26.7306 74.1149 26.9363 73.8063 27.0391C73.3949 26.8334 73.0349 26.6791 72.7263 26.5763C72.5206 26.3706 72.3149 26.1649 72.1092 25.9591C71.6977 26.1649 71.2349 26.422 70.7206 26.7306C70.3091 27.0391 69.8463 26.9363 69.332 26.422C68.7148 26.6277 68.0463 26.7306 67.3263 26.7306C66.6063 26.6277 66.0405 26.3706 65.6291 25.9591C65.2177 26.1649 64.8577 26.3706 64.5491 26.5763C64.2405 26.6791 63.8291 26.6791 63.3148 26.5763C62.9034 26.3706 62.5434 25.8563 62.2348 25.0334C61.5148 25.2391 60.9491 25.2391 60.5376 25.0334C60.2291 25.342 59.8176 25.4963 59.3033 25.4963C58.789 25.4963 58.2748 25.5991 57.7605 25.8049C56.629 25.702 55.7033 25.1877 54.9833 24.262C54.6747 24.4677 54.3661 24.6734 54.0576 24.8791C53.749 24.982 53.3376 25.0848 52.8233 25.1877C51.0747 24.7763 49.6861 24.6734 48.6575 24.8791C47.6289 24.982 46.8061 24.8277 46.1889 24.4163C45.6746 24.622 44.9546 24.9306 44.0289 25.342C43.206 25.6506 42.5889 25.3934 42.1775 24.5706C41.766 24.6734 41.406 24.8277 41.0975 25.0334C40.7889 25.1363 40.3774 25.1363 39.8632 25.0334C39.4517 24.8277 39.1431 24.3134 38.9374 23.4905C38.526 24.4163 38.2174 25.0848 38.0117 25.4963C37.806 25.9077 37.6003 26.3191 37.3946 26.7306C37.7031 27.9649 37.6517 28.8392 37.2403 29.3535C36.9317 29.7649 36.8288 30.2277 36.9317 30.742C36.9317 31.0506 37.0346 31.3078 37.2403 31.5135C37.5488 31.7192 37.806 31.9763 38.0117 32.2849C38.1146 33.4163 38.2174 34.0849 38.3203 34.2906C38.526 34.4964 38.6289 34.7021 38.6289 34.9078C38.6289 35.3192 38.526 35.6278 38.3203 35.8335C38.2174 36.0392 38.1146 36.2964 38.0117 36.6049C38.2174 37.4278 38.2174 38.1992 38.0117 38.9193C37.9089 39.5364 37.7031 40.1536 37.3946 40.7707C37.086 41.3878 36.7774 42.0564 36.4688 42.7764C36.1603 43.3936 35.9545 44.0622 35.8517 44.7822C36.7774 45.5022 37.2917 45.965 37.3946 46.1707C37.6003 46.3765 37.7546 46.685 37.8574 47.0965C37.8574 47.5079 37.7546 47.8679 37.5488 48.1765C37.446 48.3822 37.2917 48.5879 37.086 48.7936C37.2917 49.7194 37.3431 50.6451 37.2403 51.5708C37.1374 52.3937 37.086 53.268 37.086 54.1937C37.6003 54.0908 38.1146 54.2451 38.6289 54.6565C39.1431 54.9651 39.2974 55.4794 39.0917 56.1994C39.7089 56.3023 40.2232 56.3023 40.6346 56.1994C41.046 55.9937 41.4575 55.788 41.8689 55.5823C42.3832 55.3765 42.846 55.2223 43.2575 55.1194C43.6689 54.9137 44.1832 54.8623 44.8003 54.9651C45.8289 55.788 46.8061 56.0966 47.7318 55.8908C48.6575 55.6851 49.5318 55.6851 50.3547 55.8908C50.869 55.6851 51.3318 55.428 51.7433 55.1194C52.2576 54.8108 52.7718 54.5537 53.2861 54.348L55.7547 55.2737C56.8862 54.7594 57.9147 54.4508 58.8405 54.348C59.7662 54.2451 60.4862 53.8337 61.0005 53.1137L62.0805 50.9536C62.4919 50.6451 62.9034 50.3365 63.3148 50.0279C63.7262 49.7194 64.0348 49.3079 64.2405 48.7936C64.9605 48.0736 65.4234 47.6622 65.6291 47.5593C65.9377 47.3536 66.1434 47.045 66.2463 46.6336C66.9663 46.325 67.6348 46.1193 68.252 46.0165C68.972 45.9136 69.332 46.1193 69.332 46.6336C68.8177 47.5593 68.4577 48.1765 68.252 48.4851C68.1491 48.7936 68.0463 49.0508 67.9434 49.2565C67.9434 50.2851 67.7377 50.9022 67.3263 51.1079C67.0177 51.3137 66.7605 51.6737 66.5548 52.1879C66.452 53.3194 66.2463 54.0908 65.9377 54.5023C65.732 54.8108 65.6291 55.2737 65.6291 55.8908C65.2177 56.508 64.8577 57.1251 64.5491 57.7423C64.2405 58.3594 64.0862 59.1823 64.0862 60.2109L62.5434 62.2166C62.6462 62.628 62.9034 62.988 63.3148 63.2966C63.7262 63.5023 63.8291 63.8109 63.6234 64.2223C63.1091 65.4566 62.8519 66.2281 62.8519 66.5366C62.8519 66.7424 62.8005 67.1024 62.6976 67.6167C62.3891 68.1309 62.1319 68.7481 61.9262 69.4681C61.7205 70.0853 61.2576 70.5481 60.5376 70.8567C59.9205 70.8567 59.3033 70.9081 58.6862 71.011C58.069 71.1138 57.4519 71.2167 56.8347 71.3195C55.8062 71.011 55.3433 70.8053 55.4462 70.7024C55.549 70.5995 55.4976 70.4453 55.2919 70.2395C54.2633 70.4453 53.2347 70.5995 52.2061 70.7024C51.2804 70.8053 50.3547 70.9595 49.429 71.1653C48.1947 70.7538 47.2689 70.5995 46.6518 70.7024C46.1375 70.8053 45.6232 70.7024 45.1089 70.3938C44.4918 70.5995 43.926 70.9081 43.4118 71.3195C42.8975 71.6281 42.2289 71.6281 41.406 71.3195C41.0975 71.1138 40.8917 70.8567 40.7889 70.5481C40.7889 70.2395 40.686 69.9824 40.4803 69.7767C39.966 69.7767 39.5546 69.8795 39.246 70.0853C39.0403 70.1881 38.6803 70.2395 38.166 70.2395C37.7546 70.5481 37.446 71.1138 37.2403 71.9367C37.446 72.7596 37.5488 73.5824 37.5488 74.4053C37.5488 75.1253 37.2917 75.7424 36.7774 76.2567C36.8803 77.1825 36.8288 78.211 36.6231 79.3425C36.4174 80.4739 36.2631 81.6054 36.1603 82.7368C36.2631 83.1482 36.4688 83.4054 36.7774 83.5082C37.1888 83.6111 37.4974 83.8682 37.7031 84.2797C37.3946 85.8225 37.1888 86.7997 37.086 87.2111C36.9831 87.6226 37.0346 88.0854 37.2403 88.5997C37.7546 90.2454 37.7546 91.6854 37.2403 92.9197C37.6517 94.2569 37.3431 95.5426 36.3146 96.7769C36.5203 97.0855 36.6746 97.4455 36.7774 97.8569C36.9831 98.2684 36.9831 98.6798 36.7774 99.0912C37.4974 100.326 37.806 101.251 37.7031 101.868C37.6003 102.486 37.6517 103.051 37.8574 103.566C37.7546 105.108 37.6003 105.983 37.3946 106.188C38.1146 106.908 38.6803 107.166 39.0917 106.96C39.5032 106.754 39.966 106.6 40.4803 106.497C41.3032 106.908 42.3317 106.857 43.566 106.343C43.9775 106.548 44.2346 106.857 44.3375 107.268C44.5432 107.577 44.8003 107.834 45.1089 108.04L48.1947 106.651C48.709 106.857 49.2747 106.96 49.8918 106.96C50.509 106.96 51.0233 107.063 51.4347 107.268C52.8747 106.754 54.0576 106.497 54.9833 106.497C55.909 106.497 56.7833 106.497 57.6062 106.497C59.149 107.32 60.1262 107.526 60.5376 107.114C61.2576 106.908 61.7719 106.651 62.0805 106.343C63.2119 106.137 63.9834 105.983 64.3948 105.88C64.9091 105.777 65.4234 105.674 65.9377 105.571C66.2463 105.16 66.6063 104.851 67.0177 104.646C67.532 104.44 68.0463 104.234 68.5606 104.028C68.972 103.823 69.332 103.617 69.6406 103.411C69.9491 103.206 70.2577 103 70.5663 102.794C70.772 102.486 70.9777 102.28 71.1834 102.177C71.492 101.971 71.7492 101.766 71.9549 101.56C72.9835 100.737 73.652 99.9141 73.9606 99.0912C74.2692 98.1655 74.9378 97.5998 75.9663 97.3941C76.4806 96.8798 76.8921 96.4169 77.2006 96.0055C77.6121 95.4912 78.0749 95.1312 78.5892 94.9255C78.7949 94.514 78.9492 94.2055 79.0521 93.9998C79.1549 93.6912 79.2578 93.3312 79.3607 92.9197L80.595 90.1426C80.8007 89.834 81.0064 89.5254 81.2121 89.2169C81.4178 88.8054 81.7264 88.4968 82.1378 88.2911C82.8578 89.0111 83.115 89.474 82.9093 89.6797C82.7035 89.7826 82.6007 89.9369 82.6007 90.1426C82.6007 90.6569 82.755 91.1197 83.0635 91.5312C83.3721 91.8397 83.6293 92.1483 83.835 92.4569L82.9093 95.0798C82.7035 95.9026 82.5493 96.8284 82.4464 97.8569C82.3435 98.7827 82.0864 99.5541 81.675 100.171C80.6464 100.583 80.0292 101.046 79.8235 101.56C79.7207 101.971 79.6178 102.486 79.5149 103.103C79.5149 103.617 79.4635 104.183 79.3607 104.8C79.3607 105.314 79.2064 105.726 78.8978 106.034C78.8978 106.446 78.8464 106.754 78.7435 106.96C78.7435 107.166 78.6921 107.423 78.5892 107.731C77.7664 108.246 77.2521 109.171 77.0464 110.508C76.9435 111.743 76.7892 112.926 76.5835 114.057C75.8635 114.983 75.3492 116.011 75.0406 117.143C74.3206 117.966 74.012 118.634 74.1149 119.149C74.2178 119.663 74.2178 120.331 74.1149 121.154C73.7035 122.183 73.1892 122.8 72.572 123.006L70.412 122.697C69.4863 123.623 68.9206 123.983 68.7148 123.777C68.612 123.571 68.4063 123.469 68.0977 123.469C66.2463 123.366 64.9091 123.16 64.0862 122.851C63.3662 123.366 62.4919 123.52 61.4634 123.314C60.4348 123.109 59.4062 123.057 58.3776 123.16C57.5547 122.646 57.0919 122.44 56.989 122.543C56.8862 122.749 56.7319 122.851 56.5262 122.851C55.909 122.954 55.3947 122.851 54.9833 122.543C54.5719 122.234 54.109 122.183 53.5947 122.389C52.8747 123.417 52.3604 123.829 52.0518 123.623C51.7433 123.52 51.4347 123.366 51.1261 123.16C50.8175 122.954 50.4061 122.851 49.8918 122.851C49.4804 122.851 49.1204 122.749 48.8118 122.543C48.2975 122.44 47.9889 122.389 47.8861 122.389C47.7832 122.491 47.4747 122.543 46.9604 122.543C45.9318 122.234 45.3146 122.234 45.1089 122.543C45.0061 122.954 44.7489 123.263 44.3375 123.469C43.1032 122.954 42.3832 122.594 42.1775 122.389C42.0746 122.286 41.9203 122.183 41.7146 122.08C40.686 121.669 39.8117 121.669 39.0917 122.08C38.3717 122.491 37.7031 122.851 37.086 123.16C36.366 122.954 35.7488 122.903 35.2345 123.006C34.8231 123.109 34.3088 123.16 33.6917 123.16C33.2802 122.954 32.9717 122.389 32.7659 121.463C32.2517 121.566 31.8402 121.823 31.5317 122.234C31.3259 122.646 31.0174 122.954 30.6059 123.16C29.7831 123.057 28.9602 122.954 28.1373 122.851C27.4173 122.851 26.6973 122.749 25.9773 122.543C25.6687 122.749 25.3602 122.903 25.0516 123.006C24.8459 123.211 24.5887 123.366 24.2802 123.469C23.2516 123.469 22.6344 123.623 22.4287 123.931C22.3259 124.24 22.1201 124.446 21.8116 124.549C21.503 124.549 21.1944 124.446 20.8858 124.24C20.6801 124.137 20.423 124.034 20.1144 123.931C19.703 123.726 19.3944 123.417 19.1887 123.006C18.983 122.594 18.7258 122.286 18.4172 122.08C18.1087 122.183 17.6972 122.234 17.1829 122.234C16.6687 122.234 16.2572 122.337 15.9487 122.543C15.6401 122.646 15.3829 122.8 15.1772 123.006C15.0744 123.211 14.8686 123.417 14.5601 123.623C14.0458 123.52 13.3772 123.52 12.5543 123.623C11.7315 123.829 11.0629 123.726 10.5486 123.314C8.90287 123.829 7.82286 123.674 7.30857 122.851C6.58857 123.263 5.66285 123.52 4.53141 123.623C3.29711 123.726 2.26853 123.674 1.44566 123.469C1.13709 122.543 1.23995 122.08 1.75424 122.08C2.26853 122.183 2.67996 122.286 2.98854 122.389C3.50283 122.183 3.86283 121.977 4.06854 121.771C4.27426 121.566 4.53141 121.36 4.83998 121.154C5.45713 121.154 5.91999 121.051 6.22856 120.846C6.53714 120.537 6.89714 120.28 7.30857 120.074C9.46859 120.074 10.8057 119.406 11.32 118.069C11.6286 117.863 11.9372 117.76 12.2458 117.76C12.6572 117.657 13.0172 117.554 13.3258 117.451C13.5315 117.143 13.7372 116.834 13.9429 116.526C14.2515 116.114 14.7144 116.011 15.3315 116.217C15.8458 115.189 16.2058 114.366 16.4115 113.749C16.7201 113.131 17.2858 112.668 18.1087 112.36C18.4172 111.434 18.623 110.766 18.7258 110.354C18.8287 109.943 18.9315 109.531 19.0344 109.12C18.7258 107.371 18.4172 106.24 18.1087 105.726C17.8001 105.211 17.6972 104.491 17.8001 103.566C17.6972 103.257 17.4401 103.051 17.0287 102.948C16.7201 102.846 16.5658 102.588 16.5658 102.177C16.8744 101.046 17.0801 100.326 17.1829 100.017C17.2858 99.7084 17.4401 99.3484 17.6458 98.9369L18.1087 96.3141C18.0058 95.4912 18.0058 94.7198 18.1087 93.9998C18.3144 93.1769 18.3144 92.4569 18.1087 91.8397C18.5201 90.6054 18.623 89.9369 18.4172 89.834C18.2115 89.7311 18.0058 89.5769 17.8001 89.3711C17.6972 88.3426 17.3372 87.3654 16.7201 86.4397C16.9258 86.0283 17.1315 85.7197 17.3372 85.514C17.6458 85.2054 17.903 84.8454 18.1087 84.434C17.903 84.0225 17.6972 83.6625 17.4915 83.3539C17.2858 83.0454 17.1829 82.6339 17.1829 82.1196C17.903 80.3711 18.4172 78.8282 18.7258 77.491C19.0344 76.051 18.983 74.7653 18.5715 73.6339C18.6744 72.6053 18.623 72.0396 18.4172 71.9367C18.2115 71.8338 18.1087 71.5767 18.1087 71.1653C18.0058 70.651 18.0572 70.3424 18.263 70.2395C18.5715 70.1367 18.7772 69.931 18.8801 69.6224C18.8801 69.0052 18.7772 68.491 18.5715 68.0795C18.4687 67.6681 18.3658 67.2052 18.263 66.6909C18.3658 66.1766 18.5201 65.7138 18.7258 65.3024C18.9315 64.8909 19.1373 64.4281 19.343 63.9138C19.1373 63.3995 18.983 62.8852 18.8801 62.3709C18.8801 61.8566 18.8801 61.3423 18.8801 60.828C18.983 60.5195 19.0344 60.2109 19.0344 59.9023C19.0344 59.4909 19.0344 59.1309 19.0344 58.8223L19.1887 56.1994C18.7772 54.9651 18.623 54.2965 18.7258 54.1937C18.9315 53.988 19.0344 53.7308 19.0344 53.4222C19.0344 51.9822 19.1373 51.0565 19.343 50.6451C19.4458 49.4108 19.4458 48.6908 19.343 48.4851C19.2401 48.2793 19.2915 48.0736 19.4973 47.8679C19.4973 45.8107 19.4458 44.1136 19.343 42.7764C18.8287 41.9536 18.5715 40.8736 18.5715 39.5364C18.6744 38.1992 18.9315 37.0678 19.343 36.1421C19.1373 35.8335 18.9315 35.5249 18.7258 35.2164C18.5201 34.9078 18.4687 34.4449 18.5715 33.8278C18.8801 32.3878 19.0344 31.3592 19.0344 30.742C19.0344 30.022 18.8801 29.4049 18.5715 28.8906C18.7772 27.862 18.8801 27.0906 18.8801 26.5763C18.4687 25.2391 18.3144 24.4677 18.4172 24.262C18.1087 23.7477 17.9544 23.2848 17.9544 22.8734C18.0572 22.462 17.9544 22.0505 17.6458 21.6391C16.7201 21.0219 16.2572 20.1991 16.2572 19.1705C15.5372 18.1419 14.8686 17.3705 14.2515 16.8562C13.9429 17.0619 13.6343 17.1133 13.3258 17.0105C13.0172 16.9076 12.7601 16.7533 12.5543 16.5476C12.3486 15.519 12.0915 14.9533 11.7829 14.8505C11.5772 14.6447 11.3715 14.3876 11.1658 14.079C10.5486 14.1819 10.0343 14.3362 9.62288 14.5419C9.21145 14.7476 8.74859 14.7476 8.2343 14.5419C8.02858 14.1305 7.87429 13.7705 7.77144 13.4619C7.66858 13.0504 7.41143 12.7419 7 12.5362C5.0457 12.7419 4.22283 11.9704 4.53141 10.2219C4.22283 10.119 3.86283 10.0676 3.4514 10.0676C2.93711 9.96471 2.47424 9.86185 2.06281 9.75899C1.65138 9.65613 1.39423 9.50185 1.29138 9.29613C1.08566 9.09041 1.08566 8.73041 1.29138 8.21612C1.80567 8.0104 2.26853 8.0104 2.67996 8.21612C3.09139 8.31898 3.50283 8.47326 3.91426 8.67898C4.32569 8.57612 4.63426 8.42184 4.83998 8.21612C5.0457 8.0104 5.35427 7.85612 5.7657 7.75326C6.38285 8.06183 7.10286 8.26755 7.92572 8.37041C8.85145 8.37041 9.57145 8.47326 10.0857 8.67898C11.5258 8.57612 12.4515 8.42184 12.8629 8.21612C13.2743 7.90754 13.8401 7.80469 14.5601 7.90754C15.1772 8.0104 15.5886 8.31898 15.7944 8.83327C16.1029 9.2447 16.5144 9.55327 17.0287 9.75899C17.543 9.86185 17.8515 9.81042 17.9544 9.6047C18.1601 9.39899 18.3658 9.19327 18.5715 8.98755C19.1887 9.19327 19.6515 9.14184 19.9601 8.83327C20.3715 8.42184 20.8858 8.26755 21.503 8.37041C22.8401 7.85612 23.5602 7.70183 23.663 7.90754C23.7659 8.0104 23.9202 8.11326 24.1259 8.21612L27.3659 7.44468C28.0859 7.34183 28.6002 7.39325 28.9088 7.59897C29.3202 7.80469 29.7316 8.11326 30.1431 8.52469C30.4516 8.42184 30.8116 8.42184 31.2231 8.52469C31.7374 8.52469 32.0974 8.62755 32.3031 8.83327C33.126 8.52469 34.1545 8.26755 35.3888 8.06183C36.6231 7.75326 37.6003 7.95897 38.3203 8.67898C38.7317 8.57612 39.0917 8.47326 39.4003 8.37041C39.8117 8.26755 40.2746 8.26755 40.7889 8.37041C41.0975 8.16469 41.4575 7.90754 41.8689 7.59897C42.3832 7.18754 43.0003 7.08468 43.7203 7.2904C44.3375 8.11326 44.5946 8.57612 44.4918 8.67898C44.4918 8.67898 44.4918 8.78184 44.4918 8.98755C44.9032 9.29613 45.3146 9.39899 45.7261 9.29613C46.2404 9.09041 46.7032 8.8847 47.1146 8.67898C47.5261 8.47326 47.9375 8.31898 48.3489 8.21612C48.7604 8.11326 49.1204 8.21612 49.429 8.52469C49.6347 8.83327 49.6347 9.14184 49.429 9.45042C49.3261 9.65613 49.3261 9.91328 49.429 10.2219C50.149 10.119 50.8175 9.96471 51.4347 9.75899C52.0518 9.45042 52.7718 9.39899 53.5947 9.6047C54.2119 9.19327 55.0347 8.78184 56.0633 8.37041C57.1947 7.95897 58.0176 8.16469 58.5319 8.98755C60.2805 8.57612 61.8234 8.16469 63.1605 7.75326C64.3948 8.06183 65.2177 8.11326 65.6291 7.90754C66.0405 7.70183 66.5034 7.70183 67.0177 7.90754C67.9434 7.59897 68.6634 7.08468 69.1777 6.36467C69.7949 5.54181 70.6691 5.02752 71.8006 4.8218C72.8292 5.13038 73.5492 5.28466 73.9606 5.28466C74.4749 5.28466 74.8349 5.49038 75.0406 5.90181C75.5549 5.6961 76.0692 5.43895 76.5835 5.13038C77.0978 4.71894 77.6121 4.71894 78.1264 5.13038C78.7435 4.71894 79.3092 4.30751 79.8235 3.89608C80.3378 3.48465 81.0064 3.17607 81.8293 2.97036C82.035 2.76464 82.2921 2.61035 82.6007 2.5075C82.9093 2.40464 83.1664 2.25035 83.3721 2.04463C83.7836 1.73606 84.1436 1.42749 84.4521 1.11891C84.7607 0.810338 85.275 0.70748 85.995 0.810338C86.4064 0.501763 86.8693 0.398905 87.3836 0.501763C87.8979 0.604621 88.2065 0.913196 88.3093 1.42749C88.1036 1.83892 87.8979 2.19892 87.6922 2.5075C87.4864 2.71321 87.435 3.07322 87.5379 3.58751C87.3322 3.99894 87.0236 4.35894 86.6122 4.66752C86.2007 4.97609 85.8407 5.28466 85.5321 5.59324C85.2236 5.90181 84.915 6.26182 84.6064 6.67325C84.4007 7.08468 84.3493 7.6504 84.4521 8.37041C83.835 8.98755 83.4236 9.50185 83.2178 9.91328L83.3721 11.4561ZM149.716 29.8163C150.23 30.6392 150.333 31.1535 150.024 31.3592C149.716 31.462 149.458 31.5135 149.253 31.5135C148.944 31.6163 148.636 31.7706 148.327 31.9763C148.121 32.1821 147.864 32.3878 147.556 32.5935C145.19 32.5935 143.493 33.2106 142.464 34.4449C142.258 35.3707 142.001 35.9878 141.693 36.2964C141.487 36.5021 141.281 36.8107 141.076 37.2221C141.076 37.6335 141.127 37.9935 141.23 38.3021C141.333 38.6107 141.333 39.0221 141.23 39.5364C140.613 40.565 140.15 41.285 139.841 41.6964C139.635 42.1079 139.327 42.4679 138.915 42.7764C138.813 43.2907 138.761 43.9079 138.761 44.6279C138.761 45.245 138.658 45.7079 138.453 46.0165C138.247 46.2222 137.99 46.3765 137.681 46.4793C137.373 46.4793 137.064 46.5822 136.755 46.7879C136.241 46.9936 135.933 47.405 135.83 48.0222C135.727 48.6393 135.624 49.2051 135.521 49.7194C135.83 51.3651 135.933 52.4965 135.83 53.1137C135.727 53.628 135.624 54.2451 135.521 54.9651C136.035 55.9937 136.087 56.8166 135.675 57.4337C135.367 57.948 135.264 58.6166 135.367 59.4394C134.955 60.1594 134.698 61.0337 134.595 62.0623C134.595 63.0909 134.595 64.1195 134.595 65.1481C134.493 65.5595 134.493 65.8681 134.595 66.0738C134.698 66.2795 134.698 66.6395 134.595 67.1538C132.847 68.0795 131.818 69.1081 131.51 70.2395C131.51 70.5481 131.613 70.8053 131.818 71.011C132.024 71.1138 132.127 71.4224 132.127 71.9367C131.921 72.9653 131.561 73.9424 131.047 74.8682C130.635 75.691 130.481 76.7196 130.584 77.9539C130.275 79.0853 130.018 80.2682 129.813 81.5025C129.71 82.7368 129.453 83.9197 129.041 85.0511C129.144 86.2854 128.938 87.2626 128.424 87.9826C128.013 88.5997 127.755 89.4226 127.653 90.4512C127.755 90.9654 127.91 91.3769 128.115 91.6854C128.424 91.8912 128.63 92.1997 128.733 92.6112C128.527 93.1255 128.27 93.5369 127.961 93.8455C127.653 94.0512 127.293 94.3083 126.881 94.6169C126.675 95.3369 126.418 96.1083 126.11 96.9312C125.904 97.6512 125.853 98.4741 125.955 99.3998C126.058 100.223 126.161 100.737 126.264 100.943C126.367 101.046 126.315 101.097 126.11 101.097C126.007 101.611 125.853 102.074 125.647 102.486C125.544 102.794 125.493 103.206 125.493 103.72C125.287 104.234 125.132 104.748 125.03 105.263C124.927 105.777 124.772 106.291 124.567 106.806C124.155 107.217 123.744 107.628 123.332 108.04C123.024 108.348 122.818 108.863 122.715 109.583C123.127 111.331 123.178 112.617 122.87 113.44C122.561 114.16 122.561 114.931 122.87 115.754C122.664 116.166 122.51 116.731 122.407 117.451C122.407 118.069 122.252 118.531 121.944 118.84C122.047 119.149 122.098 119.509 122.098 119.92C122.098 120.229 122.201 120.486 122.407 120.691C122.201 121 122.15 121.309 122.252 121.617C122.355 121.926 122.304 122.183 122.098 122.389C121.378 122.389 120.71 122.286 120.092 122.08C119.578 122.286 119.064 122.543 118.55 122.851C118.035 123.16 117.418 123.417 116.698 123.623C116.184 123.52 115.927 123.263 115.927 122.851C115.927 122.44 115.721 122.131 115.31 121.926C114.487 121.823 113.767 121.874 113.15 122.08C112.635 122.286 111.967 122.491 111.144 122.697C110.115 122.08 109.447 121.823 109.138 121.926C108.829 122.131 108.418 122.183 107.904 122.08C106.875 121.463 106.155 121.309 105.744 121.617C105.435 122.029 104.869 122.183 104.047 122.08C102.812 121.463 101.938 121.206 101.424 121.309C101.012 121.411 100.601 121.309 100.189 121C99.058 121.514 98.4408 121.669 98.338 121.463C98.2351 121.36 98.0808 121.309 97.8751 121.309C97.3608 121.411 96.6922 121.514 95.8694 121.617C95.0465 121.72 94.4808 121.514 94.1722 121C94.3779 120.383 94.6865 119.869 95.0979 119.457C95.5094 119.046 95.9208 118.634 96.3322 118.223C97.4637 118.326 98.5951 118.377 99.7266 118.377C100.961 118.377 101.732 117.811 102.041 116.68C103.069 115.549 103.789 114.674 104.201 114.057C104.201 113.543 104.201 113.028 104.201 112.514C104.201 112 104.098 111.434 103.892 110.817C103.584 109.994 103.327 109.48 103.121 109.274C103.121 108.966 103.069 108.606 102.967 108.194C102.864 107.783 102.915 107.371 103.121 106.96C102.915 106.343 102.555 105.726 102.041 105.108C102.144 103.257 101.938 101.508 101.424 99.8627C101.527 99.0398 101.475 98.6284 101.269 98.6284C101.167 98.5255 101.064 98.3712 100.961 98.1655C100.755 97.0341 100.652 96.2626 100.652 95.8512C100.755 95.3369 100.807 94.7198 100.807 93.9998C100.704 93.4855 100.549 93.074 100.344 92.7655C100.138 92.4569 100.087 92.0455 100.189 91.5312C99.8808 90.8112 99.5208 90.194 99.1094 89.6797C98.698 89.1654 98.2865 88.5997 97.8751 87.9826C97.978 87.674 98.0294 87.3654 98.0294 87.0568C98.0294 86.6454 98.0294 86.2854 98.0294 85.9768C97.8237 85.3597 97.5665 84.6911 97.258 83.9711C97.1551 82.6339 96.9494 81.7596 96.6408 81.3482C96.4351 80.9368 96.178 80.4739 95.8694 79.9596C95.8694 79.4453 95.9722 79.0853 96.178 78.8796C96.3837 78.571 96.4865 78.1596 96.4865 77.6453C95.7665 76.6167 95.2522 75.9996 94.9437 75.7939C95.0465 75.3824 95.0465 74.9196 94.9437 74.4053C94.9437 73.891 94.8922 73.3767 94.7894 72.8624C94.2751 71.8338 94.1722 71.1138 94.4808 70.7024C94.7894 70.291 94.8408 69.8281 94.6351 69.3138C94.5322 68.9024 94.3265 68.6452 94.0179 68.5424C93.8122 68.4395 93.6579 68.2338 93.5551 67.9252C93.6579 67.4109 93.8122 67.1024 94.0179 66.9995C94.2236 66.7938 94.4294 66.4338 94.6351 65.9195C94.3265 65.0966 93.8636 64.4795 93.2465 64.0681C92.7322 63.6566 92.3722 63.0909 92.1665 62.3709C92.1665 61.548 92.2693 60.8795 92.4751 60.3652C92.7836 59.8509 93.0408 59.2852 93.2465 58.668C92.9379 58.1537 92.5265 57.7423 92.0122 57.4337C91.4979 57.1251 91.1379 56.6623 90.9322 56.0451C91.1379 55.6337 91.1893 55.2223 91.0865 54.8108C91.0865 54.3994 91.0865 53.8851 91.0865 53.268C90.8808 51.9308 90.8293 51.2108 90.9322 51.1079C91.1379 50.9022 91.2922 50.5936 91.395 50.1822C91.395 49.7708 91.2922 49.4622 91.0865 49.2565C90.8808 48.9479 90.675 48.6393 90.4693 48.3308C90.4693 47.3022 90.3665 46.6336 90.1608 46.325C89.955 46.1193 89.6465 46.0165 89.235 46.0165C88.9265 45.9136 88.6693 45.7593 88.4636 45.5536C88.3607 45.0393 88.0007 44.5764 87.3836 44.165C87.1779 44.165 86.9207 44.2679 86.6121 44.4736C86.3036 44.5764 85.9436 44.525 85.5321 44.3193C85.4293 43.3936 85.4293 42.725 85.5321 42.3136C85.7379 41.9021 85.9436 41.5421 86.1493 41.2336C85.8407 40.205 85.5321 39.5878 85.2236 39.3821C85.0178 39.0735 84.8636 38.6621 84.7607 38.1478C83.9378 38.6621 83.0121 38.7135 81.9835 38.3021C80.955 37.8907 80.6978 37.1192 81.2121 35.9878C81.0064 35.4735 80.6464 35.1649 80.1321 35.0621C79.5149 34.9592 79.1035 34.6506 78.8978 34.1364C78.8978 33.3135 78.7435 32.9535 78.4349 33.0563C78.0235 33.0563 77.7149 32.9535 77.5092 32.7478C77.2006 32.0278 77.1492 31.3078 77.3549 30.5878C77.6635 30.382 78.1264 30.2792 78.7435 30.2792C79.2578 30.2792 79.6692 30.1763 79.9778 29.9706C80.6978 30.0735 81.3664 30.0735 81.9835 29.9706C82.6007 29.8677 83.1664 29.9706 83.6807 30.2792C84.8121 30.1763 85.4293 30.1763 85.5321 30.2792C85.635 30.382 85.7893 30.4849 85.995 30.5878C87.5379 30.5878 88.6179 30.4849 89.235 30.2792C90.1608 30.382 90.6236 30.5363 90.6236 30.742C90.7265 30.8449 90.8808 30.9478 91.0865 31.0506C92.0122 30.8449 92.9379 30.4335 93.8636 29.8163C94.7894 29.1992 95.6637 29.302 96.4865 30.1249C96.4865 30.9478 96.2808 31.5649 95.8694 31.9763C95.4579 32.3878 95.1494 32.8506 94.9437 33.3649C95.5608 33.4678 96.0751 33.3649 96.4865 33.0563C97.0008 32.6449 97.4637 32.2335 97.8751 31.822C98.5951 31.7192 99.1094 31.5649 99.418 31.3592C99.8294 31.0506 100.292 30.7935 100.807 30.5878C102.041 30.6906 102.864 30.5878 103.275 30.2792C103.789 29.8677 104.201 29.9192 104.509 30.4335C104.509 30.8449 104.355 31.102 104.047 31.2049C103.841 31.3078 103.635 31.5135 103.429 31.822C103.429 33.6735 103.172 35.5249 102.658 37.3764C102.864 37.8907 103.172 38.3535 103.584 38.765C104.098 39.0735 104.458 39.5878 104.664 40.3078C104.458 41.1307 104.098 41.7479 103.584 42.1593C103.172 42.4679 102.864 42.9307 102.658 43.5479C103.687 44.7822 104.355 45.6565 104.664 46.1707C105.075 46.5822 105.384 47.045 105.589 47.5593C106.412 48.4851 106.721 49.1022 106.515 49.4108C106.412 49.6165 106.361 49.8222 106.361 50.0279C106.464 50.5422 106.618 51.0051 106.824 51.4165C107.029 51.7251 107.081 52.1365 106.978 52.6508C106.978 53.0622 106.875 53.4222 106.669 53.7308C106.464 53.9365 106.464 54.2451 106.669 54.6565C106.875 55.1708 107.081 55.6337 107.287 56.0451C107.492 56.3537 107.595 56.8166 107.595 57.4337C107.801 59.2852 107.749 60.6737 107.441 61.5995C107.441 61.908 107.492 62.268 107.595 62.6795C107.801 62.988 107.801 63.2452 107.595 63.4509C107.801 64.0681 108.058 64.6852 108.367 65.3024C108.778 65.9195 109.087 66.4852 109.292 66.9995C109.189 68.2338 109.241 68.9538 109.447 69.1595C109.652 69.3652 109.601 69.7252 109.292 70.2395C109.395 70.5481 109.55 70.7538 109.755 70.8567C109.961 70.9595 110.064 71.2681 110.064 71.7824C110.064 72.3996 109.961 72.9138 109.755 73.3253C109.55 73.6339 109.344 74.0453 109.138 74.5596C109.344 74.6624 109.652 74.6624 110.064 74.5596C110.475 74.4567 110.835 74.5081 111.144 74.7139C111.967 76.5653 112.018 78.4682 111.298 80.4225C112.018 81.4511 112.378 81.9654 112.378 81.9654C112.584 82.1711 112.841 82.5311 113.15 83.0454C113.561 83.4568 113.767 83.9197 113.767 84.434C113.87 84.8454 113.818 85.2054 113.612 85.514C113.51 85.8225 113.458 86.1825 113.458 86.594C113.972 85.154 114.281 84.1768 114.384 83.6625C114.59 83.0454 114.847 82.5311 115.155 82.1196C115.155 80.4739 115.361 79.0339 115.772 77.7996C115.772 76.4625 115.875 75.5367 116.081 75.0224C116.39 74.4053 116.647 73.8396 116.852 73.3253C117.161 72.811 117.418 72.2453 117.624 71.6281C117.83 71.011 117.932 70.291 117.932 69.4681C118.344 68.6452 118.652 67.7709 118.858 66.8452C119.064 65.8166 119.064 64.7881 118.858 63.7595C119.064 63.2452 119.064 62.628 118.858 61.908C119.064 61.188 119.218 60.5709 119.321 60.0566C119.424 59.5423 119.475 58.8223 119.475 57.8966C119.784 56.7651 120.092 55.6851 120.401 54.6565C120.71 53.628 120.864 52.3937 120.864 50.9536C121.07 49.9251 121.172 49.3593 121.172 49.2565C121.172 49.1536 121.121 48.9993 121.018 48.7936C121.224 48.0736 121.327 47.3536 121.327 46.6336C121.43 45.8107 121.584 45.0393 121.79 44.3193C121.892 43.805 121.841 43.3422 121.635 42.9307C121.532 42.4164 121.532 41.9021 121.635 41.3878C121.635 40.8736 121.738 40.5136 121.944 40.3078C122.252 39.9993 122.51 39.6393 122.715 39.2278C122.612 38.5078 122.664 37.9421 122.87 37.5307C123.178 37.0164 123.281 36.4507 123.178 35.8335C123.075 35.4221 122.972 35.1135 122.87 34.9078C122.87 34.7021 122.921 34.3421 123.024 33.8278C123.23 32.6963 123.178 32.1306 122.87 32.1306C122.561 32.1306 122.458 31.8735 122.561 31.3592C122.664 30.8449 122.921 30.5878 123.332 30.5878C123.847 30.4849 124.361 30.3306 124.875 30.1249C125.184 29.8163 125.493 29.6106 125.801 29.5077C126.213 29.302 126.675 29.0963 127.19 28.8906C127.704 28.9935 128.013 29.2506 128.115 29.662C128.321 29.9706 128.681 30.2277 129.195 30.4335C130.43 30.6392 131.561 30.6392 132.59 30.4335C133.721 30.2277 134.801 30.022 135.83 29.8163C136.447 29.9192 136.91 30.1763 137.218 30.5878C137.527 30.9992 137.99 31.3078 138.607 31.5135C139.121 31.4106 139.584 31.2563 139.995 31.0506C140.407 30.8449 140.87 30.6392 141.384 30.4335C142.31 30.4335 143.081 30.2792 143.698 29.9706C144.418 30.0735 144.984 30.022 145.396 29.8163C145.807 29.6106 146.27 29.5077 146.784 29.5077C147.916 29.6106 148.584 29.662 148.79 29.662C148.996 29.5592 149.304 29.6106 149.716 29.8163ZM208.19 19.7877C208.396 20.0962 208.448 20.4048 208.345 20.7134C208.345 21.0219 208.448 21.2791 208.653 21.4848C208.345 22.3077 207.933 23.0791 207.419 23.7991C207.522 25.0334 207.162 25.9591 206.339 26.5763C205.619 27.1934 205.053 27.9134 204.642 28.7363C204.436 29.9706 203.922 30.8963 203.099 31.5135C202.996 32.0278 202.893 32.5421 202.79 33.0563C202.79 33.4678 202.893 33.8792 203.099 34.2906C202.893 34.7021 202.636 35.0106 202.327 35.2164C202.122 35.4221 201.916 35.7307 201.71 36.1421C201.813 37.2735 201.71 37.9421 201.402 38.1478C201.196 38.3535 200.99 38.6621 200.785 39.0735C200.065 40.4107 199.499 41.3878 199.087 42.005C198.779 42.5193 198.522 43.1364 198.316 43.8564C197.699 45.2965 197.133 46.2736 196.619 46.7879C196.105 46.8908 195.745 46.8393 195.539 46.6336C195.436 46.4279 195.23 46.2736 194.922 46.1707C194.613 47.3022 194.253 47.765 193.842 47.5593C193.533 47.2508 193.327 46.8908 193.225 46.4793C191.99 46.5822 191.219 46.4793 190.91 46.1707C190.705 45.8622 190.345 45.6565 189.83 45.5536C189.213 45.4507 188.699 45.5022 188.287 45.7079C187.979 45.9136 187.516 46.0165 186.899 46.0165C186.487 45.9136 186.127 45.7593 185.819 45.5536C185.613 45.245 185.304 45.0907 184.893 45.0907C184.379 44.9879 183.967 45.0907 183.659 45.3993C183.35 45.7079 182.99 45.965 182.579 46.1707C181.859 45.965 181.19 45.965 180.573 46.1707C180.059 46.3765 179.39 46.5308 178.567 46.6336C177.539 46.325 176.767 46.1193 176.253 46.0165C175.842 45.9136 175.584 45.605 175.482 45.0907C174.247 45.7079 173.527 45.9136 173.322 45.7079C173.219 45.3993 173.013 45.0907 172.704 44.7822C172.19 44.885 171.727 45.0393 171.316 45.245C171.007 45.3479 170.75 45.5022 170.544 45.7079C169.413 44.9879 168.641 45.2965 168.23 46.6336C168.847 48.3822 168.95 49.4622 168.539 49.8736C168.127 50.2851 167.819 50.8508 167.613 51.5708C167.921 52.1879 168.179 52.8565 168.384 53.5765C168.59 54.1937 168.539 54.9137 168.23 55.7366C168.436 56.2508 168.59 56.868 168.693 57.588C168.796 58.308 168.693 58.9766 168.384 59.5937C168.899 61.0337 169.001 62.4738 168.693 63.9138C168.487 65.3538 168.487 66.7424 168.693 68.0795C169.104 68.1824 169.464 68.1824 169.773 68.0795C170.184 67.9767 170.647 67.9252 171.161 67.9252C172.396 67.6167 173.116 67.5652 173.322 67.7709C173.63 67.8738 173.939 68.0281 174.247 68.2338C174.453 68.1309 174.71 68.1309 175.019 68.2338C175.327 68.2338 175.636 68.1824 175.944 68.0795C176.253 67.9767 176.51 67.8738 176.716 67.7709C177.024 67.5652 177.333 67.5138 177.642 67.6167C178.67 67.8224 179.339 67.9252 179.647 67.9252C180.059 67.9252 180.419 67.9252 180.727 67.9252C181.653 67.2052 182.682 66.8967 183.813 66.9995C184.533 66.4852 185.099 65.8166 185.51 64.9938C185.922 64.1709 186.59 63.6052 187.516 63.2966C188.647 63.0909 189.316 62.7309 189.522 62.2166C189.727 61.5995 190.139 61.188 190.756 60.9823C191.167 60.0566 191.476 59.4909 191.682 59.2852C192.505 58.668 193.122 58.2566 193.533 58.0509C193.945 57.8451 194.459 57.7423 195.076 57.7423C195.076 58.9766 195.23 59.6452 195.539 59.748C195.847 59.8509 195.899 60.0052 195.693 60.2109C195.59 60.5195 195.385 60.7766 195.076 60.9823C194.767 61.0852 194.51 61.2395 194.305 61.4452C194.407 61.8566 194.407 62.1652 194.305 62.3709C194.202 62.5766 194.15 62.8338 194.15 63.1423C193.739 63.5538 193.173 63.9138 192.453 64.2223C191.939 64.8395 191.527 65.6624 191.219 66.6909C191.116 68.3367 190.859 69.571 190.447 70.3938C190.139 71.2167 189.933 72.2453 189.83 73.4796C188.596 74.1996 187.824 74.9196 187.516 75.6396C187.31 76.2567 187.002 76.8225 186.59 77.3367C186.487 78.571 186.282 79.3939 185.973 79.8053C185.767 80.2168 185.51 80.6282 185.202 81.0396C183.967 81.7596 183.196 82.1196 182.887 82.1196C182.579 82.0168 182.27 82.0682 181.962 82.2739C181.447 82.1711 180.933 82.1196 180.419 82.1196C180.007 82.1196 179.544 82.0168 179.03 81.8111C178.619 81.6054 178.156 81.6568 177.642 81.9654C177.23 82.2739 176.819 82.4282 176.407 82.4282C175.79 82.4282 175.327 82.2739 175.019 81.9654C174.813 81.6568 174.556 81.3996 174.247 81.1939C173.733 81.2968 173.167 81.3996 172.55 81.5025C172.036 81.6054 171.624 81.8111 171.316 82.1196C170.904 82.2225 170.544 82.2225 170.236 82.1196C170.03 82.0168 169.721 81.9654 169.31 81.9654C169.001 82.2739 168.796 82.6854 168.693 83.1997C168.59 83.7139 168.281 84.0225 167.767 84.1254C167.87 84.6397 168.024 85.0511 168.23 85.3597C168.539 85.5654 168.847 85.8225 169.156 86.1311C168.95 87.3654 168.744 88.4454 168.539 89.3711C168.23 90.8112 168.23 91.6854 168.539 91.994C168.95 92.1997 169.156 92.6626 169.156 93.3826C169.053 93.8969 168.847 94.3598 168.539 94.7712C168.333 95.1826 168.127 95.6455 167.921 96.1598C168.024 96.6741 168.127 97.0855 168.23 97.3941C168.436 97.7026 168.487 98.1655 168.384 98.7827C168.899 100.737 168.847 101.868 168.23 102.177C167.716 102.486 167.407 103.051 167.304 103.874C167.51 104.388 167.664 104.8 167.767 105.108C167.973 105.417 168.076 105.828 168.076 106.343C168.281 106.548 168.384 106.806 168.384 107.114C168.487 107.423 168.641 107.68 168.847 107.886C170.081 107.577 170.75 107.526 170.853 107.731C170.956 107.834 171.11 107.988 171.316 108.194C171.727 107.988 172.087 107.886 172.396 107.886C172.704 107.783 173.013 107.628 173.322 107.423C174.042 107.32 174.556 107.371 174.864 107.577C175.173 107.783 175.584 107.937 176.099 108.04C176.922 107.834 177.59 107.577 178.104 107.268C178.619 106.857 179.442 106.703 180.573 106.806C180.779 107.011 180.882 107.32 180.882 107.731C180.984 108.04 181.036 108.4 181.036 108.811C181.447 108.811 181.807 108.657 182.116 108.348C182.424 107.937 182.939 107.834 183.659 108.04C184.79 107.628 185.356 107.68 185.356 108.194C186.179 107.988 186.744 107.628 187.053 107.114C187.362 106.6 187.876 106.24 188.596 106.034C189.419 106.24 189.933 106.24 190.139 106.034C190.345 105.726 190.602 105.468 190.91 105.263C192.556 105.057 193.585 104.491 193.996 103.566C194.407 102.537 194.922 101.611 195.539 100.788C195.847 100.583 196.207 100.48 196.619 100.48C197.133 100.377 197.647 100.274 198.162 100.171C198.47 99.6569 198.727 99.0398 198.933 98.3198C199.139 97.5998 199.447 96.9826 199.859 96.4683C200.167 96.1598 200.476 95.9026 200.785 95.6969C201.093 95.4912 201.35 95.1312 201.556 94.6169C202.379 93.794 202.996 93.074 203.407 92.4569C203.922 91.7369 204.745 91.4797 205.876 91.6854C206.802 92.5083 207.059 93.0226 206.648 93.2283C206.236 93.434 205.979 93.8969 205.876 94.6169C205.979 94.9255 206.082 95.2341 206.185 95.5426C206.39 95.8512 206.442 96.2112 206.339 96.6226C205.516 97.9598 205.053 98.8341 204.95 99.2455C204.848 99.6569 204.693 100.068 204.488 100.48C204.385 100.994 204.436 101.406 204.642 101.714C204.848 102.023 205.002 102.434 205.105 102.948C204.282 103.771 203.819 104.286 203.716 104.491C203.716 104.697 203.716 104.903 203.716 105.108C203.716 105.52 203.767 105.828 203.87 106.034C204.076 106.24 204.23 106.497 204.333 106.806C204.333 107.32 204.282 107.731 204.179 108.04C204.076 108.246 203.922 108.503 203.716 108.811C202.996 109.223 202.533 109.634 202.327 110.046C202.225 110.354 202.225 110.663 202.327 110.971C201.71 112 201.35 112.566 201.247 112.668C201.247 112.771 201.145 112.823 200.939 112.823C200.733 113.543 200.579 114.314 200.476 115.137C200.476 115.857 200.322 116.526 200.013 117.143C199.807 117.349 199.447 117.4 198.933 117.297C198.522 117.194 198.265 117.297 198.162 117.606C198.265 118.12 198.367 118.531 198.47 118.84C198.573 119.046 198.727 119.303 198.933 119.611C198.933 120.126 198.985 120.589 199.087 121C199.293 121.309 199.396 121.72 199.396 122.234C199.087 122.749 198.573 122.903 197.853 122.697C197.133 122.594 196.567 122.44 196.156 122.234C195.847 122.337 195.59 122.491 195.385 122.697C195.179 122.903 194.87 123.006 194.459 123.006C193.43 122.697 192.607 122.491 191.99 122.389C190.653 123.109 189.47 123.417 188.442 123.314C187.516 123.211 186.59 123.16 185.664 123.16C184.122 123.16 183.093 122.954 182.579 122.543C182.064 122.234 181.499 122.08 180.882 122.08C180.47 122.183 180.162 122.337 179.956 122.543C179.75 122.749 179.39 122.954 178.876 123.16C178.464 123.057 178.053 123.006 177.642 123.006C177.23 123.006 176.767 123.006 176.253 123.006C175.122 122.594 174.196 122.594 173.476 123.006C172.859 123.417 172.293 123.263 171.779 122.543C171.573 122.749 171.264 123.006 170.853 123.314C170.544 123.623 170.184 123.52 169.773 123.006C169.773 122.697 169.824 122.389 169.927 122.08C170.03 121.771 169.979 121.514 169.773 121.309C168.23 121.823 167.201 122.183 166.687 122.389C166.276 122.697 165.659 122.903 164.836 123.006C163.601 123.314 162.727 123.366 162.213 123.16C161.801 123.057 161.544 122.749 161.441 122.234C159.899 122.543 158.973 122.851 158.664 123.16C158.459 123.571 158.047 123.777 157.43 123.777C156.916 123.366 156.247 123.057 155.424 122.851C154.601 122.749 153.778 122.8 152.956 123.006C152.133 122.8 151.413 122.697 150.796 122.697C150.281 122.697 149.87 122.8 149.561 123.006C149.047 123.417 148.636 123.931 148.327 124.549C148.018 125.166 147.453 125.526 146.63 125.629C145.91 125.526 145.396 125.269 145.087 124.857C144.778 124.549 144.367 124.291 143.853 124.086C143.338 124.086 142.978 124.24 142.773 124.549C142.567 124.857 142.207 125.011 141.693 125.011C139.944 123.88 138.658 123.16 137.835 122.851C136.91 122.543 135.881 122.337 134.75 122.234C134.853 121.411 135.213 121 135.83 121C136.447 121.103 136.858 120.897 137.064 120.383C137.784 120.177 138.247 120.074 138.453 120.074C138.658 119.971 138.864 119.817 139.07 119.611C139.584 119.714 140.098 119.714 140.613 119.611C141.024 119.509 141.436 119.56 141.847 119.766C143.287 119.663 144.316 119.303 144.933 118.686C145.55 117.966 146.218 117.194 146.938 116.371C147.658 116.166 148.07 116.011 148.173 115.909C148.276 115.703 148.43 115.549 148.636 115.446C149.356 114.211 149.818 113.337 150.024 112.823C150.333 112.308 150.744 111.846 151.258 111.434C151.053 110.817 151.104 110.303 151.413 109.891C151.824 109.48 152.133 109.017 152.338 108.503C152.03 107.063 151.978 106.137 152.184 105.726C152.39 105.211 152.596 104.697 152.801 104.183C152.801 103.154 152.647 102.228 152.338 101.406C152.441 100.274 152.493 99.6569 152.493 99.5541C152.493 99.3484 152.596 99.1427 152.801 98.9369C152.493 98.5255 152.287 98.0626 152.184 97.5484C152.081 97.0341 151.978 96.5198 151.876 96.0055C151.773 95.6969 151.567 95.4912 151.258 95.3883C151.053 95.1826 150.847 94.9255 150.641 94.6169C150.95 93.5883 151.516 92.7655 152.338 92.1483C152.338 91.5312 152.441 91.0683 152.647 90.7597C152.853 90.3483 153.058 89.8854 153.264 89.3711C153.058 88.8569 152.801 88.5483 152.493 88.4454C152.287 88.2397 152.184 87.9311 152.184 87.5197C152.081 86.9025 152.236 86.234 152.647 85.514C153.161 84.6911 153.418 83.8682 153.418 83.0454C153.11 81.8111 153.11 80.9882 153.418 80.5768C153.727 80.1653 153.933 79.7025 154.036 79.1882C153.521 78.3653 153.058 77.5425 152.647 76.7196C152.338 75.8967 152.03 75.0224 151.721 74.0967C151.516 73.5824 151.516 73.1196 151.721 72.7081C151.927 72.2967 152.081 71.8338 152.184 71.3195C152.184 70.3938 152.133 69.8281 152.03 69.6224C151.927 69.3138 151.927 68.9538 152.03 68.5424C151.721 67.4109 151.67 66.5881 151.876 66.0738C152.081 65.5595 152.287 64.9938 152.493 64.3766C152.493 63.1423 152.236 62.1652 151.721 61.4452C151.31 60.7252 150.847 60.0052 150.333 59.2852C150.333 58.5651 150.384 57.9994 150.487 57.588C150.693 57.0737 150.898 56.5594 151.104 56.0451C150.796 54.2965 150.693 53.0622 150.796 52.3422C151.001 51.6222 151.001 50.8508 150.796 50.0279C150.898 49.3079 151.156 48.4851 151.567 47.5593C151.464 46.4279 151.516 45.7593 151.721 45.5536C152.03 45.3479 152.133 44.9365 152.03 44.3193C151.824 43.9079 151.516 43.6507 151.104 43.5479C150.796 43.3422 150.538 42.9821 150.333 42.4679C150.333 42.0564 150.487 41.7993 150.796 41.6964C151.104 41.5936 151.31 41.3878 151.413 41.0793C150.796 40.7707 150.23 40.5136 149.716 40.3078C148.79 39.485 147.967 39.0221 147.247 38.9193C146.527 38.7135 146.218 38.1992 146.321 37.3764C144.778 36.965 143.904 36.7078 143.698 36.6049C143.493 36.3992 143.338 36.1935 143.236 35.9878C143.133 35.6792 142.876 35.4735 142.464 35.3707C142.156 35.3707 141.847 35.4221 141.538 35.5249C141.127 35.6278 140.767 35.5764 140.458 35.3707C139.944 34.8564 139.841 34.2906 140.15 33.6735C140.458 32.9535 140.87 32.3878 141.384 31.9763C142.618 32.1821 143.441 32.2849 143.853 32.2849C144.264 32.2849 144.676 32.1821 145.087 31.9763C146.013 31.5649 146.527 31.462 146.63 31.6678C146.836 31.7706 147.041 31.8735 147.247 31.9763C148.481 31.9763 149.098 32.1306 149.098 32.4392C149.201 32.6449 149.356 32.7992 149.561 32.9021C151.104 32.9021 152.184 32.7992 152.801 32.5935C153.418 32.3878 153.933 32.1306 154.344 31.822C155.167 32.0278 155.733 31.9763 156.041 31.6678C156.453 31.2563 156.967 31.0506 157.584 31.0506C159.024 31.6678 160.053 31.9249 160.67 31.822C161.287 31.7192 161.904 31.6163 162.521 31.5135C163.139 31.3078 163.704 31.2049 164.219 31.2049C164.836 31.2049 165.401 31.3592 165.916 31.6678C166.533 31.3592 167.099 30.9992 167.613 30.5878C168.23 30.1763 168.95 30.0735 169.773 30.2792C170.493 30.5878 171.007 31.3592 171.316 32.5935C172.241 32.1821 173.219 31.8735 174.247 31.6678C175.379 31.3592 176.51 31.2563 177.642 31.3592C178.876 32.0792 179.75 32.3878 180.264 32.2849C180.882 32.0792 181.447 32.1306 181.962 32.4392C184.019 32.8506 185.613 32.4906 186.744 31.3592C187.259 31.0506 187.67 30.6906 187.979 30.2792C188.39 29.7649 188.905 29.4049 189.522 29.1992C190.139 29.302 190.447 29.8163 190.447 30.742C190.859 30.6392 191.219 30.4849 191.527 30.2792C191.836 30.0735 192.247 30.0735 192.762 30.2792C193.379 29.5592 193.842 29.0963 194.15 28.8906C194.562 28.6849 195.025 28.4792 195.539 28.2734C196.259 29.302 196.67 29.7649 196.773 29.662C196.876 29.4563 197.03 29.3535 197.236 29.3535C197.853 28.0163 198.47 27.0906 199.087 26.5763C199.705 25.9591 200.322 25.3934 200.939 24.8791C201.967 24.7763 202.533 24.4163 202.636 23.7991C202.842 23.182 203.202 22.7705 203.716 22.5648C204.642 22.5648 205.208 22.3591 205.413 21.9477C205.619 21.5362 205.825 21.1248 206.03 20.7134C206.339 20.3019 206.648 19.9934 206.956 19.7877C207.368 19.4791 207.779 19.4791 208.19 19.7877ZM279.934 28.7363C280.14 29.8677 280.14 30.5878 279.934 30.8963C279.728 31.2049 279.522 31.462 279.317 31.6678H277.311C276.9 32.7992 276.437 33.3649 275.922 33.3649C275.511 33.3649 275.202 33.5192 274.997 33.8278C274.38 34.0335 274.02 34.2392 273.917 34.4449C273.917 34.5478 273.814 34.7021 273.608 34.9078C272.888 35.5249 272.374 35.9364 272.065 36.1421C271.757 36.3478 271.602 36.7078 271.602 37.2221C271.397 37.4278 271.037 37.5821 270.522 37.685C270.111 37.7878 269.751 37.8907 269.442 37.9935C269.031 39.9478 268.62 41.1821 268.208 41.6964C267.797 42.1079 267.488 42.6736 267.282 43.3936C267.385 44.4222 267.591 45.0393 267.9 45.245C268.208 45.4507 268.465 45.6565 268.671 45.8622C268.465 46.5822 268.208 46.9936 267.9 47.0965C267.694 47.0965 267.488 47.1993 267.282 47.405C267.282 47.8165 267.334 48.1765 267.437 48.4851C267.642 48.6908 267.797 48.9993 267.9 49.4108C267.9 50.2336 267.694 50.8508 267.282 51.2622C266.871 51.5708 266.717 52.1365 266.819 52.9594C267.642 54.0908 267.951 54.8108 267.745 55.1194C267.539 55.3251 267.385 55.5823 267.282 55.8908C268.105 57.1251 268.414 57.8966 268.208 58.2051C268.002 58.4109 267.797 58.668 267.591 58.9766C267.9 60.2109 267.951 60.9309 267.745 61.1366C267.642 61.2395 267.539 61.3937 267.437 61.5995C267.745 62.9366 267.694 63.7081 267.282 63.9138C266.974 64.0166 266.665 64.1709 266.357 64.3766C266.871 64.7881 267.282 65.1481 267.591 65.4566C268.002 65.7652 268.311 66.1766 268.517 66.6909C268.414 67.2052 268.465 67.6167 268.671 67.9252C268.877 68.2338 268.928 68.6452 268.825 69.1595C268.825 69.4681 268.722 69.7252 268.517 69.931C268.311 70.1367 268.157 70.3938 268.054 70.7024C268.157 71.011 268.26 71.3195 268.362 71.6281C268.568 71.9367 268.62 72.2453 268.517 72.5538C267.9 73.7881 267.642 74.611 267.745 75.0224C267.848 75.331 267.797 75.691 267.591 76.1024C267.694 76.411 267.9 76.7196 268.208 77.0282C268.517 77.3367 268.671 77.7996 268.671 78.4168C268.774 79.1368 268.568 79.9596 268.054 80.8854C268.054 81.3996 268.157 81.8111 268.362 82.1196C268.568 82.4282 268.774 82.8397 268.98 83.3539C268.877 83.8682 268.671 84.2282 268.362 84.434C268.054 84.6397 267.745 84.8454 267.437 85.0511C267.437 86.2854 267.437 87.2626 267.437 87.9826C267.437 88.5997 267.231 89.0626 266.819 89.3711C267.025 89.5769 267.282 89.9369 267.591 90.4512C267.9 90.8626 267.848 91.3254 267.437 91.8397C267.745 92.1483 268.105 92.4055 268.517 92.6112C268.928 92.8169 269.237 93.1769 269.442 93.6912C269.442 94.514 269.082 94.9769 268.362 95.0798C268.465 95.7998 268.465 96.2626 268.362 96.4683C268.26 96.5712 268.157 96.7255 268.054 96.9312C268.26 97.4455 268.362 98.1655 268.362 99.0912C268.465 100.017 268.26 100.583 267.745 100.788C267.745 101.714 267.797 102.228 267.9 102.331C268.105 102.434 268.157 102.588 268.054 102.794C267.848 103.308 267.539 103.668 267.128 103.874C266.717 103.977 266.408 104.234 266.202 104.646C265.997 105.057 265.945 105.52 266.048 106.034C266.151 106.446 266.099 106.857 265.894 107.268C266.202 108.297 266.459 108.914 266.665 109.12C266.974 109.326 267.231 109.583 267.437 109.891C267.334 110.406 267.385 111.177 267.591 112.206C267.077 112.926 266.819 113.749 266.819 114.674C266.819 115.497 266.614 116.269 266.202 116.989C266.408 118.017 266.562 118.531 266.665 118.531C266.871 118.531 267.077 118.634 267.282 118.84C267.282 119.56 266.922 120.023 266.202 120.229C265.482 120.434 265.019 120.177 264.814 119.457C264.299 119.56 263.837 119.766 263.425 120.074C263.014 120.28 262.551 120.28 262.037 120.074C260.802 120.486 259.979 120.434 259.568 119.92C259.362 120.023 259.002 120.229 258.488 120.537C258.077 120.846 257.665 120.949 257.254 120.846C256.431 120.434 255.762 120.331 255.248 120.537C254.837 120.64 254.374 120.743 253.859 120.846C253.448 120.949 253.037 121 252.625 121C252.317 120.897 252.008 120.64 251.699 120.229C252.008 119.611 251.956 119.097 251.545 118.686C251.236 118.171 251.236 117.503 251.545 116.68C250.928 115.96 250.619 115.497 250.619 115.291C250.722 114.983 250.722 114.674 250.619 114.366C250.311 114.263 249.951 114.211 249.539 114.211C249.231 114.211 249.025 114.006 248.922 113.594C248.819 112.566 248.459 111.948 247.842 111.743C247.534 111.228 247.328 110.663 247.225 110.046C247.122 109.326 246.968 108.657 246.762 108.04C245.425 107.32 245.065 106.548 245.682 105.726C245.476 105.52 245.322 105.211 245.219 104.8C245.219 104.388 245.116 104.028 244.911 103.72C244.294 102.383 243.779 101.406 243.368 100.788C242.031 100.068 241.156 99.5027 240.745 99.0912C240.539 98.5769 240.539 98.1655 240.745 97.8569C240.951 97.4455 240.951 96.9312 240.745 96.3141C240.025 95.4912 239.614 94.7712 239.511 94.154C239.408 93.5369 239.151 93.0226 238.739 92.6112C237.505 91.274 237.042 89.834 237.351 88.2911C236.528 87.3654 235.962 86.7997 235.653 86.594C235.345 86.3883 235.191 86.0283 235.191 85.514C235.499 84.9997 235.859 84.8968 236.271 85.2054C236.682 85.514 236.991 85.7711 237.196 85.9768C237.608 84.5368 237.505 83.8168 236.888 83.8168C236.271 83.8168 235.859 83.5082 235.653 82.8911C235.345 82.0682 234.985 81.6054 234.573 81.5025C234.162 81.2968 233.853 81.0396 233.648 80.7311C233.339 80.2168 233.185 79.5482 233.185 78.7253C233.185 77.7996 233.288 77.0282 233.493 76.411C232.671 75.3824 232.311 74.6624 232.413 74.251C232.516 73.7367 232.671 73.3253 232.876 73.0167C232.671 72.5024 232.311 72.2453 231.796 72.2453C231.282 72.1424 231.076 71.731 231.179 71.011C230.665 71.011 230.202 71.011 229.791 71.011C229.379 71.011 229.071 70.9081 228.865 70.7024C228.762 71.3195 228.865 71.731 229.173 71.9367C229.482 72.0396 229.688 72.3481 229.791 72.8624C229.482 73.9939 229.431 74.6624 229.636 74.8682C229.842 74.971 229.945 75.2282 229.945 75.6396C229.739 76.051 229.482 76.3596 229.173 76.5653C228.968 76.771 228.762 76.9767 228.556 77.1825C228.453 78.1082 228.556 78.8282 228.865 79.3425C229.276 79.8568 229.379 80.5253 229.173 81.3482C229.276 81.7596 229.431 82.1711 229.636 82.5825C229.842 82.9939 229.996 83.4568 230.099 83.9711C230.202 84.4854 230.202 84.9482 230.099 85.3597C229.996 85.7711 230.048 86.1825 230.253 86.594C229.842 86.9025 229.636 87.5197 229.636 88.4454C229.636 89.2683 229.842 89.834 230.253 90.1426C230.871 90.3483 231.488 90.5026 232.105 90.6054C232.825 90.7083 233.082 91.2226 232.876 92.1483C232.465 92.6626 231.951 93.1255 231.333 93.5369C230.716 93.8455 230.356 94.4626 230.253 95.3883C230.151 96.6226 230.099 97.4969 230.099 98.0112C230.099 98.4227 230.099 98.9884 230.099 99.7084C229.791 100.017 229.482 100.274 229.173 100.48C228.865 100.686 228.608 100.943 228.402 101.251C228.711 102.588 228.968 103.36 229.173 103.566C229.379 103.668 229.533 103.874 229.636 104.183C229.533 105.623 229.379 106.651 229.173 107.268C229.276 109.12 229.482 110.508 229.791 111.434C230.202 112.257 230.716 112.926 231.333 113.44C231.333 113.954 231.231 114.366 231.025 114.674C230.819 114.983 230.613 115.291 230.408 115.6C230.511 116.011 230.716 116.526 231.025 117.143C231.333 117.76 231.179 118.171 230.562 118.377C229.636 118.069 228.865 117.966 228.248 118.069C227.631 118.069 227.219 118.171 227.013 118.377C227.013 119.714 227.065 120.589 227.168 121C227.271 121.309 227.219 121.669 227.013 122.08C226.705 122.286 226.345 122.337 225.933 122.234C225.625 122.131 225.265 122.131 224.853 122.234C224.648 122.954 224.339 123.623 223.928 124.24C223.619 124.857 223.105 125.269 222.385 125.474C222.282 125.989 222.076 126.349 221.768 126.554C221.562 126.76 221.511 127.171 221.613 127.789C221.305 127.994 220.996 128.2 220.688 128.406C220.482 128.611 220.122 128.714 219.608 128.714C219.813 129.537 219.659 130.257 219.145 130.874C218.63 131.594 218.116 131.543 217.602 130.72C217.293 130.926 217.088 131.183 216.985 131.492C216.882 131.8 216.728 132.057 216.522 132.263C216.316 132.983 216.162 133.497 216.059 133.806C215.956 134.217 215.853 134.68 215.75 135.194C215.236 135.503 214.928 135.966 214.825 136.583C214.722 137.2 214.413 137.714 213.899 138.126C213.179 137.714 212.716 137.406 212.51 137.2C212.408 136.994 212.305 136.686 212.202 136.274C212.305 135.966 212.562 135.657 212.973 135.349C213.385 135.04 213.333 134.629 212.819 134.114C213.23 133.086 213.333 132.52 213.128 132.417C213.025 132.314 212.973 132.109 212.973 131.8C213.282 130.566 213.385 129.897 213.282 129.794C213.282 127.84 213.59 126.297 214.208 125.166C214.105 124.343 214.105 123.88 214.208 123.777C214.31 123.674 214.362 123.52 214.362 123.314C214.156 122.8 213.95 122.389 213.745 122.08C213.539 121.771 213.436 121.36 213.436 120.846C213.333 120.126 213.385 119.509 213.59 118.994C213.796 118.48 214.053 117.966 214.362 117.451C214.053 116.217 213.796 115.497 213.59 115.291C213.385 115.086 213.333 114.726 213.436 114.211C213.745 113.389 213.95 112.874 214.053 112.668C214.156 112.36 214.259 112.103 214.362 111.897C214.259 111.28 214.053 110.868 213.745 110.663C213.436 110.354 213.333 109.84 213.436 109.12C213.642 108.297 213.59 107.834 213.282 107.731C212.973 107.628 212.87 107.371 212.973 106.96C213.693 105.931 214.002 105.314 213.899 105.108C213.796 104.8 213.796 104.388 213.899 103.874C212.973 102.537 212.665 101.766 212.973 101.56C213.385 101.251 213.745 100.891 214.053 100.48C213.848 100.171 213.59 99.8112 213.282 99.3998C213.076 98.9884 213.076 98.4227 213.282 97.7026C213.076 97.4969 212.819 97.3426 212.51 97.2398C212.202 97.1369 211.996 96.8798 211.893 96.4683C212.202 95.6455 212.562 94.9769 212.973 94.4626C213.488 93.9483 213.95 93.3312 214.362 92.6112C214.156 92.3026 213.848 92.0969 213.436 91.994C213.128 91.7883 213.025 91.3769 213.128 90.7597C213.23 90.3483 213.385 90.0911 213.59 89.9883C213.796 89.7826 214.002 89.5769 214.208 89.3711C213.796 88.754 213.796 88.2397 214.208 87.8283C214.619 87.314 214.773 86.6968 214.67 85.9768C215.288 85.3597 215.853 84.9997 216.368 84.8968C216.162 84.3825 215.956 83.8682 215.75 83.3539C215.648 82.8397 215.699 82.2225 215.905 81.5025C215.596 80.8854 215.133 80.3711 214.516 79.9596C213.899 79.5482 213.539 78.8796 213.436 77.9539C214.362 76.7196 214.773 75.5367 214.67 74.4053C214.979 73.171 214.825 72.2967 214.208 71.7824C213.693 71.1653 213.745 70.5995 214.362 70.0853C214.156 69.571 213.95 68.9538 213.745 68.2338C213.642 67.5138 213.848 66.8967 214.362 66.3824C214.259 66.0738 214.105 65.8166 213.899 65.6109C213.796 65.4052 213.796 65.0452 213.899 64.5309C213.693 64.3252 213.488 64.1195 213.282 63.9138C213.076 63.7081 212.87 63.5023 212.665 63.2966C212.459 62.4738 212.562 61.9595 212.973 61.7537C213.488 61.4452 213.848 61.0337 214.053 60.5195C214.053 60.0052 214.156 59.5423 214.362 59.1309C214.568 58.6166 214.568 58.0509 214.362 57.4337C214.465 56.1994 214.362 55.5308 214.053 55.428C213.745 55.2223 213.59 54.9137 213.59 54.5023C213.488 53.988 213.59 53.6794 213.899 53.5765C214.31 53.3708 214.722 53.1137 215.133 52.8051C214.928 51.9822 214.722 51.1079 214.516 50.1822C214.413 49.1536 214.722 48.4336 215.442 48.0222C214.825 47.1993 214.362 46.7365 214.053 46.6336C213.848 46.5308 213.642 46.325 213.436 46.0165C213.333 44.885 213.025 44.2164 212.51 44.0107C212.099 43.805 211.79 43.4964 211.585 43.085C211.79 42.4679 211.739 42.005 211.43 41.6964C211.225 41.285 211.07 40.8221 210.968 40.3078C210.453 40.4107 209.888 40.4621 209.27 40.4621C208.653 40.3593 208.345 39.9993 208.345 39.3821C208.653 38.3535 208.55 37.7878 208.036 37.685C207.522 37.5821 207.316 37.1192 207.419 36.2964C206.39 36.0907 205.825 35.6792 205.722 35.0621C205.208 34.8564 204.745 34.7021 204.333 34.5992C203.819 34.4964 203.459 34.2392 203.253 33.8278C203.15 32.9021 202.996 32.3878 202.79 32.2849C202.482 32.1821 202.327 31.9249 202.327 31.5135C202.225 30.9992 202.43 30.742 202.945 30.742C203.459 30.6392 203.973 30.4849 204.487 30.2792C205.208 30.2792 205.619 30.3306 205.722 30.4335C205.825 30.5363 205.979 30.6392 206.185 30.742C207.213 30.742 208.139 30.7935 208.962 30.8963C209.888 30.8963 210.762 30.7935 211.585 30.5878C212.922 30.9992 213.899 31.0506 214.516 30.742C215.236 30.4335 216.059 30.2277 216.985 30.1249C218.116 30.4335 218.939 30.5363 219.453 30.4335C220.07 30.3306 220.482 30.5363 220.688 31.0506C221.511 30.9478 222.231 30.8449 222.848 30.742C223.568 30.6392 224.185 30.4849 224.699 30.2792C225.419 30.2792 226.036 30.2277 226.551 30.1249C227.168 30.022 227.836 29.9192 228.556 29.8163C228.865 30.6392 228.865 31.1535 228.556 31.3592C228.351 31.462 228.196 31.6678 228.093 31.9763C229.842 32.4906 231.076 32.7478 231.796 32.7478C231.693 33.2621 231.385 33.5706 230.871 33.6735C230.459 33.6735 230.253 33.9306 230.253 34.4449C230.356 34.7535 230.562 34.9592 230.871 35.0621C231.179 35.0621 231.488 35.0621 231.796 35.0621C232.105 35.0621 232.362 35.1135 232.568 35.2164C232.773 35.3192 232.876 35.5249 232.876 35.8335C232.568 36.6564 232.516 37.1707 232.722 37.3764C232.928 37.5821 233.133 37.8392 233.339 38.1478C233.442 38.9707 233.545 39.7421 233.648 40.4621C233.853 41.0793 233.751 41.645 233.339 42.1593C233.853 42.5707 234.419 42.8793 235.036 43.085C235.756 43.1879 236.322 43.4964 236.734 44.0107C236.939 44.4222 237.042 44.9365 237.042 45.5536C237.145 46.1707 236.991 46.5822 236.579 46.7879C236.888 47.7136 236.991 48.2279 236.888 48.3308C236.785 48.4336 236.734 48.5879 236.734 48.7936C236.836 49.1022 236.888 49.4622 236.888 49.8736C236.888 50.2851 236.939 50.7479 237.042 51.2622C238.482 52.3937 239.459 53.5765 239.974 54.8108C240.076 55.7366 240.334 56.3023 240.745 56.508C241.156 56.7137 241.465 57.0223 241.671 57.4337C241.465 57.948 241.516 58.3594 241.825 58.668C242.134 58.8737 242.185 59.2337 241.979 59.748C242.391 60.0566 242.802 60.3137 243.214 60.5195C243.625 60.6223 243.882 60.9823 243.985 61.5995C244.088 62.4223 244.294 62.9366 244.602 63.1423C244.911 63.2452 245.116 63.5023 245.219 63.9138C245.734 65.0452 245.939 65.7652 245.836 66.0738C245.836 66.3824 245.785 66.6909 245.682 66.9995C246.711 67.6167 247.225 68.1309 247.225 68.5424C247.225 68.851 247.122 69.211 246.916 69.6224C246.711 70.0338 246.505 70.4453 246.299 70.8567C246.094 71.2681 245.991 71.6796 245.991 72.091C246.916 72.091 247.482 72.2967 247.688 72.7081C247.585 73.3253 247.482 73.9939 247.379 74.7139C247.379 75.331 247.636 75.8967 248.151 76.411C249.282 76.7196 249.796 77.131 249.694 77.6453C250.002 77.851 250.311 78.0053 250.619 78.1082C250.928 78.211 251.134 78.5196 251.236 79.0339C250.928 80.1653 250.876 80.7825 251.082 80.8854C251.288 80.9882 251.442 81.1425 251.545 81.3482C251.751 81.5539 251.854 81.8111 251.854 82.1196C251.854 82.4282 251.905 82.7368 252.008 83.0454C252.522 82.8397 252.728 82.5311 252.625 82.1196C252.522 81.7082 252.419 81.2454 252.317 80.7311C252.831 79.3939 252.831 78.6225 252.317 78.4168C251.905 78.211 251.751 77.6967 251.854 76.8739C252.162 75.7424 252.522 74.971 252.934 74.5596C253.345 74.0453 253.602 73.531 253.705 73.0167C253.705 72.6053 253.602 72.2453 253.397 71.9367C253.294 71.5253 253.242 71.1653 253.242 70.8567C252.934 70.5481 252.574 70.2395 252.162 69.931C251.854 69.6224 251.596 69.2624 251.391 68.851C251.391 67.4109 251.391 66.5881 251.391 66.3824C251.494 64.7366 251.699 63.6052 252.008 62.988C252.317 62.268 252.728 61.7023 253.242 61.2909C252.831 60.0566 252.728 59.4394 252.934 59.4394C253.242 59.3366 253.448 59.1823 253.551 58.9766C253.345 58.5651 253.088 58.3594 252.779 58.3594C252.471 58.2566 252.214 58.1023 252.008 57.8966C251.699 57.2794 251.648 56.6108 251.854 55.8908C252.162 55.1708 252.574 54.708 253.088 54.5023C252.265 53.3708 251.648 52.5994 251.236 52.1879C250.825 51.7765 250.671 51.1594 250.774 50.3365C250.876 49.8222 251.134 49.4622 251.545 49.2565C252.059 48.9479 252.574 48.6908 253.088 48.4851C252.882 47.9708 252.368 47.6108 251.545 47.405C250.825 47.0965 250.619 46.4793 250.928 45.5536C251.442 44.525 251.596 43.9593 251.391 43.8564C251.288 43.6507 251.288 43.3422 251.391 42.9307C251.391 42.5193 251.442 42.2107 251.545 42.005C251.751 41.7993 251.956 41.5936 252.162 41.3878C252.265 40.8736 252.265 40.4621 252.162 40.1536C252.059 39.7421 251.905 39.3307 251.699 38.9193C251.699 37.685 251.545 36.9135 251.236 36.6049C251.031 36.1935 251.082 35.7307 251.391 35.2164C250.671 34.3935 250.362 33.8278 250.465 33.5192C250.568 33.1078 250.619 32.6963 250.619 32.2849C251.648 30.9478 252.574 30.1249 253.397 29.8163C254.322 29.4049 255.145 29.4563 255.865 29.9706C256.277 29.8677 256.585 29.7649 256.791 29.662C257.099 29.5592 257.459 29.4563 257.871 29.3535C258.899 30.1763 259.671 30.4849 260.185 30.2792C260.802 29.9706 261.265 29.7135 261.574 29.5077C262.705 29.4049 263.477 29.302 263.888 29.1992C264.402 28.9935 264.968 28.942 265.585 29.0449C266.614 29.4563 267.334 29.7135 267.745 29.8163C268.157 29.8163 268.62 29.7135 269.134 29.5077C269.648 29.7135 270.214 29.7649 270.831 29.662C271.448 29.5592 271.962 29.4049 272.374 29.1992C273.3 29.6106 274.174 29.7135 274.997 29.5077C275.82 29.1992 276.591 28.942 277.311 28.7363C278.237 29.0449 278.802 29.1477 279.008 29.0449C279.214 28.8392 279.522 28.7363 279.934 28.7363ZM342.112 47.5593C341.906 48.1765 341.906 48.8965 342.112 49.7194C342.317 50.4394 342.266 51.1079 341.957 51.7251C341.134 51.7251 340.672 51.6222 340.569 51.4165C340.569 51.2108 340.517 51.0051 340.414 50.7994C339.592 50.0794 339.077 49.5136 338.872 49.1022C338.152 48.8965 337.637 48.5365 337.329 48.0222C337.123 47.5079 336.609 47.1993 335.786 47.0965C334.757 47.5079 334.037 47.5079 333.626 47.0965C333.626 46.5822 333.523 46.1707 333.317 45.8622C333.112 45.4507 332.597 45.3993 331.774 45.7079C330.849 44.5764 330.232 44.0107 329.923 44.0107C329.717 43.9079 329.512 43.7536 329.306 43.5479C328.071 43.3422 327.403 43.1364 327.3 42.9307C327.3 42.6221 327.197 42.365 326.991 42.1593C326.477 42.2621 326.117 42.4164 325.911 42.6221C325.706 42.8279 325.449 43.0336 325.14 43.2393C324.626 43.2393 324.009 43.3422 323.289 43.5479C322.569 43.7536 322.157 43.445 322.054 42.6221C321.54 42.725 320.82 42.9307 319.894 43.2393C319.071 43.5479 318.454 43.7022 318.043 43.7022C316.603 43.3936 315.677 43.445 315.266 43.8564C314.854 44.165 314.289 44.3193 313.569 44.3193C313.671 45.1422 313.723 45.9136 313.723 46.6336C313.723 47.3536 313.466 47.8679 312.951 48.1765C313.157 48.7936 313.311 49.4622 313.414 50.1822C313.62 50.7994 313.826 51.4165 314.031 52.0337C313.62 54.0908 313.414 55.5823 313.414 56.508C313.517 57.4337 313.569 58.5137 313.569 59.748C313.774 60.7766 313.826 61.3937 313.723 61.5995C313.62 61.7023 313.466 61.8566 313.26 62.0623C313.26 62.4738 313.157 62.8338 312.951 63.1423C312.848 63.348 312.9 63.6566 313.106 64.0681C312.9 64.3766 312.746 64.7881 312.643 65.3024C312.643 65.8166 312.591 66.3309 312.488 66.8452C312.591 67.3595 312.746 67.8224 312.951 68.2338C313.26 68.6452 313.466 69.1595 313.569 69.7767C313.569 70.4967 313.414 71.2167 313.106 71.9367C312.9 72.5538 312.694 73.1196 312.488 73.6339C312.694 74.251 312.9 74.971 313.106 75.7939C313.311 76.5139 313.517 77.1825 313.723 77.7996C313.723 79.2396 313.671 80.2682 313.569 80.8854C313.466 81.5025 313.466 82.1196 313.569 82.7368C314.494 83.3539 314.854 83.8682 314.649 84.2797C314.443 84.5882 314.443 84.9482 314.649 85.3597C314.134 85.874 313.877 86.5425 313.877 87.3654C313.877 88.1883 313.774 89.0111 313.569 89.834C313.774 90.2454 313.826 90.7083 313.723 91.2226C313.723 91.7369 313.826 92.1483 314.031 92.4569C313.826 93.2797 313.877 94.154 314.186 95.0798C314.494 95.9026 314.443 96.6741 314.031 97.3941C314.134 97.5998 314.289 97.8569 314.494 98.1655C314.7 98.3712 314.854 98.6284 314.957 98.9369C314.957 99.3484 314.906 99.6569 314.803 99.8627C314.803 100.068 314.751 100.326 314.649 100.634C314.854 101.56 314.957 102.126 314.957 102.331C315.06 102.537 315.06 102.691 314.957 102.794C315.369 103.617 315.574 104.851 315.574 106.497C315.369 106.806 315.266 107.166 315.266 107.577C315.369 107.988 315.317 108.4 315.111 108.811C315.009 109.12 314.854 109.428 314.649 109.737C314.443 109.943 314.34 110.2 314.34 110.508C314.237 111.331 314.34 112 314.649 112.514C314.957 112.926 315.111 113.491 315.111 114.211C314.906 114.417 314.751 114.674 314.649 114.983C314.546 115.189 314.391 115.446 314.186 115.754C314.289 115.96 314.391 116.217 314.494 116.526C314.7 116.834 314.906 117.143 315.111 117.451C315.729 118.686 315.934 119.406 315.729 119.611C315.523 120.537 315.163 121 314.649 121C314.237 121.206 313.877 121.463 313.569 121.771C313.363 122.08 313.003 122.234 312.488 122.234C311.254 123.057 310.483 123.314 310.174 123.006C309.968 122.697 309.608 122.44 309.094 122.234C308.58 122.234 308.323 122.44 308.323 122.851C308.323 123.263 308.117 123.571 307.706 123.777C307.5 124.497 307.346 125.114 307.243 125.629C307.14 126.246 306.831 126.76 306.317 127.171C305.083 127.48 304.62 127.943 304.928 128.56C305.34 129.28 305.34 129.897 304.928 130.412C304.106 130.412 303.643 130.514 303.54 130.72C303.54 130.926 303.437 131.029 303.231 131.029C303.128 131.852 302.974 132.366 302.768 132.572C302.563 132.777 302.254 132.88 301.843 132.88C301.637 133.394 301.38 133.857 301.071 134.269C300.763 134.68 300.608 135.143 300.608 135.657C299.991 136.48 299.528 137.354 299.22 138.28C298.911 138.486 298.654 138.743 298.448 139.052C298.346 139.463 298.14 139.823 297.831 140.132C297.111 139.412 296.905 138.692 297.214 137.972C297.523 137.354 297.574 136.789 297.368 136.274C297.471 135.349 297.523 134.629 297.523 134.114C297.523 133.703 297.471 133.24 297.368 132.726C297.574 132.314 297.883 131.8 298.294 131.183C298.294 130.772 298.294 130.36 298.294 129.949C298.397 129.64 298.397 129.332 298.294 129.023C298.397 128.509 298.603 127.994 298.911 127.48C299.323 127.069 299.477 126.606 299.374 126.091C299.374 125.68 299.271 125.371 299.066 125.166C298.86 125.063 298.706 124.857 298.603 124.549C298.603 123.623 298.551 123.006 298.448 122.697C298.86 122.183 299.066 121.566 299.066 120.846C299.066 120.126 299.168 119.406 299.374 118.686C298.963 117.863 298.911 116.989 299.22 116.063C299.631 115.137 299.734 114.263 299.528 113.44C299.528 112.411 299.323 111.794 298.911 111.588C298.5 111.28 298.191 110.817 297.986 110.2C298.5 109.171 298.603 108.04 298.294 106.806C298.5 106.394 298.654 105.931 298.757 105.417C298.963 104.903 298.963 104.337 298.757 103.72C299.066 102.28 299.117 101.251 298.911 100.634C299.117 99.9141 299.323 99.2969 299.528 98.7827C299.837 98.1655 299.991 97.4455 299.991 96.6226C299.683 95.7998 299.58 95.2855 299.683 95.0798C299.786 94.874 299.837 94.6683 299.837 94.4626C300.351 92.1997 300.3 90.4512 299.683 89.2169C299.168 87.8797 298.757 86.6454 298.448 85.514C298.551 83.9711 298.654 82.6339 298.757 81.5025C298.963 80.2682 299.271 79.0853 299.683 77.9539C299.786 77.2339 299.837 76.5139 299.837 75.7939C299.837 75.0739 299.888 74.4567 299.991 73.9424C299.786 73.531 299.631 73.2224 299.528 73.0167C299.426 72.7081 299.271 72.3481 299.066 71.9367C299.066 71.1138 299.117 70.3938 299.22 69.7767C299.323 69.0567 299.374 68.3367 299.374 67.6167C299.271 67.3081 299.168 67.0509 299.066 66.8452C299.066 66.5366 299.066 66.2281 299.066 65.9195C299.066 65.5081 299.117 65.0966 299.22 64.6852C299.323 64.2738 299.426 63.8623 299.528 63.4509C299.734 62.9366 299.94 62.1652 300.146 61.1366C300.043 59.4909 300.043 57.9994 300.146 56.6623C300.248 55.3251 300.197 53.8851 299.991 52.3422C299.786 51.5194 299.631 50.6965 299.528 49.8736C299.528 49.0508 299.426 48.3308 299.22 47.7136C299.323 47.3022 299.374 46.9422 299.374 46.6336C299.374 46.2222 299.426 45.8107 299.528 45.3993C299.117 44.7822 298.86 44.4222 298.757 44.3193C298.654 44.2164 298.551 44.0622 298.448 43.8564C297.934 43.9593 297.163 44.0622 296.134 44.165C295.208 44.2679 294.437 44.2164 293.82 44.0107C293.305 44.2164 292.585 44.3707 291.66 44.4736C290.837 44.4736 290.22 44.2164 289.808 43.7022C289.294 43.805 288.728 43.805 288.111 43.7022C287.597 43.4964 287.134 43.3936 286.723 43.3936C286.105 43.4964 285.231 43.9079 284.1 44.6279C283.071 45.3479 282.248 45.6565 281.631 45.5536C281.117 45.4507 280.808 45.2965 280.705 45.0907C280.602 44.7822 280.448 44.525 280.242 44.3193C279.831 44.4222 279.522 44.6279 279.317 44.9365C279.214 45.1422 279.008 45.3479 278.7 45.5536C278.185 45.4507 277.825 45.5022 277.62 45.7079C277.414 45.9136 277.208 46.1193 277.002 46.325C275.871 46.6336 275.357 46.9422 275.46 47.2508C275.46 47.4565 275.357 47.6622 275.151 47.8679C274.637 48.2793 274.225 48.6393 273.917 48.9479C273.608 49.2565 273.351 49.7708 273.145 50.4908C272.528 51.4165 272.22 52.0337 272.22 52.3422C272.22 52.6508 272.117 52.908 271.911 53.1137C271.191 53.1137 270.677 52.8565 270.368 52.3422C270.368 52.0337 270.471 51.6737 270.677 51.2622C270.78 50.8508 270.831 50.4394 270.831 50.0279C270.831 48.5879 270.985 47.6622 271.294 47.2508C271.5 46.8393 271.705 46.3765 271.911 45.8622C272.117 45.0393 272.271 44.4736 272.374 44.165C272.477 43.7536 272.631 43.445 272.837 43.2393C272.631 42.4164 272.734 41.7993 273.145 41.3878C273.454 40.8736 273.711 40.3593 273.917 39.845C274.122 38.5078 274.534 37.5821 275.151 37.0678C275.768 36.4507 276.334 35.8849 276.848 35.3707C276.54 34.3421 276.488 33.7249 276.694 33.5192C276.797 33.2106 276.797 32.8506 276.694 32.4392C276.9 32.1306 277.105 31.822 277.311 31.5135C277.414 31.2049 277.568 30.8963 277.774 30.5878C278.7 30.2792 279.162 30.022 279.162 29.8163C279.162 29.6106 279.265 29.4563 279.471 29.3535C280.294 29.4563 280.808 29.7649 281.014 30.2792C281.322 30.6906 281.683 31.102 282.094 31.5135C283.02 31.3078 284.254 30.8963 285.797 30.2792C287.34 29.662 288.728 29.4049 289.963 29.5077C290.374 29.7135 290.425 30.022 290.117 30.4335C289.911 30.8449 290.014 31.1535 290.425 31.3592C291.145 31.1535 291.763 30.8449 292.277 30.4335C292.894 30.022 293.614 30.0735 294.437 30.5878C295.157 30.4849 295.825 30.2792 296.443 29.9706C297.06 29.662 297.728 29.5077 298.448 29.5077C298.757 30.5363 299.271 31.2049 299.991 31.5135C300.814 30.8963 301.328 30.6392 301.534 30.742C301.74 30.8449 301.946 30.9478 302.151 31.0506C302.563 30.6392 303.026 30.5363 303.54 30.742C304.157 30.8449 304.671 30.9992 305.083 31.2049C306.111 30.9992 306.831 30.7935 307.243 30.5878C308.58 29.9706 309.351 29.8163 309.557 30.1249C309.866 30.3306 310.277 30.5363 310.791 30.742C311.306 30.5363 311.768 30.3306 312.18 30.1249C312.591 29.9192 313.157 29.8677 313.877 29.9706C314.289 30.1763 314.597 30.3306 314.803 30.4335C315.111 30.5363 315.42 30.6906 315.729 30.8963C316.14 30.6906 316.5 30.4335 316.809 30.1249C317.117 29.8163 317.529 29.5592 318.043 29.3535C319.277 29.3535 319.946 29.4049 320.049 29.5077C320.151 29.5077 320.511 29.5592 321.129 29.662C321.437 29.7649 321.849 29.8677 322.363 29.9706C322.877 30.0735 323.237 30.1249 323.443 30.1249C324.06 30.1249 324.574 29.9192 324.986 29.5077C325.397 29.0963 325.757 29.2506 326.066 29.9706C326.477 29.7649 326.94 29.7135 327.454 29.8163C328.071 29.8163 328.534 29.9192 328.843 30.1249C329.46 30.5363 329.974 30.6392 330.386 30.4335C330.9 30.2277 331.26 29.8677 331.466 29.3535C332.494 29.2506 333.163 29.6106 333.472 30.4335C334.706 30.8449 335.117 31.3592 334.706 31.9763C334.294 32.5935 334.294 33.2106 334.706 33.8278C335.22 34.2392 335.837 34.4964 336.557 34.5992C337.277 34.5992 337.689 34.9078 337.792 35.5249C337.38 36.8621 337.174 37.8907 337.174 38.6107C337.38 39.125 337.74 39.4335 338.254 39.5364C338.872 39.6393 339.334 39.8964 339.643 40.3078C339.643 40.925 339.489 41.4393 339.18 41.8507C338.872 42.2621 338.923 42.725 339.334 43.2393C339.643 43.445 340.003 43.7022 340.414 44.0107C340.826 44.2164 341.134 44.525 341.34 44.9365C341.546 46.3765 341.803 47.2508 342.112 47.5593ZM393.798 86.594C394.004 87.4168 394.209 88.0854 394.415 88.5997C394.415 90.0397 394.261 91.4797 393.952 92.9197C393.644 94.2569 393.695 95.4912 394.106 96.6226C393.695 97.4455 393.181 98.1655 392.564 98.7827C392.049 99.3998 391.483 100.017 390.866 100.634C390.866 101.046 390.866 101.457 390.866 101.868C390.969 102.28 390.969 102.64 390.866 102.948C390.763 103.463 390.558 103.823 390.249 104.028C390.043 104.234 389.838 104.543 389.632 104.954L388.089 106.806C387.575 108.04 387.163 108.76 386.855 108.966C386.649 109.171 386.289 109.274 385.775 109.274C385.261 110.097 385.003 111.228 385.003 112.668C384.078 113.389 383.461 113.851 383.152 114.057C382.843 114.263 382.432 114.469 381.918 114.674C381.609 114.88 381.352 115.137 381.146 115.446C380.941 115.754 380.581 115.96 380.066 116.063C379.758 116.474 379.449 116.886 379.141 117.297C378.832 117.709 378.523 118.171 378.215 118.686C377.289 118.789 376.775 118.789 376.672 118.686C376.569 118.583 376.363 118.48 376.055 118.377C375.026 118.994 374.255 119.56 373.74 120.074C373.535 120.177 373.278 120.28 372.969 120.383C372.66 120.383 372.352 120.486 372.043 120.691C371.632 120.589 371.323 120.589 371.118 120.691C370.912 120.691 370.655 120.691 370.346 120.691C368.906 120.794 367.929 120.794 367.415 120.691C366.9 120.486 366.386 120.28 365.872 120.074C365.46 120.28 365.152 120.537 364.946 120.846C364.74 121.051 364.329 121.257 363.712 121.463C363.3 121.36 362.94 121.257 362.632 121.154C362.323 121.051 361.963 120.949 361.552 120.846C360.318 120.126 359.392 119.869 358.775 120.074C358.26 120.177 357.643 120.126 356.923 119.92C356.717 119.406 356.46 119.046 356.152 118.84C355.843 118.531 355.535 118.223 355.226 117.914C354.917 117.914 354.609 117.966 354.3 118.069C354.095 118.069 353.837 118.069 353.529 118.069C353.015 117.554 352.295 117.349 351.369 117.451C350.546 117.554 349.929 117.349 349.517 116.834C348.797 115.909 348.18 115.497 347.666 115.6C347.255 115.703 346.74 115.703 346.123 115.6C345.3 115.189 344.735 114.623 344.426 113.903C344.117 113.08 343.552 112.463 342.729 112.051C342.42 111.023 342.317 110.457 342.42 110.354C342.523 110.148 342.574 109.891 342.574 109.583C342.369 109.48 342.06 109.48 341.649 109.583C341.34 109.583 341.032 109.531 340.723 109.428C340.312 109.017 339.849 108.657 339.334 108.348C338.923 107.937 338.563 107.474 338.254 106.96C338.254 106.548 338.357 106.24 338.563 106.034C338.769 105.726 338.923 105.417 339.026 105.108C338.1 104.594 337.637 104.234 337.637 104.028C337.74 103.823 337.792 103.617 337.792 103.411C337.174 101.971 336.763 100.84 336.557 100.017C335.837 99.9141 335.477 99.7598 335.477 99.5541C335.477 99.3484 335.374 99.1427 335.169 98.9369C335.58 98.7312 335.94 98.6284 336.249 98.6284C336.557 98.6284 336.917 98.5255 337.329 98.3198C337.226 97.1884 337.226 96.5198 337.329 96.3141C337.637 95.6969 338.1 95.3369 338.717 95.2341C339.334 95.1312 339.849 94.8226 340.26 94.3083C340.363 92.8683 340.723 92.1997 341.34 92.3026C341.957 92.3026 342.523 92.0969 343.037 91.6854C343.346 90.554 343.654 89.9883 343.963 89.9883C344.272 89.8854 344.58 89.7311 344.889 89.5254C345.815 88.0854 346.637 87.0568 347.357 86.4397C348.18 85.7197 348.952 84.8454 349.672 83.8168C350.186 83.6111 350.906 83.3539 351.832 83.0454C352.757 82.6339 353.477 82.4797 353.992 82.5825C354.403 82.7882 354.506 83.0454 354.3 83.3539C354.197 83.6625 354.197 83.9711 354.3 84.2797C353.683 85.4111 353.323 86.0797 353.22 86.2854C353.117 86.4911 352.963 86.6968 352.757 86.9025C352.655 87.2111 352.655 87.5711 352.757 87.9826C352.86 88.2911 352.809 88.6511 352.603 89.0626C353.426 89.3711 353.837 89.7826 353.837 90.2969C353.632 90.7083 353.426 91.0169 353.22 91.2226C353.117 91.3254 352.963 91.634 352.757 92.1483C352.655 92.7655 352.706 93.5883 352.912 94.6169C352.603 95.3369 352.603 95.9541 352.912 96.4683C353.22 96.9826 353.477 97.5998 353.683 98.3198C353.683 98.7312 353.632 99.0912 353.529 99.3998C353.426 99.6055 353.375 99.8627 353.375 100.171C353.58 100.686 353.837 101.097 354.146 101.406C354.557 101.714 354.866 102.126 355.072 102.64C354.969 102.948 354.815 103.257 354.609 103.566C354.506 103.771 354.455 104.131 354.455 104.646C354.969 104.851 355.483 104.748 355.997 104.337C356.512 103.926 357.026 103.874 357.54 104.183C357.746 105.108 358.055 105.314 358.466 104.8C358.877 104.286 359.34 104.286 359.855 104.8C360.06 105.211 360.06 105.52 359.855 105.726C359.649 105.931 359.546 106.188 359.546 106.497C359.649 106.908 359.803 107.166 360.009 107.268C360.318 107.371 360.626 107.526 360.935 107.731C361.449 107.731 361.809 107.628 362.015 107.423C362.22 107.114 362.58 106.96 363.095 106.96C363.609 107.063 364.02 107.217 364.329 107.423C364.74 107.628 365.306 107.68 366.026 107.577C366.952 107.166 367.466 106.908 367.569 106.806C367.775 106.703 367.98 106.6 368.186 106.497C368.7 106.086 369.163 105.726 369.575 105.417C369.986 105.108 370.449 104.748 370.963 104.337C371.683 104.234 372.095 104.286 372.198 104.491C372.3 104.594 372.455 104.646 372.66 104.646C372.866 104.44 373.02 104.183 373.123 103.874C373.329 103.566 373.535 103.308 373.74 103.103C374.358 103 374.975 102.846 375.592 102.64C375.798 102.228 375.9 101.714 375.9 101.097C375.9 100.48 376.003 99.9141 376.209 99.3998C377.135 97.9598 377.649 97.0855 377.752 96.7769C377.649 95.9541 377.649 95.2855 377.752 94.7712C377.958 94.154 377.958 93.434 377.752 92.6112C378.678 91.6854 379.089 90.914 378.986 90.2969C378.986 89.6797 378.986 89.114 378.986 88.5997C378.883 88.2911 378.626 88.1368 378.215 88.1368C377.803 88.034 377.495 87.8797 377.289 87.674C377.083 87.1597 377.032 86.7483 377.135 86.4397C377.341 86.1311 377.443 85.7197 377.443 85.2054C377.238 84.794 376.981 84.434 376.672 84.1254C376.363 83.8168 376.055 83.5082 375.746 83.1997C375.232 83.1997 374.82 83.1482 374.512 83.0454C374.203 82.8397 373.895 82.6854 373.586 82.5825C373.38 81.9654 373.02 81.5025 372.506 81.1939C372.095 80.7825 371.632 80.3196 371.118 79.8053C370.603 79.9082 370.14 79.9082 369.729 79.8053C369.318 79.5996 368.855 79.5482 368.34 79.6511C367.929 79.2396 367.466 78.8796 366.952 78.571C366.438 78.2625 365.975 77.851 365.563 77.3367C365.049 77.131 364.638 77.0796 364.329 77.1825C364.02 77.2853 363.66 77.3882 363.249 77.491C362.94 77.5939 362.58 77.6453 362.169 77.6453C361.86 77.5425 361.552 77.5425 361.243 77.6453C359.906 76.411 358.672 75.6396 357.54 75.331C356.512 75.0224 355.586 74.611 354.763 74.0967C354.043 72.3481 353.117 71.4738 351.986 71.4738C351.369 71.2681 350.855 70.9595 350.443 70.5481C350.135 70.1367 349.569 69.8795 348.746 69.7767C348.026 69.0567 347.203 68.3881 346.277 67.7709C345.352 66.6395 344.58 65.6624 343.963 64.8395C343.449 63.8109 342.986 63.0909 342.574 62.6795C342.163 62.1652 341.803 61.6509 341.494 61.1366C340.877 60.5195 340.517 59.8509 340.414 59.1309C340.106 57.3823 340.054 56.0451 340.26 55.1194C340.569 54.0908 340.929 53.1651 341.34 52.3422C341.443 51.3137 341.443 50.3365 341.34 49.4108C341.34 48.4851 341.546 47.7136 341.957 47.0965C342.472 44.7307 342.934 42.9307 343.346 41.6964C343.86 40.4621 344.837 39.6393 346.277 39.2278C346.792 38.405 347.255 37.5821 347.666 36.7592C348.18 35.9364 348.849 35.2678 349.672 34.7535C351.009 34.2392 351.935 33.7249 352.449 33.2106C352.963 32.6963 353.477 32.1306 353.992 31.5135C354.815 31.3078 355.483 30.9992 355.997 30.5878C356.512 30.0735 357.077 29.6106 357.695 29.1992C358.209 29.302 358.62 29.4049 358.929 29.5077C359.34 29.6106 359.752 29.7135 360.163 29.8163C360.678 29.5077 361.14 29.1992 361.552 28.8906C362.066 28.4792 362.735 28.1706 363.558 27.9649C364.175 28.6849 364.638 28.9935 364.946 28.8906C365.255 28.7877 365.512 28.8392 365.718 29.0449C366.232 28.8392 366.695 28.6334 367.106 28.4277C367.62 28.222 368.186 28.1192 368.803 28.1192C369.318 28.3249 369.678 28.6334 369.883 29.0449C370.089 29.3535 370.346 29.662 370.655 29.9706C371.478 29.8677 372.095 29.6106 372.506 29.1992C372.918 28.7877 373.535 28.4792 374.358 28.2734C374.769 28.4792 375.078 28.7363 375.283 29.0449C375.592 29.2506 376.003 29.4049 376.518 29.5077C376.929 29.5077 377.238 29.4563 377.443 29.3535C377.752 29.1477 378.112 29.1477 378.523 29.3535C379.655 30.0735 380.323 31.0506 380.529 32.2849H382.535C382.741 32.5935 382.946 32.9535 383.152 33.3649C383.358 33.7764 383.615 34.1364 383.923 34.4449C384.438 34.5478 384.901 34.6506 385.312 34.7535C385.723 34.8564 386.032 35.1649 386.238 35.6792C386.238 36.7078 386.392 37.2221 386.701 37.2221C387.009 37.2221 387.266 37.325 387.472 37.5307C388.192 38.1478 388.706 38.5078 389.015 38.6107C389.323 38.6107 389.581 38.6107 389.786 38.6107C389.992 39.125 390.095 39.6907 390.095 40.3078C390.198 40.8221 390.301 41.3364 390.403 41.8507C391.021 42.365 391.329 42.8793 391.329 43.3936C390.815 43.5993 390.198 44.1136 389.478 44.9365C388.758 45.7593 388.501 46.4279 388.706 46.9422L387.781 49.4108C387.266 50.4394 386.803 51.1594 386.392 51.5708C385.981 51.8794 385.569 52.1365 385.158 52.3422C385.055 53.5765 384.438 54.4508 383.306 54.9651L382.226 56.8166C381.712 57.3309 381.198 57.8966 380.683 58.5137C380.169 59.028 379.861 59.6966 379.758 60.5195C379.449 60.7252 379.141 60.9309 378.832 61.1366C378.523 61.2395 378.112 61.188 377.598 60.9823C377.392 60.6737 377.238 60.3652 377.135 60.0566C377.135 59.6452 377.289 59.1823 377.598 58.668C377.598 57.5366 377.752 56.8166 378.061 56.508C378.472 56.0966 378.678 55.6851 378.678 55.2737C377.649 54.6565 377.083 54.348 376.981 54.348C376.878 54.2451 376.775 54.0908 376.672 53.8851C376.672 53.3708 376.723 53.0108 376.826 52.8051C377.032 52.5994 377.032 52.2394 376.826 51.7251C376.723 50.9022 376.775 50.1822 376.981 49.5651C376.466 49.3593 376.158 49.0508 376.055 48.6393C375.952 48.2279 375.849 47.8165 375.746 47.405C375.232 46.5822 375.078 46.0679 375.283 45.8622C375.592 45.5536 375.695 45.1422 375.592 44.6279C374.049 44.2164 373.02 43.805 372.506 43.3936C371.992 42.9821 371.375 42.5707 370.655 42.1593C370.14 42.1593 369.729 42.2107 369.42 42.3136C369.112 42.4164 368.7 42.4679 368.186 42.4679C367.672 42.2621 367.415 41.6964 367.415 40.7707C366.386 41.5936 365.769 42.1079 365.563 42.3136C365.358 42.5193 365.049 42.6736 364.638 42.7764C363.198 42.2621 362.22 42.1593 361.706 42.4679C361.295 42.7764 360.832 43.0336 360.318 43.2393C359.597 43.9593 359.135 44.7307 358.929 45.5536C358.929 46.4793 358.98 47.1993 359.083 47.7136C358.877 48.0222 358.62 48.3308 358.312 48.6393C358.106 48.8451 357.695 48.8965 357.077 48.7936C356.872 49.4108 356.769 50.1822 356.769 51.1079C356.872 51.9308 357.026 52.5994 357.232 53.1137C357.026 53.8337 356.975 54.2965 357.077 54.5023C357.18 54.6051 357.283 54.7594 357.386 54.9651C357.077 55.6851 357.129 56.4051 357.54 57.1251C357.952 57.8451 358.003 58.5651 357.695 59.2852C358.415 59.6966 359.135 60.0052 359.855 60.2109C360.575 60.4166 360.986 60.9823 361.089 61.908C361.603 62.2166 362.169 62.3709 362.786 62.3709C363.506 62.3709 364.123 62.5252 364.638 62.8338C364.843 63.4509 365.255 63.9138 365.872 64.2223C366.489 64.4281 366.9 64.8395 367.106 65.4566C368.546 65.4566 369.575 65.5595 370.192 65.7652C370.912 65.8681 371.735 65.8681 372.66 65.7652C373.483 65.9709 374.203 66.2795 374.82 66.6909C375.54 67.1024 376.261 67.5138 376.981 67.9252C377.392 67.8224 377.701 67.7195 377.906 67.6167C378.215 67.5138 378.472 67.4624 378.678 67.4624C379.295 67.4624 379.758 67.7195 380.066 68.2338C380.375 68.6452 380.683 69.0052 380.992 69.3138C381.609 69.3138 382.021 69.4681 382.226 69.7767C382.535 70.0853 382.946 70.291 383.461 70.3938C384.181 71.6281 384.952 72.3996 385.775 72.7081C386.701 72.9138 387.523 73.2739 388.243 73.7881C388.758 74.4053 389.169 75.0739 389.478 75.7939C389.786 76.5139 390.043 77.4396 390.249 78.571C390.661 79.0853 391.072 79.5996 391.483 80.1139C391.998 80.5253 392.255 81.0911 392.255 81.8111C392.564 83.1482 392.666 84.0225 392.564 84.434C392.461 84.8454 392.306 85.3082 392.101 85.8225C392.306 86.0283 392.564 86.1825 392.872 86.2854C393.284 86.2854 393.592 86.3883 393.798 86.594Z" fill="white"/>
</svg>
