<svg width="564" height="529" viewBox="0 0 564 529" fill="none" xmlns="http://www.w3.org/2000/svg">
<path d="M281.997 198.831C319.305 198.831 349.549 197.977 349.549 196.924C349.549 195.871 319.305 195.017 281.997 195.017C244.689 195.017 214.445 195.871 214.445 196.924C214.445 197.977 244.689 198.831 281.997 198.831Z" fill="#D8DFEA"/>
<path d="M370.046 19.6292V38.168C370.046 68.2771 345.642 92.6937 315.55 92.6937H307.92L316.389 83.9586C341.25 83.5114 361.326 63.1409 361.326 38.168V23.9916H328.629L329.719 15.2676H365.686C368.095 15.2668 370.046 17.219 370.046 19.6292Z" fill="#E8A615"/>
<path d="M310.098 145.223V154.852H253.422V145.223C253.422 144.438 253.847 143.708 254.533 143.326L258.828 140.905C266.261 136.718 270.861 128.855 270.861 120.316V110.142H292.659V120.316C292.659 128.855 297.259 136.717 304.692 140.905L308.986 143.326C309.673 143.708 310.098 144.438 310.098 145.223Z" fill="#E8A615"/>
<path d="M310.099 145.223V154.852H304.65V145.223C304.65 144.438 304.225 143.708 303.538 143.326L299.244 140.905C291.811 136.718 287.211 128.855 287.211 120.316V110.142H292.661V120.316C292.661 128.855 297.26 136.717 304.693 140.905L308.988 143.326C309.674 143.708 310.099 144.438 310.099 145.223Z" fill="#B7791D"/>
<path d="M299.198 101.636V107.961C299.198 110.97 296.757 113.413 293.748 113.413H269.77C266.762 113.413 264.32 110.97 264.32 107.961V101.636H299.198Z" fill="#E8A615"/>
<path d="M292.66 113.413H270.861V116.619H292.66V113.413Z" fill="#B7791D"/>
<path d="M318.816 152.672V190.84H244.701V152.672C244.701 151.473 245.682 150.491 246.881 150.491H316.636C317.835 150.491 318.816 151.473 318.816 152.672Z" fill="#343B49"/>
<path d="M318.817 152.672V190.84H314.457V152.672C314.457 151.473 313.476 150.491 312.277 150.491H316.637C317.836 150.491 318.817 151.473 318.817 152.672Z" fill="#262D38"/>
<path d="M325.358 189.749V194.111C325.358 195.311 324.377 196.292 323.178 196.292H240.344C239.145 196.292 238.164 195.311 238.164 194.111V189.749C238.164 188.55 239.145 187.568 240.344 187.568H323.178C324.377 187.568 325.358 188.55 325.358 189.749Z" fill="#262D38"/>
<path d="M325.358 189.749V194.111C325.358 195.311 324.377 196.292 323.178 196.292H318.818C320.017 196.292 320.998 195.311 320.998 194.111V189.749C320.998 188.55 320.017 187.568 318.818 187.568H323.178C324.377 187.568 325.358 188.55 325.358 189.749Z" fill="#171C23"/>
<path d="M307.918 161.395V176.662C307.918 177.861 306.937 178.843 305.738 178.843H257.781C256.583 178.843 255.602 177.861 255.602 176.662V161.395C255.602 160.195 256.583 159.214 257.781 159.214H305.738C306.937 159.214 307.918 160.195 307.918 161.395Z" fill="#E8A615"/>
<path d="M299.2 101.636V107.961C299.2 110.97 296.759 113.413 293.75 113.413H289.391C292.399 113.413 294.84 110.97 294.84 107.961V101.636H299.2Z" fill="#B7791D"/>
<path d="M258.872 92.6937H247.973C217.88 92.6937 193.477 68.2771 193.477 38.168V19.6296C193.477 17.2194 195.428 15.2676 197.836 15.2676H233.804V23.9916H202.196V38.168C202.196 63.1409 222.272 83.5114 247.134 83.9586L258.872 92.6937Z" fill="#E8A615"/>
<path d="M335.166 6.54297V10.905C335.166 63.9037 311.253 106.87 281.76 106.87C252.267 106.87 228.354 63.9041 228.354 10.905V6.54297H335.166Z" fill="#E8A615"/>
<path d="M228.845 23.9916H224.485C224.267 21.1235 224.125 18.212 224.049 15.2676H228.409C228.485 18.2117 228.627 21.1235 228.845 23.9916Z" fill="#B7791D"/>
<path d="M253.813 92.693H249.453C247.022 90.0103 244.712 86.9787 242.564 83.6416C244.069 83.827 245.583 83.9253 247.131 83.9579C249.224 87.1749 251.458 90.0975 253.813 92.693Z" fill="#B7791D"/>
<path d="M299.2 101.636V103.817C293.728 107.208 287.865 109.051 281.761 109.051C275.658 109.051 269.794 107.208 264.322 103.817V101.636C269.794 105.027 275.658 106.87 281.761 106.87C287.865 106.87 293.728 105.027 299.2 101.636Z" fill="#B7791D"/>
<path d="M335.167 6.54297V10.905C335.167 62.2463 312.726 104.177 284.508 106.75C311.93 104.144 322.088 62.2248 322.088 10.905V6.54297H335.167Z" fill="#B7791D"/>
<path d="M340.616 5.45249C340.616 6.95754 340.006 8.32057 339.025 9.3128C338.033 10.2943 336.671 10.905 335.167 10.905H228.354C225.346 10.905 222.904 8.46221 222.904 5.45249C222.904 3.94744 223.515 2.58442 224.496 1.59218C225.488 0.610694 226.85 0 228.354 0H335.167C338.175 0 340.616 2.44278 340.616 5.45249Z" fill="#E8A615"/>
<path d="M335.166 10.9053C335.166 12.3666 335.144 13.8171 335.112 15.2673H228.408C228.375 13.8167 228.354 12.3666 228.354 10.9053H335.166Z" fill="#B7791D"/>
<path d="M340.617 5.45249C340.617 6.95754 340.007 8.32057 339.025 9.3128C338.034 10.2943 336.671 10.905 335.167 10.905H323.178C324.682 10.905 326.044 10.2943 327.036 9.3128C328.017 8.32057 328.628 6.95716 328.628 5.45249C328.628 2.44278 326.186 0 323.178 0H335.167C338.176 0 340.617 2.44278 340.617 5.45249Z" fill="#B7791D"/>
<path d="M307.917 161.395V176.662C307.917 177.862 306.935 178.843 305.737 178.843H262.467C271.273 178.669 300.287 176.793 300.287 159.214H305.737C306.936 159.214 307.917 160.196 307.917 161.395Z" fill="#B7791D"/>
<path d="M257.783 171.21V162.288C257.783 161.795 258.182 161.396 258.675 161.396H278.219C278.219 161.396 262.688 163.031 257.783 171.21Z" fill="#FFCC66"/>
<path d="M247.154 162.486V153.564C247.154 153.071 247.553 152.672 248.046 152.672H267.59C267.59 152.672 252.059 154.307 247.154 162.486Z" fill="#4E5868"/>
<path d="M281.759 103.598C269.922 103.598 237.093 78.6149 233.115 19.6289H246.063C249.322 91.7991 281.759 103.598 281.759 103.598Z" fill="#FFCC66"/>
<path d="M258.871 146.129C258.871 146.129 274.13 136.315 274.13 122.138V146.129H258.871Z" fill="#FFCC66"/>
<path d="M230.534 2.18066V5.45216H225.084C225.084 3.6527 226.545 2.18066 228.354 2.18066H230.534Z" fill="#FFCC66"/>
<path d="M338.384 15.2666C338.307 18.2111 338.165 21.1225 337.937 23.9906H328.629L329.719 15.2666H338.384Z" fill="#B7791D"/>
<path d="M319.789 83.7725C317.653 87.0547 315.375 90.0429 312.977 92.693H307.92L311.778 88.7237L316.389 83.9582C317.533 83.936 318.667 83.8707 319.789 83.7725Z" fill="#B7791D"/>
<path d="M211.965 246.962V227.444H220.028C221.489 227.444 222.751 227.707 223.812 228.235C224.879 228.756 225.702 229.505 226.28 230.484C226.858 231.456 227.147 232.609 227.147 233.943C227.147 235.297 226.852 236.447 226.261 237.393C225.67 238.334 224.831 239.052 223.745 239.547C222.658 240.037 221.372 240.281 219.885 240.281H214.786V236.564H219.008C219.72 236.564 220.314 236.472 220.79 236.288C221.273 236.097 221.639 235.811 221.886 235.43C222.134 235.043 222.258 234.547 222.258 233.943C222.258 233.34 222.134 232.841 221.886 232.447C221.639 232.047 221.273 231.748 220.79 231.551C220.308 231.348 219.714 231.246 219.008 231.246H216.683V246.962H211.965ZM222.954 238.042L227.814 246.962H222.668L217.903 238.042H222.954ZM242.515 236.793L238.236 236.907C238.191 236.602 238.071 236.332 237.874 236.097C237.677 235.856 237.419 235.668 237.102 235.535C236.79 235.395 236.428 235.325 236.015 235.325C235.475 235.325 235.014 235.433 234.633 235.649C234.258 235.865 234.074 236.158 234.081 236.526C234.074 236.812 234.189 237.06 234.424 237.27C234.665 237.479 235.094 237.648 235.71 237.775L238.531 238.308C239.993 238.588 241.079 239.052 241.791 239.7C242.509 240.348 242.871 241.206 242.877 242.273C242.871 243.277 242.572 244.15 241.981 244.894C241.397 245.637 240.596 246.215 239.58 246.628C238.563 247.035 237.4 247.238 236.091 247.238C234.001 247.238 232.352 246.809 231.145 245.952C229.944 245.088 229.258 243.931 229.087 242.483L233.69 242.368C233.791 242.902 234.055 243.309 234.481 243.588C234.906 243.868 235.45 244.008 236.11 244.008C236.708 244.008 237.194 243.896 237.569 243.674C237.943 243.452 238.134 243.156 238.14 242.788C238.134 242.457 237.988 242.194 237.702 241.997C237.416 241.793 236.968 241.634 236.358 241.52L233.804 241.034C232.336 240.767 231.244 240.275 230.526 239.557C229.808 238.833 229.452 237.911 229.458 236.793C229.452 235.815 229.712 234.979 230.24 234.287C230.767 233.588 231.517 233.054 232.489 232.685C233.461 232.317 234.608 232.133 235.929 232.133C237.912 232.133 239.475 232.549 240.618 233.381C241.762 234.207 242.394 235.344 242.515 236.793ZM247.792 247.238C247.106 247.238 246.518 246.997 246.029 246.514C245.546 246.031 245.308 245.447 245.314 244.76C245.308 244.087 245.546 243.512 246.029 243.035C246.518 242.553 247.106 242.311 247.792 242.311C248.44 242.311 249.012 242.553 249.508 243.035C250.01 243.512 250.264 244.087 250.27 244.76C250.264 245.218 250.143 245.634 249.908 246.009C249.679 246.384 249.378 246.682 249.003 246.905C248.634 247.127 248.231 247.238 247.792 247.238ZM266.87 227.444V246.962H262.162V231.847H262.047L257.682 234.515V230.436L262.495 227.444H266.87ZM279.257 247.438C277.554 247.438 276.086 247.035 274.854 246.228C273.621 245.415 272.671 244.249 272.004 242.73C271.337 241.206 271.007 239.373 271.013 237.231C271.019 235.09 271.353 233.273 272.014 231.78C272.681 230.281 273.628 229.14 274.854 228.359C276.086 227.571 277.554 227.177 279.257 227.177C280.96 227.177 282.427 227.571 283.66 228.359C284.899 229.14 285.852 230.281 286.519 231.78C287.186 233.279 287.516 235.097 287.51 237.231C287.51 239.379 287.177 241.215 286.509 242.74C285.842 244.265 284.892 245.431 283.66 246.238C282.434 247.038 280.966 247.438 279.257 247.438ZM279.257 243.579C280.273 243.579 281.096 243.061 281.725 242.025C282.354 240.983 282.665 239.385 282.659 237.231C282.659 235.821 282.516 234.658 282.23 233.743C281.944 232.822 281.547 232.136 281.039 231.685C280.531 231.234 279.937 231.008 279.257 231.008C278.247 231.008 277.43 231.52 276.807 232.542C276.185 233.559 275.87 235.122 275.864 237.231C275.858 238.661 275.994 239.846 276.274 240.786C276.56 241.727 276.96 242.429 277.475 242.892C277.989 243.35 278.583 243.579 279.257 243.579ZM294.167 244.293L294.081 245.351C294.005 246.228 293.849 247.083 293.614 247.915C293.386 248.754 293.141 249.507 292.88 250.174C292.62 250.841 292.413 251.359 292.261 251.727H289.326C289.427 251.359 289.564 250.841 289.735 250.174C289.913 249.507 290.079 248.754 290.231 247.915C290.383 247.076 290.469 246.225 290.488 245.361L290.507 244.293H294.167ZM304.941 247.438C303.238 247.438 301.771 247.035 300.538 246.228C299.305 245.415 298.356 244.249 297.689 242.73C297.021 241.206 296.691 239.373 296.697 237.231C296.704 235.09 297.037 233.273 297.698 231.78C298.365 230.281 299.312 229.14 300.538 228.359C301.771 227.571 303.238 227.177 304.941 227.177C306.644 227.177 308.112 227.571 309.344 228.359C310.583 229.14 311.536 230.281 312.203 231.78C312.87 233.279 313.201 235.097 313.194 237.231C313.194 239.379 312.861 241.215 312.194 242.74C311.527 244.265 310.577 245.431 309.344 246.238C308.118 247.038 306.65 247.438 304.941 247.438ZM304.941 243.579C305.958 243.579 306.78 243.061 307.409 242.025C308.038 240.983 308.35 239.385 308.343 237.231C308.343 235.821 308.2 234.658 307.915 233.743C307.629 232.822 307.232 232.136 306.723 231.685C306.215 231.234 305.621 231.008 304.941 231.008C303.931 231.008 303.114 231.52 302.492 232.542C301.869 233.559 301.555 235.122 301.548 237.231C301.542 238.661 301.679 239.846 301.958 240.786C302.244 241.727 302.644 242.429 303.159 242.892C303.674 243.35 304.268 243.579 304.941 243.579ZM323.968 247.438C322.266 247.438 320.798 247.035 319.565 246.228C318.333 245.415 317.383 244.249 316.716 242.73C316.049 241.206 315.718 239.373 315.725 237.231C315.731 235.09 316.065 233.273 316.725 231.78C317.393 230.281 318.339 229.14 319.565 228.359C320.798 227.571 322.266 227.177 323.968 227.177C325.671 227.177 327.139 227.571 328.371 228.359C329.61 229.14 330.563 230.281 331.231 231.78C331.898 233.279 332.228 235.097 332.222 237.231C332.222 239.379 331.888 241.215 331.221 242.74C330.554 244.265 329.604 245.431 328.371 246.238C327.145 247.038 325.678 247.438 323.968 247.438ZM323.968 243.579C324.985 243.579 325.808 243.061 326.437 242.025C327.066 240.983 327.377 239.385 327.371 237.231C327.371 235.821 327.228 234.658 326.942 233.743C326.656 232.822 326.259 232.136 325.751 231.685C325.242 231.234 324.648 231.008 323.968 231.008C322.958 231.008 322.142 231.52 321.519 232.542C320.897 233.559 320.582 235.122 320.576 237.231C320.569 238.661 320.706 239.846 320.985 240.786C321.271 241.727 321.672 242.429 322.186 242.892C322.701 243.35 323.295 243.579 323.968 243.579ZM342.996 247.438C341.293 247.438 339.825 247.035 338.593 246.228C337.36 245.415 336.41 244.249 335.743 242.73C335.076 241.206 334.746 239.373 334.752 237.231C334.758 235.09 335.092 233.273 335.753 231.78C336.42 230.281 337.367 229.14 338.593 228.359C339.825 227.571 341.293 227.177 342.996 227.177C344.699 227.177 346.166 227.571 347.399 228.359C348.638 229.14 349.591 230.281 350.258 231.78C350.925 233.279 351.255 235.097 351.249 237.231C351.249 239.379 350.916 241.215 350.248 242.74C349.581 244.265 348.631 245.431 347.399 246.238C346.173 247.038 344.705 247.438 342.996 247.438ZM342.996 243.579C344.012 243.579 344.835 243.061 345.464 242.025C346.093 240.983 346.405 239.385 346.398 237.231C346.398 235.821 346.255 234.658 345.969 233.743C345.683 232.822 345.286 232.136 344.778 231.685C344.27 231.234 343.676 231.008 342.996 231.008C341.986 231.008 341.169 231.52 340.547 232.542C339.924 233.559 339.609 235.122 339.603 237.231C339.597 238.661 339.733 239.846 340.013 240.786C340.299 241.727 340.699 242.429 341.214 242.892C341.728 243.35 342.322 243.579 342.996 243.579Z" fill="#FFB800"/>
<path d="M88.5206 469.831C125.828 469.831 156.072 468.977 156.072 467.924C156.072 466.871 125.828 466.017 88.5206 466.017C51.2127 466.017 20.9688 466.871 20.9688 467.924C20.9688 468.977 51.2127 469.831 88.5206 469.831Z" fill="#D8DFEA"/>
<path d="M176.569 290.629V309.168C176.569 339.277 152.166 363.694 122.073 363.694H114.443L122.912 354.959C147.773 354.511 167.85 334.141 167.85 309.168V294.992H135.152L136.242 286.268H172.21C174.618 286.267 176.569 288.219 176.569 290.629Z" fill="#BBB4A4"/>
<path d="M116.623 416.223V425.852H59.9473V416.223C59.9473 415.438 60.3722 414.708 61.0589 414.326L65.3533 411.905C72.7864 407.718 77.386 399.855 77.386 391.316V381.142H99.1845V391.316C99.1845 399.855 103.784 407.717 111.217 411.905L115.512 414.326C116.198 414.708 116.623 415.438 116.623 416.223Z" fill="#BBB4A4"/>
<path d="M116.623 416.223V425.852H111.173V416.223C111.173 415.438 110.748 414.708 110.062 414.326L105.767 411.905C98.334 407.718 93.7344 399.855 93.7344 391.316V381.142H99.1842V391.316C99.1842 399.855 103.784 407.717 111.217 411.905L115.511 414.326C116.198 414.708 116.623 415.438 116.623 416.223Z" fill="#616161"/>
<path d="M105.722 372.636V378.961C105.722 381.97 103.28 384.413 100.272 384.413H76.2936C73.2854 384.413 70.8438 381.97 70.8438 378.961V372.636H105.722Z" fill="#BBB4A4"/>
<path d="M99.1832 384.413H77.3848V387.619H99.1832V384.413Z" fill="#616161"/>
<path d="M125.341 423.672V461.84H51.2266V423.672C51.2266 422.473 52.2077 421.491 53.4064 421.491H123.161C124.361 421.491 125.341 422.473 125.341 423.672Z" fill="#343B49"/>
<path d="M125.34 423.672V461.84H120.981V423.672C120.981 422.473 120 421.491 118.801 421.491H123.16C124.36 421.491 125.34 422.473 125.34 423.672Z" fill="#262D38"/>
<path d="M131.879 460.749V465.111C131.879 466.311 130.898 467.292 129.7 467.292H46.8654C45.6667 467.292 44.6855 466.311 44.6855 465.111V460.749C44.6855 459.55 45.6667 458.568 46.8654 458.568H129.7C130.899 458.568 131.879 459.55 131.879 460.749Z" fill="#262D38"/>
<path d="M131.881 460.749V465.111C131.881 466.311 130.9 467.292 129.701 467.292H125.342C126.541 467.292 127.522 466.311 127.522 465.111V460.749C127.522 459.55 126.541 458.568 125.342 458.568H129.701C130.901 458.568 131.881 459.55 131.881 460.749Z" fill="#171C23"/>
<path d="M114.441 432.395V447.662C114.441 448.861 113.46 449.843 112.261 449.843H64.3048C63.1061 449.843 62.125 448.861 62.125 447.662V432.395C62.125 431.195 63.1061 430.214 64.3048 430.214H112.261C113.461 430.214 114.441 431.195 114.441 432.395Z" fill="#BBB4A4"/>
<path d="M105.724 372.636V378.961C105.724 381.97 103.282 384.413 100.274 384.413H95.9141C98.9222 384.413 101.364 381.97 101.364 378.961V372.636H105.724Z" fill="#616161"/>
<path d="M65.3954 363.694H54.4961C24.4036 363.694 0 339.277 0 309.168V290.63C0 288.219 1.95108 286.268 4.35969 286.268H40.3273V294.992H8.71938V309.168C8.71938 334.141 28.7959 354.511 53.6571 354.959L65.3954 363.694Z" fill="#BBB4A4"/>
<path d="M141.69 277.543V281.905C141.69 334.904 117.777 377.87 88.2834 377.87C58.79 377.87 34.877 334.904 34.877 281.905V277.543H141.69Z" fill="#BBB4A4"/>
<path d="M35.368 294.992H31.0083C30.7903 292.123 30.6487 289.212 30.5723 286.268H34.932C35.0083 289.212 35.15 292.123 35.368 294.992Z" fill="#616161"/>
<path d="M60.338 363.693H55.9783C53.5478 361.01 51.2371 357.979 49.0898 354.642C50.5941 354.827 52.1088 354.925 53.6568 354.958C55.7495 358.175 57.9839 361.097 60.338 363.693Z" fill="#616161"/>
<path d="M105.723 372.636V374.817C100.252 378.208 94.388 380.051 88.2845 380.051C82.181 380.051 76.317 378.208 70.8457 374.817V372.636C76.317 376.027 82.181 377.87 88.2845 377.87C94.388 377.87 100.252 376.027 105.723 372.636Z" fill="#616161"/>
<path d="M141.691 277.543V281.905C141.691 333.246 119.249 375.177 91.0312 377.75C118.454 375.144 128.612 333.225 128.612 281.905V277.543H141.691Z" fill="#616161"/>
<path d="M147.14 276.452C147.14 277.958 146.529 279.321 145.548 280.313C144.557 281.294 143.194 281.905 141.69 281.905H34.8775C31.8694 281.905 29.4277 279.462 29.4277 276.452C29.4277 274.947 30.038 273.584 31.0191 272.592C32.011 271.611 33.3733 271 34.8775 271H141.69C144.699 271 147.14 273.443 147.14 276.452Z" fill="#BBB4A4"/>
<path d="M141.69 281.905C141.69 283.367 141.668 284.817 141.635 286.267H34.9315C34.8988 284.817 34.877 283.367 34.877 281.905H141.69Z" fill="#616161"/>
<path d="M147.14 276.452C147.14 277.958 146.53 279.321 145.549 280.313C144.557 281.294 143.195 281.905 141.691 281.905H129.701C131.205 281.905 132.568 281.294 133.56 280.313C134.541 279.321 135.151 277.957 135.151 276.452C135.151 273.443 132.71 271 129.701 271H141.691C144.699 271 147.14 273.443 147.14 276.452Z" fill="#616161"/>
<path d="M114.442 432.395V447.662C114.442 448.862 113.461 449.843 112.262 449.843H68.9922C77.7987 449.669 106.813 447.793 106.813 430.214H112.262C113.461 430.214 114.442 431.196 114.442 432.395Z" fill="#616161"/>
<path d="M64.3066 442.21V433.288C64.3066 432.795 64.7058 432.396 65.1983 432.396H84.7428C84.7428 432.396 69.2114 434.031 64.3066 442.21Z" fill="#FAFAFA"/>
<path d="M53.6777 433.486V424.564C53.6777 424.071 54.0769 423.672 54.5694 423.672H74.1139C74.1139 423.672 58.5821 425.307 53.6777 433.486Z" fill="#4E5868"/>
<path d="M88.2839 374.598C76.4474 374.598 43.6188 349.615 39.6406 290.629H52.5888C55.8476 362.799 88.2839 374.598 88.2839 374.598Z" fill="#FAFAFA"/>
<path d="M65.3945 417.129C65.3945 417.129 80.6534 407.315 80.6534 393.138V417.129H65.3945Z" fill="#FAFAFA"/>
<path d="M37.0572 273.181V276.452H31.6074C31.6074 274.653 33.0679 273.181 34.8774 273.181H37.0572Z" fill="#FAFAFA"/>
<path d="M144.907 286.267C144.831 289.211 144.689 292.123 144.46 294.991H135.152L136.242 286.267H144.907Z" fill="#616161"/>
<path d="M126.313 354.772C124.176 358.055 121.898 361.043 119.5 363.693H114.443L118.302 359.724L122.912 354.958C124.057 354.936 125.19 354.871 126.313 354.772Z" fill="#616161"/>
<path d="M28.6018 522.436V502.917H36.6644C38.1258 502.917 39.3869 503.181 40.448 503.708C41.5154 504.229 42.3382 504.979 42.9163 505.958C43.4945 506.93 43.7836 508.083 43.7836 509.417C43.7836 510.77 43.4882 511.92 42.8973 512.867C42.3064 513.807 41.4677 514.525 40.3813 515.021C39.2948 515.51 38.0082 515.755 36.5215 515.755H31.4227V512.038H35.6447C36.3563 512.038 36.9503 511.946 37.4269 511.762C37.9097 511.571 38.2751 511.285 38.5229 510.904C38.7706 510.516 38.8945 510.021 38.8945 509.417C38.8945 508.813 38.7706 508.315 38.5229 507.921C38.2751 507.521 37.9097 507.222 37.4269 507.025C36.944 506.822 36.3499 506.72 35.6447 506.72H33.3193V522.436H28.6018ZM39.5903 513.515L44.4507 522.436H39.3043L34.5392 513.515H39.5903ZM59.1513 512.267L54.8722 512.381C54.8277 512.076 54.707 511.806 54.51 511.571C54.3131 511.33 54.0557 511.142 53.7381 511.009C53.4267 510.869 53.0646 510.799 52.6516 510.799C52.1116 510.799 51.6509 510.907 51.2697 511.123C50.8948 511.339 50.7106 511.631 50.7169 512C50.7106 512.286 50.825 512.534 51.06 512.743C51.3015 512.953 51.7303 513.121 52.3466 513.248L55.1676 513.782C56.6289 514.062 57.7154 514.525 58.427 515.173C59.145 515.821 59.5071 516.679 59.5135 517.747C59.5071 518.75 59.2085 519.624 58.6176 520.367C58.0331 521.111 57.2325 521.689 56.216 522.102C55.1994 522.509 54.0367 522.712 52.7278 522.712C50.6375 522.712 48.9888 522.283 47.7816 521.425C46.5808 520.561 45.8946 519.405 45.723 517.956L50.3262 517.842C50.4279 518.376 50.6915 518.782 51.1172 519.062C51.5429 519.341 52.0861 519.481 52.7469 519.481C53.3441 519.481 53.8302 519.37 54.2051 519.148C54.5799 518.925 54.7705 518.63 54.7769 518.261C54.7705 517.931 54.6244 517.667 54.3385 517.47C54.0526 517.267 53.6046 517.108 52.9947 516.994L50.4406 516.508C48.9729 516.241 47.8801 515.748 47.1621 515.03C46.4442 514.306 46.0884 513.385 46.0947 512.267C46.0884 511.288 46.3489 510.453 46.8762 509.76C47.4036 509.061 48.1533 508.528 49.1254 508.159C50.0975 507.791 51.2443 507.606 52.5658 507.606C54.5481 507.606 56.1111 508.022 57.2548 508.855C58.3984 509.681 59.0306 510.818 59.1513 512.267ZM64.4287 522.712C63.7426 522.712 63.1549 522.47 62.6656 521.988C62.1828 521.505 61.9445 520.92 61.9508 520.234C61.9445 519.561 62.1828 518.986 62.6656 518.509C63.1549 518.026 63.7426 517.785 64.4287 517.785C65.0768 517.785 65.6486 518.026 66.1442 518.509C66.6461 518.986 66.9003 519.561 66.9066 520.234C66.9003 520.691 66.7796 521.108 66.5445 521.483C66.3158 521.857 66.014 522.156 65.6391 522.378C65.2706 522.601 64.8671 522.712 64.4287 522.712ZM81.9527 522.702C80.5295 522.702 79.2651 522.445 78.1596 521.93C77.0541 521.416 76.1805 520.707 75.5388 519.805C74.9034 518.903 74.573 517.867 74.5476 516.698H79.1222C79.1603 517.416 79.4526 517.994 79.999 518.433C80.5454 518.865 81.1966 519.081 81.9527 519.081C82.5436 519.081 83.0677 518.951 83.5252 518.69C83.9827 518.43 84.3416 518.064 84.6021 517.594C84.8626 517.118 84.9897 516.571 84.9833 515.955C84.9897 515.326 84.8594 514.776 84.5926 514.306C84.3321 513.836 83.9699 513.471 83.5061 513.21C83.0487 512.943 82.5213 512.81 81.9241 512.81C81.3586 512.804 80.8217 512.927 80.3135 513.182C79.8115 513.436 79.4303 513.782 79.1698 514.22L75.0051 513.439L75.8533 502.917H88.3761V506.72H79.7321L79.2842 511.323H79.3985C79.7226 510.783 80.2436 510.338 80.9615 509.989C81.6858 509.633 82.5086 509.455 83.4299 509.455C84.5989 509.455 85.6409 509.728 86.5558 510.275C87.4771 510.815 88.2014 511.565 88.7288 512.524C89.2625 513.483 89.5293 514.583 89.5293 515.821C89.5293 517.162 89.2116 518.35 88.5763 519.386C87.9473 520.421 87.0641 521.235 85.9268 521.826C84.7959 522.41 83.4712 522.702 81.9527 522.702ZM100.191 522.912C98.4886 522.912 97.021 522.509 95.7884 521.702C94.5558 520.888 93.6059 519.723 92.9388 518.204C92.2717 516.679 91.9413 514.846 91.9476 512.705C91.954 510.564 92.2876 508.747 92.9483 507.254C93.6155 505.754 94.5621 504.614 95.7884 503.832C97.021 503.044 98.4886 502.651 100.191 502.651C101.894 502.651 103.362 503.044 104.594 503.832C105.833 504.614 106.786 505.754 107.454 507.254C108.121 508.753 108.451 510.57 108.445 512.705C108.445 514.853 108.111 516.689 107.444 518.214C106.777 519.738 105.827 520.904 104.594 521.711C103.368 522.512 101.901 522.912 100.191 522.912ZM100.191 519.052C101.208 519.052 102.031 518.534 102.66 517.499C103.289 516.457 103.6 514.859 103.594 512.705C103.594 511.295 103.451 510.132 103.165 509.217C102.879 508.296 102.482 507.609 101.974 507.158C101.465 506.707 100.871 506.482 100.191 506.482C99.1812 506.482 98.3648 506.993 97.7421 508.016C97.1195 509.033 96.8049 510.596 96.7986 512.705C96.7922 514.135 96.9288 515.32 97.2084 516.26C97.4943 517.2 97.8946 517.902 98.4092 518.366C98.9239 518.824 99.5179 519.052 100.191 519.052ZM119.219 522.912C117.516 522.912 116.048 522.509 114.816 521.702C113.583 520.888 112.633 519.723 111.966 518.204C111.299 516.679 110.969 514.846 110.975 512.705C110.981 510.564 111.315 508.747 111.976 507.254C112.643 505.754 113.589 504.614 114.816 503.832C116.048 503.044 117.516 502.651 119.219 502.651C120.922 502.651 122.389 503.044 123.622 503.832C124.861 504.614 125.814 505.754 126.481 507.254C127.148 508.753 127.478 510.57 127.472 512.705C127.472 514.853 127.138 516.689 126.471 518.214C125.804 519.738 124.854 520.904 123.622 521.711C122.396 522.512 120.928 522.912 119.219 522.912ZM119.219 519.052C120.235 519.052 121.058 518.534 121.687 517.499C122.316 516.457 122.627 514.859 122.621 512.705C122.621 511.295 122.478 510.132 122.192 509.217C121.906 508.296 121.509 507.609 121.001 507.158C120.493 506.707 119.899 506.482 119.219 506.482C118.209 506.482 117.392 506.993 116.769 508.016C116.147 509.033 115.832 510.596 115.826 512.705C115.82 514.135 115.956 515.32 116.236 516.26C116.522 517.2 116.922 517.902 117.437 518.366C117.951 518.824 118.545 519.052 119.219 519.052ZM138.246 522.912C136.543 522.912 135.076 522.509 133.843 521.702C132.61 520.888 131.661 519.723 130.994 518.204C130.326 516.679 129.996 514.846 130.002 512.705C130.009 510.564 130.342 508.747 131.003 507.254C131.67 505.754 132.617 504.614 133.843 503.832C135.076 503.044 136.543 502.651 138.246 502.651C139.949 502.651 141.417 503.044 142.649 503.832C143.888 504.614 144.841 505.754 145.508 507.254C146.175 508.753 146.506 510.57 146.499 512.705C146.499 514.853 146.166 516.689 145.499 518.214C144.832 519.738 143.882 520.904 142.649 521.711C141.423 522.512 139.955 522.912 138.246 522.912ZM138.246 519.052C139.263 519.052 140.085 518.534 140.714 517.499C141.343 516.457 141.655 514.859 141.648 512.705C141.648 511.295 141.505 510.132 141.22 509.217C140.934 508.296 140.537 507.609 140.028 507.158C139.52 506.707 138.926 506.482 138.246 506.482C137.236 506.482 136.419 506.993 135.797 508.016C135.174 509.033 134.86 510.596 134.853 512.705C134.847 514.135 134.984 515.32 135.263 516.26C135.549 517.2 135.949 517.902 136.464 518.366C136.979 518.824 137.573 519.052 138.246 519.052Z" fill="#BBB4A4"/>
<path d="M475.521 472.831C512.828 472.831 543.072 471.977 543.072 470.924C543.072 469.871 512.828 469.017 475.521 469.017C438.213 469.017 407.969 469.871 407.969 470.924C407.969 471.977 438.213 472.831 475.521 472.831Z" fill="#D8DFEA"/>
<path d="M563.569 293.629V312.168C563.569 342.277 539.166 366.694 509.073 366.694H501.443L509.912 357.959C534.773 357.511 554.85 337.141 554.85 312.168V297.992H522.152L523.242 289.268H559.21C561.618 289.267 563.569 291.219 563.569 293.629Z" fill="#865058"/>
<path d="M503.621 419.222V428.851H446.945V419.222C446.945 418.437 447.37 417.707 448.057 417.325L452.351 414.904C459.784 410.717 464.384 402.854 464.384 394.315V384.141H486.183V394.315C486.183 402.854 490.782 410.716 498.215 414.904L502.51 417.325C503.196 417.707 503.621 418.437 503.621 419.222Z" fill="#865058"/>
<path d="M503.623 419.222V428.851H498.173V419.222C498.173 418.437 497.748 417.707 497.062 417.325L492.767 414.904C485.334 410.717 480.734 402.854 480.734 394.315V384.141H486.184V394.315C486.184 402.854 490.784 410.716 498.217 414.904L502.511 417.325C503.198 417.707 503.623 418.437 503.623 419.222Z" fill="#501921"/>
<path d="M492.722 375.636V381.961C492.722 384.97 490.28 387.413 487.272 387.413H463.294C460.285 387.413 457.844 384.97 457.844 381.961V375.636H492.722Z" fill="#865058"/>
<path d="M486.183 387.413H464.385V390.619H486.183V387.413Z" fill="#501921"/>
<path d="M512.339 426.671V464.839H438.225V426.671C438.225 425.472 439.206 424.49 440.404 424.49H510.16C511.359 424.49 512.339 425.472 512.339 426.671Z" fill="#343B49"/>
<path d="M512.34 426.671V464.839H507.981V426.671C507.981 425.472 507 424.49 505.801 424.49H510.16C511.36 424.49 512.34 425.472 512.34 426.671Z" fill="#262D38"/>
<path d="M518.881 463.748V468.11C518.881 469.31 517.9 470.291 516.701 470.291H433.867C432.669 470.291 431.688 469.31 431.688 468.11V463.748C431.688 462.549 432.669 461.567 433.867 461.567H516.701C517.901 461.567 518.881 462.549 518.881 463.748Z" fill="#262D38"/>
<path d="M518.881 463.748V468.11C518.881 469.31 517.9 470.291 516.701 470.291H512.342C513.541 470.291 514.522 469.31 514.522 468.11V463.748C514.522 462.549 513.541 461.567 512.342 461.567H516.701C517.901 461.567 518.881 462.549 518.881 463.748Z" fill="#171C23"/>
<path d="M501.441 435.395V450.662C501.441 451.861 500.46 452.843 499.261 452.843H451.305C450.106 452.843 449.125 451.861 449.125 450.662V435.395C449.125 434.195 450.106 433.214 451.305 433.214H499.261C500.461 433.214 501.441 434.195 501.441 435.395Z" fill="#865058"/>
<path d="M492.724 375.636V381.961C492.724 384.97 490.282 387.413 487.274 387.413H482.914C485.922 387.413 488.364 384.97 488.364 381.961V375.636H492.724Z" fill="#501921"/>
<path d="M452.395 366.694H441.496C411.404 366.694 387 342.277 387 312.168V293.63C387 291.219 388.951 289.268 391.36 289.268H427.327V297.992H395.719V312.168C395.719 337.141 415.796 357.511 440.657 357.959L452.395 366.694Z" fill="#865058"/>
<path d="M528.69 280.543V284.905C528.69 337.904 504.777 380.87 475.283 380.87C445.79 380.87 421.877 337.904 421.877 284.905V280.543H528.69Z" fill="#865058"/>
<path d="M422.368 297.992H418.008C417.79 295.123 417.649 292.212 417.572 289.268H421.932C422.008 292.212 422.15 295.123 422.368 297.992Z" fill="#501921"/>
<path d="M447.336 366.693H442.976C440.546 364.01 438.235 360.979 436.088 357.642C437.592 357.827 439.107 357.925 440.655 357.958C442.748 361.175 444.982 364.097 447.336 366.693Z" fill="#501921"/>
<path d="M492.723 375.636V377.817C487.252 381.208 481.388 383.051 475.284 383.051C469.181 383.051 463.317 381.208 457.846 377.817V375.636C463.317 379.027 469.181 380.87 475.284 380.87C481.388 380.87 487.252 379.027 492.723 375.636Z" fill="#501921"/>
<path d="M528.691 280.543V284.905C528.691 336.246 506.249 378.177 478.031 380.75C505.454 378.144 515.612 336.225 515.612 284.905V280.543H528.691Z" fill="#501921"/>
<path d="M534.142 279.452C534.142 280.958 533.531 282.321 532.55 283.313C531.558 284.294 530.196 284.905 528.692 284.905H421.879C418.871 284.905 416.43 282.462 416.43 279.452C416.43 277.947 417.04 276.584 418.021 275.592C419.013 274.611 420.375 274 421.879 274H528.692C531.7 274 534.142 276.443 534.142 279.452Z" fill="#865058"/>
<path d="M528.69 284.905C528.69 286.367 528.668 287.817 528.635 289.267H421.931C421.899 287.817 421.877 286.367 421.877 284.905H528.69Z" fill="#501921"/>
<path d="M534.14 279.452C534.14 280.958 533.53 282.321 532.549 283.313C531.557 284.294 530.195 284.905 528.691 284.905H516.701C518.205 284.905 519.568 284.294 520.56 283.313C521.541 282.321 522.151 280.957 522.151 279.452C522.151 276.443 519.71 274 516.701 274H528.691C531.699 274 534.14 276.443 534.14 279.452Z" fill="#501921"/>
<path d="M501.442 435.395V450.662C501.442 451.862 500.461 452.843 499.262 452.843H455.992C464.799 452.669 493.813 450.793 493.813 433.214H499.262C500.461 433.214 501.442 434.196 501.442 435.395Z" fill="#501921"/>
<path d="M451.307 445.21V436.288C451.307 435.795 451.706 435.396 452.198 435.396H471.743C471.743 435.396 456.211 437.031 451.307 445.21Z" fill="#A0616A"/>
<path d="M440.678 436.486V427.564C440.678 427.071 441.077 426.672 441.569 426.672H461.114C461.114 426.672 445.582 428.307 440.678 436.486Z" fill="#4E5868"/>
<path d="M475.282 377.598C463.445 377.598 430.617 352.615 426.639 293.629H439.587C442.846 365.799 475.282 377.598 475.282 377.598Z" fill="#A0616A"/>
<path d="M452.396 420.129C452.396 420.129 467.655 410.315 467.655 396.138V420.129H452.396Z" fill="#A0616A"/>
<path d="M424.057 276.181V279.452H418.607C418.607 277.653 420.068 276.181 421.877 276.181H424.057Z" fill="#A0616A"/>
<path d="M531.907 289.267C531.831 292.211 531.689 295.123 531.46 297.991H522.152L523.242 289.267H531.907Z" fill="#501921"/>
<path d="M513.313 357.772C511.176 361.055 508.898 364.043 506.5 366.693H501.443L505.302 362.724L509.912 357.958C511.057 357.936 512.19 357.871 513.313 357.772Z" fill="#501921"/>
<path d="M418.049 520.067V500.549H426.112C427.573 500.549 428.834 500.813 429.895 501.34C430.962 501.861 431.785 502.611 432.363 503.589C432.942 504.561 433.231 505.715 433.231 507.049C433.231 508.402 432.935 509.552 432.344 510.499C431.753 511.439 430.915 512.157 429.828 512.653C428.742 513.142 427.455 513.387 425.969 513.387H420.87V509.67H425.092C425.803 509.67 426.397 509.578 426.874 509.393C427.357 509.203 427.722 508.917 427.97 508.536C428.218 508.148 428.342 507.653 428.342 507.049C428.342 506.445 428.218 505.947 427.97 505.553C427.722 505.152 427.357 504.854 426.874 504.657C426.391 504.453 425.797 504.352 425.092 504.352H422.766V520.067H418.049ZM429.037 511.147L433.898 520.067H428.751L423.986 511.147H429.037ZM448.598 509.898L444.319 510.013C444.275 509.708 444.154 509.438 443.957 509.203C443.76 508.961 443.503 508.774 443.185 508.64C442.874 508.501 442.512 508.431 442.099 508.431C441.559 508.431 441.098 508.539 440.717 508.755C440.342 508.971 440.158 509.263 440.164 509.632C440.158 509.918 440.272 510.165 440.507 510.375C440.749 510.585 441.177 510.753 441.794 510.88L444.615 511.414C446.076 511.693 447.162 512.157 447.874 512.805C448.592 513.453 448.954 514.311 448.961 515.378C448.954 516.382 448.656 517.256 448.065 517.999C447.48 518.743 446.68 519.321 445.663 519.734C444.646 520.14 443.484 520.344 442.175 520.344C440.085 520.344 438.436 519.915 437.229 519.057C436.028 518.193 435.342 517.037 435.17 515.588L439.773 515.474C439.875 516.007 440.139 516.414 440.564 516.694C440.99 516.973 441.533 517.113 442.194 517.113C442.791 517.113 443.277 517.002 443.652 516.779C444.027 516.557 444.218 516.262 444.224 515.893C444.218 515.563 444.071 515.299 443.786 515.102C443.5 514.899 443.052 514.74 442.442 514.626L439.888 514.14C438.42 513.873 437.327 513.38 436.609 512.662C435.891 511.938 435.535 511.017 435.542 509.898C435.535 508.92 435.796 508.085 436.323 507.392C436.851 506.693 437.6 506.159 438.572 505.791C439.545 505.422 440.691 505.238 442.013 505.238C443.995 505.238 445.558 505.654 446.702 506.487C447.845 507.313 448.478 508.45 448.598 509.898ZM453.876 520.344C453.19 520.344 452.602 520.102 452.113 519.619C451.63 519.137 451.392 518.552 451.398 517.866C451.392 517.192 451.63 516.617 452.113 516.141C452.602 515.658 453.19 515.417 453.876 515.417C454.524 515.417 455.096 515.658 455.591 516.141C456.093 516.617 456.347 517.192 456.354 517.866C456.347 518.323 456.227 518.739 455.992 519.114C455.763 519.489 455.461 519.788 455.086 520.01C454.718 520.233 454.314 520.344 453.876 520.344ZM471.352 520.334C469.865 520.334 468.547 520.08 467.397 519.572C466.253 519.057 465.351 518.349 464.69 517.447C464.03 516.544 463.693 515.506 463.68 514.33H468.426C468.445 514.756 468.582 515.134 468.836 515.464C469.09 515.788 469.437 516.042 469.875 516.227C470.313 516.411 470.812 516.503 471.371 516.503C471.93 516.503 472.423 516.405 472.848 516.208C473.28 516.004 473.617 515.728 473.859 515.378C474.1 515.023 474.218 514.616 474.211 514.159C474.218 513.701 474.087 513.294 473.82 512.939C473.554 512.583 473.176 512.306 472.686 512.11C472.203 511.913 471.632 511.814 470.971 511.814H469.074V508.459H470.971C471.549 508.459 472.057 508.364 472.496 508.173C472.941 507.983 473.287 507.716 473.535 507.373C473.782 507.024 473.903 506.623 473.897 506.172C473.903 505.734 473.798 505.349 473.582 505.019C473.373 504.682 473.077 504.422 472.696 504.237C472.321 504.053 471.886 503.961 471.39 503.961C470.869 503.961 470.396 504.053 469.97 504.237C469.551 504.422 469.217 504.682 468.97 505.019C468.722 505.356 468.591 505.746 468.579 506.191H464.071C464.084 505.028 464.408 504.006 465.043 503.122C465.678 502.233 466.542 501.537 467.635 501.035C468.734 500.533 469.986 500.282 471.39 500.282C472.788 500.282 474.017 500.527 475.078 501.016C476.14 501.505 476.965 502.173 477.556 503.018C478.147 503.856 478.443 504.806 478.443 505.867C478.449 506.966 478.09 507.872 477.366 508.583C476.648 509.295 475.723 509.733 474.592 509.898V510.051C476.105 510.229 477.245 510.718 478.014 511.519C478.789 512.319 479.173 513.32 479.167 514.521C479.167 515.652 478.833 516.656 478.166 517.532C477.506 518.403 476.584 519.089 475.403 519.591C474.227 520.086 472.877 520.334 471.352 520.334ZM489.901 520.544C488.198 520.544 486.73 520.14 485.498 519.334C484.265 518.52 483.315 517.354 482.648 515.836C481.981 514.311 481.65 512.478 481.657 510.337C481.663 508.196 481.997 506.379 482.657 504.886C483.325 503.386 484.271 502.246 485.498 501.464C486.73 500.676 488.198 500.282 489.901 500.282C491.603 500.282 493.071 500.676 494.304 501.464C495.543 502.246 496.496 503.386 497.163 504.886C497.83 506.385 498.16 508.202 498.154 510.337C498.154 512.484 497.82 514.321 497.153 515.845C496.486 517.37 495.536 518.536 494.304 519.343C493.077 520.144 491.61 520.544 489.901 520.544ZM489.901 516.684C490.917 516.684 491.74 516.166 492.369 515.131C492.998 514.089 493.309 512.491 493.303 510.337C493.303 508.926 493.16 507.764 492.874 506.849C492.588 505.928 492.191 505.241 491.683 504.79C491.174 504.339 490.58 504.114 489.901 504.114C488.89 504.114 488.074 504.625 487.451 505.648C486.829 506.665 486.514 508.228 486.508 510.337C486.501 511.766 486.638 512.951 486.918 513.892C487.203 514.832 487.604 515.534 488.118 515.998C488.633 516.455 489.227 516.684 489.901 516.684ZM508.928 520.544C507.225 520.544 505.757 520.14 504.525 519.334C503.292 518.52 502.342 517.354 501.675 515.836C501.008 514.311 500.678 512.478 500.684 510.337C500.691 508.196 501.024 506.379 501.685 504.886C502.352 503.386 503.299 502.246 504.525 501.464C505.757 500.676 507.225 500.282 508.928 500.282C510.631 500.282 512.098 500.676 513.331 501.464C514.57 502.246 515.523 503.386 516.19 504.886C516.857 506.385 517.188 508.202 517.181 510.337C517.181 512.484 516.848 514.321 516.181 515.845C515.513 517.37 514.564 518.536 513.331 519.343C512.105 520.144 510.637 520.544 508.928 520.544ZM508.928 516.684C509.944 516.684 510.767 516.166 511.396 515.131C512.025 514.089 512.337 512.491 512.33 510.337C512.33 508.926 512.187 507.764 511.901 506.849C511.615 505.928 511.218 505.241 510.71 504.79C510.202 504.339 509.608 504.114 508.928 504.114C507.918 504.114 507.101 504.625 506.479 505.648C505.856 506.665 505.541 508.228 505.535 510.337C505.529 511.766 505.665 512.951 505.945 513.892C506.231 514.832 506.631 515.534 507.146 515.998C507.66 516.455 508.254 516.684 508.928 516.684ZM527.955 520.544C526.253 520.544 524.785 520.14 523.552 519.334C522.32 518.52 521.37 517.354 520.703 515.836C520.036 514.311 519.705 512.478 519.712 510.337C519.718 508.196 520.051 506.379 520.712 504.886C521.379 503.386 522.326 502.246 523.552 501.464C524.785 500.676 526.253 500.282 527.955 500.282C529.658 500.282 531.126 500.676 532.358 501.464C533.597 502.246 534.55 503.386 535.217 504.886C535.885 506.385 536.215 508.202 536.209 510.337C536.209 512.484 535.875 514.321 535.208 515.845C534.541 517.37 533.591 518.536 532.358 519.343C531.132 520.144 529.664 520.544 527.955 520.544ZM527.955 516.684C528.972 516.684 529.795 516.166 530.424 515.131C531.053 514.089 531.364 512.491 531.358 510.337C531.358 508.926 531.215 507.764 530.929 506.849C530.643 505.928 530.246 505.241 529.737 504.79C529.229 504.339 528.635 504.114 527.955 504.114C526.945 504.114 526.129 504.625 525.506 505.648C524.883 506.665 524.569 508.228 524.562 510.337C524.556 511.766 524.693 512.951 524.972 513.892C525.258 514.832 525.658 515.534 526.173 515.998C526.688 516.455 527.282 516.684 527.955 516.684Z" fill="#865058"/>
</svg>
