<svg width="98" height="143" viewBox="0 0 98 143" fill="none" xmlns="http://www.w3.org/2000/svg">
<path d="M49.1763 109.777C69.6765 109.777 86.2951 109.308 86.2951 108.729C86.2951 108.15 69.6765 107.681 49.1763 107.681C28.6762 107.681 12.0576 108.15 12.0576 108.729C12.0576 109.308 28.6762 109.777 49.1763 109.777Z" fill="#D8DFEA"/>
<path d="M97.5581 11.3083V21.4951C97.5581 38.0396 84.1487 51.4562 67.6133 51.4562H63.4209L68.0743 46.6563C81.7352 46.4106 92.7669 35.2173 92.7669 21.4951V13.7053H74.8L75.399 8.91162H95.1627C96.486 8.9112 97.5581 9.98392 97.5581 11.3083Z" fill="#BBB4A4"/>
<path d="M64.6182 80.3204V85.6114H33.4756V80.3204C33.4756 79.889 33.7091 79.4875 34.0864 79.2778L36.4461 77.9475C40.5305 75.6467 43.0579 71.3263 43.0579 66.6342V61.0435H55.0359V66.6342C55.0359 71.326 57.5633 75.6465 61.6477 77.9475L64.0074 79.2778C64.3847 79.4875 64.6182 79.889 64.6182 80.3204Z" fill="#BBB4A4"/>
<path d="M64.6177 80.3204V85.6114H61.6234V80.3204C61.6234 79.889 61.3899 79.4875 61.0126 79.2778L58.6528 77.9475C54.5684 75.6467 52.041 71.3263 52.041 66.6342V61.0435H55.0356V66.6342C55.0356 71.326 57.563 75.6465 61.6474 77.9475L64.0071 79.2778C64.3843 79.4875 64.6177 79.889 64.6177 80.3204Z" fill="#616161"/>
<path d="M58.6288 56.3696V59.8451C58.6288 61.4989 57.2873 62.8412 55.6342 62.8412H42.4585C40.8055 62.8412 39.4639 61.4989 39.4639 59.8451V56.3696H58.6288Z" fill="#BBB4A4"/>
<path d="M55.0355 62.8408H43.0576V64.6026H55.0355V62.8408Z" fill="#616161"/>
<path d="M69.4095 84.4135V105.386H28.6846V84.4135C28.6846 83.7544 29.2237 83.2151 29.8824 83.2151H68.2118C68.8707 83.2151 69.4095 83.7544 69.4095 84.4135Z" fill="#343B49"/>
<path d="M69.4088 84.4135V105.386H67.0132V84.4135C67.0132 83.7544 66.4741 83.2151 65.8154 83.2151H68.211C68.8699 83.2151 69.4088 83.7544 69.4088 84.4135Z" fill="#262D38"/>
<path d="M73.0026 104.787V107.184C73.0026 107.843 72.4635 108.382 71.8048 108.382H26.2886C25.6299 108.382 25.0908 107.843 25.0908 107.184V104.787C25.0908 104.128 25.6299 103.588 26.2886 103.588H71.8048C72.4637 103.588 73.0026 104.128 73.0026 104.787Z" fill="#262D38"/>
<path d="M73.0038 104.787V107.184C73.0038 107.843 72.4647 108.382 71.8059 108.382H69.4102C70.0689 108.382 70.608 107.843 70.608 107.184V104.787C70.608 104.128 70.0689 103.588 69.4102 103.588H71.8059C72.4649 103.588 73.0038 104.128 73.0038 104.787Z" fill="#171C23"/>
<path d="M63.4199 89.2067V97.5957C63.4199 98.2548 62.8808 98.7941 62.2221 98.7941H35.8706C35.212 98.7941 34.6729 98.2548 34.6729 97.5957V89.2067C34.6729 88.5476 35.212 88.0083 35.8706 88.0083H62.2221C62.881 88.0083 63.4199 88.5476 63.4199 89.2067Z" fill="#BBB4A4"/>
<path d="M58.6299 56.3696V59.8454C58.6299 61.4993 57.2883 62.8417 55.635 62.8417H53.2393C54.8923 62.8417 56.2341 61.4993 56.2341 59.8454V56.3696H58.6299Z" fill="#616161"/>
<path d="M36.4699 51.4562H30.481C13.9456 51.4562 0.536133 38.0396 0.536133 21.4951V11.3085C0.536133 9.98413 1.60822 8.91162 2.93172 8.91162H22.6954V13.7053H5.32731V21.4951C5.32731 35.2173 16.3591 46.4106 30.0199 46.6563L36.4699 51.4562Z" fill="#BBB4A4"/>
<path d="M78.3923 4.11792V6.51477C78.3923 35.6368 65.2524 59.2462 49.0462 59.2462C32.8401 59.2462 19.7002 35.637 19.7002 6.51477V4.11792H78.3923Z" fill="#BBB4A4"/>
<path d="M19.9713 13.7057H17.5756C17.4557 12.1296 17.3779 10.5297 17.3359 8.91162H19.7317C19.7737 10.5295 19.8515 12.1296 19.9713 13.7057Z" fill="#616161"/>
<path d="M33.691 51.4562H31.2952C29.9595 49.982 28.6897 48.316 27.5098 46.4822C28.3364 46.5841 29.1688 46.6381 30.0195 46.656C31.1695 48.4238 32.3973 50.0299 33.691 51.4562Z" fill="#616161"/>
<path d="M58.6295 56.3696V57.5681C55.6231 59.4317 52.401 60.4443 49.0472 60.4443C45.6934 60.4443 42.4712 59.4317 39.4648 57.5681V56.3696C42.4712 58.2333 45.6934 59.2459 49.0472 59.2459C52.401 59.2459 55.6231 58.2333 58.6295 56.3696Z" fill="#616161"/>
<path d="M78.3934 4.11792V6.51477C78.3934 34.7261 66.0619 57.7662 50.5566 59.1804C65.6249 57.7482 71.2066 34.7143 71.2066 6.51477V4.11792H78.3934Z" fill="#616161"/>
<path d="M81.3871 3.51853C81.3871 4.34553 81.0518 5.09449 80.5126 5.63971C79.9676 6.17902 79.2191 6.51459 78.3925 6.51459H19.7006C18.0477 6.51459 16.7061 5.17232 16.7061 3.51853C16.7061 2.69152 17.0414 1.94256 17.5805 1.39734C18.1255 0.858028 18.8741 0.522461 19.7006 0.522461H78.3927C80.0457 0.522461 81.3871 1.86473 81.3871 3.51853Z" fill="#BBB4A4"/>
<path d="M78.3923 6.51489C78.3923 7.31785 78.3803 8.1149 78.3623 8.91174H19.7301C19.7122 8.11469 19.7002 7.31785 19.7002 6.51489H78.3923Z" fill="#616161"/>
<path d="M81.388 3.51878C81.388 4.34585 81.0527 5.09487 80.5135 5.64014C79.9685 6.17949 79.2199 6.51509 78.3932 6.51509H71.8047C72.6313 6.51509 73.3799 6.17949 73.925 5.64014C74.4641 5.09487 74.7995 4.34564 74.7995 3.51878C74.7995 1.86484 73.458 0.522461 71.8047 0.522461H78.3932C80.0465 0.522461 81.388 1.86484 81.388 3.51878Z" fill="#616161"/>
<path d="M63.4203 89.2069V97.5959C63.4203 98.255 62.8811 98.7943 62.2225 98.7943H38.4463C43.2853 98.6984 59.2281 97.6678 59.2281 88.0083H62.2227C62.8814 88.0085 63.4203 88.5478 63.4203 89.2069Z" fill="#616161"/>
<path d="M35.8711 94.5999V89.6972C35.8711 89.4264 36.0904 89.207 36.3611 89.207H47.1005C47.1005 89.207 38.5662 90.106 35.8711 94.5999Z" fill="#FAFAFA"/>
<path d="M30.0312 89.8067V84.904C30.0312 84.6332 30.2506 84.4138 30.5212 84.4138H41.2606C41.2606 84.4138 32.7261 85.3125 30.0312 89.8067Z" fill="#4E5868"/>
<path d="M49.0462 57.4486C42.5421 57.4486 24.5033 43.7205 22.3174 11.3086H29.4322C31.2229 50.9651 49.0462 57.4486 49.0462 57.4486Z" fill="#FAFAFA"/>
<path d="M36.4697 80.8184C36.4697 80.8184 44.8543 75.4255 44.8543 67.6355V80.8184H36.4697Z" fill="#FAFAFA"/>
<path d="M20.8991 1.7207V3.51849H17.9043C17.9043 2.52963 18.7069 1.7207 19.7012 1.7207H20.8991Z" fill="#FAFAFA"/>
<path d="M80.1603 8.91113C80.1183 10.5292 80.0405 12.1291 79.9147 13.7052H74.7998L75.3989 8.91113H80.1603Z" fill="#616161"/>
<path d="M69.9434 46.5547C68.7695 48.3584 67.5177 50.0005 66.1999 51.4568H63.4209L65.5412 49.2755L68.0747 46.6568C68.7037 46.6445 69.3266 46.6087 69.9434 46.5547Z" fill="#616161"/>
<path d="M15.9594 138.396V127.671H20.3897C21.1927 127.671 21.8857 127.816 22.4687 128.106C23.0552 128.392 23.5073 128.804 23.825 129.342C24.1427 129.876 24.3016 130.51 24.3016 131.243C24.3016 131.986 24.1393 132.618 23.8146 133.139C23.4899 133.655 23.0291 134.05 22.4321 134.322C21.8351 134.591 21.1281 134.725 20.3112 134.725H17.5095V132.683H19.8294C20.2204 132.683 20.5468 132.632 20.8087 132.531C21.074 132.426 21.2747 132.269 21.4109 132.06C21.547 131.847 21.6151 131.574 21.6151 131.243C21.6151 130.911 21.547 130.637 21.4109 130.421C21.2747 130.201 21.074 130.037 20.8087 129.928C20.5433 129.817 20.2169 129.761 19.8294 129.761H18.5516V138.396H15.9594ZM21.9974 133.495L24.6682 138.396H21.8403L19.2219 133.495H21.9974ZM32.7459 132.809L30.3946 132.871C30.3702 132.704 30.3038 132.555 30.1956 132.426C30.0874 132.294 29.946 132.191 29.7714 132.117C29.6004 132.041 29.4014 132.002 29.1744 132.002C28.8777 132.002 28.6246 132.061 28.4151 132.18C28.2091 132.299 28.1079 132.459 28.1114 132.662C28.1079 132.819 28.1707 132.955 28.2999 133.07C28.4325 133.186 28.6682 133.278 29.0069 133.348L30.5569 133.641C31.3599 133.795 31.9569 134.05 32.3479 134.406C32.7424 134.762 32.9414 135.233 32.9449 135.82C32.9414 136.371 32.7773 136.851 32.4527 137.26C32.1315 137.668 31.6916 137.986 31.133 138.213C30.5744 138.436 29.9355 138.548 29.2163 138.548C28.0677 138.548 27.1618 138.312 26.4984 137.841C25.8386 137.366 25.4615 136.731 25.3673 135.935L27.8967 135.872C27.9525 136.165 28.0974 136.389 28.3313 136.542C28.5652 136.696 28.8637 136.773 29.2268 136.773C29.555 136.773 29.822 136.712 30.028 136.59C30.234 136.467 30.3387 136.305 30.3422 136.103C30.3387 135.921 30.2584 135.776 30.1013 135.668C29.9442 135.556 29.6981 135.469 29.363 135.406L27.9595 135.139C27.153 134.992 26.5525 134.722 26.158 134.327C25.7635 133.929 25.568 133.423 25.5715 132.809C25.568 132.271 25.7112 131.812 26.0009 131.431C26.2907 131.047 26.7027 130.754 27.2368 130.552C27.771 130.349 28.4011 130.248 29.1273 130.248C30.2166 130.248 31.0754 130.476 31.7038 130.934C32.3322 131.388 32.6796 132.013 32.7459 132.809ZM35.6458 138.548C35.2687 138.548 34.9458 138.415 34.677 138.15C34.4117 137.885 34.2807 137.564 34.2842 137.187C34.2807 136.816 34.4117 136.501 34.677 136.239C34.9458 135.973 35.2687 135.841 35.6458 135.841C36.0019 135.841 36.3161 135.973 36.5884 136.239C36.8642 136.501 37.0039 136.816 37.0074 137.187C37.0039 137.438 36.9375 137.667 36.8084 137.873C36.6827 138.079 36.5168 138.243 36.3109 138.365C36.1084 138.487 35.8867 138.548 35.6458 138.548ZM45.2749 138.543C44.4929 138.543 43.7982 138.401 43.1907 138.119C42.5832 137.836 42.1032 137.447 41.7506 136.951C41.4015 136.455 41.2199 135.886 41.206 135.244H43.7196C43.7406 135.638 43.9012 135.956 44.2014 136.197C44.5016 136.434 44.8595 136.553 45.2749 136.553C45.5996 136.553 45.8876 136.481 46.139 136.338C46.3904 136.195 46.5876 135.994 46.7308 135.736C46.8739 135.474 46.9437 135.174 46.9402 134.835C46.9437 134.49 46.8722 134.188 46.7255 133.929C46.5824 133.671 46.3834 133.47 46.1285 133.327C45.8772 133.18 45.5874 133.107 45.2592 133.107C44.9485 133.104 44.6535 133.172 44.3742 133.311C44.0984 133.451 43.8889 133.641 43.7458 133.882L41.4573 133.453L41.9234 127.671H48.8045V129.761H44.0548L43.8086 132.29H43.8715C44.0495 131.993 44.3358 131.749 44.7303 131.557C45.1283 131.361 45.5804 131.264 46.0866 131.264C46.729 131.264 47.3016 131.414 47.8043 131.714C48.3105 132.011 48.7085 132.423 48.9983 132.95C49.2916 133.477 49.4382 134.081 49.4382 134.762C49.4382 135.499 49.2636 136.151 48.9145 136.72C48.5689 137.29 48.0836 137.736 47.4587 138.061C46.8373 138.382 46.1093 138.543 45.2749 138.543ZM55.2969 138.658C54.3612 138.658 53.5547 138.436 52.8775 137.993C52.2002 137.546 51.6782 136.906 51.3117 136.071C50.9451 135.233 50.7635 134.226 50.767 133.049C50.7705 131.873 50.9538 130.874 51.3169 130.054C51.6835 129.23 52.2037 128.603 52.8775 128.174C53.5547 127.741 54.3612 127.525 55.2969 127.525C56.2325 127.525 57.039 127.741 57.7163 128.174C58.397 128.603 58.9207 129.23 59.2873 130.054C59.6539 130.878 59.8354 131.876 59.8319 133.049C59.8319 134.229 59.6486 135.238 59.2821 136.076C58.9155 136.914 58.3935 137.555 57.7163 137.998C57.0425 138.438 56.236 138.658 55.2969 138.658ZM55.2969 136.537C55.8554 136.537 56.3076 136.253 56.6532 135.684C56.9988 135.111 57.1699 134.233 57.1664 133.049C57.1664 132.274 57.0878 131.636 56.9307 131.133C56.7736 130.627 56.5554 130.25 56.2761 130.002C55.9968 129.754 55.6704 129.63 55.2969 129.63C54.7418 129.63 54.2931 129.911 53.951 130.473C53.6089 131.032 53.436 131.89 53.4326 133.049C53.4291 133.835 53.5041 134.486 53.6577 135.003C53.8148 135.519 54.0348 135.905 54.3176 136.16C54.6004 136.411 54.9268 136.537 55.2969 136.537ZM65.7521 138.658C64.8165 138.658 64.01 138.436 63.3327 137.993C62.6554 137.546 62.1335 136.906 61.7669 136.071C61.4003 135.233 61.2188 134.226 61.2223 133.049C61.2258 131.873 61.4091 130.874 61.7721 130.054C62.1387 129.23 62.6589 128.603 63.3327 128.174C64.01 127.741 64.8165 127.525 65.7521 127.525C66.6877 127.525 67.4942 127.741 68.1715 128.174C68.8523 128.603 69.376 129.23 69.7425 130.054C70.1091 130.878 70.2907 131.876 70.2872 133.049C70.2872 134.229 70.1039 135.238 69.7373 136.076C69.3707 136.914 68.8488 137.555 68.1715 137.998C67.4977 138.438 66.6912 138.658 65.7521 138.658ZM65.7521 136.537C66.3107 136.537 66.7628 136.253 67.1084 135.684C67.4541 135.111 67.6251 134.233 67.6216 133.049C67.6216 132.274 67.5431 131.636 67.386 131.133C67.2289 130.627 67.0107 130.25 66.7314 130.002C66.4521 129.754 66.1257 129.63 65.7521 129.63C65.197 129.63 64.7484 129.911 64.4063 130.473C64.0641 131.032 63.8913 131.89 63.8878 133.049C63.8843 133.835 63.9594 134.486 64.113 135.003C64.2701 135.519 64.49 135.905 64.7728 136.16C65.0556 136.411 65.382 136.537 65.7521 136.537ZM76.2074 138.658C75.2717 138.658 74.4653 138.436 73.788 137.993C73.1107 137.546 72.5887 136.906 72.2222 136.071C71.8556 135.233 71.674 134.226 71.6775 133.049C71.681 131.873 71.8643 130.874 72.2274 130.054C72.594 129.23 73.1142 128.603 73.788 128.174C74.4653 127.741 75.2717 127.525 76.2074 127.525C77.143 127.525 77.9495 127.741 78.6268 128.174C79.3075 128.603 79.8312 129.23 80.1978 130.054C80.5644 130.878 80.7459 131.876 80.7424 133.049C80.7424 134.229 80.5591 135.238 80.1926 136.076C79.826 136.914 79.3041 137.555 78.6268 137.998C77.953 138.438 77.1465 138.658 76.2074 138.658ZM76.2074 136.537C76.766 136.537 77.2181 136.253 77.5637 135.684C77.9093 135.111 78.0804 134.233 78.0769 133.049C78.0769 132.274 77.9983 131.636 77.8412 131.133C77.6841 130.627 77.4659 130.25 77.1866 130.002C76.9073 129.754 76.5809 129.63 76.2074 129.63C75.6523 129.63 75.2036 129.911 74.8615 130.473C74.5194 131.032 74.3466 131.89 74.3431 133.049C74.3396 133.835 74.4146 134.486 74.5682 135.003C74.7254 135.519 74.9453 135.905 75.2281 136.16C75.5109 136.411 75.8373 136.537 76.2074 136.537Z" fill="#BBB4A4"/>
</svg>
