<svg width="106" height="147" viewBox="0 0 106 147" fill="none" xmlns="http://www.w3.org/2000/svg">
<g filter="url(#filter0_d_138_1204)">
<path d="M53.4898 109.867C73.9899 109.867 90.6086 109.398 90.6086 108.819C90.6086 108.24 73.9899 107.771 53.4898 107.771C32.9897 107.771 16.3711 108.24 16.3711 108.819C16.3711 109.398 32.9897 109.867 53.4898 109.867Z" fill="#D8DFEA"/>
<path d="M101.871 11.3984V21.5852C101.871 38.1297 88.4612 51.5463 71.9258 51.5463H67.7334L72.3868 46.7464C86.0477 46.5007 97.0794 35.3074 97.0794 21.5852V13.7954H79.1125L79.7115 9.00171H99.4752C100.799 9.00129 101.871 10.074 101.871 11.3984Z" fill="#E8A615"/>
<path d="M68.9307 80.4102V85.7012H37.7881V80.4102C37.7881 79.9789 38.0216 79.5773 38.3989 79.3676L40.7586 78.0374C44.843 75.7365 47.3704 71.4161 47.3704 66.7241V61.1333H59.3484V66.7241C59.3484 71.4159 61.8758 75.7363 65.9602 78.0374L68.3199 79.3676C68.6972 79.5773 68.9307 79.9789 68.9307 80.4102Z" fill="#E8A615"/>
<path d="M68.9302 80.4102V85.7012H65.9359V80.4102C65.9359 79.9789 65.7024 79.5773 65.3251 79.3676L62.9653 78.0374C58.8809 75.7365 56.3535 71.4161 56.3535 66.7241V61.1333H59.3481V66.7241C59.3481 71.4159 61.8755 75.7363 65.9599 78.0374L68.3196 79.3676C68.6968 79.5773 68.9302 79.9789 68.9302 80.4102Z" fill="#B7791D"/>
<path d="M62.9413 56.4595V59.935C62.9413 61.5887 61.5998 62.931 59.9467 62.931H46.771C45.118 62.931 43.7764 61.5887 43.7764 59.935V56.4595H62.9413Z" fill="#E8A615"/>
<path d="M59.349 62.9307H47.3711V64.6925H59.349V62.9307Z" fill="#B7791D"/>
<path d="M73.7211 84.5029V105.476H32.9961V84.5029C32.9961 83.8438 33.5352 83.3044 34.1939 83.3044H72.5233C73.1822 83.3044 73.7211 83.8438 73.7211 84.5029Z" fill="#343B49"/>
<path d="M73.7213 84.5029V105.476H71.3257V84.5029C71.3257 83.8438 70.7866 83.3044 70.1279 83.3044H72.5235C73.1824 83.3044 73.7213 83.8438 73.7213 84.5029Z" fill="#262D38"/>
<path d="M77.3151 104.876V107.273C77.3151 107.932 76.776 108.471 76.1173 108.471H30.6011C29.9424 108.471 29.4033 107.932 29.4033 107.273V104.876C29.4033 104.217 29.9424 103.678 30.6011 103.678H76.1173C76.7762 103.678 77.3151 104.217 77.3151 104.876Z" fill="#262D38"/>
<path d="M77.3154 104.876V107.273C77.3154 107.932 76.7762 108.472 76.1175 108.472H73.7217C74.3804 108.472 74.9196 107.932 74.9196 107.273V104.876C74.9196 104.217 74.3804 103.678 73.7217 103.678H76.1175C76.7764 103.678 77.3154 104.217 77.3154 104.876Z" fill="#171C23"/>
<path d="M67.7324 89.2961V97.6851C67.7324 98.3442 67.1933 98.8835 66.5346 98.8835H40.1831C39.5245 98.8835 38.9854 98.3442 38.9854 97.6851V89.2961C38.9854 88.637 39.5245 88.0977 40.1831 88.0977H66.5346C67.1935 88.0977 67.7324 88.637 67.7324 89.2961Z" fill="#E8A615"/>
<path d="M62.9424 56.4595V59.9352C62.9424 61.5892 61.6008 62.9316 59.9475 62.9316H57.5518C59.2048 62.9316 60.5466 61.5892 60.5466 59.9352V56.4595H62.9424Z" fill="#B7791D"/>
<path d="M40.7824 51.5458H34.7935C18.2581 51.5458 4.84863 38.1292 4.84863 21.5847V11.3981C4.84863 10.0737 5.92072 9.00122 7.24422 9.00122H27.0079V13.7949H9.63981V21.5847C9.63981 35.3069 20.6716 46.5002 34.3324 46.7459L40.7824 51.5458Z" fill="#E8A615"/>
<path d="M82.7048 4.20752V6.60437C82.7048 35.7264 69.5649 59.3358 53.3587 59.3358C37.1526 59.3358 24.0127 35.7266 24.0127 6.60437V4.20752H82.7048Z" fill="#E8A615"/>
<path d="M24.2838 13.7953H21.8881C21.7682 12.2192 21.6904 10.6193 21.6484 9.00122H24.0442C24.0862 10.6191 24.164 12.2192 24.2838 13.7953Z" fill="#B7791D"/>
<path d="M38.0035 51.546H35.6077C34.272 50.0718 33.0022 48.4059 31.8223 46.572C32.6489 46.6739 33.4813 46.7279 34.332 46.7458C35.482 48.5137 36.7098 50.1197 38.0035 51.546Z" fill="#B7791D"/>
<path d="M62.942 56.4595V57.6579C59.9356 59.5216 56.7135 60.5342 53.3597 60.5342C50.0059 60.5342 46.7837 59.5216 43.7773 57.6579V56.4595C46.7837 58.3231 50.0059 59.3357 53.3597 59.3357C56.7135 59.3357 59.9356 58.3231 62.942 56.4595Z" fill="#B7791D"/>
<path d="M82.7059 4.20752V6.60437C82.7059 34.8157 70.3744 57.8558 54.8691 59.27C69.9374 57.8378 75.5191 34.8039 75.5191 6.60437V4.20752H82.7059Z" fill="#B7791D"/>
<path d="M85.7006 3.60837C85.7006 4.43537 85.3652 5.18434 84.8261 5.72956C84.2811 6.26887 83.5326 6.60444 82.706 6.60444H24.0141C22.3612 6.60444 21.0195 5.26217 21.0195 3.60837C21.0195 2.78137 21.3549 2.0324 21.894 1.48719C22.439 0.947872 23.1875 0.612305 24.0141 0.612305H82.7062C84.3591 0.612305 85.7006 1.95458 85.7006 3.60837Z" fill="#E8A615"/>
<path d="M82.7048 6.60425C82.7048 7.40721 82.6928 8.20426 82.6748 9.0011H24.0426C24.0247 8.20405 24.0127 7.40721 24.0127 6.60425H82.7048Z" fill="#B7791D"/>
<path d="M85.7005 3.60862C85.7005 4.43569 85.3652 5.18472 84.826 5.72998C84.281 6.26934 83.5324 6.60493 82.7057 6.60493H76.1172C76.9438 6.60493 77.6924 6.26934 78.2375 5.72998C78.7766 5.18472 79.112 4.43548 79.112 3.60862C79.112 1.95469 77.7705 0.612305 76.1172 0.612305H82.7057C84.359 0.612305 85.7005 1.95469 85.7005 3.60862Z" fill="#B7791D"/>
<path d="M67.7328 89.2963V97.6853C67.7328 98.3444 67.1936 98.8837 66.535 98.8837H42.7588C47.5978 98.7877 63.5406 97.7572 63.5406 88.0977H66.5352C67.1939 88.0979 67.7328 88.6372 67.7328 89.2963Z" fill="#B7791D"/>
<path d="M40.1846 94.6898V89.787C40.1846 89.5162 40.4039 89.2969 40.6745 89.2969H51.414C51.414 89.2969 42.8797 90.1958 40.1846 94.6898Z" fill="#FFCC66"/>
<path d="M34.3438 89.8966V84.9938C34.3438 84.723 34.5631 84.5037 34.8337 84.5037H45.5731C45.5731 84.5037 37.0386 85.4024 34.3438 89.8966Z" fill="#4E5868"/>
<path d="M53.3587 57.538C46.8546 57.538 28.8158 43.8099 26.6299 11.3979H33.7447C35.5354 51.0544 53.3587 57.538 53.3587 57.538Z" fill="#FFCC66"/>
<path d="M40.7822 80.908C40.7822 80.908 49.1668 75.5151 49.1668 67.7251V80.908H40.7822Z" fill="#FFCC66"/>
<path d="M25.2116 1.81055V3.60834H22.2168C22.2168 2.61948 23.0194 1.81055 24.0137 1.81055H25.2116Z" fill="#FFCC66"/>
<path d="M84.4728 9.00122C84.4308 10.6193 84.353 12.2192 84.2272 13.7953H79.1123L79.7114 9.00122H84.4728Z" fill="#B7791D"/>
<path d="M74.2559 46.6443C73.082 48.448 71.8302 50.0901 70.5124 51.5464H67.7334L69.8537 49.3651L72.3872 46.7464C73.0162 46.7341 73.6391 46.6983 74.2559 46.6443Z" fill="#B7791D"/>
<path d="M15.3777 136.028V125.303H19.808C20.611 125.303 21.304 125.448 21.887 125.737C22.4735 126.024 22.9256 126.436 23.2433 126.973C23.561 127.507 23.7199 128.141 23.7199 128.874C23.7199 129.618 23.5575 130.25 23.2328 130.77C22.9082 131.287 22.4473 131.681 21.8503 131.953C21.2533 132.222 20.5464 132.357 19.7294 132.357H16.9277V130.314H19.2476C19.6387 130.314 19.9651 130.264 20.2269 130.162C20.4923 130.058 20.693 129.901 20.8292 129.691C20.9653 129.478 21.0334 129.206 21.0334 128.874C21.0334 128.542 20.9653 128.268 20.8292 128.052C20.693 127.832 20.4923 127.668 20.2269 127.56C19.9616 127.448 19.6352 127.392 19.2476 127.392H17.9699V136.028H15.3777ZM21.4157 131.126L24.0864 136.028H21.2586L18.6402 131.126H21.4157ZM32.1642 130.44L29.8129 130.503C29.7884 130.335 29.7221 130.187 29.6139 130.058C29.5056 129.925 29.3642 129.822 29.1897 129.749C29.0186 129.672 28.8196 129.633 28.5927 129.633C28.2959 129.633 28.0428 129.693 27.8334 129.812C27.6274 129.93 27.5261 130.091 27.5296 130.293C27.5261 130.45 27.589 130.587 27.7182 130.702C27.8508 130.817 28.0865 130.909 28.4251 130.979L29.9752 131.273C30.7782 131.426 31.3752 131.681 31.7662 132.037C32.1607 132.393 32.3597 132.865 32.3632 133.451C32.3597 134.003 32.1956 134.483 31.8709 134.891C31.5497 135.3 31.1098 135.617 30.5513 135.844C29.9927 136.068 29.3538 136.179 28.6346 136.179C27.486 136.179 26.58 135.944 25.9167 135.472C25.2569 134.998 24.8798 134.362 24.7855 133.566L27.3149 133.503C27.3708 133.797 27.5157 134.02 27.7496 134.174C27.9835 134.327 28.282 134.404 28.6451 134.404C28.9732 134.404 29.2403 134.343 29.4463 134.221C29.6523 134.099 29.757 133.936 29.7605 133.734C29.757 133.552 29.6767 133.407 29.5196 133.299C29.3625 133.188 29.1164 133.1 28.7812 133.037L27.3778 132.77C26.5713 132.624 25.9708 132.353 25.5763 131.959C25.1818 131.561 24.9863 131.054 24.9898 130.44C24.9863 129.902 25.1294 129.443 25.4192 129.063C25.709 128.679 26.1209 128.385 26.6551 128.183C27.1892 127.98 27.8194 127.879 28.5456 127.879C29.6348 127.879 30.4937 128.108 31.1221 128.565C31.7505 129.019 32.0979 129.644 32.1642 130.44ZM35.0641 136.179C34.687 136.179 34.3641 136.047 34.0953 135.781C33.8299 135.516 33.699 135.195 33.7025 134.818C33.699 134.448 33.8299 134.132 34.0953 133.87C34.3641 133.605 34.687 133.472 35.0641 133.472C35.4202 133.472 35.7344 133.605 36.0067 133.87C36.2825 134.132 36.4221 134.448 36.4256 134.818C36.4221 135.069 36.3558 135.298 36.2266 135.504C36.1009 135.71 35.9351 135.874 35.7291 135.996C35.5266 136.118 35.305 136.179 35.0641 136.179ZM45.5468 125.303V136.028H42.9598V127.722H42.897L40.4985 129.188V126.947L43.1431 125.303H45.5468ZM52.3533 136.289C51.4177 136.289 50.6112 136.068 49.9339 135.624C49.2566 135.177 48.7347 134.537 48.3681 133.702C48.0016 132.865 47.82 131.857 47.8235 130.681C47.827 129.504 48.0103 128.506 48.3734 127.685C48.7399 126.861 49.2601 126.235 49.9339 125.805C50.6112 125.372 51.4177 125.156 52.3533 125.156C53.289 125.156 54.0954 125.372 54.7727 125.805C55.4535 126.235 55.9772 126.861 56.3438 127.685C56.7103 128.509 56.8919 129.508 56.8884 130.681C56.8884 131.861 56.7051 132.87 56.3385 133.708C55.972 134.546 55.45 135.186 54.7727 135.63C54.0989 136.069 53.2925 136.289 52.3533 136.289ZM52.3533 134.169C52.9119 134.169 53.364 133.884 53.7097 133.315C54.0553 132.742 54.2264 131.864 54.2229 130.681C54.2229 129.906 54.1443 129.267 53.9872 128.764C53.8301 128.258 53.6119 127.881 53.3326 127.633C53.0533 127.385 52.7269 127.261 52.3533 127.261C51.7982 127.261 51.3496 127.542 51.0075 128.104C50.6653 128.663 50.4925 129.522 50.489 130.681C50.4855 131.466 50.5606 132.117 50.7142 132.634C50.8713 133.151 51.0913 133.537 51.374 133.791C51.6568 134.043 51.9833 134.169 52.3533 134.169ZM60.5463 134.561L60.4992 135.143C60.4573 135.624 60.3717 136.094 60.2426 136.551C60.1169 137.012 59.9825 137.426 59.8393 137.792C59.6962 138.159 59.5827 138.443 59.4989 138.646H57.886C57.9419 138.443 58.0169 138.159 58.1112 137.792C58.2089 137.426 58.2997 137.012 58.3835 136.551C58.4673 136.09 58.5144 135.623 58.5249 135.148L58.5354 134.561H60.5463ZM66.4665 136.289C65.5308 136.289 64.7244 136.068 64.0471 135.624C63.3698 135.177 62.8479 134.537 62.4813 133.702C62.1147 132.865 61.9332 131.857 61.9367 130.681C61.9401 129.504 62.1234 128.506 62.4865 127.685C62.8531 126.861 63.3733 126.235 64.0471 125.805C64.7244 125.372 65.5308 125.156 66.4665 125.156C67.4021 125.156 68.2086 125.372 68.8859 125.805C69.5667 126.235 70.0903 126.861 70.4569 127.685C70.8235 128.509 71.005 129.508 71.0015 130.681C71.0015 131.861 70.8183 132.87 70.4517 133.708C70.0851 134.546 69.5632 135.186 68.8859 135.63C68.2121 136.069 67.4056 136.289 66.4665 136.289ZM66.4665 134.169C67.0251 134.169 67.4772 133.884 67.8228 133.315C68.1684 132.742 68.3395 131.864 68.336 130.681C68.336 129.906 68.2575 129.267 68.1004 128.764C67.9433 128.258 67.7251 127.881 67.4458 127.633C67.1665 127.385 66.84 127.261 66.4665 127.261C65.9114 127.261 65.4628 127.542 65.1206 128.104C64.7785 128.663 64.6057 129.522 64.6022 130.681C64.5987 131.466 64.6738 132.117 64.8274 132.634C64.9845 133.151 65.2044 133.537 65.4872 133.791C65.77 134.043 66.0964 134.169 66.4665 134.169ZM76.9217 136.289C75.9861 136.289 75.1796 136.068 74.5023 135.624C73.825 135.177 73.3031 134.537 72.9365 133.702C72.57 132.865 72.3884 131.857 72.3919 130.681C72.3954 129.504 72.5787 128.506 72.9418 127.685C73.3084 126.861 73.8285 126.235 74.5023 125.805C75.1796 125.372 75.9861 125.156 76.9217 125.156C77.8574 125.156 78.6638 125.372 79.3411 125.805C80.0219 126.235 80.5456 126.861 80.9122 127.685C81.2787 128.509 81.4603 129.508 81.4568 130.681C81.4568 131.861 81.2735 132.87 80.9069 133.708C80.5404 134.546 80.0184 135.186 79.3411 135.63C78.6673 136.069 77.8609 136.289 76.9217 136.289ZM76.9217 134.169C77.4803 134.169 77.9324 133.884 78.2781 133.315C78.6237 132.742 78.7948 131.864 78.7913 130.681C78.7913 129.906 78.7127 129.267 78.5556 128.764C78.3985 128.258 78.1803 127.881 77.901 127.633C77.6217 127.385 77.2953 127.261 76.9217 127.261C76.3666 127.261 75.918 127.542 75.5759 128.104C75.2337 128.663 75.0609 129.522 75.0574 130.681C75.0539 131.466 75.129 132.117 75.2826 132.634C75.4397 133.151 75.6597 133.537 75.9425 133.791C76.2252 134.043 76.5517 134.169 76.9217 134.169ZM87.377 136.289C86.4414 136.289 85.6349 136.068 84.9576 135.624C84.2803 135.177 83.7584 134.537 83.3918 133.702C83.0252 132.865 82.8437 131.857 82.8472 130.681C82.8507 129.504 83.0339 128.506 83.397 127.685C83.7636 126.861 84.2838 126.235 84.9576 125.805C85.6349 125.372 86.4414 125.156 87.377 125.156C88.3126 125.156 89.1191 125.372 89.7964 125.805C90.4772 126.235 91.0009 126.861 91.3674 127.685C91.734 128.509 91.9155 129.508 91.9121 130.681C91.9121 131.861 91.7288 132.87 91.3622 133.708C90.9956 134.546 90.4737 135.186 89.7964 135.63C89.1226 136.069 88.3161 136.289 87.377 136.289ZM87.377 134.169C87.9356 134.169 88.3877 133.884 88.7333 133.315C89.0789 132.742 89.25 131.864 89.2465 130.681C89.2465 129.906 89.168 129.267 89.0109 128.764C88.8538 128.258 88.6356 127.881 88.3563 127.633C88.077 127.385 87.7505 127.261 87.377 127.261C86.8219 127.261 86.3733 127.542 86.0311 128.104C85.689 128.663 85.5162 129.522 85.5127 130.681C85.5092 131.466 85.5843 132.117 85.7379 132.634C85.895 133.151 86.1149 133.537 86.3977 133.791C86.6805 134.043 87.0069 134.169 87.377 134.169Z" fill="#FFB800"/>
</g>
<defs>
<filter id="filter0_d_138_1204" x="0.848633" y="0.612305" width="105.022" height="146.034" filterUnits="userSpaceOnUse" color-interpolation-filters="sRGB">
<feFlood flood-opacity="0" result="BackgroundImageFix"/>
<feColorMatrix in="SourceAlpha" type="matrix" values="0 0 0 0 0 0 0 0 0 0 0 0 0 0 0 0 0 0 127 0" result="hardAlpha"/>
<feOffset dy="4"/>
<feGaussianBlur stdDeviation="2"/>
<feComposite in2="hardAlpha" operator="out"/>
<feColorMatrix type="matrix" values="0 0 0 0 0 0 0 0 0 0 0 0 0 0 0 0 0 0 0.25 0"/>
<feBlend mode="normal" in2="BackgroundImageFix" result="effect1_dropShadow_138_1204"/>
<feBlend mode="normal" in="SourceGraphic" in2="effect1_dropShadow_138_1204" result="shape"/>
</filter>
</defs>
</svg>
