<svg width="726" height="132" viewBox="0 0 726 132" fill="none" xmlns="http://www.w3.org/2000/svg">
<g filter="url(#filter0_d_138_1520)">
<path d="M56.7898 82H46.9278L45.7464 71.3162H46.3114C47.9551 79.0209 51.5506 80.5618 54.7352 80.5104C57.3548 80.5104 59.5635 78.3531 59.5635 75.2712C59.5635 71.9839 55.5057 69.6725 53.6052 68.1316C51.756 66.5906 50.3692 65.4092 49.4446 64.5874C46.8251 62.1733 45.5923 59.0914 45.5409 56.1123C45.4382 49.5376 50.3692 45.9421 56.6357 46.0448C59.3066 46.0962 60.6935 46.6098 62.9535 47.9967C64.3404 48.8699 64.9054 45.9934 64.9054 45.9934H65.2136L65.7786 55.9068H65.419C63.9808 49.6917 60.5394 47.4317 57.7657 47.483C55.4543 47.5857 53.6052 49.2294 53.6052 51.5922C53.6052 54.8795 57.7657 57.0882 59.7176 58.5264C61.2585 59.6051 62.594 60.6323 63.724 61.6083C66.8572 64.4333 68.3982 67.8747 68.4495 71.0593C68.6036 76.8635 64.2376 82 56.7898 82ZM97.9376 54.7768V73.8844C97.9376 76.3499 98.0403 79.8427 101.276 78.2504V79.2263L90.3356 82.0514L88.8974 81.2809V76.8635C87.9215 77.9422 86.8429 78.8668 85.7128 79.6372C83.8637 80.9727 81.6037 82 79.6004 82C76.3131 82 73.9503 79.2777 73.9503 76.4526L73.899 62.9951C73.899 61.146 73.5394 59.8619 72.769 59.2455C72.0499 58.6291 71.2794 58.3209 70.5089 58.3209L70.5603 57.91L82.1687 54.2631L82.8878 54.7768V73.8844C82.8878 76.1444 83.6582 77.2745 85.1992 77.2745C86.3806 77.2745 87.6133 76.4526 88.9488 74.8603V62.9951C88.9488 61.146 88.5379 59.8619 87.8188 59.2455C87.0483 58.6291 86.2778 58.3209 85.5074 58.3209L85.5587 57.91L97.1671 54.2631L97.9376 54.7768ZM129.791 60.6837C131.537 65.4092 131.383 71.3162 129.072 75.7335C125.63 82 120.802 82 112.995 82C108.372 82 103.698 79.4831 103.287 73.7817C103.03 70.5457 104.879 65.4092 110.17 65.4092C114.176 65.4092 117.104 68.6452 115.152 73.0626C112.943 70.6484 107.858 72.0866 107.858 76.0417C107.858 79.6372 111.094 80.7673 113.816 80.7673C119.98 80.7673 121.932 76.0417 121.932 71.008C121.932 68.0802 121.162 61.4028 120.288 59.9646C118.593 57.6018 115.871 58.5264 114.176 61.2487V65.1011C111.967 63.4574 107.653 63.7656 105.187 65.6661V51.1299C105.187 49.2808 104.828 47.9967 104.109 47.3803C103.338 46.7639 102.568 46.5071 101.797 46.5071L101.849 46.0448L113.457 42.3979L114.176 42.9116V59.2455C116.59 56.2664 118.902 54.2631 122.394 54.2631C125.938 54.2631 128.455 56.9855 129.791 60.6837ZM175.746 60.9405V76.4013C175.746 78.9181 175.489 80.7673 178.16 81.2809V82H164.445V81.3323C166.962 80.9213 166.757 79.0209 166.757 76.4526V64.0224C166.757 62.5328 166.551 61.4542 166.14 60.7351C165.73 59.9646 165.165 59.6051 164.394 59.6051C163.47 59.6051 162.237 60.1701 160.644 61.3001V76.4013C160.644 78.9181 160.388 80.7673 163.059 81.2809V82H149.344V81.3323C151.861 80.9213 151.656 79.0209 151.656 76.4526V64.0224C151.656 62.5328 151.45 61.4542 151.039 60.7351C150.628 59.9646 150.063 59.6051 149.293 59.6051C148.368 59.6051 147.033 60.2214 145.338 61.4542V76.3499C145.338 78.5586 145.03 80.87 147.598 81.3323V82H133.164V81.3836C135.63 80.8186 136.349 79.3804 136.349 76.1444V62.9951C136.349 61.146 135.989 59.8619 135.219 59.2455C134.5 58.6291 133.729 58.3209 132.959 58.3209L133.01 57.91L144.619 54.2631L145.338 54.7768V59.451C148.625 56.1636 151.399 54.1604 154.789 54.1604C157.768 54.1604 159.925 56.4205 160.49 59.3996C163.726 56.1636 166.5 54.1604 169.89 54.1604C173.383 54.1604 175.746 57.2936 175.746 60.9405ZM186.655 53.8522C183.162 53.8522 181.108 51.284 181.005 48.1508C181.005 44.9662 183.265 42.5007 186.552 42.5007C189.994 42.5007 192.151 45.1716 192.151 48.2535C192.151 51.5408 189.942 53.8522 186.655 53.8522ZM191.894 54.7768V74.5008C191.894 79.3804 193.178 80.7673 195.336 81.2295V82H179.207V81.2295C181.108 81.0241 182.957 78.8154 182.905 74.5008V62.9951C182.905 61.146 182.494 59.8619 181.775 59.2455C181.005 58.6291 180.234 58.3209 179.464 58.3209L179.515 57.91L191.124 54.2631L191.894 54.7768ZM213.324 75.7849L214.146 76.4526C214.146 76.4526 213.17 78.1477 212.194 79.1236C210.14 81.1782 207.828 82 204.849 82C202.641 82 200.946 81.3836 199.713 80.0995C198.531 78.8154 197.915 77.2231 197.915 75.3226V56.2664H195.347V55.4445L205.877 47.0207H206.904V54.3145H213.53L213.273 56.2664H206.904V75.3226C206.904 76.6581 207.109 77.6854 207.52 78.3531C207.931 79.0209 208.496 79.3804 209.113 79.3804C209.832 79.3804 210.602 79.0209 211.373 78.3531C212.143 77.6854 212.811 76.8122 213.324 75.7849ZM246.107 63.9197L240.354 53.3899C238.865 50.6163 236.707 46.6612 234.396 46.6612V46.0448H252.117V46.6612C249.908 46.918 249.189 48.8185 251.809 54.0063L256.74 63.8683L262.441 53.2872C264.804 48.9212 265.369 46.8666 262.595 46.6098V46.0448H270.3V46.6098C268.399 46.6098 266.345 50.1026 264.906 52.8249L259.154 63.6115C257.87 66.3852 256.945 68.337 256.894 71.8812L256.842 75.9903C256.791 81.2809 259.667 81.3836 259.667 81.3836V82H245.028V81.3323C245.028 81.3323 247.905 81.3836 248.162 76.9149C248.162 76.9149 248.264 74.6549 248.213 71.573C248.11 68.337 247.545 66.5393 246.107 63.9197ZM281.775 54.3145C289.223 54.3145 294.719 59.2455 294.719 68.9534C294.719 78.6099 287.836 82 281.108 82C274.019 82 267.342 79.1749 267.239 69.3643C267.188 61.0433 271.451 56.3691 277.512 54.8795C278.95 54.52 280.389 54.3145 281.775 54.3145ZM283.162 80.3563C287.271 80.3563 285.679 68.9534 284.857 66.0256C283.111 59.7591 281.313 55.9068 279.361 55.9068C274.841 55.9068 276.279 66.642 276.998 69.9293C277.718 73.0626 280.234 80.3563 283.162 80.3563ZM324.212 54.7768V73.8844C324.212 76.3499 324.315 79.8427 327.551 78.2504V79.2263L316.611 82.0514L315.172 81.2809V76.8635C314.196 77.9422 313.118 78.8668 311.988 79.6372C310.139 80.9727 307.879 82 305.875 82C302.588 82 300.225 79.2777 300.225 76.4526L300.174 62.9951C300.174 61.146 299.814 59.8619 299.044 59.2455C298.325 58.6291 297.554 58.3209 296.784 58.3209L296.835 57.91L308.444 54.2631L309.163 54.7768V73.8844C309.163 76.1444 309.933 77.2745 311.474 77.2745C312.655 77.2745 313.888 76.4526 315.224 74.8603V62.9951C315.224 61.146 314.813 59.8619 314.094 59.2455C313.323 58.6291 312.553 58.3209 311.782 58.3209L311.834 57.91L323.442 54.2631L324.212 54.7768ZM352.213 58.5778C352.316 62.0706 350.159 64.0224 349.183 65.4092C348.464 63.5088 347.642 60.8378 345.331 60.8378C344.457 60.8378 343.122 61.8651 342.505 62.8924L341.273 64.947V74.5008C341.273 79.3804 342.557 80.7673 344.714 81.2295V82H328.586V81.2295C330.486 81.0241 332.335 78.8154 332.335 74.5008L332.284 69.7239V62.9951C332.284 61.146 331.924 59.8619 331.154 59.2455C330.435 58.6291 329.664 58.3209 328.894 58.3209L328.945 57.91L340.554 54.2631L341.273 54.7768V62.2246L343.738 57.1909C344.406 55.9068 346.204 54.1604 347.899 54.1604C350.724 54.1604 352.162 57.0882 352.213 58.5778ZM398.389 48.0994C399.057 48.2535 399.879 47.8426 400.238 46.0448H400.598L400.752 57.5505H400.187C399.725 51.9517 395.667 47.6371 391.352 47.6371C384.11 47.6371 381.901 56.9855 381.901 64.5361C381.901 69.6211 383.237 75.7335 386.781 78.6099C388.27 79.8427 389.966 80.6132 391.815 80.6645C396.335 80.7159 400.444 77.634 401.625 71.6757L402.242 71.7785L400.084 82H388.27C377.843 82 371.937 75.0658 371.937 64.9983C371.937 54.2118 378.409 45.8394 388.938 46.0448C394.64 46.1475 394.948 47.2776 398.389 48.0994ZM430.794 77.6854C430.743 79.8941 432.027 81.2809 433.414 81.2295V82H420.111V81.2809C421.6 81.2809 422.114 78.9695 422.268 76.504C422.473 72.6517 422.371 66.7447 422.268 62.841C422.216 60.6323 420.83 58.9887 418.929 58.9887C418.005 58.9887 417.08 59.3482 416.155 60.0673V76.3499C416.155 78.4558 416.515 81.1268 418.467 81.2809V82H404.701V81.3323C406.242 81.4864 407.167 80.3563 407.167 76.3499V51.1299C407.167 49.2294 406.807 47.9967 406.037 47.3803C405.318 46.7639 404.547 46.4557 403.777 46.4557L403.828 46.0448L415.436 42.3979L416.155 42.9116V58.4237C418.107 56.5232 421.857 54.3145 424.631 54.3145C428.38 54.3145 430.743 57.9614 430.794 61.4542C430.897 66.6934 430.897 72.3948 430.794 77.6854ZM448.961 54.3145C456.409 54.3145 461.905 59.2455 461.905 68.9534C461.905 78.6099 455.022 82 448.293 82C441.205 82 434.527 79.1749 434.425 69.3643C434.373 61.0433 438.637 56.3691 444.698 54.8795C446.136 54.52 447.574 54.3145 448.961 54.3145ZM450.348 80.3563C454.457 80.3563 452.865 68.9534 452.043 66.0256C450.296 59.7591 448.499 55.9068 446.547 55.9068C442.027 55.9068 443.465 66.642 444.184 69.9293C444.903 73.0626 447.42 80.3563 450.348 80.3563ZM471.417 53.8522C467.924 53.8522 465.87 51.284 465.767 48.1508C465.767 44.9662 468.027 42.5007 471.315 42.5007C474.756 42.5007 476.913 45.1716 476.913 48.2535C476.913 51.5408 474.705 53.8522 471.417 53.8522ZM476.656 54.7768V74.5008C476.656 79.3804 477.941 80.7673 480.098 81.2295V82H463.969V81.2295C465.87 81.0241 467.719 78.8154 467.668 74.5008V62.9951C467.668 61.146 467.257 59.8619 466.538 59.2455C465.767 58.6291 464.997 58.3209 464.226 58.3209L464.278 57.91L475.886 54.2631L476.656 54.7768ZM504.25 74.5521L505.021 75.1171C504.045 77.0176 502.093 79.1749 500.295 80.2022C494.902 83.1814 488.122 82.4109 484.116 78.6099C481.804 76.1958 480.623 72.8571 480.623 69.4157C480.623 60.5296 486.735 54.3145 495.056 54.2631C499.73 54.2631 504.353 56.8314 504.764 62.4815C505.021 65.7688 503.172 70.8539 497.933 70.8539C493.875 70.8539 490.998 67.6693 492.95 63.2519C495.159 65.6661 500.193 64.1765 500.193 60.2214C500.193 57.2423 498.189 55.4959 495.827 55.5473C492.693 55.5986 489.868 59.6051 489.868 67.3611C489.868 73.5762 491.255 79.6886 496.34 79.8941C499.576 79.9968 502.196 77.7367 504.25 74.5521ZM528.436 74.0385L529.155 74.5521C527.357 77.5313 525.097 79.5859 521.913 80.305C520.937 80.6132 519.447 80.7159 518.368 80.7159C513.694 80.7159 510.304 78.3018 508.609 73.9871C505.322 65.3065 510.253 55.5473 519.498 55.5473C526.022 55.5473 528.641 60.9405 528.641 67.4125H515.954C515.543 71.2648 516.314 78.6613 521.245 78.8668C524.378 78.9695 526.792 76.6067 528.436 74.0385ZM518.42 56.6773C516.108 56.8827 516.108 63.6115 515.954 65.9229H521.142C520.988 61.711 521.142 56.5232 518.42 56.6773ZM545.694 65.1524C548.314 67.207 550.523 69.5698 550.523 73.7817C550.523 79.5345 546.414 82 542.202 82H533.161L532.802 74.1926H533.367C533.726 78.6099 537.219 81.0241 539.89 80.87C541.585 80.7673 542.921 79.6886 542.921 77.6854C542.921 75.4767 539.531 72.9085 538.247 71.8298C535.576 69.5698 533.059 66.7447 533.059 62.3787C533.059 56.8314 536.603 54.3145 541.791 54.3145C543.28 54.3145 544.564 54.3659 546.054 54.8281C548.16 55.4959 548.622 55.65 548.93 54.3145H549.239V62.9951H548.828C548.519 58.0641 545.746 55.3932 543.486 55.3418C541.893 55.2904 540.353 56.4205 540.558 58.6805C540.815 61.146 544.205 63.971 545.694 65.1524ZM571.777 82V81.3323C572.65 81.3323 575.115 80.7673 575.115 77.5313V50.5135C575.115 47.1748 572.804 46.7126 571.828 46.7126V46.0448H587.854V46.7126C586.929 46.6612 584.515 47.2776 584.515 50.5135V62.4815H595.096V50.5135C595.096 47.3803 592.579 46.7126 591.758 46.7126V46.0448H607.783V46.7126C606.551 46.7126 604.547 47.5344 604.547 50.5135V76.4526C604.547 79.9968 606.191 81.3323 607.783 81.3323V82H591.809V81.3323C592.682 81.3323 595.096 80.7159 595.096 77.5313V64.3306H584.515V77.5313C584.515 80.9213 586.878 81.3323 587.854 81.3323V82H571.777ZM630.663 74.0385L631.383 74.5521C629.585 77.5313 627.325 79.5859 624.14 80.305C623.164 80.6132 621.675 80.7159 620.596 80.7159C615.922 80.7159 612.532 78.3018 610.837 73.9871C607.549 65.3065 612.48 55.5473 621.726 55.5473C628.249 55.5473 630.869 60.9405 630.869 67.4125H618.182C617.771 71.2648 618.541 78.6613 623.472 78.8668C626.606 78.9695 629.02 76.6067 630.663 74.0385ZM620.647 56.6773C618.336 56.8827 618.336 63.6115 618.182 65.9229H623.37C623.216 61.711 623.37 56.5232 620.647 56.6773ZM658.143 58.5778C658.246 62.0706 656.089 64.0224 655.113 65.4092C654.394 63.5088 653.572 60.8378 651.261 60.8378C650.387 60.8378 649.052 61.8651 648.436 62.8924L647.203 64.947V74.5008C647.203 79.3804 648.487 80.7673 650.644 81.2295V82H634.516V81.2295C636.416 81.0241 638.265 78.8154 638.265 74.5008L638.214 69.7239V62.9951C638.214 61.146 637.854 59.8619 637.084 59.2455C636.365 58.6291 635.594 58.3209 634.824 58.3209L634.875 57.91L646.484 54.2631L647.203 54.7768V62.2246L649.668 57.1909C650.336 55.9068 652.134 54.1604 653.829 54.1604C656.654 54.1604 658.092 57.0882 658.143 58.5778ZM680.473 74.0385L681.192 74.5521C679.394 77.5313 677.134 79.5859 673.95 80.305C672.974 80.6132 671.484 80.7159 670.406 80.7159C665.731 80.7159 662.341 78.3018 660.646 73.9871C657.359 65.3065 662.29 55.5473 671.536 55.5473C678.059 55.5473 680.678 60.9405 680.678 67.4125H667.991C667.581 71.2648 668.351 78.6613 673.282 78.8668C676.415 78.9695 678.829 76.6067 680.473 74.0385ZM670.457 56.6773C668.146 56.8827 668.146 63.6115 667.991 65.9229H673.179C673.025 61.711 673.179 56.5232 670.457 56.6773Z" fill="white"/>
</g>
<defs>
<filter id="filter0_d_138_1520" x="0.815521" y="0.985278" width="725" height="130.029" filterUnits="userSpaceOnUse" color-interpolation-filters="sRGB">
<feFlood flood-opacity="0" result="BackgroundImageFix"/>
<feColorMatrix in="SourceAlpha" type="matrix" values="0 0 0 0 0 0 0 0 0 0 0 0 0 0 0 0 0 0 127 0" result="hardAlpha"/>
<feOffset dy="3.21028"/>
<feGaussianBlur stdDeviation="22.3115"/>
<feComposite in2="hardAlpha" operator="out"/>
<feColorMatrix type="matrix" values="0 0 0 0 1 0 0 0 0 1 0 0 0 0 1 0 0 0 0.64 0"/>
<feBlend mode="normal" in2="BackgroundImageFix" result="effect1_dropShadow_138_1520"/>
<feBlend mode="normal" in="SourceGraphic" in2="effect1_dropShadow_138_1520" result="shape"/>
</filter>
</defs>
</svg>
