<svg width="522" height="192" viewBox="0 0 522 192" fill="none" xmlns="http://www.w3.org/2000/svg">
<g filter="url(#filter0_b_1088_1144)">
<path d="M0 13C0 5.82029 5.8203 0 13 0H509C516.18 0 522 5.8203 522 13V179C522 186.18 516.18 192 509 192H13C5.82029 192 0 186.18 0 179V13Z" fill="url(#paint0_radial_1088_1144)" fill-opacity="0.6"/>
<path d="M0.5 13C0.5 6.09644 6.09644 0.5 13 0.5H509C515.904 0.5 521.5 6.09644 521.5 13V179C521.5 185.904 515.904 191.5 509 191.5H13C6.09643 191.5 0.5 185.904 0.5 179V13Z" stroke="url(#paint1_linear_1088_1144)"/>
</g>
<rect x="57" y="22" width="157" height="65" rx="12" fill="#363636"/>
<path d="M67.5581 66.574C68.3874 66.574 68.9925 66.7366 69.3734 67.0618C69.7573 67.3842 69.9492 67.8472 69.9492 68.4508C69.9492 68.7233 69.9038 68.9826 69.8129 69.2288C69.725 69.472 69.5814 69.6874 69.3822 69.8749C69.1829 70.0595 68.9207 70.206 68.5954 70.3144C68.2731 70.4199 67.8775 70.4727 67.4087 70.4727H66.6263V73H65.8791V66.574H67.5581ZM67.4878 67.2113H66.6263V69.8309H67.3252C67.7354 69.8309 68.0768 69.787 68.3493 69.6991C68.6247 69.6112 68.8313 69.469 68.969 69.2727C69.1067 69.0735 69.1756 68.8097 69.1756 68.4816C69.1756 68.0537 69.0393 67.7358 68.7668 67.5278C68.4943 67.3168 68.068 67.2113 67.4878 67.2113ZM73.3732 68.0948C73.4699 68.0948 73.571 68.1006 73.6765 68.1123C73.782 68.1211 73.8757 68.1343 73.9578 68.1519L73.8655 68.8288C73.7864 68.8083 73.6984 68.7922 73.6017 68.7804C73.505 68.7687 73.4142 68.7629 73.3292 68.7629C73.1358 68.7629 72.9527 68.8024 72.7798 68.8815C72.6099 68.9577 72.4604 69.0691 72.3315 69.2156C72.2026 69.3592 72.1015 69.5335 72.0282 69.7386C71.9549 69.9408 71.9183 70.1664 71.9183 70.4155V73H71.1843V68.1827H71.7909L71.87 69.0705H71.9007C72.0004 68.8918 72.1205 68.7292 72.2612 68.5826C72.4018 68.4332 72.5644 68.3145 72.749 68.2266C72.9366 68.1387 73.1446 68.0948 73.3732 68.0948ZM76.7225 68.0948C77.1327 68.0948 77.4843 68.1856 77.7774 68.3673C78.0704 68.549 78.2945 68.8039 78.4498 69.1321C78.6051 69.4573 78.6828 69.8383 78.6828 70.2749V70.7276H75.3555C75.3643 71.2931 75.5049 71.7239 75.7775 72.0198C76.05 72.3158 76.4338 72.4638 76.929 72.4638C77.2338 72.4638 77.5034 72.4359 77.7378 72.3803C77.9722 72.3246 78.2154 72.2425 78.4674 72.1341V72.7758C78.2242 72.8843 77.9825 72.9634 77.7422 73.0132C77.5048 73.063 77.2235 73.0879 76.8983 73.0879C76.4353 73.0879 76.0309 72.9941 75.6852 72.8066C75.3423 72.6161 75.0757 72.3378 74.8852 71.9715C74.6947 71.6052 74.5995 71.1569 74.5995 70.6265C74.5995 70.1078 74.6859 69.6595 74.8588 69.2815C75.0346 68.9006 75.2808 68.6076 75.5972 68.4024C75.9166 68.1973 76.2917 68.0948 76.7225 68.0948ZM76.7137 68.6925C76.3239 68.6925 76.0133 68.82 75.7819 69.0749C75.5504 69.3299 75.4126 69.6859 75.3687 70.143H77.918C77.9151 69.8558 77.8697 69.6038 77.7817 69.387C77.6968 69.1672 77.5664 68.9973 77.3906 68.8771C77.2147 68.7541 76.9891 68.6925 76.7137 68.6925ZM80.9816 73L79.1531 68.1827H79.9355L80.9948 71.0968C81.068 71.2961 81.1427 71.5158 81.2189 71.7561C81.2951 71.9964 81.3479 72.1898 81.3772 72.3363H81.4079C81.4431 72.1898 81.5017 71.9964 81.5837 71.7561C81.6658 71.5129 81.7405 71.2931 81.8079 71.0968L82.8672 68.1827H83.6496L81.8167 73H80.9816ZM85.1528 68.1827V73H84.4232V68.1827H85.1528ZM84.7968 66.3806C84.9169 66.3806 85.0195 66.4201 85.1044 66.4992C85.1923 66.5754 85.2363 66.6956 85.2363 66.8597C85.2363 67.0208 85.1923 67.141 85.1044 67.2201C85.0195 67.2992 84.9169 67.3388 84.7968 67.3388C84.6708 67.3388 84.5653 67.2992 84.4803 67.2201C84.3983 67.141 84.3572 67.0208 84.3572 66.8597C84.3572 66.6956 84.3983 66.5754 84.4803 66.4992C84.5653 66.4201 84.6708 66.3806 84.7968 66.3806ZM90.8536 70.5825C90.8536 70.9781 90.8023 71.3312 90.6998 71.6418C90.5972 71.9524 90.4492 72.2147 90.2558 72.4286C90.0624 72.6425 89.828 72.8066 89.5526 72.9209C89.2801 73.0322 88.9709 73.0879 88.6251 73.0879C88.3028 73.0879 88.0069 73.0322 87.7373 72.9209C87.4706 72.8066 87.2391 72.6425 87.0428 72.4286C86.8494 72.2147 86.6985 71.9524 86.5901 71.6418C86.4846 71.3312 86.4318 70.9781 86.4318 70.5825C86.4318 70.0551 86.5212 69.6068 86.7 69.2376C86.8787 68.8654 87.1336 68.5826 87.4648 68.3893C87.7988 68.1929 88.1959 68.0948 88.6559 68.0948C89.0954 68.0948 89.4793 68.1929 89.8075 68.3893C90.1386 68.5856 90.395 68.8698 90.5767 69.242C90.7613 69.6112 90.8536 70.058 90.8536 70.5825ZM87.1879 70.5825C87.1879 70.9693 87.2391 71.3049 87.3417 71.5891C87.4442 71.8733 87.6025 72.0931 87.8164 72.2484C88.0303 72.4037 88.3057 72.4813 88.6427 72.4813C88.9768 72.4813 89.2507 72.4037 89.4647 72.2484C89.6815 72.0931 89.8412 71.8733 89.9438 71.5891C90.0463 71.3049 90.0976 70.9693 90.0976 70.5825C90.0976 70.1987 90.0463 69.8676 89.9438 69.5892C89.8412 69.3079 89.683 69.091 89.4691 68.9387C89.2551 68.7863 88.9782 68.7101 88.6383 68.7101C88.1373 68.7101 87.7695 68.8757 87.5351 69.2068C87.3036 69.5379 87.1879 69.9965 87.1879 70.5825ZM96.0929 68.1827V73H95.4951L95.3896 72.3231H95.3501C95.2504 72.4901 95.1215 72.6308 94.9633 72.7451C94.805 72.8593 94.6263 72.9443 94.427 73C94.2307 73.0586 94.0212 73.0879 93.7985 73.0879C93.4176 73.0879 93.0982 73.0264 92.8403 72.9033C92.5824 72.7802 92.3876 72.5898 92.2557 72.3319C92.1268 72.074 92.0623 71.7429 92.0623 71.3385V68.1827H92.8007V71.2858C92.8007 71.6872 92.8916 71.9876 93.0733 72.1869C93.2549 72.3832 93.5318 72.4813 93.904 72.4813C94.2615 72.4813 94.5457 72.414 94.7567 72.2792C94.9706 72.1444 95.1244 71.9466 95.2182 71.6858C95.312 71.4221 95.3589 71.0997 95.3589 70.7188V68.1827H96.0929ZM100.752 71.6814C100.752 71.9891 100.674 72.2484 100.519 72.4594C100.367 72.6674 100.147 72.8242 99.8597 72.9297C99.5755 73.0352 99.2356 73.0879 98.84 73.0879C98.503 73.0879 98.2115 73.0615 97.9653 73.0088C97.7192 72.956 97.5038 72.8813 97.3192 72.7846V72.1121C97.5155 72.2088 97.7499 72.2967 98.0225 72.3759C98.295 72.455 98.5733 72.4945 98.8576 72.4945C99.2737 72.4945 99.5755 72.4271 99.763 72.2923C99.9506 72.1576 100.044 71.9744 100.044 71.7429C100.044 71.6111 100.006 71.4953 99.93 71.3957C99.8568 71.2931 99.7323 71.195 99.5564 71.1012C99.3806 71.0045 99.1374 70.899 98.8268 70.7847C98.5191 70.6675 98.2525 70.5518 98.0268 70.4375C97.8041 70.3203 97.6313 70.1782 97.5082 70.0111C97.3881 69.8441 97.328 69.6273 97.328 69.3606C97.328 68.9533 97.4921 68.6413 97.8203 68.4244C98.1514 68.2046 98.5851 68.0948 99.1213 68.0948C99.4114 68.0948 99.6824 68.1241 99.9344 68.1827C100.189 68.2383 100.427 68.3145 100.646 68.4112L100.4 68.9958C100.201 68.9108 99.9886 68.839 99.763 68.7804C99.5374 68.7218 99.3074 68.6925 99.0729 68.6925C98.736 68.6925 98.4766 68.7482 98.295 68.8596C98.1162 68.9709 98.0268 69.1233 98.0268 69.3167C98.0268 69.4661 98.0679 69.5892 98.1499 69.6859C98.2349 69.7826 98.3697 69.8734 98.5543 69.9584C98.7389 70.0434 98.9821 70.143 99.2839 70.2573C99.5857 70.3686 99.8465 70.4844 100.066 70.6045C100.286 70.7217 100.455 70.8653 100.572 71.0353C100.692 71.2023 100.752 71.4177 100.752 71.6814ZM106.11 66.574C106.637 66.574 107.073 66.6399 107.415 66.7718C107.761 66.9007 108.019 67.0985 108.189 67.3651C108.359 67.6318 108.444 67.9717 108.444 68.3849C108.444 68.7248 108.382 69.009 108.259 69.2376C108.136 69.4632 107.975 69.6463 107.776 69.787C107.577 69.9276 107.364 70.0361 107.138 70.1122L108.901 73H108.031L106.457 70.3188H105.121V73H104.374V66.574H106.11ZM106.066 67.2201H105.121V69.6859H106.141C106.665 69.6859 107.051 69.5789 107.297 69.365C107.546 69.1511 107.67 68.8361 107.67 68.42C107.67 67.9834 107.538 67.6743 107.275 67.4926C107.014 67.3109 106.611 67.2201 106.066 67.2201ZM111.674 68.0948C112.085 68.0948 112.436 68.1856 112.729 68.3673C113.022 68.549 113.247 68.8039 113.402 69.1321C113.557 69.4573 113.635 69.8383 113.635 70.2749V70.7276H110.308C110.316 71.2931 110.457 71.7239 110.729 72.0198C111.002 72.3158 111.386 72.4638 111.881 72.4638C112.186 72.4638 112.455 72.4359 112.69 72.3803C112.924 72.3246 113.167 72.2425 113.419 72.1341V72.7758C113.176 72.8843 112.934 72.9634 112.694 73.0132C112.457 73.063 112.176 73.0879 111.85 73.0879C111.387 73.0879 110.983 72.9941 110.637 72.8066C110.294 72.6161 110.028 72.3378 109.837 71.9715C109.647 71.6052 109.552 71.1569 109.552 70.6265C109.552 70.1078 109.638 69.6595 109.811 69.2815C109.987 68.9006 110.233 68.6076 110.549 68.4024C110.869 68.1973 111.244 68.0948 111.674 68.0948ZM111.666 68.6925C111.276 68.6925 110.965 68.82 110.734 69.0749C110.502 69.3299 110.365 69.6859 110.321 70.143H112.87C112.867 69.8558 112.822 69.6038 112.734 69.387C112.649 69.1672 112.518 68.9973 112.343 68.8771C112.167 68.7541 111.941 68.6925 111.666 68.6925ZM116.219 75.1625C115.586 75.1625 115.098 75.0438 114.756 74.8065C114.413 74.5721 114.241 74.2424 114.241 73.8175C114.241 73.5157 114.337 73.2579 114.527 73.044C114.72 72.83 114.987 72.6879 115.327 72.6176C115.201 72.559 115.093 72.4711 115.002 72.3539C114.914 72.2367 114.87 72.1019 114.87 71.9495C114.87 71.7737 114.918 71.6199 115.015 71.488C115.115 71.3532 115.266 71.2243 115.468 71.1012C115.216 70.9986 115.011 70.8258 114.852 70.5825C114.697 70.3364 114.619 70.0507 114.619 69.7254C114.619 69.3797 114.691 69.0852 114.835 68.842C114.978 68.5958 115.186 68.4083 115.459 68.2794C115.731 68.1504 116.061 68.086 116.448 68.086C116.533 68.086 116.618 68.0904 116.703 68.0992C116.791 68.105 116.874 68.1153 116.953 68.1299C117.032 68.1416 117.101 68.1563 117.16 68.1739H118.813V68.6442L117.925 68.7541C118.013 68.8683 118.086 69.0061 118.144 69.1672C118.203 69.3284 118.232 69.5071 118.232 69.7035C118.232 70.184 118.07 70.5664 117.744 70.8507C117.419 71.132 116.972 71.2726 116.404 71.2726C116.269 71.2726 116.131 71.2609 115.991 71.2375C115.847 71.3166 115.737 71.4045 115.661 71.5012C115.588 71.5979 115.551 71.7092 115.551 71.8352C115.551 71.929 115.579 72.0037 115.635 72.0594C115.693 72.1151 115.777 72.1561 115.885 72.1825C115.994 72.2059 116.124 72.2176 116.276 72.2176H117.125C117.649 72.2176 118.051 72.3275 118.329 72.5473C118.61 72.767 118.751 73.0879 118.751 73.5099C118.751 74.0432 118.534 74.4519 118.101 74.7362C117.667 75.0204 117.04 75.1625 116.219 75.1625ZM116.241 74.5911C116.64 74.5911 116.969 74.5501 117.23 74.4681C117.494 74.3889 117.69 74.2732 117.819 74.1208C117.951 73.9714 118.017 73.7926 118.017 73.5846C118.017 73.3912 117.973 73.2447 117.885 73.145C117.797 73.0483 117.668 72.9839 117.498 72.9517C117.328 72.9165 117.12 72.8989 116.874 72.8989H116.039C115.822 72.8989 115.633 72.9326 115.472 73C115.311 73.0674 115.186 73.167 115.098 73.2989C115.014 73.4307 114.971 73.5948 114.971 73.7912C114.971 74.052 115.081 74.2498 115.301 74.3845C115.52 74.5223 115.834 74.5911 116.241 74.5911ZM116.43 70.7408C116.779 70.7408 117.041 70.6529 117.217 70.4771C117.393 70.3012 117.481 70.0448 117.481 69.7079C117.481 69.3474 117.391 69.0779 117.213 68.8991C117.034 68.7174 116.77 68.6266 116.421 68.6266C116.087 68.6266 115.83 68.7204 115.648 68.9079C115.469 69.0925 115.38 69.3636 115.38 69.7211C115.38 70.0492 115.471 70.3012 115.652 70.4771C115.834 70.6529 116.093 70.7408 116.43 70.7408ZM120.492 68.1827V73H119.762V68.1827H120.492ZM120.136 66.3806C120.256 66.3806 120.358 66.4201 120.443 66.4992C120.531 66.5754 120.575 66.6956 120.575 66.8597C120.575 67.0208 120.531 67.141 120.443 67.2201C120.358 67.2992 120.256 67.3388 120.136 67.3388C120.01 67.3388 119.904 67.2992 119.819 67.2201C119.737 67.141 119.696 67.0208 119.696 66.8597C119.696 66.6956 119.737 66.5754 119.819 66.4992C119.904 66.4201 120.01 66.3806 120.136 66.3806ZM125.155 71.6814C125.155 71.9891 125.077 72.2484 124.922 72.4594C124.77 72.6674 124.55 72.8242 124.263 72.9297C123.979 73.0352 123.639 73.0879 123.243 73.0879C122.906 73.0879 122.615 73.0615 122.368 73.0088C122.122 72.956 121.907 72.8813 121.722 72.7846V72.1121C121.919 72.2088 122.153 72.2967 122.426 72.3759C122.698 72.455 122.976 72.4945 123.261 72.4945C123.677 72.4945 123.979 72.4271 124.166 72.2923C124.354 72.1576 124.447 71.9744 124.447 71.7429C124.447 71.6111 124.409 71.4953 124.333 71.3957C124.26 71.2931 124.135 71.195 123.96 71.1012C123.784 71.0045 123.541 70.899 123.23 70.7847C122.922 70.6675 122.656 70.5518 122.43 70.4375C122.207 70.3203 122.034 70.1782 121.911 70.0111C121.791 69.8441 121.731 69.6273 121.731 69.3606C121.731 68.9533 121.895 68.6413 122.223 68.4244C122.554 68.2046 122.988 68.0948 123.524 68.0948C123.815 68.0948 124.086 68.1241 124.338 68.1827C124.592 68.2383 124.83 68.3145 125.05 68.4112L124.803 68.9958C124.604 68.9108 124.392 68.839 124.166 68.7804C123.941 68.7218 123.71 68.6925 123.476 68.6925C123.139 68.6925 122.88 68.7482 122.698 68.8596C122.519 68.9709 122.43 69.1233 122.43 69.3167C122.43 69.4661 122.471 69.5892 122.553 69.6859C122.638 69.7826 122.773 69.8734 122.957 69.9584C123.142 70.0434 123.385 70.143 123.687 70.2573C123.989 70.3686 124.25 70.4844 124.469 70.6045C124.689 70.7217 124.858 70.8653 124.975 71.0353C125.095 71.2023 125.155 71.4177 125.155 71.6814ZM127.885 72.4901C128.005 72.4901 128.128 72.4799 128.254 72.4594C128.38 72.4389 128.482 72.414 128.562 72.3846V72.9517C128.477 72.9897 128.358 73.022 128.205 73.0483C128.056 73.0747 127.91 73.0879 127.766 73.0879C127.511 73.0879 127.28 73.044 127.071 72.956C126.863 72.8652 126.696 72.7128 126.57 72.4989C126.447 72.285 126.386 71.9891 126.386 71.6111V68.7541H125.7V68.398L126.39 68.1123L126.68 67.0662H127.12V68.1827H128.531V68.7541H127.12V71.5891C127.12 71.8909 127.189 72.1165 127.326 72.266C127.467 72.4154 127.653 72.4901 127.885 72.4901ZM131.726 68.0948C131.823 68.0948 131.924 68.1006 132.029 68.1123C132.135 68.1211 132.229 68.1343 132.311 68.1519L132.218 68.8288C132.139 68.8083 132.051 68.7922 131.955 68.7804C131.858 68.7687 131.767 68.7629 131.682 68.7629C131.489 68.7629 131.306 68.8024 131.133 68.8815C130.963 68.9577 130.813 69.0691 130.684 69.2156C130.556 69.3592 130.454 69.5335 130.381 69.7386C130.308 69.9408 130.271 70.1664 130.271 70.4155V73H129.537V68.1827H130.144L130.223 69.0705H130.254C130.353 68.8918 130.473 68.7292 130.614 68.5826C130.755 68.4332 130.917 68.3145 131.102 68.2266C131.29 68.1387 131.498 68.0948 131.726 68.0948ZM135.023 68.1036C135.597 68.1036 136.023 68.2325 136.302 68.4903C136.58 68.7482 136.719 69.1599 136.719 69.7254V73H136.187L136.047 72.2879H136.012C135.877 72.4638 135.736 72.6117 135.59 72.7319C135.443 72.8491 135.273 72.9385 135.08 73C134.889 73.0586 134.655 73.0879 134.377 73.0879C134.084 73.0879 133.823 73.0366 133.594 72.9341C133.369 72.8315 133.19 72.6762 133.058 72.4682C132.929 72.2601 132.865 71.9964 132.865 71.677C132.865 71.1964 133.055 70.8272 133.436 70.5694C133.817 70.3115 134.397 70.1708 135.177 70.1474L136.007 70.1122V69.8177C136.007 69.4017 135.918 69.1101 135.739 68.9431C135.56 68.776 135.308 68.6925 134.983 68.6925C134.731 68.6925 134.491 68.7292 134.262 68.8024C134.034 68.8757 133.817 68.9621 133.612 69.0617L133.388 68.5079C133.604 68.3966 133.854 68.3013 134.135 68.2222C134.416 68.1431 134.712 68.1036 135.023 68.1036ZM135.998 70.6265L135.264 70.6573C134.664 70.6807 134.24 70.7789 133.994 70.9518C133.748 71.1246 133.625 71.3693 133.625 71.6858C133.625 71.9612 133.708 72.1649 133.876 72.2967C134.043 72.4286 134.264 72.4945 134.539 72.4945C134.967 72.4945 135.317 72.3759 135.59 72.1385C135.862 71.9012 135.998 71.5451 135.998 71.0704V70.6265ZM139.779 72.4901C139.899 72.4901 140.022 72.4799 140.148 72.4594C140.274 72.4389 140.376 72.414 140.455 72.3846V72.9517C140.37 72.9897 140.252 73.022 140.099 73.0483C139.95 73.0747 139.803 73.0879 139.66 73.0879C139.405 73.0879 139.173 73.044 138.965 72.956C138.757 72.8652 138.59 72.7128 138.464 72.4989C138.341 72.285 138.28 71.9891 138.28 71.6111V68.7541H137.594V68.398L138.284 68.1123L138.574 67.0662H139.014V68.1827H140.425V68.7541H139.014V71.5891C139.014 71.8909 139.083 72.1165 139.22 72.266C139.361 72.4154 139.547 72.4901 139.779 72.4901ZM142.161 68.1827V73H141.431V68.1827H142.161ZM141.805 66.3806C141.925 66.3806 142.027 66.4201 142.112 66.4992C142.2 66.5754 142.244 66.6956 142.244 66.8597C142.244 67.0208 142.2 67.141 142.112 67.2201C142.027 67.2992 141.925 67.3388 141.805 67.3388C141.679 67.3388 141.573 67.2992 141.488 67.2201C141.406 67.141 141.365 67.0208 141.365 66.8597C141.365 66.6956 141.406 66.5754 141.488 66.4992C141.573 66.4201 141.679 66.3806 141.805 66.3806ZM147.862 70.5825C147.862 70.9781 147.81 71.3312 147.708 71.6418C147.605 71.9524 147.457 72.2147 147.264 72.4286C147.07 72.6425 146.836 72.8066 146.561 72.9209C146.288 73.0322 145.979 73.0879 145.633 73.0879C145.311 73.0879 145.015 73.0322 144.745 72.9209C144.479 72.8066 144.247 72.6425 144.051 72.4286C143.857 72.2147 143.707 71.9524 143.598 71.6418C143.493 71.3312 143.44 70.9781 143.44 70.5825C143.44 70.0551 143.529 69.6068 143.708 69.2376C143.887 68.8654 144.142 68.5826 144.473 68.3893C144.807 68.1929 145.204 68.0948 145.664 68.0948C146.103 68.0948 146.487 68.1929 146.816 68.3893C147.147 68.5856 147.403 68.8698 147.585 69.242C147.769 69.6112 147.862 70.058 147.862 70.5825ZM144.196 70.5825C144.196 70.9693 144.247 71.3049 144.35 71.5891C144.452 71.8733 144.61 72.0931 144.824 72.2484C145.038 72.4037 145.314 72.4813 145.651 72.4813C145.985 72.4813 146.259 72.4037 146.473 72.2484C146.69 72.0931 146.849 71.8733 146.952 71.5891C147.054 71.3049 147.106 70.9693 147.106 70.5825C147.106 70.1987 147.054 69.8676 146.952 69.5892C146.849 69.3079 146.691 69.091 146.477 68.9387C146.263 68.7863 145.986 68.7101 145.646 68.7101C145.145 68.7101 144.778 68.8757 144.543 69.2068C144.312 69.5379 144.196 69.9965 144.196 70.5825ZM151.404 68.0948C151.976 68.0948 152.408 68.2354 152.701 68.5167C152.994 68.7951 153.14 69.2434 153.14 69.8617V73H152.42V69.9101C152.42 69.5086 152.327 69.2083 152.143 69.009C151.961 68.8097 151.681 68.7101 151.303 68.7101C150.77 68.7101 150.395 68.861 150.178 69.1628C149.961 69.4647 149.853 69.9027 149.853 70.4771V73H149.123V68.1827H149.712L149.822 68.8771H149.861C149.964 68.7072 150.094 68.5651 150.253 68.4508C150.411 68.3336 150.588 68.2457 150.785 68.1871C150.981 68.1255 151.187 68.0948 151.404 68.0948ZM157.76 71.6814C157.76 71.9891 157.682 72.2484 157.527 72.4594C157.375 72.6674 157.155 72.8242 156.868 72.9297C156.583 73.0352 156.244 73.0879 155.848 73.0879C155.511 73.0879 155.219 73.0615 154.973 73.0088C154.727 72.956 154.512 72.8813 154.327 72.7846V72.1121C154.524 72.2088 154.758 72.2967 155.03 72.3759C155.303 72.455 155.581 72.4945 155.866 72.4945C156.282 72.4945 156.583 72.4271 156.771 72.2923C156.959 72.1576 157.052 71.9744 157.052 71.7429C157.052 71.6111 157.014 71.4953 156.938 71.3957C156.865 71.2931 156.74 71.195 156.564 71.1012C156.389 71.0045 156.145 70.899 155.835 70.7847C155.527 70.6675 155.26 70.5518 155.035 70.4375C154.812 70.3203 154.639 70.1782 154.516 70.0111C154.396 69.8441 154.336 69.6273 154.336 69.3606C154.336 68.9533 154.5 68.6413 154.828 68.4244C155.159 68.2046 155.593 68.0948 156.129 68.0948C156.419 68.0948 156.69 68.1241 156.942 68.1827C157.197 68.2383 157.435 68.3145 157.654 68.4112L157.408 68.9958C157.209 68.9108 156.997 68.839 156.771 68.7804C156.545 68.7218 156.315 68.6925 156.081 68.6925C155.744 68.6925 155.485 68.7482 155.303 68.8596C155.124 68.9709 155.035 69.1233 155.035 69.3167C155.035 69.4661 155.076 69.5892 155.158 69.6859C155.243 69.7826 155.378 69.8734 155.562 69.9584C155.747 70.0434 155.99 70.143 156.292 70.2573C156.594 70.3686 156.855 70.4844 157.074 70.6045C157.294 70.7217 157.463 70.8653 157.58 71.0353C157.7 71.2023 157.76 71.4177 157.76 71.6814Z" fill="#B7B7B7"/>
<rect x="307" y="22" width="157" height="65" rx="12" fill="#363636"/>
<rect x="57" y="103" width="157" height="65" rx="12" fill="#363636"/>
<rect x="307" y="105" width="157" height="65" rx="12" fill="#363636"/>
<path d="M319.626 147.141C319.272 147.141 318.952 147.203 318.668 147.326C318.387 147.446 318.146 147.622 317.947 147.853C317.751 148.082 317.6 148.358 317.494 148.684C317.389 149.009 317.336 149.375 317.336 149.783C317.336 150.322 317.42 150.791 317.587 151.189C317.757 151.585 318.009 151.891 318.343 152.108C318.68 152.325 319.1 152.433 319.604 152.433C319.891 152.433 320.161 152.41 320.413 152.363C320.668 152.313 320.915 152.251 321.156 152.178V152.829C320.921 152.916 320.675 152.981 320.417 153.022C320.159 153.066 319.853 153.088 319.499 153.088C318.845 153.088 318.299 152.953 317.859 152.684C317.423 152.411 317.094 152.027 316.875 151.532C316.658 151.037 316.549 150.452 316.549 149.778C316.549 149.292 316.617 148.848 316.752 148.446C316.889 148.042 317.089 147.693 317.349 147.4C317.613 147.107 317.935 146.882 318.316 146.723C318.7 146.562 319.14 146.482 319.635 146.482C319.96 146.482 320.274 146.514 320.576 146.578C320.877 146.643 321.15 146.735 321.393 146.855L321.094 147.488C320.889 147.394 320.663 147.314 320.417 147.246C320.174 147.176 319.91 147.141 319.626 147.141ZM324.628 148.095C324.725 148.095 324.826 148.101 324.931 148.112C325.037 148.121 325.131 148.134 325.213 148.152L325.12 148.829C325.041 148.808 324.953 148.792 324.857 148.78C324.76 148.769 324.669 148.763 324.584 148.763C324.391 148.763 324.208 148.802 324.035 148.882C323.865 148.958 323.715 149.069 323.586 149.216C323.457 149.359 323.356 149.534 323.283 149.739C323.21 149.941 323.173 150.166 323.173 150.416V153H322.439V148.183H323.046L323.125 149.071H323.156C323.255 148.892 323.375 148.729 323.516 148.583C323.657 148.433 323.819 148.315 324.004 148.227C324.192 148.139 324.4 148.095 324.628 148.095ZM327.977 148.095C328.388 148.095 328.739 148.186 329.032 148.367C329.325 148.549 329.549 148.804 329.705 149.132C329.86 149.457 329.938 149.838 329.938 150.275V150.728H326.61C326.619 151.293 326.76 151.724 327.032 152.02C327.305 152.316 327.689 152.464 328.184 152.464C328.489 152.464 328.758 152.436 328.993 152.38C329.227 152.325 329.47 152.243 329.722 152.134V152.776C329.479 152.884 329.237 152.963 328.997 153.013C328.76 153.063 328.478 153.088 328.153 153.088C327.69 153.088 327.286 152.994 326.94 152.807C326.597 152.616 326.331 152.338 326.14 151.971C325.95 151.605 325.854 151.157 325.854 150.626C325.854 150.108 325.941 149.66 326.114 149.282C326.29 148.901 326.536 148.608 326.852 148.402C327.172 148.197 327.547 148.095 327.977 148.095ZM327.969 148.693C327.579 148.693 327.268 148.82 327.037 149.075C326.805 149.33 326.668 149.686 326.624 150.143H329.173C329.17 149.856 329.125 149.604 329.037 149.387C328.952 149.167 328.821 148.997 328.645 148.877C328.47 148.754 328.244 148.693 327.969 148.693ZM335.098 152.991L334.241 150.187C334.203 150.067 334.166 149.95 334.131 149.835C334.099 149.718 334.068 149.607 334.039 149.501C334.012 149.393 333.987 149.293 333.964 149.202C333.943 149.109 333.926 149.028 333.911 148.961H333.88C333.869 149.028 333.853 149.109 333.832 149.202C333.812 149.293 333.787 149.393 333.757 149.501C333.731 149.61 333.702 149.724 333.669 149.844C333.637 149.961 333.601 150.08 333.56 150.2L332.663 152.991H331.841L330.514 148.174H331.27L331.964 150.833C332.011 151.009 332.055 151.183 332.096 151.356C332.14 151.526 332.176 151.687 332.206 151.84C332.238 151.989 332.261 152.119 332.276 152.231H332.311C332.329 152.158 332.348 152.07 332.368 151.967C332.392 151.865 332.417 151.756 332.443 151.642C332.472 151.525 332.503 151.409 332.535 151.295C332.568 151.177 332.6 151.068 332.632 150.965L333.52 148.174H334.307L335.164 150.961C335.208 151.101 335.25 151.248 335.291 151.4C335.335 151.552 335.375 151.7 335.41 151.844C335.445 151.985 335.47 152.111 335.485 152.222H335.52C335.532 152.122 335.554 151.999 335.586 151.853C335.618 151.706 335.655 151.545 335.696 151.369C335.74 151.194 335.785 151.015 335.832 150.833L336.535 148.174H337.278L335.946 152.991H335.098ZM343.432 153L341.273 147.312H341.238C341.25 147.433 341.26 147.579 341.269 147.752C341.278 147.925 341.285 148.114 341.291 148.319C341.297 148.521 341.3 148.728 341.3 148.939V153H340.605V146.574H341.713L343.748 151.919H343.779L345.845 146.574H346.943V153H346.205V148.886C346.205 148.695 346.208 148.505 346.214 148.315C346.22 148.121 346.227 147.939 346.236 147.77C346.245 147.597 346.253 147.447 346.262 147.321H346.227L344.042 153H343.432ZM350.447 148.095C350.857 148.095 351.208 148.186 351.501 148.367C351.794 148.549 352.019 148.804 352.174 149.132C352.329 149.457 352.407 149.838 352.407 150.275V150.728H349.08C349.088 151.293 349.229 151.724 349.502 152.02C349.774 152.316 350.158 152.464 350.653 152.464C350.958 152.464 351.227 152.436 351.462 152.38C351.696 152.325 351.94 152.243 352.192 152.134V152.776C351.948 152.884 351.707 152.963 351.466 153.013C351.229 153.063 350.948 153.088 350.622 153.088C350.159 153.088 349.755 152.994 349.409 152.807C349.066 152.616 348.8 152.338 348.609 151.971C348.419 151.605 348.324 151.157 348.324 150.626C348.324 150.108 348.41 149.66 348.583 149.282C348.759 148.901 349.005 148.608 349.321 148.402C349.641 148.197 350.016 148.095 350.447 148.095ZM350.438 148.693C350.048 148.693 349.737 148.82 349.506 149.075C349.274 149.33 349.137 149.686 349.093 150.143H351.642C351.639 149.856 351.594 149.604 351.506 149.387C351.421 149.167 351.29 148.997 351.115 148.877C350.939 148.754 350.713 148.693 350.438 148.693ZM358.877 148.095C359.407 148.095 359.807 148.234 360.077 148.512C360.346 148.788 360.481 149.232 360.481 149.844V153H359.76V149.879C359.76 149.49 359.675 149.198 359.505 149.005C359.338 148.808 359.089 148.71 358.758 148.71C358.292 148.71 357.954 148.845 357.743 149.114C357.532 149.384 357.426 149.781 357.426 150.306V153H356.701V149.879C356.701 149.618 356.663 149.402 356.587 149.229C356.514 149.056 356.402 148.927 356.253 148.842C356.106 148.754 355.92 148.71 355.695 148.71C355.375 148.71 355.119 148.776 354.925 148.908C354.732 149.04 354.591 149.236 354.503 149.497C354.419 149.755 354.376 150.073 354.376 150.451V153H353.646V148.183H354.235L354.345 148.864H354.385C354.482 148.697 354.603 148.556 354.75 148.442C354.896 148.328 355.06 148.241 355.242 148.183C355.424 148.124 355.617 148.095 355.822 148.095C356.188 148.095 356.495 148.164 356.741 148.301C356.99 148.436 357.17 148.643 357.281 148.921H357.321C357.479 148.643 357.696 148.436 357.971 148.301C358.247 148.164 358.549 148.095 358.877 148.095ZM362.71 146.161V147.871C362.71 148.067 362.704 148.257 362.692 148.442C362.683 148.627 362.676 148.77 362.67 148.873H362.71C362.842 148.656 363.032 148.473 363.281 148.323C363.53 148.174 363.848 148.099 364.235 148.099C364.838 148.099 365.319 148.309 365.677 148.728C366.037 149.144 366.217 149.764 366.217 150.587C366.217 151.129 366.135 151.586 365.971 151.958C365.807 152.33 365.575 152.612 365.277 152.802C364.978 152.993 364.625 153.088 364.217 153.088C363.836 153.088 363.523 153.018 363.277 152.877C363.033 152.733 362.846 152.559 362.714 152.354H362.657L362.507 153H361.98V146.161H362.71ZM364.116 148.71C363.767 148.71 363.491 148.779 363.285 148.917C363.08 149.051 362.932 149.257 362.842 149.532C362.754 149.805 362.71 150.15 362.71 150.569V150.609C362.71 151.215 362.811 151.68 363.013 152.002C363.215 152.322 363.583 152.481 364.116 152.481C364.564 152.481 364.9 152.317 365.123 151.989C365.348 151.661 365.461 151.192 365.461 150.583C365.461 149.961 365.35 149.494 365.127 149.18C364.907 148.867 364.57 148.71 364.116 148.71ZM369.347 148.095C369.757 148.095 370.109 148.186 370.402 148.367C370.695 148.549 370.919 148.804 371.074 149.132C371.229 149.457 371.307 149.838 371.307 150.275V150.728H367.98C367.988 151.293 368.129 151.724 368.402 152.02C368.674 152.316 369.058 152.464 369.553 152.464C369.858 152.464 370.128 152.436 370.362 152.38C370.596 152.325 370.84 152.243 371.092 152.134V152.776C370.848 152.884 370.607 152.963 370.366 153.013C370.129 153.063 369.848 153.088 369.522 153.088C369.059 153.088 368.655 152.994 368.309 152.807C367.967 152.616 367.7 152.338 367.509 151.971C367.319 151.605 367.224 151.157 367.224 150.626C367.224 150.108 367.31 149.66 367.483 149.282C367.659 148.901 367.905 148.608 368.221 148.402C368.541 148.197 368.916 148.095 369.347 148.095ZM369.338 148.693C368.948 148.693 368.638 148.82 368.406 149.075C368.175 149.33 368.037 149.686 367.993 150.143H370.542C370.539 149.856 370.494 149.604 370.406 149.387C370.321 149.167 370.191 148.997 370.015 148.877C369.839 148.754 369.613 148.693 369.338 148.693ZM374.735 148.095C374.832 148.095 374.933 148.101 375.039 148.112C375.144 148.121 375.238 148.134 375.32 148.152L375.228 148.829C375.149 148.808 375.061 148.792 374.964 148.78C374.867 148.769 374.776 148.763 374.691 148.763C374.498 148.763 374.315 148.802 374.142 148.882C373.972 148.958 373.823 149.069 373.694 149.216C373.565 149.359 373.464 149.534 373.39 149.739C373.317 149.941 373.281 150.166 373.281 150.416V153H372.546V148.183H373.153L373.232 149.071H373.263C373.363 148.892 373.483 148.729 373.623 148.583C373.764 148.433 373.927 148.315 374.111 148.227C374.299 148.139 374.507 148.095 374.735 148.095ZM379.346 151.681C379.346 151.989 379.268 152.248 379.113 152.459C378.961 152.667 378.741 152.824 378.454 152.93C378.17 153.035 377.83 153.088 377.434 153.088C377.097 153.088 376.806 153.062 376.559 153.009C376.313 152.956 376.098 152.881 375.913 152.785V152.112C376.11 152.209 376.344 152.297 376.617 152.376C376.889 152.455 377.167 152.495 377.452 152.495C377.868 152.495 378.17 152.427 378.357 152.292C378.545 152.158 378.638 151.974 378.638 151.743C378.638 151.611 378.6 151.495 378.524 151.396C378.451 151.293 378.326 151.195 378.151 151.101C377.975 151.004 377.732 150.899 377.421 150.785C377.113 150.668 376.847 150.552 376.621 150.437C376.398 150.32 376.225 150.178 376.102 150.011C375.982 149.844 375.922 149.627 375.922 149.361C375.922 148.953 376.086 148.641 376.414 148.424C376.746 148.205 377.179 148.095 377.715 148.095C378.006 148.095 378.277 148.124 378.529 148.183C378.784 148.238 379.021 148.315 379.241 148.411L378.995 148.996C378.795 148.911 378.583 148.839 378.357 148.78C378.132 148.722 377.902 148.693 377.667 148.693C377.33 148.693 377.071 148.748 376.889 148.86C376.71 148.971 376.621 149.123 376.621 149.317C376.621 149.466 376.662 149.589 376.744 149.686C376.829 149.783 376.964 149.873 377.148 149.958C377.333 150.043 377.576 150.143 377.878 150.257C378.18 150.369 378.441 150.484 378.66 150.605C378.88 150.722 379.049 150.865 379.166 151.035C379.286 151.202 379.346 151.418 379.346 151.681Z" fill="#B7B7B7"/>
<path d="M329.958 131.057H327.668V135H323.738V131.057H315.618V128.259L323.959 115.975H327.668V127.934H329.958V131.057ZM323.738 127.934V124.707C323.738 124.403 323.742 124.043 323.751 123.627C323.768 123.21 323.785 122.794 323.803 122.378C323.82 121.961 323.837 121.593 323.855 121.272C323.881 120.942 323.898 120.712 323.907 120.582H323.803C323.638 120.938 323.464 121.285 323.282 121.623C323.1 121.953 322.888 122.3 322.645 122.664L319.157 127.934H323.738ZM344.675 125.488C344.675 127.023 344.554 128.394 344.311 129.6C344.077 130.806 343.695 131.829 343.166 132.671C342.645 133.512 341.96 134.154 341.11 134.597C340.259 135.039 339.227 135.26 338.013 135.26C336.486 135.26 335.232 134.874 334.252 134.102C333.272 133.321 332.547 132.202 332.079 130.745C331.61 129.279 331.376 127.526 331.376 125.488C331.376 123.432 331.589 121.675 332.014 120.218C332.448 118.751 333.15 117.628 334.122 116.847C335.093 116.067 336.39 115.676 338.013 115.676C339.531 115.676 340.78 116.067 341.76 116.847C342.749 117.619 343.482 118.738 343.959 120.205C344.437 121.662 344.675 123.423 344.675 125.488ZM335.371 125.488C335.371 126.936 335.449 128.147 335.605 129.118C335.77 130.081 336.043 130.806 336.425 131.291C336.807 131.777 337.336 132.02 338.013 132.02C338.681 132.02 339.205 131.782 339.587 131.304C339.978 130.819 340.255 130.094 340.42 129.131C340.585 128.16 340.667 126.945 340.667 125.488C340.667 124.039 340.585 122.829 340.42 121.857C340.255 120.886 339.978 120.157 339.587 119.671C339.205 119.177 338.681 118.929 338.013 118.929C337.336 118.929 336.807 119.177 336.425 119.671C336.043 120.157 335.77 120.886 335.605 121.857C335.449 122.829 335.371 124.039 335.371 125.488ZM361.618 124.186H366.654V127.036H361.618V132.046H358.768V127.036H353.732V124.186H358.768V119.111H361.618V124.186Z" fill="white"/>
<path d="M79.4026 56H66.1034V53.2022L70.8792 48.3745C71.8421 47.3855 72.6142 46.5613 73.1955 45.902C73.7854 45.234 74.2105 44.6267 74.4707 44.0802C74.7397 43.5337 74.8741 42.9481 74.8741 42.3235C74.8741 41.5687 74.6616 41.0048 74.2365 40.6318C73.8201 40.2501 73.2605 40.0592 72.5578 40.0592C71.8204 40.0592 71.1047 40.2284 70.4107 40.5667C69.7167 40.9051 68.9923 41.3865 68.2375 42.0112L66.0514 39.4216C66.5979 38.9531 67.1748 38.5107 67.7821 38.0943C68.398 37.6779 69.1094 37.3439 69.9162 37.0923C70.7317 36.832 71.7077 36.7019 72.8441 36.7019C74.0933 36.7019 75.1647 36.9275 76.0583 37.3786C76.9605 37.8297 77.6545 38.4456 78.1404 39.2264C78.6262 39.9985 78.8691 40.8747 78.8691 41.855C78.8691 42.9047 78.6609 43.8633 78.2445 44.7308C77.828 45.5984 77.2208 46.4572 76.4227 47.3074C75.6332 48.1576 74.6789 49.0988 73.5598 50.1312L71.1134 52.4345V52.6167H79.4026V56ZM88.2774 43.846C89.4399 43.846 90.4722 44.0672 91.3745 44.5096C92.2854 44.9521 93.0011 45.6027 93.5216 46.4616C94.0421 47.3204 94.3023 48.3788 94.3023 49.6367C94.3023 51.0074 94.0161 52.1916 93.4435 53.1892C92.8796 54.1782 92.0338 54.9373 90.906 55.4665C89.7869 55.9957 88.3902 56.2603 86.7158 56.2603C85.7182 56.2603 84.7769 56.1735 83.892 56C83.0158 55.8352 82.2481 55.5793 81.5888 55.2322V51.7578C82.2481 52.1048 83.0375 52.3998 83.9571 52.6427C84.8854 52.8769 85.7572 52.994 86.5727 52.994C87.3708 52.994 88.0432 52.8899 88.5897 52.6817C89.1362 52.4648 89.5483 52.1352 89.8259 51.6927C90.1122 51.2416 90.2553 50.6691 90.2553 49.975C90.2553 49.0468 89.943 48.3354 89.3184 47.8409C88.6938 47.3464 87.7352 47.0992 86.4426 47.0992C85.9481 47.0992 85.4319 47.1469 84.894 47.2423C84.3648 47.3378 83.9224 47.4332 83.5667 47.5286L81.9661 46.6698L82.6818 36.9752H93.0011V40.3845H86.2083L85.857 44.1192C86.1519 44.0585 86.4729 43.9978 86.8199 43.9371C87.167 43.8763 87.6528 43.846 88.2774 43.846ZM109.801 46.4876C109.801 48.0231 109.679 49.3938 109.436 50.5997C109.202 51.8055 108.82 52.8292 108.291 53.6707C107.771 54.5122 107.085 55.1542 106.235 55.5966C105.385 56.039 104.353 56.2603 103.138 56.2603C101.611 56.2603 100.358 55.8742 99.3774 55.1021C98.3971 54.3213 97.6727 53.2022 97.2042 51.7448C96.7358 50.2787 96.5015 48.5263 96.5015 46.4876C96.5015 44.4315 96.7141 42.6748 97.1392 41.2174C97.5729 39.7512 98.2756 38.6278 99.2472 37.847C100.219 37.0663 101.516 36.6759 103.138 36.6759C104.656 36.6759 105.906 37.0663 106.886 37.847C107.875 38.6191 108.608 39.7382 109.085 41.2044C109.562 42.6618 109.801 44.4229 109.801 46.4876ZM100.496 46.4876C100.496 47.9364 100.575 49.1465 100.731 50.1182C100.896 51.0811 101.169 51.8055 101.551 52.2913C101.932 52.7771 102.461 53.0201 103.138 53.0201C103.806 53.0201 104.331 52.7815 104.713 52.3043C105.103 51.8185 105.381 51.0941 105.545 50.1312C105.71 49.1596 105.793 47.945 105.793 46.4876C105.793 45.0388 105.71 43.8286 105.545 42.857C105.381 41.8854 105.103 41.1566 104.713 40.6708C104.331 40.1763 103.806 39.9291 103.138 39.9291C102.461 39.9291 101.932 40.1763 101.551 40.6708C101.169 41.1566 100.896 41.8854 100.731 42.857C100.575 43.8286 100.496 45.0388 100.496 46.4876ZM126.743 45.1863H131.779V48.0361H126.743V53.0461H123.894V48.0361H118.858V45.1863H123.894V40.1113H126.743V45.1863Z" fill="white"/>
<path d="M72.9132 115.728C74.0063 115.728 75.0126 115.897 75.9321 116.236C76.8604 116.574 77.6021 117.086 78.1573 117.771C78.7125 118.448 78.9901 119.298 78.9901 120.322C78.9901 121.085 78.8383 121.753 78.5347 122.326C78.2397 122.898 77.8363 123.401 77.3245 123.835C76.8127 124.26 76.2314 124.633 75.5808 124.954C76.2574 125.31 76.8994 125.726 77.5067 126.203C78.1139 126.672 78.6084 127.223 78.9901 127.856C79.3805 128.489 79.5757 129.227 79.5757 130.068C79.5757 131.127 79.2937 132.046 78.7299 132.827C78.166 133.599 77.3852 134.198 76.3876 134.623C75.3899 135.048 74.2318 135.26 72.9132 135.26C71.4905 135.26 70.2803 135.056 69.2826 134.649C68.285 134.241 67.5259 133.66 67.0054 132.905C66.4849 132.142 66.2247 131.231 66.2247 130.172C66.2247 129.305 66.3851 128.55 66.7061 127.908C67.0358 127.266 67.4782 126.715 68.0334 126.255C68.5886 125.787 69.2002 125.388 69.8682 125.058C69.3043 124.703 68.7882 124.299 68.3197 123.848C67.8599 123.397 67.4912 122.881 67.2136 122.3C66.9447 121.718 66.8102 121.05 66.8102 120.296C66.8102 119.289 67.0922 118.448 67.6561 117.771C68.2286 117.095 68.979 116.587 69.9073 116.249C70.8355 115.902 71.8375 115.728 72.9132 115.728ZM69.9463 129.938C69.9463 130.623 70.1892 131.192 70.675 131.643C71.1695 132.085 71.8982 132.306 72.8611 132.306C73.8588 132.306 74.6048 132.094 75.0993 131.669C75.5938 131.235 75.841 130.667 75.841 129.964C75.841 129.478 75.6979 129.053 75.4116 128.689C75.134 128.324 74.7827 127.999 74.3576 127.713C73.9325 127.418 73.5031 127.145 73.0693 126.893L72.718 126.711C72.1628 126.962 71.677 127.244 71.2606 127.557C70.8528 127.869 70.5319 128.22 70.2976 128.611C70.0634 129.001 69.9463 129.444 69.9463 129.938ZM72.8872 118.669C72.2278 118.669 71.6813 118.838 71.2476 119.177C70.8138 119.515 70.5969 119.992 70.5969 120.608C70.5969 121.042 70.701 121.423 70.9092 121.753C71.1261 122.074 71.408 122.356 71.7551 122.599C72.1107 122.842 72.4968 123.067 72.9132 123.276C73.3122 123.085 73.6853 122.872 74.0323 122.638C74.3793 122.404 74.6612 122.122 74.8781 121.792C75.095 121.462 75.2034 121.068 75.2034 120.608C75.2034 119.992 74.9822 119.515 74.5398 119.177C74.106 118.838 73.5551 118.669 72.8872 118.669ZM96.4922 124.186H101.528V127.036H96.4922V132.046H93.6424V127.036H88.6065V124.186H93.6424V119.111H96.4922V124.186Z" fill="white"/>
<path d="M68.6262 147.141C68.2716 147.141 67.9522 147.203 67.668 147.326C67.3867 147.446 67.1464 147.622 66.9472 147.853C66.7508 148.082 66.5999 148.358 66.4944 148.684C66.3889 149.009 66.3362 149.375 66.3362 149.783C66.3362 150.322 66.4197 150.791 66.5867 151.189C66.7567 151.585 67.0087 151.891 67.3427 152.108C67.6797 152.325 68.1002 152.433 68.6042 152.433C68.8914 152.433 69.161 152.41 69.413 152.363C69.6679 152.313 69.9155 152.251 70.1558 152.178V152.829C69.9214 152.916 69.6752 152.981 69.4174 153.022C69.1595 153.066 68.8533 153.088 68.4987 153.088C67.8453 153.088 67.2988 152.953 66.8592 152.684C66.4226 152.411 66.0944 152.027 65.8747 151.532C65.6578 151.037 65.5494 150.452 65.5494 149.778C65.5494 149.292 65.6168 148.848 65.7516 148.446C65.8893 148.042 66.0886 147.693 66.3494 147.4C66.6131 147.107 66.9354 146.882 67.3164 146.723C67.7002 146.562 68.1398 146.482 68.635 146.482C68.9602 146.482 69.2738 146.514 69.5756 146.578C69.8774 146.643 70.1499 146.735 70.3931 146.855L70.0942 147.488C69.8891 147.394 69.6635 147.314 69.4174 147.246C69.1741 147.176 68.9104 147.141 68.6262 147.141ZM72.1733 153H71.4392V146.161H72.1733V153ZM77.6938 148.183V153H77.0961L76.9906 152.323H76.951C76.8514 152.49 76.7225 152.631 76.5642 152.745C76.406 152.859 76.2273 152.944 76.028 153C75.8317 153.059 75.6222 153.088 75.3995 153.088C75.0185 153.088 74.6991 153.026 74.4413 152.903C74.1834 152.78 73.9885 152.59 73.8567 152.332C73.7277 152.074 73.6633 151.743 73.6633 151.339V148.183H74.4017V151.286C74.4017 151.687 74.4925 151.988 74.6742 152.187C74.8559 152.383 75.1328 152.481 75.5049 152.481C75.8624 152.481 76.1467 152.414 76.3576 152.279C76.5716 152.144 76.7254 151.947 76.8192 151.686C76.9129 151.422 76.9598 151.1 76.9598 150.719V148.183H77.6938ZM79.9662 146.161V147.871C79.9662 148.067 79.9604 148.257 79.9487 148.442C79.9399 148.627 79.9326 148.77 79.9267 148.873H79.9662C80.0981 148.656 80.2886 148.473 80.5376 148.323C80.7867 148.174 81.1047 148.099 81.4914 148.099C82.0951 148.099 82.5756 148.309 82.9331 148.728C83.2935 149.144 83.4738 149.764 83.4738 150.587C83.4738 151.129 83.3917 151.586 83.2276 151.958C83.0635 152.33 82.832 152.612 82.5331 152.802C82.2343 152.993 81.8812 153.088 81.4739 153.088C81.0929 153.088 80.7794 153.018 80.5333 152.877C80.29 152.733 80.1025 152.559 79.9706 152.354H79.9135L79.7641 153H79.2366V146.161H79.9662ZM81.3728 148.71C81.0241 148.71 80.7472 148.779 80.542 148.917C80.3369 149.051 80.1889 149.257 80.0981 149.532C80.0102 149.805 79.9662 150.15 79.9662 150.569V150.609C79.9662 151.215 80.0673 151.68 80.2695 152.002C80.4717 152.322 80.8395 152.481 81.3728 152.481C81.8211 152.481 82.1566 152.317 82.3793 151.989C82.6049 151.661 82.7178 151.192 82.7178 150.583C82.7178 149.961 82.6064 149.494 82.3837 149.18C82.1639 148.867 81.827 148.71 81.3728 148.71ZM87.8647 151.681C87.8647 151.989 87.7871 152.248 87.6318 152.459C87.4794 152.667 87.2596 152.824 86.9725 152.93C86.6882 153.035 86.3483 153.088 85.9528 153.088C85.6158 153.088 85.3242 153.062 85.0781 153.009C84.8319 152.956 84.6166 152.881 84.432 152.785V152.112C84.6283 152.209 84.8627 152.297 85.1352 152.376C85.4077 152.455 85.6861 152.495 85.9703 152.495C86.3864 152.495 86.6882 152.427 86.8758 152.292C87.0633 152.158 87.1571 151.974 87.1571 151.743C87.1571 151.611 87.119 151.495 87.0428 151.396C86.9695 151.293 86.845 151.195 86.6692 151.101C86.4934 151.004 86.2502 150.899 85.9396 150.785C85.6319 150.668 85.3652 150.552 85.1396 150.437C84.9169 150.32 84.744 150.178 84.621 150.011C84.5008 149.844 84.4407 149.627 84.4407 149.361C84.4407 148.953 84.6048 148.641 84.933 148.424C85.2641 148.205 85.6978 148.095 86.2341 148.095C86.5241 148.095 86.7952 148.124 87.0472 148.183C87.3021 148.238 87.5395 148.315 87.7592 148.411L87.5131 148.996C87.3139 148.911 87.1014 148.839 86.8758 148.78C86.6501 148.722 86.4201 148.693 86.1857 148.693C85.8487 148.693 85.5894 148.748 85.4077 148.86C85.229 148.971 85.1396 149.123 85.1396 149.317C85.1396 149.466 85.1806 149.589 85.2627 149.686C85.3477 149.783 85.4824 149.873 85.6671 149.958C85.8517 150.043 86.0949 150.143 86.3967 150.257C86.6985 150.369 86.9593 150.484 87.1791 150.605C87.3988 150.722 87.5673 150.865 87.6845 151.035C87.8047 151.202 87.8647 151.418 87.8647 151.681ZM92.1063 148.183V153H91.3766V148.183H92.1063ZM91.7502 146.381C91.8704 146.381 91.9729 146.42 92.0579 146.499C92.1458 146.575 92.1898 146.696 92.1898 146.86C92.1898 147.021 92.1458 147.141 92.0579 147.22C91.9729 147.299 91.8704 147.339 91.7502 147.339C91.6242 147.339 91.5188 147.299 91.4338 147.22C91.3517 147.141 91.3107 147.021 91.3107 146.86C91.3107 146.696 91.3517 146.575 91.4338 146.499C91.5188 146.42 91.6242 146.381 91.7502 146.381ZM95.9346 148.095C96.506 148.095 96.9383 148.235 97.2313 148.517C97.5243 148.795 97.6708 149.243 97.6708 149.862V153H96.95V149.91C96.95 149.509 96.8577 149.208 96.6731 149.009C96.4914 148.81 96.2116 148.71 95.8336 148.71C95.3002 148.71 94.9252 148.861 94.7083 149.163C94.4915 149.465 94.3831 149.903 94.3831 150.477V153H93.6534V148.183H94.2424L94.3523 148.877H94.3919C94.4944 148.707 94.6248 148.565 94.7831 148.451C94.9413 148.334 95.1186 148.246 95.3149 148.187C95.5112 148.126 95.7178 148.095 95.9346 148.095ZM103.442 153.088C103.008 153.088 102.626 152.999 102.295 152.82C101.964 152.641 101.706 152.369 101.521 152.002C101.337 151.636 101.244 151.174 101.244 150.618C101.244 150.035 101.341 149.558 101.534 149.189C101.731 148.817 102 148.542 102.343 148.363C102.686 148.184 103.076 148.095 103.512 148.095C103.753 148.095 103.984 148.12 104.207 148.169C104.432 148.216 104.617 148.276 104.761 148.35L104.541 148.961C104.394 148.902 104.224 148.849 104.031 148.802C103.84 148.756 103.662 148.732 103.495 148.732C103.161 148.732 102.882 148.804 102.66 148.947C102.44 149.091 102.274 149.302 102.163 149.58C102.054 149.859 102 150.202 102 150.609C102 150.999 102.053 151.331 102.158 151.607C102.267 151.882 102.427 152.093 102.638 152.24C102.852 152.383 103.118 152.455 103.438 152.455C103.692 152.455 103.923 152.429 104.128 152.376C104.333 152.32 104.519 152.256 104.686 152.182V152.833C104.525 152.915 104.344 152.978 104.145 153.022C103.949 153.066 103.714 153.088 103.442 153.088ZM109.982 150.583C109.982 150.978 109.931 151.331 109.828 151.642C109.726 151.952 109.578 152.215 109.384 152.429C109.191 152.643 108.957 152.807 108.681 152.921C108.409 153.032 108.1 153.088 107.754 153.088C107.431 153.088 107.136 153.032 106.866 152.921C106.599 152.807 106.368 152.643 106.171 152.429C105.978 152.215 105.827 151.952 105.719 151.642C105.613 151.331 105.561 150.978 105.561 150.583C105.561 150.055 105.65 149.607 105.829 149.238C106.007 148.865 106.262 148.583 106.593 148.389C106.927 148.193 107.325 148.095 107.785 148.095C108.224 148.095 108.608 148.193 108.936 148.389C109.267 148.586 109.524 148.87 109.705 149.242C109.89 149.611 109.982 150.058 109.982 150.583ZM106.317 150.583C106.317 150.969 106.368 151.305 106.47 151.589C106.573 151.873 106.731 152.093 106.945 152.248C107.159 152.404 107.434 152.481 107.771 152.481C108.105 152.481 108.379 152.404 108.593 152.248C108.81 152.093 108.97 151.873 109.072 151.589C109.175 151.305 109.226 150.969 109.226 150.583C109.226 150.199 109.175 149.868 109.072 149.589C108.97 149.308 108.812 149.091 108.598 148.939C108.384 148.786 108.107 148.71 107.767 148.71C107.266 148.71 106.898 148.876 106.664 149.207C106.432 149.538 106.317 149.996 106.317 150.583ZM111.978 153H111.244V146.161H111.978V153ZM114.255 153H113.521V146.161H114.255V153ZM117.599 148.104C118.174 148.104 118.6 148.232 118.879 148.49C119.157 148.748 119.296 149.16 119.296 149.725V153H118.764L118.624 152.288H118.588C118.454 152.464 118.313 152.612 118.166 152.732C118.02 152.849 117.85 152.938 117.657 153C117.466 153.059 117.232 153.088 116.953 153.088C116.66 153.088 116.4 153.037 116.171 152.934C115.945 152.832 115.767 152.676 115.635 152.468C115.506 152.26 115.441 151.996 115.441 151.677C115.441 151.196 115.632 150.827 116.013 150.569C116.394 150.311 116.974 150.171 117.753 150.147L118.584 150.112V149.818C118.584 149.402 118.495 149.11 118.316 148.943C118.137 148.776 117.885 148.693 117.56 148.693C117.308 148.693 117.068 148.729 116.839 148.802C116.61 148.876 116.394 148.962 116.189 149.062L115.964 148.508C116.181 148.397 116.43 148.301 116.712 148.222C116.993 148.143 117.289 148.104 117.599 148.104ZM118.575 150.626L117.841 150.657C117.24 150.681 116.817 150.779 116.571 150.952C116.325 151.125 116.202 151.369 116.202 151.686C116.202 151.961 116.285 152.165 116.452 152.297C116.619 152.429 116.841 152.495 117.116 152.495C117.544 152.495 117.894 152.376 118.166 152.139C118.439 151.901 118.575 151.545 118.575 151.07V150.626ZM121.529 146.161V147.871C121.529 148.067 121.523 148.257 121.511 148.442C121.503 148.627 121.495 148.77 121.489 148.873H121.529C121.661 148.656 121.851 148.473 122.1 148.323C122.349 148.174 122.667 148.099 123.054 148.099C123.658 148.099 124.138 148.309 124.496 148.728C124.856 149.144 125.036 149.764 125.036 150.587C125.036 151.129 124.954 151.586 124.79 151.958C124.626 152.33 124.395 152.612 124.096 152.802C123.797 152.993 123.444 153.088 123.037 153.088C122.656 153.088 122.342 153.018 122.096 152.877C121.853 152.733 121.665 152.559 121.533 152.354H121.476L121.327 153H120.799V146.161H121.529ZM122.935 148.71C122.587 148.71 122.31 148.779 122.105 148.917C121.9 149.051 121.752 149.257 121.661 149.532C121.573 149.805 121.529 150.15 121.529 150.569V150.609C121.529 151.215 121.63 151.68 121.832 152.002C122.034 152.322 122.402 152.481 122.935 152.481C123.384 152.481 123.719 152.317 123.942 151.989C124.168 151.661 124.28 151.192 124.28 150.583C124.28 149.961 124.169 149.494 123.946 149.18C123.727 148.867 123.39 148.71 122.935 148.71ZM130.465 150.583C130.465 150.978 130.413 151.331 130.311 151.642C130.208 151.952 130.06 152.215 129.867 152.429C129.674 152.643 129.439 152.807 129.164 152.921C128.891 153.032 128.582 153.088 128.236 153.088C127.914 153.088 127.618 153.032 127.348 152.921C127.082 152.807 126.85 152.643 126.654 152.429C126.461 152.215 126.31 151.952 126.201 151.642C126.096 151.331 126.043 150.978 126.043 150.583C126.043 150.055 126.132 149.607 126.311 149.238C126.49 148.865 126.745 148.583 127.076 148.389C127.41 148.193 127.807 148.095 128.267 148.095C128.707 148.095 129.09 148.193 129.419 148.389C129.75 148.586 130.006 148.87 130.188 149.242C130.372 149.611 130.465 150.058 130.465 150.583ZM126.799 150.583C126.799 150.969 126.85 151.305 126.953 151.589C127.055 151.873 127.214 152.093 127.428 152.248C127.641 152.404 127.917 152.481 128.254 152.481C128.588 152.481 128.862 152.404 129.076 152.248C129.293 152.093 129.452 151.873 129.555 151.589C129.657 151.305 129.709 150.969 129.709 150.583C129.709 150.199 129.657 149.868 129.555 149.589C129.452 149.308 129.294 149.091 129.08 148.939C128.866 148.786 128.589 148.71 128.249 148.71C127.748 148.71 127.381 148.876 127.146 149.207C126.915 149.538 126.799 149.996 126.799 150.583ZM133.915 148.095C134.012 148.095 134.113 148.101 134.218 148.112C134.324 148.121 134.418 148.134 134.5 148.152L134.407 148.829C134.328 148.808 134.24 148.792 134.144 148.78C134.047 148.769 133.956 148.763 133.871 148.763C133.678 148.763 133.495 148.802 133.322 148.882C133.152 148.958 133.002 149.069 132.873 149.216C132.744 149.359 132.643 149.534 132.57 149.739C132.497 149.941 132.46 150.166 132.46 150.416V153H131.726V148.183H132.333L132.412 149.071H132.443C132.542 148.892 132.662 148.729 132.803 148.583C132.944 148.433 133.106 148.315 133.291 148.227C133.478 148.139 133.687 148.095 133.915 148.095ZM137.212 148.104C137.786 148.104 138.212 148.232 138.491 148.49C138.769 148.748 138.908 149.16 138.908 149.725V153H138.376L138.236 152.288H138.201C138.066 152.464 137.925 152.612 137.779 152.732C137.632 152.849 137.462 152.938 137.269 153C137.078 153.059 136.844 153.088 136.565 153.088C136.272 153.088 136.012 153.037 135.783 152.934C135.557 152.832 135.379 152.676 135.247 152.468C135.118 152.26 135.053 151.996 135.053 151.677C135.053 151.196 135.244 150.827 135.625 150.569C136.006 150.311 136.586 150.171 137.365 150.147L138.196 150.112V149.818C138.196 149.402 138.107 149.11 137.928 148.943C137.749 148.776 137.497 148.693 137.172 148.693C136.92 148.693 136.68 148.729 136.451 148.802C136.223 148.876 136.006 148.962 135.801 149.062L135.577 148.508C135.793 148.397 136.042 148.301 136.324 148.222C136.605 148.143 136.901 148.104 137.212 148.104ZM138.187 150.626L137.453 150.657C136.853 150.681 136.429 150.779 136.183 150.952C135.937 151.125 135.814 151.369 135.814 151.686C135.814 151.961 135.897 152.165 136.064 152.297C136.231 152.429 136.453 152.495 136.728 152.495C137.156 152.495 137.506 152.376 137.779 152.139C138.051 151.901 138.187 151.545 138.187 151.07V150.626ZM141.967 152.49C142.088 152.49 142.211 152.48 142.337 152.459C142.463 152.439 142.565 152.414 142.644 152.385V152.952C142.559 152.99 142.441 153.022 142.288 153.048C142.139 153.075 141.992 153.088 141.849 153.088C141.594 153.088 141.362 153.044 141.154 152.956C140.946 152.865 140.779 152.713 140.653 152.499C140.53 152.285 140.469 151.989 140.469 151.611V148.754H139.783V148.398L140.473 148.112L140.763 147.066H141.203V148.183H142.614V148.754H141.203V151.589C141.203 151.891 141.271 152.117 141.409 152.266C141.55 152.415 141.736 152.49 141.967 152.49ZM144.35 148.183V153H143.62V148.183H144.35ZM143.994 146.381C144.114 146.381 144.216 146.42 144.301 146.499C144.389 146.575 144.433 146.696 144.433 146.86C144.433 147.021 144.389 147.141 144.301 147.22C144.216 147.299 144.114 147.339 143.994 147.339C143.868 147.339 143.762 147.299 143.677 147.22C143.595 147.141 143.554 147.021 143.554 146.86C143.554 146.696 143.595 146.575 143.677 146.499C143.762 146.42 143.868 146.381 143.994 146.381ZM150.05 150.583C150.05 150.978 149.999 151.331 149.897 151.642C149.794 151.952 149.646 152.215 149.453 152.429C149.259 152.643 149.025 152.807 148.749 152.921C148.477 153.032 148.168 153.088 147.822 153.088C147.5 153.088 147.204 153.032 146.934 152.921C146.668 152.807 146.436 152.643 146.24 152.429C146.046 152.215 145.895 151.952 145.787 151.642C145.681 151.331 145.629 150.978 145.629 150.583C145.629 150.055 145.718 149.607 145.897 149.238C146.076 148.865 146.331 148.583 146.662 148.389C146.996 148.193 147.393 148.095 147.853 148.095C148.292 148.095 148.676 148.193 149.004 148.389C149.336 148.586 149.592 148.87 149.774 149.242C149.958 149.611 150.05 150.058 150.05 150.583ZM146.385 150.583C146.385 150.969 146.436 151.305 146.539 151.589C146.641 151.873 146.799 152.093 147.013 152.248C147.227 152.404 147.503 152.481 147.84 152.481C148.174 152.481 148.448 152.404 148.662 152.248C148.878 152.093 149.038 151.873 149.141 151.589C149.243 151.305 149.294 150.969 149.294 150.583C149.294 150.199 149.243 149.868 149.141 149.589C149.038 149.308 148.88 149.091 148.666 148.939C148.452 148.786 148.175 148.71 147.835 148.71C147.334 148.71 146.966 148.876 146.732 149.207C146.5 149.538 146.385 149.996 146.385 150.583ZM153.593 148.095C154.165 148.095 154.597 148.235 154.89 148.517C155.183 148.795 155.329 149.243 155.329 149.862V153H154.608V149.91C154.608 149.509 154.516 149.208 154.332 149.009C154.15 148.81 153.87 148.71 153.492 148.71C152.959 148.71 152.584 148.861 152.367 149.163C152.15 149.465 152.042 149.903 152.042 150.477V153H151.312V148.183H151.901L152.011 148.877H152.05C152.153 148.707 152.283 148.565 152.442 148.451C152.6 148.334 152.777 148.246 152.973 148.187C153.17 148.126 153.376 148.095 153.593 148.095ZM159.949 151.681C159.949 151.989 159.871 152.248 159.716 152.459C159.564 152.667 159.344 152.824 159.057 152.93C158.772 153.035 158.432 153.088 158.037 153.088C157.7 153.088 157.408 153.062 157.162 153.009C156.916 152.956 156.701 152.881 156.516 152.785V152.112C156.712 152.209 156.947 152.297 157.219 152.376C157.492 152.455 157.77 152.495 158.054 152.495C158.471 152.495 158.772 152.427 158.96 152.292C159.147 152.158 159.241 151.974 159.241 151.743C159.241 151.611 159.203 151.495 159.127 151.396C159.054 151.293 158.929 151.195 158.753 151.101C158.578 151.004 158.334 150.899 158.024 150.785C157.716 150.668 157.449 150.552 157.224 150.437C157.001 150.32 156.828 150.178 156.705 150.011C156.585 149.844 156.525 149.627 156.525 149.361C156.525 148.953 156.689 148.641 157.017 148.424C157.348 148.205 157.782 148.095 158.318 148.095C158.608 148.095 158.879 148.124 159.131 148.183C159.386 148.238 159.624 148.315 159.843 148.411L159.597 148.996C159.398 148.911 159.186 148.839 158.96 148.78C158.734 148.722 158.504 148.693 158.27 148.693C157.933 148.693 157.674 148.748 157.492 148.86C157.313 148.971 157.224 149.123 157.224 149.317C157.224 149.466 157.265 149.589 157.347 149.686C157.432 149.783 157.567 149.873 157.751 149.958C157.936 150.043 158.179 150.143 158.481 150.257C158.783 150.369 159.043 150.484 159.263 150.605C159.483 150.722 159.651 150.865 159.769 151.035C159.889 151.202 159.949 151.418 159.949 151.681Z" fill="#B7B7B7"/>
<path d="M329.958 52.0572H327.668V56H323.738V52.0572H315.618V49.2594L323.959 36.9754H327.668V48.9341H329.958V52.0572ZM323.738 48.9341V45.707C323.738 45.4033 323.742 45.0433 323.751 44.6269C323.768 44.2105 323.785 43.7941 323.803 43.3777C323.82 42.9613 323.837 42.5926 323.855 42.2716C323.881 41.942 323.898 41.7121 323.907 41.5819H323.803C323.638 41.9376 323.464 42.2846 323.282 42.6229C323.1 42.9526 322.888 43.2996 322.645 43.664L319.157 48.9341H323.738ZM338.403 43.8461C339.565 43.8461 340.598 44.0674 341.5 44.5098C342.411 44.9522 343.127 45.6029 343.647 46.4617C344.168 47.3205 344.428 48.3789 344.428 49.6368C344.428 51.0075 344.142 52.1916 343.569 53.1893C343.005 54.1782 342.159 54.9373 341.032 55.4665C339.912 55.9957 338.516 56.2603 336.841 56.2603C335.844 56.2603 334.903 56.1735 334.018 56C333.142 55.8352 332.374 55.5793 331.714 55.2323V51.7579C332.374 52.1049 333.163 52.3998 334.083 52.6427C335.011 52.877 335.883 52.9941 336.698 52.9941C337.496 52.9941 338.169 52.89 338.715 52.6818C339.262 52.4649 339.674 52.1352 339.951 51.6928C340.238 51.2417 340.381 50.6691 340.381 49.9751C340.381 49.0469 340.069 48.3355 339.444 47.841C338.819 47.3466 337.861 47.0993 336.568 47.0993C336.074 47.0993 335.558 47.147 335.02 47.2425C334.49 47.3379 334.048 47.4333 333.692 47.5287L332.092 46.6699L332.808 36.9754H343.127V40.3848H336.334L335.983 44.1194C336.278 44.0587 336.599 43.998 336.946 43.9372C337.293 43.8765 337.778 43.8461 338.403 43.8461ZM361.618 45.1865H366.654V48.0362H361.618V53.0461H358.768V48.0362H353.732V45.1865H358.768V40.1115H361.618V45.1865Z" fill="white"/>
<path d="M320.92 66.61V73H320.299V70.012H316.51V73H315.88V66.61H316.51V69.454H320.299V66.61H320.92ZM324.326 73.09C323.99 73.09 323.678 73.027 323.39 72.901C323.108 72.769 322.862 72.592 322.652 72.37C322.448 72.142 322.289 71.884 322.175 71.596C322.061 71.302 322.004 70.993 322.004 70.669C322.004 70.333 322.061 70.021 322.175 69.733C322.289 69.439 322.451 69.181 322.661 68.959C322.871 68.731 323.117 68.554 323.399 68.428C323.687 68.296 323.999 68.23 324.335 68.23C324.671 68.23 324.98 68.296 325.262 68.428C325.544 68.554 325.79 68.731 326 68.959C326.21 69.181 326.372 69.439 326.486 69.733C326.6 70.021 326.657 70.333 326.657 70.669C326.657 70.993 326.6 71.302 326.486 71.596C326.372 71.884 326.21 72.142 326 72.37C325.796 72.592 325.55 72.769 325.262 72.901C324.98 73.027 324.668 73.09 324.326 73.09ZM322.625 70.678C322.625 71.026 322.7 71.344 322.85 71.632C323.006 71.914 323.213 72.139 323.471 72.307C323.729 72.469 324.014 72.55 324.326 72.55C324.638 72.55 324.923 72.466 325.181 72.298C325.439 72.13 325.646 71.902 325.802 71.614C325.958 71.32 326.036 71.002 326.036 70.66C326.036 70.312 325.958 69.994 325.802 69.706C325.646 69.418 325.439 69.19 325.181 69.022C324.923 68.854 324.638 68.77 324.326 68.77C324.014 68.77 323.729 68.857 323.471 69.031C323.219 69.205 323.015 69.436 322.859 69.724C322.703 70.006 322.625 70.324 322.625 70.678ZM327.635 71.065V68.311H328.247V70.957C328.247 71.491 328.337 71.89 328.517 72.154C328.703 72.418 328.976 72.55 329.336 72.55C329.576 72.55 329.807 72.499 330.029 72.397C330.257 72.289 330.458 72.139 330.632 71.947C330.806 71.749 330.938 71.521 331.028 71.263V68.311H331.64V72.262C331.64 72.346 331.658 72.409 331.694 72.451C331.73 72.487 331.784 72.508 331.856 72.514V73C331.784 73.006 331.727 73.009 331.685 73.009C331.643 73.015 331.604 73.018 331.568 73.018C331.448 73.006 331.343 72.958 331.253 72.874C331.169 72.79 331.124 72.688 331.118 72.568L331.1 71.938C330.896 72.298 330.617 72.58 330.263 72.784C329.915 72.988 329.537 73.09 329.129 73.09C328.637 73.09 328.265 72.919 328.013 72.577C327.761 72.235 327.635 71.731 327.635 71.065ZM335.364 68.851C334.956 68.863 334.596 68.977 334.284 69.193C333.978 69.409 333.762 69.706 333.636 70.084V73H333.024V68.311H333.6V69.436C333.762 69.106 333.975 68.839 334.239 68.635C334.509 68.431 334.794 68.317 335.094 68.293C335.154 68.287 335.205 68.284 335.247 68.284C335.295 68.284 335.334 68.287 335.364 68.293V68.851ZM337.718 73.09C337.334 73.09 336.977 73.027 336.647 72.901C336.317 72.775 336.032 72.583 335.792 72.325L336.044 71.893C336.308 72.139 336.572 72.319 336.836 72.433C337.106 72.541 337.391 72.595 337.691 72.595C338.057 72.595 338.354 72.523 338.582 72.379C338.81 72.229 338.924 72.016 338.924 71.74C338.924 71.554 338.867 71.413 338.753 71.317C338.645 71.215 338.486 71.134 338.276 71.074C338.072 71.008 337.826 70.939 337.538 70.867C337.214 70.777 336.941 70.684 336.719 70.588C336.503 70.486 336.338 70.36 336.224 70.21C336.116 70.054 336.062 69.853 336.062 69.607C336.062 69.301 336.137 69.049 336.287 68.851C336.443 68.647 336.653 68.494 336.917 68.392C337.187 68.284 337.487 68.23 337.817 68.23C338.177 68.23 338.495 68.287 338.771 68.401C339.047 68.515 339.272 68.674 339.446 68.878L339.149 69.292C338.981 69.1 338.78 68.959 338.546 68.869C338.318 68.773 338.063 68.725 337.781 68.725C337.589 68.725 337.406 68.752 337.232 68.806C337.058 68.854 336.914 68.938 336.8 69.058C336.692 69.172 336.638 69.331 336.638 69.535C336.638 69.703 336.68 69.835 336.764 69.931C336.848 70.021 336.974 70.099 337.142 70.165C337.31 70.225 337.517 70.291 337.763 70.363C338.117 70.459 338.426 70.558 338.69 70.66C338.954 70.756 339.158 70.882 339.302 71.038C339.446 71.194 339.518 71.413 339.518 71.695C339.518 72.133 339.353 72.475 339.023 72.721C338.693 72.967 338.258 73.09 337.718 73.09ZM344.822 73.09C344.486 73.09 344.174 73.027 343.886 72.901C343.604 72.769 343.358 72.592 343.148 72.37C342.944 72.142 342.785 71.884 342.671 71.596C342.557 71.302 342.5 70.993 342.5 70.669C342.5 70.333 342.557 70.021 342.671 69.733C342.785 69.439 342.947 69.181 343.157 68.959C343.367 68.731 343.613 68.554 343.895 68.428C344.183 68.296 344.495 68.23 344.831 68.23C345.167 68.23 345.476 68.296 345.758 68.428C346.04 68.554 346.286 68.731 346.496 68.959C346.706 69.181 346.868 69.439 346.982 69.733C347.096 70.021 347.153 70.333 347.153 70.669C347.153 70.993 347.096 71.302 346.982 71.596C346.868 71.884 346.706 72.142 346.496 72.37C346.292 72.592 346.046 72.769 345.758 72.901C345.476 73.027 345.164 73.09 344.822 73.09ZM343.121 70.678C343.121 71.026 343.196 71.344 343.346 71.632C343.502 71.914 343.709 72.139 343.967 72.307C344.225 72.469 344.51 72.55 344.822 72.55C345.134 72.55 345.419 72.466 345.677 72.298C345.935 72.13 346.142 71.902 346.298 71.614C346.454 71.32 346.532 71.002 346.532 70.66C346.532 70.312 346.454 69.994 346.298 69.706C346.142 69.418 345.935 69.19 345.677 69.022C345.419 68.854 345.134 68.77 344.822 68.77C344.51 68.77 344.225 68.857 343.967 69.031C343.715 69.205 343.511 69.436 343.355 69.724C343.199 70.006 343.121 70.324 343.121 70.678ZM348.322 73V68.797H347.674V68.311H348.322V68.185C348.322 67.801 348.376 67.471 348.484 67.195C348.598 66.919 348.757 66.709 348.961 66.565C349.171 66.415 349.417 66.34 349.699 66.34C349.885 66.34 350.065 66.367 350.239 66.421C350.413 66.475 350.563 66.547 350.689 66.637L350.5 67.078C350.422 67.012 350.32 66.961 350.194 66.925C350.068 66.889 349.942 66.871 349.816 66.871C349.534 66.871 349.315 66.982 349.159 67.204C349.009 67.426 348.934 67.747 348.934 68.167V68.311H350.23V68.797H348.934V73H348.322ZM354.699 73.09C354.315 73.09 353.958 73.027 353.628 72.901C353.298 72.775 353.013 72.583 352.773 72.325L353.025 71.893C353.289 72.139 353.553 72.319 353.817 72.433C354.087 72.541 354.372 72.595 354.672 72.595C355.038 72.595 355.335 72.523 355.563 72.379C355.791 72.229 355.905 72.016 355.905 71.74C355.905 71.554 355.848 71.413 355.734 71.317C355.626 71.215 355.467 71.134 355.257 71.074C355.053 71.008 354.807 70.939 354.519 70.867C354.195 70.777 353.922 70.684 353.7 70.588C353.484 70.486 353.319 70.36 353.205 70.21C353.097 70.054 353.043 69.853 353.043 69.607C353.043 69.301 353.118 69.049 353.268 68.851C353.424 68.647 353.634 68.494 353.898 68.392C354.168 68.284 354.468 68.23 354.798 68.23C355.158 68.23 355.476 68.287 355.752 68.401C356.028 68.515 356.253 68.674 356.427 68.878L356.13 69.292C355.962 69.1 355.761 68.959 355.527 68.869C355.299 68.773 355.044 68.725 354.762 68.725C354.57 68.725 354.387 68.752 354.213 68.806C354.039 68.854 353.895 68.938 353.781 69.058C353.673 69.172 353.619 69.331 353.619 69.535C353.619 69.703 353.661 69.835 353.745 69.931C353.829 70.021 353.955 70.099 354.123 70.165C354.291 70.225 354.498 70.291 354.744 70.363C355.098 70.459 355.407 70.558 355.671 70.66C355.935 70.756 356.139 70.882 356.283 71.038C356.427 71.194 356.499 71.413 356.499 71.695C356.499 72.133 356.334 72.475 356.004 72.721C355.674 72.967 355.239 73.09 354.699 73.09ZM360.858 73L359.121 70.597L358.122 71.533V73H357.51V66.43H358.122V70.876L360.777 68.32H361.452L359.535 70.237L361.524 73H360.858ZM362.283 73V68.311H362.895V73H362.283ZM362.283 67.33V66.43H362.895V67.33H362.283ZM364.27 66.43H364.882V71.938C364.882 72.172 364.924 72.325 365.008 72.397C365.092 72.469 365.194 72.505 365.314 72.505C365.422 72.505 365.53 72.493 365.638 72.469C365.746 72.445 365.839 72.421 365.917 72.397L366.025 72.892C365.911 72.94 365.77 72.979 365.602 73.009C365.44 73.039 365.299 73.054 365.179 73.054C364.903 73.054 364.681 72.973 364.513 72.811C364.351 72.649 364.27 72.427 364.27 72.145V66.43ZM366.722 66.43H367.334V71.938C367.334 72.172 367.376 72.325 367.46 72.397C367.544 72.469 367.646 72.505 367.766 72.505C367.874 72.505 367.982 72.493 368.09 72.469C368.198 72.445 368.291 72.421 368.369 72.397L368.477 72.892C368.363 72.94 368.222 72.979 368.054 73.009C367.892 73.039 367.751 73.054 367.631 73.054C367.355 73.054 367.133 72.973 366.965 72.811C366.803 72.649 366.722 72.427 366.722 72.145V66.43ZM372.708 73.09C372.324 73.09 371.967 73.027 371.637 72.901C371.307 72.775 371.022 72.583 370.782 72.325L371.034 71.893C371.298 72.139 371.562 72.319 371.826 72.433C372.096 72.541 372.381 72.595 372.681 72.595C373.047 72.595 373.344 72.523 373.572 72.379C373.8 72.229 373.914 72.016 373.914 71.74C373.914 71.554 373.857 71.413 373.743 71.317C373.635 71.215 373.476 71.134 373.266 71.074C373.062 71.008 372.816 70.939 372.528 70.867C372.204 70.777 371.931 70.684 371.709 70.588C371.493 70.486 371.328 70.36 371.214 70.21C371.106 70.054 371.052 69.853 371.052 69.607C371.052 69.301 371.127 69.049 371.277 68.851C371.433 68.647 371.643 68.494 371.907 68.392C372.177 68.284 372.477 68.23 372.807 68.23C373.167 68.23 373.485 68.287 373.761 68.401C374.037 68.515 374.262 68.674 374.436 68.878L374.139 69.292C373.971 69.1 373.77 68.959 373.536 68.869C373.308 68.773 373.053 68.725 372.771 68.725C372.579 68.725 372.396 68.752 372.222 68.806C372.048 68.854 371.904 68.938 371.79 69.058C371.682 69.172 371.628 69.331 371.628 69.535C371.628 69.703 371.67 69.835 371.754 69.931C371.838 70.021 371.964 70.099 372.132 70.165C372.3 70.225 372.507 70.291 372.753 70.363C373.107 70.459 373.416 70.558 373.68 70.66C373.944 70.756 374.148 70.882 374.292 71.038C374.436 71.194 374.508 71.413 374.508 71.695C374.508 72.133 374.343 72.475 374.013 72.721C373.683 72.967 373.248 73.09 372.708 73.09ZM379.461 73H378.849V70.381C378.849 69.853 378.756 69.457 378.57 69.193C378.384 68.923 378.117 68.788 377.769 68.788C377.541 68.788 377.313 68.848 377.085 68.968C376.863 69.082 376.665 69.241 376.491 69.445C376.323 69.643 376.203 69.871 376.131 70.129V73H375.519V66.43H376.131V69.373C376.317 69.025 376.575 68.749 376.905 68.545C377.241 68.335 377.598 68.23 377.976 68.23C378.246 68.23 378.474 68.278 378.66 68.374C378.852 68.47 379.005 68.611 379.119 68.797C379.239 68.977 379.326 69.19 379.38 69.436C379.434 69.676 379.461 69.949 379.461 70.255V73ZM380.388 71.65C380.388 71.356 380.472 71.104 380.64 70.894C380.808 70.678 381.039 70.513 381.333 70.399C381.633 70.279 381.978 70.219 382.368 70.219C382.596 70.219 382.833 70.237 383.079 70.273C383.325 70.309 383.544 70.363 383.736 70.435V70.039C383.736 69.643 383.619 69.328 383.385 69.094C383.151 68.86 382.827 68.743 382.413 68.743C382.161 68.743 381.912 68.791 381.666 68.887C381.426 68.977 381.174 69.112 380.91 69.292L380.676 68.86C380.982 68.65 381.282 68.494 381.576 68.392C381.87 68.284 382.17 68.23 382.476 68.23C383.052 68.23 383.508 68.395 383.844 68.725C384.18 69.055 384.348 69.511 384.348 70.093V72.262C384.348 72.346 384.366 72.409 384.402 72.451C384.438 72.487 384.495 72.508 384.573 72.514V73C384.507 73.006 384.45 73.012 384.402 73.018C384.354 73.024 384.318 73.024 384.294 73.018C384.144 73.012 384.03 72.964 383.952 72.874C383.874 72.784 383.832 72.688 383.826 72.586L383.817 72.244C383.607 72.514 383.334 72.724 382.998 72.874C382.662 73.018 382.32 73.09 381.972 73.09C381.672 73.09 381.399 73.027 381.153 72.901C380.913 72.769 380.724 72.595 380.586 72.379C380.454 72.157 380.388 71.914 380.388 71.65ZM383.529 72.01C383.595 71.926 383.646 71.845 383.682 71.767C383.718 71.689 383.736 71.62 383.736 71.56V70.876C383.532 70.798 383.319 70.738 383.097 70.696C382.881 70.654 382.662 70.633 382.44 70.633C382.002 70.633 381.648 70.72 381.378 70.894C381.108 71.068 380.973 71.305 380.973 71.605C380.973 71.779 381.018 71.944 381.108 72.1C381.198 72.25 381.33 72.376 381.504 72.478C381.678 72.574 381.882 72.622 382.116 72.622C382.41 72.622 382.683 72.565 382.935 72.451C383.193 72.337 383.391 72.19 383.529 72.01ZM388.011 68.851C387.603 68.863 387.243 68.977 386.931 69.193C386.625 69.409 386.409 69.706 386.283 70.084V73H385.671V68.311H386.247V69.436C386.409 69.106 386.622 68.839 386.886 68.635C387.156 68.431 387.441 68.317 387.741 68.293C387.801 68.287 387.852 68.284 387.894 68.284C387.942 68.284 387.981 68.287 388.011 68.293V68.851ZM388.826 73V68.311H389.438V73H388.826ZM388.826 67.33V66.43H389.438V67.33H388.826ZM394.728 73H394.116V70.381C394.116 69.829 394.035 69.427 393.873 69.175C393.711 68.917 393.456 68.788 393.108 68.788C392.868 68.788 392.631 68.848 392.397 68.968C392.163 69.082 391.956 69.241 391.776 69.445C391.602 69.643 391.476 69.871 391.398 70.129V73H390.786V68.311H391.344V69.373C391.47 69.145 391.635 68.947 391.839 68.779C392.043 68.605 392.274 68.47 392.532 68.374C392.79 68.278 393.057 68.23 393.333 68.23C393.591 68.23 393.81 68.278 393.99 68.374C394.17 68.47 394.314 68.608 394.422 68.788C394.53 68.962 394.608 69.175 394.656 69.427C394.704 69.673 394.728 69.949 394.728 70.255V73ZM397.914 73.063C397.596 73.063 397.302 72.997 397.032 72.865C396.762 72.733 396.528 72.556 396.33 72.334C396.138 72.106 395.988 71.848 395.88 71.56C395.772 71.272 395.718 70.975 395.718 70.669C395.718 70.339 395.769 70.03 395.871 69.742C395.979 69.448 396.129 69.187 396.321 68.959C396.519 68.731 396.75 68.554 397.014 68.428C397.278 68.296 397.572 68.23 397.896 68.23C398.298 68.23 398.646 68.332 398.94 68.536C399.24 68.74 399.492 68.992 399.696 69.292V68.311H400.245V73.018C400.245 73.45 400.14 73.813 399.93 74.107C399.726 74.407 399.447 74.632 399.093 74.782C398.745 74.932 398.364 75.007 397.95 75.007C397.416 75.007 396.984 74.911 396.654 74.719C396.324 74.527 396.054 74.269 395.844 73.945L396.222 73.648C396.408 73.942 396.654 74.161 396.96 74.305C397.272 74.449 397.602 74.521 397.95 74.521C398.256 74.521 398.535 74.464 398.787 74.35C399.045 74.242 399.249 74.077 399.399 73.855C399.555 73.633 399.633 73.354 399.633 73.018V72.091C399.453 72.385 399.207 72.622 398.895 72.802C398.583 72.976 398.256 73.063 397.914 73.063ZM398.085 72.55C398.271 72.55 398.448 72.517 398.616 72.451C398.79 72.385 398.949 72.298 399.093 72.19C399.237 72.076 399.357 71.95 399.453 71.812C399.549 71.674 399.609 71.533 399.633 71.389V69.94C399.543 69.712 399.414 69.511 399.246 69.337C399.078 69.157 398.886 69.019 398.67 68.923C398.46 68.821 398.241 68.77 398.013 68.77C397.749 68.77 397.512 68.827 397.302 68.941C397.098 69.049 396.924 69.196 396.78 69.382C396.642 69.562 396.534 69.766 396.456 69.994C396.378 70.222 396.339 70.45 396.339 70.678C396.339 70.93 396.384 71.17 396.474 71.398C396.564 71.62 396.687 71.821 396.843 72.001C397.005 72.175 397.191 72.31 397.401 72.406C397.617 72.502 397.845 72.55 398.085 72.55Z" fill="white"/>
<defs>
<filter id="filter0_b_1088_1144" x="-38.3386" y="-38.3386" width="598.677" height="268.677" filterUnits="userSpaceOnUse" color-interpolation-filters="sRGB">
<feFlood flood-opacity="0" result="BackgroundImageFix"/>
<feGaussianBlur in="BackgroundImageFix" stdDeviation="19.1693"/>
<feComposite in2="SourceAlpha" operator="in" result="effect1_backgroundBlur_1088_1144"/>
<feBlend mode="normal" in="SourceGraphic" in2="effect1_backgroundBlur_1088_1144" result="shape"/>
</filter>
<radialGradient id="paint0_radial_1088_1144" cx="0" cy="0" r="1" gradientUnits="userSpaceOnUse" gradientTransform="translate(-6.40166 5.71238) rotate(19.6017) scale(540.626 546.811)">
<stop offset="0.168103" stop-color="white" stop-opacity="0.18"/>
<stop offset="0.993426" stop-color="white" stop-opacity="0.06"/>
</radialGradient>
<linearGradient id="paint1_linear_1088_1144" x1="654.537" y1="225.827" x2="150.565" y2="-342.091" gradientUnits="userSpaceOnUse">
<stop stop-color="white" stop-opacity="0.48"/>
<stop offset="1" stop-color="white" stop-opacity="0"/>
</linearGradient>
</defs>
</svg>
