<svg width="554" height="156" viewBox="0 0 554 156" fill="none" xmlns="http://www.w3.org/2000/svg">
<g filter="url(#filter0_d_37_1503)">
<path d="M79.1672 52.6044C79.9022 52.774 80.8068 52.3217 81.2026 50.3429H81.5984L81.768 63.0075H81.1461C80.6372 56.8448 76.1707 52.0956 71.4214 52.0956C63.4495 52.0956 61.0183 62.3856 61.0183 70.6968C61.0183 76.2941 62.4883 83.0222 66.3895 86.1884C68.0291 87.5453 69.8949 88.3934 71.9303 88.4499C76.9057 88.5065 81.4288 85.1141 82.7291 78.5557L83.4076 78.6687L81.033 89.9199H68.0291C56.5517 89.9199 50.0498 82.2872 50.0498 71.2056C50.0498 59.3325 57.1737 50.1167 68.7641 50.3429C75.0399 50.4559 75.3791 51.6998 79.1672 52.6044ZM112.631 84.9445L112.745 85.4534C112.066 86.5276 110.992 87.4322 109.465 88.2803C105.96 90.2592 102.115 89.9199 92.7299 89.9199C87.6414 89.9199 85.0406 87.3757 85.0971 82.3437C85.0971 77.4249 86.7368 75.1068 91.5991 73.2976C92.2776 73.0149 99.2318 69.9052 99.9668 69.6225V66.0041C99.9668 63.7425 100.08 60.746 97.7618 60.746C95.7264 60.746 95.161 63.1206 95.161 65.3821C95.161 68.831 93.0126 70.7533 90.6379 71.0925C87.5848 71.5449 85.3798 68.0395 88.7156 64.0252C91.3729 60.746 95.8395 59.5587 100.193 59.4456C103.981 59.4456 107.147 60.6894 108.674 63.8556C109.352 65.2691 109.691 66.9087 109.691 68.831V83.3049C109.691 87.4888 111.218 86.2449 112.631 84.9445ZM99.9668 87.3191V71.4883L99.9103 71.3752C97.5356 71.9406 96.3483 73.5802 95.5003 75.7853C94.6522 78.2164 94.426 86.1318 95.5003 87.5453C96.518 88.9022 99.1753 88.9022 99.9668 87.3191ZM145.582 73.3541C145.469 80.9303 142.415 87.7149 136.196 89.8068C133.03 90.8811 130.486 90.8245 127.263 89.7503V94.7257C127.263 100.097 128.677 101.623 131.051 102.132V102.98H113.298V102.132C115.39 101.906 117.425 99.475 117.369 94.7257V69.0006C117.369 66.9652 116.916 65.5518 116.125 64.8733C115.277 64.1948 114.429 63.8556 113.581 63.8556L113.637 63.4033L126.415 59.389L127.263 59.9544V65.3821C129.072 62.951 133.143 59.4456 135.97 59.4456C142.415 59.4456 145.751 66.9087 145.582 73.3541ZM134.5 85.6795C135.292 83.6441 135.631 80.0257 135.631 76.8595C135.631 69.2833 134.161 64.5341 131.221 64.5341C129.581 64.5341 128.281 65.7779 127.263 67.361V86.8668C127.263 87.4888 129.92 88.7326 130.882 88.7326C132.578 88.7326 133.765 87.7149 134.5 85.6795ZM167.65 83.0787L168.555 83.8137C168.555 83.8137 167.481 85.6795 166.406 86.7538C164.145 89.0153 161.601 89.9199 158.321 89.9199C155.89 89.9199 154.024 89.2415 152.667 87.828C151.367 86.4145 150.689 84.6618 150.689 82.5699V61.594H147.862V60.6894L159.452 51.4171H160.583V59.4456H167.876L167.594 61.594H160.583V82.5699C160.583 84.0399 160.809 85.1707 161.261 85.9057C161.714 86.6407 162.336 87.0364 163.014 87.0364C163.806 87.0364 164.654 86.6407 165.502 85.9057C166.35 85.1707 167.085 84.2095 167.65 83.0787ZM199.876 59.9544V80.9868C199.876 83.7007 199.989 87.5453 203.551 85.7926V86.8668L191.508 89.9765L189.925 89.1284V84.2661C188.851 85.4534 187.664 86.4711 186.42 87.3191C184.384 88.7891 181.897 89.9199 179.692 89.9199C176.073 89.9199 173.472 86.9234 173.472 83.8137L173.416 69.0006C173.416 66.9652 173.02 65.5518 172.172 64.8733C171.38 64.1948 170.532 63.8556 169.684 63.8556L169.741 63.4033L182.519 59.389L183.31 59.9544V80.9868C183.31 83.4745 184.158 84.7184 185.854 84.7184C187.155 84.7184 188.512 83.8137 189.982 82.061V69.0006C189.982 66.9652 189.529 65.5518 188.738 64.8733C187.89 64.1948 187.042 63.8556 186.194 63.8556L186.25 63.4033L199.028 59.389L199.876 59.9544ZM230.697 64.1383C230.811 67.9829 228.436 70.1314 227.362 71.6579C226.57 69.566 225.666 66.626 223.121 66.626C222.16 66.626 220.69 67.7568 220.012 68.8875L218.655 71.1491V81.6653C218.655 87.0364 220.068 88.563 222.443 89.0718V89.9199H204.69V89.0718C206.782 88.8457 208.817 86.4145 208.817 81.6653L208.76 76.4072V69.0006C208.76 66.9652 208.365 65.5518 207.517 64.8733C206.725 64.1948 205.877 63.8556 205.029 63.8556L205.085 63.4033L217.863 59.389L218.655 59.9544V68.1525L221.369 62.6117C222.104 61.1983 224.082 59.276 225.948 59.276C229.058 59.276 230.641 62.4987 230.697 64.1383ZM255.276 81.1564L256.068 81.7218C254.089 85.0011 251.601 87.2626 248.096 88.0541C247.022 88.3934 245.382 88.5065 244.195 88.5065C239.05 88.5065 235.318 85.8491 233.452 81.0999C229.834 71.5449 235.262 60.8025 245.439 60.8025C252.619 60.8025 255.502 66.7391 255.502 73.8629H241.537C241.085 78.1033 241.933 86.2449 247.361 86.4711C250.81 86.5841 253.467 83.9834 255.276 81.1564ZM244.251 62.0464C241.707 62.2725 241.707 69.6791 241.537 72.2233H247.248C247.078 67.5871 247.248 61.8767 244.251 62.0464ZM292.267 52.6609L287.97 52.6044C281.921 52.5479 281.694 60.859 281.355 60.859H280.677L281.468 50.3429H313.695L314.43 61.1417H313.752C313.752 61.1417 313.3 52.6609 307.646 52.6609H302.614V83.9834C302.614 89.1849 307.08 89.1849 307.08 89.1849V89.9199H287.857V89.1849C287.857 89.1849 292.267 88.8457 292.267 83.9834V52.6609ZM343.586 85.1707C343.53 87.6018 344.943 89.1284 346.47 89.0718V89.9199H331.826V89.1284C333.466 89.1284 334.031 86.5841 334.201 83.8703C334.427 79.6299 334.314 73.1279 334.201 68.831C334.144 66.3998 332.618 64.5906 330.526 64.5906C329.508 64.5906 328.49 64.9864 327.473 65.7779V83.7007C327.473 86.0188 327.868 88.9588 330.017 89.1284V89.9199H314.865V89.1849C316.561 89.3545 317.578 88.1107 317.578 83.7007V55.9402C317.578 53.8483 317.183 52.4913 316.335 51.8129C315.543 51.1344 314.695 50.7952 313.847 50.7952L313.903 50.3429L326.681 46.3286L327.473 46.894V63.9687C329.621 61.8767 333.748 59.4456 336.802 59.4456C340.929 59.4456 343.53 63.4598 343.586 67.3045C343.699 73.0714 343.699 79.3472 343.586 85.1707ZM371.611 81.1564L372.403 81.7218C370.424 85.0011 367.936 87.2626 364.431 88.0541C363.357 88.3934 361.717 88.5065 360.53 88.5065C355.385 88.5065 351.653 85.8491 349.787 81.0999C346.169 71.5449 351.597 60.8025 361.774 60.8025C368.954 60.8025 371.837 66.7391 371.837 73.8629H357.872C357.42 78.1033 358.268 86.2449 363.696 86.4711C367.145 86.5841 369.802 83.9834 371.611 81.1564ZM360.586 62.0464C358.042 62.2725 358.042 69.6791 357.872 72.2233H363.583C363.413 67.5871 363.583 61.8767 360.586 62.0464ZM415.217 89.9199H397.012V89.1849C397.012 89.1849 400.63 89.5807 400.63 85.0011V55.2617C400.63 50.7952 397.068 51.0779 397.068 51.0779V50.3429H427.316L427.486 59.4456H426.864C426.355 53.3959 425.281 52.039 421.097 52.039H410.977V68.8875H417.592C420.701 68.8875 421.945 67.9829 422.511 64.0818H423.076C423.019 68.4918 423.019 71.771 423.076 76.1245H422.454C422.228 72.1668 421.097 70.8664 417.535 70.8664H410.977V82.9657C410.977 87.3191 412.616 89.4676 415.217 89.1849V89.9199ZM440.55 46.894V83.8137C440.55 85.7361 440.663 88.4499 443.773 89.1849V89.9199H427.376V89.1849C430.486 88.7891 430.656 85.5664 430.656 83.5876V55.9402C430.656 53.8483 430.26 52.4913 429.412 51.8129C428.62 51.1344 427.772 50.7952 426.924 50.7952L426.981 50.3429L439.758 46.3286L440.55 46.894ZM472.458 84.9445L472.571 85.4534C471.893 86.5276 470.818 87.4322 469.292 88.2803C465.787 90.2592 461.942 89.9199 452.556 89.9199C447.468 89.9199 444.867 87.3757 444.924 82.3437C444.924 77.4249 446.563 75.1068 451.426 73.2976C452.104 73.0149 459.058 69.9052 459.793 69.6225V66.0041C459.793 63.7425 459.907 60.746 457.588 60.746C455.553 60.746 454.988 63.1206 454.988 65.3821C454.988 68.831 452.839 70.7533 450.465 71.0925C447.411 71.5449 445.206 68.0395 448.542 64.0252C451.2 60.746 455.666 59.5587 460.02 59.4456C463.808 59.4456 466.974 60.6894 468.5 63.8556C469.179 65.2691 469.518 66.9087 469.518 68.831V83.3049C469.518 87.4888 471.045 86.2449 472.458 84.9445ZM459.793 87.3191V71.4883L459.737 71.3752C457.362 71.9406 456.175 73.5802 455.327 75.7853C454.479 78.2164 454.253 86.1318 455.327 87.5453C456.345 88.9022 459.002 88.9022 459.793 87.3191ZM494.949 85.9622C500.998 86.6407 503.825 89.0718 503.655 92.7469C503.429 97.6657 498.058 103.037 488.164 103.037C476.743 103.037 473.916 99.2488 473.69 95.7999C473.52 93.0861 476.687 90.5418 476.687 90.5418C474.821 89.5242 474.029 88.0541 474.142 86.4711C474.368 83.418 477.93 80.6476 483.754 80.3083C483.754 80.2518 482.962 79.9691 481.323 79.5168C477.422 78.386 474.764 75.3329 474.764 70.5837C474.764 62.4987 482.51 59.4456 488.051 59.4456C491.104 59.4456 494.044 60.3502 496.871 62.216C498.284 58.654 502.694 58.3713 504.843 62.6117C501.959 62.7248 500.263 63.7991 499.132 65.6083C500.037 67.0218 500.489 68.6614 500.489 70.4706C500.489 77.8772 494.044 80.7607 488.955 80.7607H487.599C486.129 80.7607 485.394 81.8349 485.394 83.0222C485.394 85.8491 493.309 85.7926 494.949 85.9622ZM487.033 60.859C484.885 60.9156 484.263 68.096 484.263 70.1314C484.263 73.241 485.111 79.4603 488.277 79.4603C491.782 79.4603 491.387 73.7499 491.33 70.4706C491.217 67.4741 490.086 60.746 487.033 60.859ZM490.369 101.567C493.252 101.567 496.814 99.7576 496.871 97.2699C496.871 93.8211 491.613 93.6515 489.521 93.4253C486.92 93.1992 483.245 92.8599 480.757 92.0684C480.757 98.5703 483.867 101.567 490.369 101.567Z" fill="white"/>
</g>
<defs>
<filter id="filter0_d_37_1503" x="0.931843" y="0.744318" width="553.029" height="154.944" filterUnits="userSpaceOnUse" color-interpolation-filters="sRGB">
<feFlood flood-opacity="0" result="BackgroundImageFix"/>
<feColorMatrix in="SourceAlpha" type="matrix" values="0 0 0 0 0 0 0 0 0 0 0 0 0 0 0 0 0 0 127 0" result="hardAlpha"/>
<feOffset dy="3.53367"/>
<feGaussianBlur stdDeviation="24.559"/>
<feComposite in2="hardAlpha" operator="out"/>
<feColorMatrix type="matrix" values="0 0 0 0 1 0 0 0 0 1 0 0 0 0 1 0 0 0 0.64 0"/>
<feBlend mode="normal" in2="BackgroundImageFix" result="effect1_dropShadow_37_1503"/>
<feBlend mode="normal" in="SourceGraphic" in2="effect1_dropShadow_37_1503" result="shape"/>
</filter>
</defs>
</svg>
