<svg width="98" height="140" viewBox="0 0 98 140" fill="none" xmlns="http://www.w3.org/2000/svg">
<path d="M48.8267 109.425C69.3269 109.425 85.9455 108.956 85.9455 108.377C85.9455 107.798 69.3269 107.329 48.8267 107.329C28.3266 107.329 11.708 107.798 11.708 108.377C11.708 108.956 28.3266 109.425 48.8267 109.425Z" fill="#D8DFEA"/>
<path d="M97.2085 10.9569V21.1438C97.2085 37.6883 83.7991 51.1049 67.2637 51.1049H63.0713L67.7247 46.305C81.3856 46.0593 92.4173 34.866 92.4173 21.1438V13.354H74.4504L75.0494 8.5603H94.8131C96.1364 8.55988 97.2085 9.6326 97.2085 10.9569Z" fill="#865058"/>
<path d="M64.2686 79.9693V85.2603H33.126V79.9693C33.126 79.538 33.3595 79.1364 33.7368 78.9267L36.0965 77.5965C40.1809 75.2956 42.7083 70.9752 42.7083 66.2831V60.6924H54.6863V66.2831C54.6863 70.975 57.2137 75.2954 61.2981 77.5965L63.6578 78.9267C64.0351 79.1364 64.2686 79.538 64.2686 79.9693Z" fill="#865058"/>
<path d="M64.2681 79.9693V85.2603H61.2738V79.9693C61.2738 79.538 61.0403 79.1364 60.6629 78.9267L58.3032 77.5965C54.2188 75.2956 51.6914 70.9752 51.6914 66.2831V60.6924H54.686V66.2831C54.686 70.975 57.2134 75.2954 61.2978 77.5965L63.6575 78.9267C64.0346 79.1364 64.2681 79.538 64.2681 79.9693Z" fill="#501921"/>
<path d="M58.2792 56.0181V59.4935C58.2792 61.1473 56.9377 62.4896 55.2846 62.4896H42.1088C40.4559 62.4896 39.1143 61.1473 39.1143 59.4935V56.0181H58.2792Z" fill="#865058"/>
<path d="M54.6859 62.4897H42.708V64.2515H54.6859V62.4897Z" fill="#501921"/>
<path d="M69.059 84.0615V105.034H28.334V84.0615C28.334 83.4024 28.8731 82.863 29.5318 82.863H67.8612C68.5201 82.863 69.059 83.4024 69.059 84.0615Z" fill="#343B49"/>
<path d="M69.0592 84.0615V105.034H66.6636V84.0615C66.6636 83.4024 66.1245 82.863 65.4658 82.863H67.8614C68.5203 82.863 69.0592 83.4024 69.0592 84.0615Z" fill="#262D38"/>
<path d="M72.6529 104.435V106.832C72.6529 107.491 72.1138 108.03 71.4552 108.03H25.939C25.2803 108.03 24.7412 107.491 24.7412 106.832V104.435C24.7412 103.776 25.2803 103.237 25.939 103.237H71.4552C72.1141 103.237 72.6529 103.776 72.6529 104.435Z" fill="#262D38"/>
<path d="M72.6532 104.435V106.832C72.6532 107.491 72.1141 108.031 71.4554 108.031H69.0596C69.7183 108.031 70.2575 107.491 70.2575 106.832V104.435C70.2575 103.776 69.7183 103.237 69.0596 103.237H71.4554C72.1143 103.237 72.6532 103.776 72.6532 104.435Z" fill="#171C23"/>
<path d="M63.0703 88.8547V97.2437C63.0703 97.9028 62.5312 98.4421 61.8725 98.4421H35.521C34.8623 98.4421 34.3232 97.9028 34.3232 97.2437V88.8547C34.3232 88.1956 34.8623 87.6562 35.521 87.6562H61.8725C62.5314 87.6562 63.0703 88.1956 63.0703 88.8547Z" fill="#865058"/>
<path d="M58.2812 56.0181V59.4938C58.2812 61.1478 56.9397 62.4901 55.2864 62.4901H52.8906C54.5437 62.4901 55.8855 61.1478 55.8855 59.4938V56.0181H58.2812Z" fill="#501921"/>
<path d="M36.1203 51.1049H30.1314C13.5959 51.1049 0.186523 37.6883 0.186523 21.1438V10.9572C0.186523 9.63281 1.25861 8.5603 2.58211 8.5603H22.3458V13.354H4.9777V21.1438C4.9777 34.866 16.0095 46.0593 29.6703 46.305L36.1203 51.1049Z" fill="#865058"/>
<path d="M78.0427 3.76636V6.16321C78.0427 35.2853 64.9028 58.8946 48.6966 58.8946C32.4905 58.8946 19.3506 35.2855 19.3506 6.16321V3.76636H78.0427Z" fill="#865058"/>
<path d="M19.6217 13.3544H17.2259C17.1061 11.7783 17.0283 10.1784 16.9863 8.5603H19.3821C19.4241 10.1782 19.5019 11.7783 19.6217 13.3544Z" fill="#501921"/>
<path d="M33.3414 51.1051H30.9456C29.6099 49.6309 28.3401 47.965 27.1602 46.1311C27.9868 46.233 28.8191 46.287 29.6698 46.3049C30.8199 48.0727 32.0477 49.6788 33.3414 51.1051Z" fill="#501921"/>
<path d="M58.2799 56.0181V57.2165C55.2735 59.0801 52.0514 60.0928 48.6976 60.0928C45.3438 60.0928 42.1216 59.0801 39.1152 57.2165V56.0181C42.1216 57.8817 45.3438 58.8943 48.6976 58.8943C52.0514 58.8943 55.2735 57.8817 58.2799 56.0181Z" fill="#501921"/>
<path d="M78.0438 3.76636V6.16321C78.0438 34.3745 65.7123 57.4146 50.207 58.8288C65.2753 57.3967 70.857 34.3627 70.857 6.16321V3.76636H78.0438Z" fill="#501921"/>
<path d="M81.0385 3.16745C81.0385 3.99446 80.7031 4.74342 80.164 5.28864C79.619 5.82795 78.8705 6.16352 78.0439 6.16352H19.352C17.6991 6.16352 16.3574 4.82125 16.3574 3.16745C16.3574 2.34045 16.6928 1.59149 17.2319 1.04627C17.7769 0.506954 18.5254 0.171387 19.352 0.171387H78.0441C79.697 0.171387 81.0385 1.51366 81.0385 3.16745Z" fill="#865058"/>
<path d="M78.0427 6.16333C78.0427 6.96629 78.0307 7.76334 78.0127 8.56018H19.3805C19.3626 7.76313 19.3506 6.96629 19.3506 6.16333H78.0427Z" fill="#501921"/>
<path d="M81.0384 3.1677C81.0384 3.99477 80.703 4.7438 80.1639 5.28906C79.6188 5.82842 78.8702 6.16402 78.0436 6.16402H71.4551C72.2817 6.16402 73.0303 5.82842 73.5754 5.28906C74.1145 4.7438 74.4499 3.99456 74.4499 3.1677C74.4499 1.51377 73.1084 0.171387 71.4551 0.171387H78.0436C79.6969 0.171387 81.0384 1.51377 81.0384 3.1677Z" fill="#501921"/>
<path d="M63.0697 88.8549V97.2439C63.0697 97.903 62.5306 98.4423 61.8719 98.4423H38.0957C42.9348 98.3463 58.8775 97.3158 58.8775 87.6562H61.8721C62.5308 87.6565 63.0697 88.1958 63.0697 88.8549Z" fill="#501921"/>
<path d="M35.5215 94.2479V89.3452C35.5215 89.0743 35.7408 88.855 36.0114 88.855H46.7509C46.7509 88.855 38.2166 89.7539 35.5215 94.2479Z" fill="#A0616A"/>
<path d="M29.6816 89.4547V84.5519C29.6816 84.2811 29.901 84.0618 30.1716 84.0618H40.911C40.911 84.0618 32.3765 84.9605 29.6816 89.4547Z" fill="#4E5868"/>
<path d="M48.6966 57.0971C42.1925 57.0971 24.1537 43.369 21.9678 10.957H29.0826C30.8733 50.6135 48.6966 57.0971 48.6966 57.0971Z" fill="#A0616A"/>
<path d="M36.1201 80.4663C36.1201 80.4663 44.5047 75.0734 44.5047 67.2834V80.4663H36.1201Z" fill="#A0616A"/>
<path d="M20.5495 1.36914V3.16693H17.5547C17.5547 2.17807 18.3573 1.36914 19.3516 1.36914H20.5495Z" fill="#A0616A"/>
<path d="M79.8107 8.55957C79.7687 10.1776 79.6908 11.7776 79.5651 13.3537H74.4502L75.0492 8.55957H79.8107Z" fill="#501921"/>
<path d="M69.5938 46.2031C68.4199 48.0068 67.168 49.6489 65.8503 51.1052H63.0713L65.1916 48.924L67.7251 46.3052C68.3541 46.293 68.977 46.2571 69.5938 46.2031Z" fill="#501921"/>
<path d="M17.5036 135.095V124.37H21.9339C22.7369 124.37 23.4299 124.515 24.0129 124.805C24.5994 125.091 25.0516 125.503 25.3693 126.041C25.6869 126.575 25.8458 127.208 25.8458 127.942C25.8458 128.685 25.6835 129.317 25.3588 129.837C25.0341 130.354 24.5733 130.748 23.9763 131.021C23.3793 131.29 22.6723 131.424 21.8554 131.424H19.0537V129.382H21.3736C21.7646 129.382 22.091 129.331 22.3529 129.23C22.6182 129.125 22.8189 128.968 22.9551 128.758C23.0912 128.545 23.1593 128.273 23.1593 127.942C23.1593 127.61 23.0912 127.336 22.9551 127.119C22.8189 126.899 22.6182 126.735 22.3529 126.627C22.0875 126.515 21.7611 126.46 21.3736 126.46H20.0958V135.095H17.5036ZM23.5416 130.193L26.2124 135.095H23.3845L20.7661 130.193H23.5416ZM34.2901 129.507L31.9388 129.57C31.9144 129.403 31.848 129.254 31.7398 129.125C31.6316 128.992 31.4902 128.889 31.3156 128.816C31.1446 128.739 30.9456 128.701 30.7186 128.701C30.4219 128.701 30.1688 128.76 29.9593 128.879C29.7533 128.998 29.6521 129.158 29.6556 129.361C29.6521 129.518 29.7149 129.654 29.8441 129.769C29.9768 129.884 30.2124 129.977 30.5511 130.047L32.1011 130.34C32.9041 130.494 33.5011 130.748 33.8921 131.105C34.2866 131.461 34.4856 131.932 34.4891 132.518C34.4856 133.07 34.3215 133.55 33.9969 133.959C33.6757 134.367 33.2358 134.685 32.6772 134.912C32.1186 135.135 31.4797 135.247 30.7605 135.247C29.6119 135.247 28.706 135.011 28.0426 134.54C27.3828 134.065 27.0057 133.43 26.9115 132.634L29.4409 132.571C29.4967 132.864 29.6416 133.088 29.8755 133.241C30.1094 133.395 30.4079 133.472 30.771 133.472C31.0992 133.472 31.3663 133.41 31.5722 133.288C31.7782 133.166 31.8829 133.004 31.8864 132.801C31.8829 132.62 31.8026 132.475 31.6455 132.367C31.4884 132.255 31.2423 132.168 30.9072 132.105L29.5037 131.838C28.6972 131.691 28.0967 131.42 27.7022 131.026C27.3077 130.628 27.1122 130.122 27.1157 129.507C27.1122 128.97 27.2554 128.511 27.5451 128.13C27.8349 127.746 28.2469 127.453 28.781 127.25C29.3152 127.048 29.9453 126.947 30.6715 126.947C31.7608 126.947 32.6196 127.175 33.248 127.633C33.8764 128.086 34.2238 128.711 34.2901 129.507ZM37.19 135.247C36.813 135.247 36.49 135.114 36.2212 134.849C35.9559 134.584 35.8249 134.262 35.8284 133.885C35.8249 133.515 35.9559 133.199 36.2212 132.937C36.49 132.672 36.813 132.539 37.19 132.539C37.5461 132.539 37.8603 132.672 38.1326 132.937C38.4084 133.199 38.5481 133.515 38.5516 133.885C38.5481 134.137 38.4817 134.365 38.3526 134.571C38.2269 134.777 38.0611 134.941 37.8551 135.064C37.6526 135.186 37.4309 135.247 37.19 135.247ZM46.793 135.242C45.976 135.242 45.2516 135.102 44.6197 134.823C43.9913 134.54 43.4955 134.151 43.1324 133.655C42.7694 133.159 42.5843 132.588 42.5773 131.942H45.1853C45.1957 132.176 45.2708 132.384 45.4105 132.566C45.5501 132.744 45.7404 132.883 45.9813 132.985C46.2222 133.086 46.4962 133.136 46.8034 133.136C47.1107 133.136 47.3812 133.082 47.6151 132.974C47.8525 132.862 48.0376 132.71 48.1702 132.518C48.3029 132.323 48.3675 132.1 48.364 131.848C48.3675 131.597 48.2959 131.373 48.1493 131.178C48.0027 130.982 47.7949 130.83 47.5261 130.722C47.2608 130.614 46.9466 130.56 46.5835 130.56H45.5414V128.717H46.5835C46.9012 128.717 47.1805 128.664 47.4214 128.559C47.6658 128.455 47.856 128.308 47.9922 128.12C48.1283 127.928 48.1947 127.708 48.1912 127.46C48.1947 127.219 48.1371 127.008 48.0184 126.826C47.9032 126.641 47.7408 126.498 47.5314 126.397C47.3254 126.295 47.0862 126.245 46.8139 126.245C46.5276 126.245 46.2675 126.295 46.0336 126.397C45.8032 126.498 45.6199 126.641 45.4838 126.826C45.3476 127.011 45.276 127.226 45.2691 127.47H42.7921C42.799 126.831 42.9771 126.269 43.3262 125.784C43.6753 125.295 44.1501 124.913 44.7506 124.637C45.3546 124.361 46.0424 124.223 46.8139 124.223C47.582 124.223 48.2575 124.358 48.8406 124.627C49.4236 124.895 49.8774 125.262 50.2021 125.726C50.5268 126.187 50.6891 126.709 50.6891 127.292C50.6926 127.896 50.4954 128.394 50.0974 128.785C49.7029 129.176 49.1949 129.417 48.5735 129.507V129.591C49.4044 129.689 50.031 129.958 50.4535 130.398C50.8794 130.837 51.0906 131.387 51.0871 132.047C51.0871 132.669 50.9038 133.22 50.5373 133.702C50.1742 134.18 49.668 134.557 49.0186 134.833C48.3727 135.105 47.6309 135.242 46.793 135.242ZM56.9851 135.357C56.0494 135.357 55.243 135.135 54.5657 134.692C53.8884 134.245 53.3664 133.604 52.9999 132.77C52.6333 131.932 52.4518 130.925 52.4552 129.748C52.4587 128.572 52.642 127.573 53.0051 126.753C53.3717 125.929 53.8919 125.302 54.5657 124.873C55.243 124.44 56.0494 124.223 56.9851 124.223C57.9207 124.223 58.7272 124.44 59.4045 124.873C60.0853 125.302 60.6089 125.929 60.9755 126.753C61.3421 127.577 61.5236 128.575 61.5201 129.748C61.5201 130.928 61.3368 131.937 60.9703 132.775C60.6037 133.613 60.0818 134.254 59.4045 134.697C58.7307 135.137 57.9242 135.357 56.9851 135.357ZM56.9851 133.236C57.5437 133.236 57.9958 132.951 58.3414 132.382C58.687 131.81 58.8581 130.932 58.8546 129.748C58.8546 128.973 58.7761 128.334 58.619 127.832C58.4618 127.325 58.2436 126.948 57.9644 126.7C57.6851 126.453 57.3586 126.329 56.9851 126.329C56.43 126.329 55.9814 126.61 55.6392 127.172C55.2971 127.73 55.1243 128.589 55.1208 129.748C55.1173 130.534 55.1923 131.185 55.346 131.702C55.5031 132.218 55.723 132.604 56.0058 132.859C56.2886 133.11 56.615 133.236 56.9851 133.236ZM67.4403 135.357C66.5047 135.357 65.6982 135.135 65.0209 134.692C64.3436 134.245 63.8217 133.604 63.4551 132.77C63.0886 131.932 62.907 130.925 62.9105 129.748C62.914 128.572 63.0973 127.573 63.4604 126.753C63.8269 125.929 64.3471 125.302 65.0209 124.873C65.6982 124.44 66.5047 124.223 67.4403 124.223C68.376 124.223 69.1824 124.44 69.8597 124.873C70.5405 125.302 71.0642 125.929 71.4308 126.753C71.7973 127.577 71.9789 128.575 71.9754 129.748C71.9754 130.928 71.7921 131.937 71.4255 132.775C71.0589 133.613 70.537 134.254 69.8597 134.697C69.1859 135.137 68.3795 135.357 67.4403 135.357ZM67.4403 133.236C67.9989 133.236 68.451 132.951 68.7967 132.382C69.1423 131.81 69.3134 130.932 69.3099 129.748C69.3099 128.973 69.2313 128.334 69.0742 127.832C68.9171 127.325 68.6989 126.948 68.4196 126.7C68.1403 126.453 67.8139 126.329 67.4403 126.329C66.8852 126.329 66.4366 126.61 66.0945 127.172C65.7523 127.73 65.5795 128.589 65.576 129.748C65.5725 130.534 65.6476 131.185 65.8012 131.702C65.9583 132.218 66.1783 132.604 66.461 132.859C66.7438 133.11 67.0703 133.236 67.4403 133.236ZM77.8956 135.357C76.9599 135.357 76.1535 135.135 75.4762 134.692C74.7989 134.245 74.277 133.604 73.9104 132.77C73.5438 131.932 73.3623 130.925 73.3658 129.748C73.3692 128.572 73.5525 127.573 73.9156 126.753C74.2822 125.929 74.8024 125.302 75.4762 124.873C76.1535 124.44 76.9599 124.223 77.8956 124.223C78.8312 124.223 79.6377 124.44 80.315 124.873C80.9958 125.302 81.5194 125.929 81.886 126.753C82.2526 127.577 82.4341 128.575 82.4306 129.748C82.4306 130.928 82.2474 131.937 81.8808 132.775C81.5142 133.613 80.9923 134.254 80.315 134.697C79.6412 135.137 78.8347 135.357 77.8956 135.357ZM77.8956 133.236C78.4542 133.236 78.9063 132.951 79.2519 132.382C79.5975 131.81 79.7686 130.932 79.7651 129.748C79.7651 128.973 79.6866 128.334 79.5295 127.832C79.3724 127.325 79.1542 126.948 78.8749 126.7C78.5956 126.453 78.2691 126.329 77.8956 126.329C77.3405 126.329 76.8919 126.61 76.5497 127.172C76.2076 127.73 76.0348 128.589 76.0313 129.748C76.0278 130.534 76.1029 131.185 76.2565 131.702C76.4136 132.218 76.6335 132.604 76.9163 132.859C77.1991 133.11 77.5255 133.236 77.8956 133.236Z" fill="#865058"/>
</svg>
